<?xml version="1.0" encoding="utf-8"?>
<!-- Generator: Adobe Illustrator 27.8.0, SVG Export Plug-In . SVG Version: 6.00 Build 0)  -->
<svg version="1.1" id="Calque_1" xmlns="http://www.w3.org/2000/svg" xmlns:xlink="http://www.w3.org/1999/xlink" x="0px" y="0px"
	 viewBox="0 0 513.7 483.6" style="enable-background:new 0 0 513.7 483.6;" xml:space="preserve">
<style type="text/css">
	.st0{fill:#47A8B9;}
	.st1{fill:#FFFFFF;}
</style>
<g>
	<circle class="st0" cx="258.8" cy="240.7" r="222"/>
	<g>
		<path class="st1" d="M344.6,313.8c-9.7-5.1-21.7-1.3-26.8,8.4c-11.2,21.5-33.2,34.8-57.4,34.8c-35.7,0-64.7-29-64.7-64.7
			s29-64.7,64.7-64.7c27.2,0,51.7,17.2,60.9,42.8c3.7,10.3,15.1,15.7,25.4,12c10.3-3.7,15.7-15.1,12-25.4
			c-9.8-27.4-30.5-48.7-56.1-60.1l42.1-109.6c3.9-10.2-1.2-21.7-11.4-25.6c-10.2-3.9-21.7,1.2-25.6,11.4l-44.2,115
			c-1.1,0-2.1-0.1-3.2-0.1c-2.6,0-5.1,0.2-7.7,0.4l31.5-82.1c3.9-10.2-1.2-21.7-11.4-25.6c-10.2-3.9-21.7,1.2-25.6,11.4l-43.2,112.6
			c-5.5,3.6-10.7,7.6-15.4,12.1l31.1-81c3.9-10.2-1.2-21.7-11.4-25.6c-10.2-3.9-21.7,1.2-25.6,11.4l-28,72.9l-0.1-0.1
			c0,0-29.3,68.3-31.1,91.3c-1.5,19.5,3.4,30.6,11.8,41.8c8.8,11.8,37.4,49.4,96.7,65.4c6,1.6,12.1,2.9,18.4,3.5c0,0,0.1,0,0.1,0
			c0,0,0,0,0,0c3.3,0.3,6.6,0.5,10,0.5c39,0,74.5-21.5,92.6-56.2C358,330.9,354.3,318.9,344.6,313.8z"/>
		<circle class="st1" cx="260.7" cy="292.3" r="36.9"/>
	</g>
</g>
</svg>
