<svg width="43" height="38" viewBox="0 0 43 38" fill="none" xmlns="http://www.w3.org/2000/svg">
<rect width="43" height="38" rx="5" fill="#EE5F36"/>
<path d="M22.1487 10.9933L17.9137 14.6666C17.2094 15.2757 17.0738 16.3721 17.6075 17.1545C18.1719 17.9885 19.27 18.1525 20.0269 17.52L24.3713 13.9029C24.6775 13.6499 25.115 13.7061 25.3556 14.0341C25.5963 14.362 25.5394 14.8306 25.2331 15.0883L24.3188 15.8473L32.0713 23.4938H33.9C35.0594 23.4938 36 22.4864 36 21.2448V15.2476C36 14.006 35.0594 12.9986 33.9 12.9986H30.575H30.4H30.3694L30.1987 12.8815L27.0225 10.7028C26.3531 10.2436 25.57 10 24.7738 10C23.82 10 22.8925 10.3514 22.1487 10.9933ZM23.1463 16.8218L20.8844 18.7053C19.5062 19.8579 17.5069 19.5581 16.4744 18.04C15.5031 16.611 15.7481 14.6151 17.03 13.5046L20.67 10.3514C20.1625 10.1218 19.6156 10.0047 19.06 10.0047C18.2375 10 17.4369 10.2624 16.75 10.7497L13.6 12.9986H10.1C8.94063 12.9986 8 14.006 8 15.2476V21.2448C8 22.4864 8.94063 23.4938 10.1 23.4938H14.8337L18.8325 27.4013C19.69 28.24 21.0156 28.1744 21.7987 27.2561C22.0394 26.9703 22.2013 26.6376 22.2844 26.2909L23.0281 27.0218C23.8812 27.8605 25.2112 27.7996 25.9944 26.8859C26.1912 26.6564 26.3356 26.3893 26.4275 26.1129C27.2763 26.7219 28.4312 26.5954 29.1444 25.7615C29.9275 24.8478 29.8706 23.4235 29.0175 22.5848L23.1463 16.8218Z" fill="white"/>
</svg>
