<svg width="43" height="38" viewBox="0 0 43 38" fill="none" xmlns="http://www.w3.org/2000/svg">
<rect width="43" height="38" rx="5" fill="#EE5F36"/>
<path d="M16 6C14.3453 6 13 7.46693 13 9.27121V28.8985C13 30.7028 14.3453 32.1697 16 32.1697H28C29.6547 32.1697 31 30.7028 31 28.8985V14.178H25C24.1703 14.178 23.5 13.4471 23.5 12.5424V6H16ZM25 6V12.5424H31L25 6ZM18.25 19.0849H25.75C26.1625 19.0849 26.5 19.4529 26.5 19.9027C26.5 20.3524 26.1625 20.7205 25.75 20.7205H18.25C17.8375 20.7205 17.5 20.3524 17.5 19.9027C17.5 19.4529 17.8375 19.0849 18.25 19.0849ZM18.25 22.3561H25.75C26.1625 22.3561 26.5 22.7241 26.5 23.1739C26.5 23.6237 26.1625 23.9917 25.75 23.9917H18.25C17.8375 23.9917 17.5 23.6237 17.5 23.1739C17.5 22.7241 17.8375 22.3561 18.25 22.3561ZM18.25 25.6273H25.75C26.1625 25.6273 26.5 25.9953 26.5 26.4451C26.5 26.8949 26.1625 27.2629 25.75 27.2629H18.25C17.8375 27.2629 17.5 26.8949 17.5 26.4451C17.5 25.9953 17.8375 25.6273 18.25 25.6273Z" fill="white"/>
</svg>
