<svg width="43" height="38" viewBox="0 0 43 38" fill="none" xmlns="http://www.w3.org/2000/svg">
<rect width="43" height="38" rx="5" fill="#EE5F36"/>
<g clip-path="url(#clip0_29_271)">
<path d="M16.775 23.125C21.6223 23.125 25.55 19.7391 25.55 15.5625C25.55 11.3859 21.6223 8 16.775 8C11.9276 8 7.99997 11.3859 7.99997 15.5625C7.99997 17.2211 8.62013 18.7551 9.6706 20.0055C9.52294 20.4094 9.30357 20.766 9.07154 21.0668C8.86904 21.3332 8.66232 21.5395 8.51044 21.6812C8.4345 21.75 8.37122 21.8059 8.32904 21.8402C8.30794 21.8574 8.29107 21.8703 8.28263 21.8746L8.27419 21.8832C8.04216 22.0594 7.94091 22.3687 8.03372 22.648C8.12654 22.9273 8.38388 23.125 8.67497 23.125C9.59466 23.125 10.5228 22.8844 11.2948 22.5879C11.6829 22.4375 12.0458 22.2699 12.3622 22.098C13.6573 22.7512 15.1634 23.125 16.775 23.125ZM26.9 15.5625C26.9 20.3879 22.7192 24.023 17.7664 24.457C18.7915 27.6539 22.1918 30 26.225 30C27.8365 30 29.3426 29.6262 30.642 28.973C30.9584 29.1449 31.317 29.3125 31.7051 29.4629C32.4772 29.7594 33.4053 30 34.325 30C34.6161 30 34.8776 29.8066 34.9662 29.523C35.0548 29.2395 34.9578 28.9301 34.7215 28.7539L34.7131 28.7453C34.7047 28.7367 34.6878 28.7281 34.6667 28.7109C34.6245 28.6766 34.5612 28.625 34.4853 28.552C34.3334 28.4102 34.1267 28.2039 33.9242 27.9375C33.6922 27.6367 33.4728 27.2758 33.3251 26.8762C34.3756 25.6301 34.9958 24.0961 34.9958 22.4332C34.9958 18.4457 31.414 15.1758 26.8704 14.8922C26.8873 15.1113 26.8958 15.3348 26.8958 15.5582L26.9 15.5625Z" fill="white"/>
</g>
<defs>
<clipPath id="clip0_29_271">
<rect width="27" height="22" fill="white" transform="translate(8 8)"/>
</clipPath>
</defs>
</svg>
