<svg viewBox="0 0 27 19" fill="none" xmlns="http://www.w3.org/2000/svg">
<path d="M25.79 3.66889C25.4909 2.57357 24.6099 1.71094 23.4913 1.41819C21.4637 0.88623 13.3333 0.88623 13.3333 0.88623C13.3333 0.88623 5.20287 0.88623 3.17522 1.41819C2.05659 1.71098 1.17557 2.57357 0.876547 3.66889C0.333252 5.65422 0.333252 9.79642 0.333252 9.79642C0.333252 9.79642 0.333252 13.9386 0.876547 15.9239C1.17557 17.0193 2.05659 17.846 3.17522 18.1387C5.20287 18.6707 13.3333 18.6707 13.3333 18.6707C13.3333 18.6707 21.4636 18.6707 23.4913 18.1387C24.6099 17.846 25.4909 17.0193 25.79 15.9239C26.3333 13.9386 26.3333 9.79642 26.3333 9.79642C26.3333 9.79642 26.3333 5.65422 25.79 3.66889ZM10.6741 13.5572V6.03561L17.4696 9.79651L10.6741 13.5572Z" fill="white"/>
</svg>
