<svg width="6" height="6" viewBox="0 0 6 6" fill="none" xmlns="http://www.w3.org/2000/svg">
  <path d="M1.28571 0.375V0.75H0.642857C0.287946 0.75 0 1.00195 0 1.3125V1.875H6V1.3125C6 1.00195 5.71205 0.75 5.35714 0.75H4.71429V0.375C4.71429 0.167578 4.52277 0 4.28571 0C4.04866 0 3.85714 0.167578 3.85714 0.375V0.75H2.14286V0.375C2.14286 0.167578 1.95134 0 1.71429 0C1.47723 0 1.28571 0.167578 1.28571 0.375ZM6 2.25H0V5.4375C0 5.74805 0.287946 6 0.642857 6H5.35714C5.71205 6 6 5.74805 6 5.4375V2.25Z" fill="#EE5F36"/>
</svg>
