<svg width="6" height="6" viewBox="0 0 6 6" fill="none" xmlns="http://www.w3.org/2000/svg">
  <path d="M1.58437 1.37578L1.27852 2.25H4.72148L4.41562 1.37578C4.36289 1.22578 4.22109 1.125 4.06172 1.125H1.93828C1.77891 1.125 1.63711 1.22578 1.58437 1.37578ZM0.464062 2.30625L0.876563 1.12852C1.03477 0.677344 1.46016 0.375 1.93828 0.375H4.06172C4.53984 0.375 4.96523 0.677344 5.12344 1.12852L5.53594 2.30625C5.80781 2.41875 6 2.68711 6 3V4.6875V5.25C6 5.45742 5.83242 5.625 5.625 5.625H5.25C5.04258 5.625 4.875 5.45742 4.875 5.25V4.6875H1.125V5.25C1.125 5.45742 0.957422 5.625 0.75 5.625H0.375C0.167578 5.625 0 5.45742 0 5.25V4.6875V3C0 2.68711 0.192187 2.41875 0.464062 2.30625ZM1.5 3.375C1.5 3.16758 1.33242 3 1.125 3C0.917578 3 0.75 3.16758 0.75 3.375C0.75 3.58242 0.917578 3.75 1.125 3.75C1.33242 3.75 1.5 3.58242 1.5 3.375ZM4.875 3.75C5.08242 3.75 5.25 3.58242 5.25 3.375C5.25 3.16758 5.08242 3 4.875 3C4.66758 3 4.5 3.16758 4.5 3.375C4.5 3.58242 4.66758 3.75 4.875 3.75Z" fill="#EE5F36"/>
</svg>
