<svg width="26" height="16" viewBox="0 0 26 16" fill="none" xmlns="http://www.w3.org/2000/svg">
<path d="M12.8139 0.328434C12.2407 0.333051 11.6916 0.560535 11.283 0.962869L0.691778 11.5541C0.27652 11.9675 0.0425663 12.5287 0.041338 13.1145C0.0401058 13.7003 0.271593 14.2627 0.6847 14.6777C1.09811 15.0929 1.65927 15.3269 2.2451 15.3281C2.83093 15.3294 3.39327 15.0979 3.80825 14.6848L12.8408 5.65224L21.8733 14.6848H21.8736C22.4326 15.2413 23.2465 15.4574 24.0081 15.2515C24.77 15.0455 25.3641 14.4489 25.5666 13.6865C25.7691 12.9237 25.5493 12.1111 24.99 11.5541L14.3988 0.962886C13.9767 0.547013 13.4051 0.318292 12.8128 0.328449L12.8139 0.328434Z" fill="white"/>
</svg>
