<svg width="6" height="8" viewBox="0 0 6 8" fill="none" xmlns="http://www.w3.org/2000/svg">
  <path d="M1 0C0.448438 0 0 0.448438 0 1V7C0 7.55156 0.448438 8 1 8H5C5.55156 8 6 7.55156 6 7V2.5H4C3.72344 2.5 3.5 2.27656 3.5 2V0H1ZM4 0V2H6L4 0ZM1.75 4H4.25C4.3875 4 4.5 4.1125 4.5 4.25C4.5 4.3875 4.3875 4.5 4.25 4.5H1.75C1.6125 4.5 1.5 4.3875 1.5 4.25C1.5 4.1125 1.6125 4 1.75 4ZM1.75 5H4.25C4.3875 5 4.5 5.1125 4.5 5.25C4.5 5.3875 4.3875 5.5 4.25 5.5H1.75C1.6125 5.5 1.5 5.3875 1.5 5.25C1.5 5.1125 1.6125 5 1.75 5ZM1.75 6H4.25C4.3875 6 4.5 6.1125 4.5 6.25C4.5 6.3875 4.3875 6.5 4.25 6.5H1.75C1.6125 6.5 1.5 6.3875 1.5 6.25C1.5 6.1125 1.6125 6 1.75 6Z" fill="#EE5F36"/>
</svg>
