<svg width="6" height="6" viewBox="0 0 6 6" fill="none" xmlns="http://www.w3.org/2000/svg">
  <path d="M3.00012 5.25C4.65715 5.25 6.00012 4.15898 6.00012 2.8125C6.00012 1.46602 4.65715 0.375 3.00012 0.375C1.34309 0.375 0.000120552 1.46602 0.000120552 2.8125C0.000120552 3.34102 0.207542 3.82969 0.559105 4.2293C0.536839 4.51641 0.425511 4.77187 0.308324 4.96641C0.243871 5.07422 0.178246 5.16094 0.130199 5.21953C0.105589 5.24883 0.0868393 5.27109 0.0727768 5.28633C0.0657455 5.29336 0.061058 5.29922 0.0575424 5.30273L0.0540268 5.30625C0.000120552 5.36016 -0.0151138 5.43984 0.0141831 5.51016C0.0434799 5.58047 0.111449 5.62617 0.187621 5.62617C0.523949 5.62617 0.86262 5.52187 1.14387 5.4C1.41223 5.28281 1.64075 5.14336 1.7802 5.04141C2.15285 5.17617 2.56535 5.25117 3.00012 5.25117V5.25ZM1.50012 3.1875C1.2927 3.1875 1.12512 3.01992 1.12512 2.8125C1.12512 2.60508 1.2927 2.4375 1.50012 2.4375C1.70754 2.4375 1.87512 2.60508 1.87512 2.8125C1.87512 3.01992 1.70754 3.1875 1.50012 3.1875ZM3.00012 3.1875C2.7927 3.1875 2.62512 3.01992 2.62512 2.8125C2.62512 2.60508 2.7927 2.4375 3.00012 2.4375C3.20754 2.4375 3.37512 2.60508 3.37512 2.8125C3.37512 3.01992 3.20754 3.1875 3.00012 3.1875ZM4.87512 2.8125C4.87512 3.01992 4.70754 3.1875 4.50012 3.1875C4.2927 3.1875 4.12512 3.01992 4.12512 2.8125C4.12512 2.60508 4.2927 2.4375 4.50012 2.4375C4.70754 2.4375 4.87512 2.60508 4.87512 2.8125Z" fill="#EE5F36"/>
</svg>
