<svg width="13" height="15" viewBox="0 0 13 15" fill="none" xmlns="http://www.w3.org/2000/svg">
  <path
    d="M3.74739 0.518555L3.54783 0.9375H0.886957C0.396359 0.9375 0 1.35645 0 1.875C0 2.39355 0.396359 2.8125 0.886957 2.8125H11.5304C12.021 2.8125 12.4174 2.39355 12.4174 1.875C12.4174 1.35645 12.021 0.9375 11.5304 0.9375H8.86957L8.67 0.518555C8.52033 0.199219 8.21266 0 7.87728 0H4.54011C4.20473 0 3.89707 0.199219 3.74739 0.518555ZM11.5304 3.75H0.886957L1.47457 13.6816C1.51891 14.4229 2.10098 15 2.80223 15H9.61516C10.3164 15 10.8985 14.4229 10.9428 13.6816L11.5304 3.75Z"
    fill="#605F5F"/>
</svg>
