<svg width="6" height="6" viewBox="0 0 6 6" fill="none" xmlns="http://www.w3.org/2000/svg">
  <path d="M3.24688 5.88765C3.78125 5.25907 5 3.73559 5 2.87986C5 1.84202 4.10417 1 3 1C1.89583 1 1 1.84202 1 2.87986C1 3.73559 2.21875 5.25907 2.75313 5.88765C2.88125 6.03745 3.11875 6.03745 3.24688 5.88765ZM3 2.25324C3.17681 2.25324 3.34638 2.31926 3.4714 2.43678C3.59643 2.55429 3.66667 2.71367 3.66667 2.87986C3.66667 3.04606 3.59643 3.20544 3.4714 3.32295C3.34638 3.44047 3.17681 3.50649 3 3.50649C2.82319 3.50649 2.65362 3.44047 2.5286 3.32295C2.40357 3.20544 2.33333 3.04606 2.33333 2.87986C2.33333 2.71367 2.40357 2.55429 2.5286 2.43678C2.65362 2.31926 2.82319 2.25324 3 2.25324Z" fill="#F55F24"/>
</svg>
