<svg width="17" height="13" viewBox="0 0 17 13" fill="none" xmlns="http://www.w3.org/2000/svg">
  <path
    d="M1.59375 0.125C0.713867 0.125 0 0.838867 0 1.71875C0 2.22012 0.235742 2.6916 0.6375 2.99375L7.8625 8.4125C8.24102 8.69473 8.75898 8.69473 9.1375 8.4125L16.3625 2.99375C16.7643 2.6916 17 2.22012 17 1.71875C17 0.838867 16.2861 0.125 15.4062 0.125H1.59375ZM0 3.84375V10.75C0 11.9221 0.95293 12.875 2.125 12.875H14.875C16.0471 12.875 17 11.9221 17 10.75V3.84375L9.775 9.2625C9.01797 9.83027 7.98203 9.83027 7.225 9.2625L0 3.84375Z"
    fill="#605F5F"/>
</svg>
