<svg width="6" height="6" viewBox="0 0 6 6" fill="none" xmlns="http://www.w3.org/2000/svg">
  <path d="M1.93234 0.288533C1.84211 0.0705736 1.60423 -0.0454369 1.37689 0.0166697L0.345688 0.297907C0.141791 0.354155 0 0.539303 0 0.750231C0 3.64932 2.35068 6 5.24977 6C5.4607 6 5.64584 5.85821 5.70209 5.65431L5.98333 4.62311C6.04544 4.39577 5.92943 4.15789 5.71147 4.06766L4.58652 3.59893C4.39551 3.51925 4.17403 3.57433 4.04396 3.73487L3.57055 4.31257C2.74558 3.92236 2.07764 3.25442 1.68743 2.42945L2.26513 1.95721C2.42567 1.82597 2.48075 1.60566 2.40107 1.41466L1.93234 0.289705V0.288533Z" fill="#F55F24"/>
</svg>
