<svg width="10" height="8" viewBox="0 0 10 8" fill="none" xmlns="http://www.w3.org/2000/svg">
  <path d="M2.25788 0.027C2.83855 0.027 3.30221 0.248 3.64888 0.69C3.99555 1.14067 4.16888 1.68233 4.16888 2.315C4.16888 3.37233 3.93055 4.317 3.45388 5.149C2.96855 5.98967 2.27088 6.72633 1.36088 7.359L0.840878 6.592C1.32621 6.21933 1.72055 5.825 2.02388 5.409C2.31855 4.993 2.46588 4.629 2.46588 4.317C2.46588 4.02233 2.36621 3.797 2.16688 3.641C1.96755 3.485 1.73788 3.342 1.47788 3.212C1.20921 3.082 0.975211 2.913 0.775878 2.705C0.576545 2.497 0.476878 2.19367 0.476878 1.795C0.476878 1.29233 0.645878 0.872001 0.983879 0.534C1.32188 0.196 1.74654 0.027 2.25788 0.027ZM7.30188 0.027C7.87388 0.027 8.33321 0.248 8.67988 0.69C9.02655 1.14067 9.19988 1.68233 9.19988 2.315C9.19988 3.37233 8.96155 4.317 8.48488 5.149C8.00821 5.98967 7.31488 6.72633 6.40488 7.359L5.88488 6.592C6.37021 6.21933 6.76455 5.825 7.06788 5.409C7.37121 4.993 7.52288 4.629 7.52288 4.317C7.52288 4.02233 7.42321 3.797 7.22388 3.641C7.01588 3.485 6.78188 3.342 6.52188 3.212C6.26188 3.082 6.03221 2.913 5.83288 2.705C5.62488 2.497 5.52088 2.19367 5.52088 1.795C5.52088 1.29233 5.68988 0.872001 6.02788 0.534C6.36588 0.196 6.79055 0.027 7.30188 0.027Z" fill="#EE5F36"/>
</svg>
