<svg width="14" height="14" viewBox="0 0 14 14" fill="none" xmlns="http://www.w3.org/2000/svg">
<path d="M13.3309 0.669151C12.9344 0.273183 12.3968 0.0507813 11.8364 0.0507812C11.276 0.0507813 10.7385 0.273183 10.3419 0.669151L0.854592 10.1565C0.582905 10.4266 0.367487 10.748 0.220799 11.1019C0.074112 11.4559 -0.000932153 11.8354 8.73905e-06 12.2186V13.4162C8.73905e-06 13.5709 0.0614669 13.7192 0.170863 13.8286C0.280259 13.938 0.428632 13.9995 0.583342 13.9995H1.78093C2.16404 14.0006 2.54356 13.9256 2.89752 13.7791C3.25148 13.6325 3.57284 13.4171 3.84301 13.1455L13.3309 3.65757C13.7267 3.26102 13.949 2.72363 13.949 2.16336C13.949 1.60309 13.7267 1.0657 13.3309 0.669151ZM3.01818 12.3207C2.68918 12.6475 2.24465 12.8315 1.78093 12.8328H1.16668V12.2186C1.16609 11.9887 1.2111 11.761 1.29911 11.5486C1.38713 11.3362 1.51639 11.1434 1.67943 10.9813L8.87951 3.78123L10.2212 5.1229L3.01818 12.3207ZM12.5055 2.83273L11.0437 4.29515L9.70201 2.9564L11.1644 1.49398C11.2525 1.40608 11.3571 1.33639 11.4721 1.28889C11.5871 1.24139 11.7104 1.21701 11.8348 1.21715C11.9593 1.21728 12.0825 1.24193 12.1974 1.28968C12.3123 1.33743 12.4167 1.40735 12.5046 1.49544C12.5925 1.58354 12.6622 1.68808 12.7097 1.80311C12.7572 1.91814 12.7816 2.0414 12.7815 2.16585C12.7813 2.2903 12.7567 2.4135 12.7089 2.52843C12.6612 2.64335 12.5913 2.74775 12.5032 2.83565L12.5055 2.83273Z" fill="#F55F24"/>
</svg>
