<svg width="696" height="193" viewBox="0 0 696 193" fill="none" xmlns="http://www.w3.org/2000/svg">
<path d="M510.1 192.9H445.3C426.6 192.9 411.2 177.6 411.2 158.8C411.2 140.1 426.5 124.7 445.3 124.7H510.1C528.8 124.7 544.2 140 544.2 158.8C544.1 177.6 528.8 192.9 510.1 192.9Z" fill="#47A2B3"/>
<path d="M451.446 145.241C452.668 145.241 453.807 145.594 454.865 146.299C455.946 147.004 456.815 147.955 457.473 149.154C458.131 150.352 458.46 151.692 458.46 153.172C458.46 154.629 458.131 155.956 457.473 157.155C456.815 158.353 455.946 159.317 454.865 160.045C453.807 160.75 452.668 161.102 451.446 161.102H444.961L445.313 160.468V167.764C445.313 168.375 445.125 168.892 444.749 169.315C444.373 169.714 443.88 169.914 443.269 169.914C442.681 169.914 442.2 169.714 441.824 169.315C441.448 168.892 441.26 168.375 441.26 167.764V147.391C441.26 146.781 441.459 146.275 441.859 145.876C442.282 145.453 442.799 145.241 443.41 145.241H451.446ZM451.446 157.084C451.892 157.084 452.327 156.896 452.75 156.52C453.173 156.144 453.526 155.663 453.807 155.075C454.089 154.464 454.23 153.83 454.23 153.172C454.23 152.49 454.089 151.856 453.807 151.269C453.526 150.681 453.173 150.211 452.75 149.859C452.327 149.483 451.892 149.295 451.446 149.295H444.89L445.313 148.66V157.648L444.925 157.084H451.446ZM465.035 169.914C464.377 169.914 463.79 169.714 463.273 169.315C462.756 168.892 462.497 168.375 462.497 167.764V147.391C462.497 146.781 462.697 146.275 463.096 145.876C463.519 145.453 464.036 145.241 464.647 145.241H474.798C476.02 145.241 477.16 145.57 478.217 146.228C479.298 146.863 480.167 147.756 480.825 148.907C481.483 150.035 481.812 151.339 481.812 152.819C481.812 153.712 481.624 154.582 481.248 155.428C480.896 156.274 480.402 157.037 479.768 157.719C479.157 158.4 478.464 158.929 477.688 159.305L477.724 158.494C478.382 158.847 478.922 159.27 479.345 159.763C479.791 160.233 480.132 160.75 480.367 161.314C480.626 161.854 480.778 162.442 480.825 163.076C480.919 163.664 480.978 164.181 481.002 164.627C481.049 165.074 481.119 165.449 481.213 165.755C481.331 166.06 481.542 166.295 481.848 166.46C482.364 166.765 482.682 167.212 482.799 167.799C482.94 168.363 482.811 168.868 482.411 169.315C482.153 169.62 481.824 169.82 481.425 169.914C481.025 169.985 480.626 169.985 480.226 169.914C479.827 169.82 479.498 169.703 479.239 169.562C478.84 169.327 478.44 168.986 478.041 168.539C477.641 168.069 477.312 167.447 477.054 166.671C476.819 165.896 476.702 164.897 476.702 163.675C476.702 163.276 476.631 162.912 476.49 162.583C476.349 162.23 476.149 161.937 475.891 161.702C475.632 161.443 475.303 161.255 474.904 161.138C474.505 160.997 474.035 160.926 473.494 160.926H466.374L466.903 160.116V167.764C466.903 168.375 466.739 168.892 466.41 169.315C466.081 169.714 465.622 169.914 465.035 169.914ZM466.41 157.296H474.622C475.045 157.296 475.456 157.108 475.856 156.732C476.255 156.332 476.584 155.804 476.843 155.146C477.101 154.464 477.23 153.724 477.23 152.925C477.23 151.891 476.948 151.034 476.384 150.352C475.844 149.647 475.256 149.295 474.622 149.295H466.48L466.903 148.167V158.142L466.41 157.296ZM509.049 157.578C509.049 159.34 508.756 160.985 508.168 162.512C507.581 164.04 506.747 165.391 505.666 166.566C504.608 167.717 503.339 168.622 501.859 169.28C500.402 169.938 498.804 170.267 497.066 170.267C495.327 170.267 493.729 169.938 492.272 169.28C490.815 168.622 489.546 167.717 488.465 166.566C487.408 165.391 486.586 164.04 485.998 162.512C485.411 160.985 485.117 159.34 485.117 157.578C485.117 155.815 485.411 154.171 485.998 152.643C486.586 151.116 487.408 149.777 488.465 148.625C489.546 147.45 490.815 146.534 492.272 145.876C493.729 145.218 495.327 144.889 497.066 144.889C498.804 144.889 500.402 145.218 501.859 145.876C503.339 146.534 504.608 147.45 505.666 148.625C506.747 149.777 507.581 151.116 508.168 152.643C508.756 154.171 509.049 155.815 509.049 157.578ZM504.467 157.578C504.467 156.003 504.15 154.582 503.516 153.313C502.881 152.021 502.012 150.998 500.907 150.246C499.803 149.495 498.522 149.119 497.066 149.119C495.609 149.119 494.328 149.495 493.224 150.246C492.119 150.998 491.25 152.009 490.615 153.278C490.004 154.547 489.699 155.98 489.699 157.578C489.699 159.152 490.004 160.585 490.615 161.878C491.25 163.147 492.119 164.157 493.224 164.909C494.328 165.661 495.609 166.037 497.066 166.037C498.522 166.037 499.803 165.661 500.907 164.909C502.012 164.157 502.881 163.147 503.516 161.878C504.15 160.585 504.467 159.152 504.467 157.578Z" fill="white"/>
<path d="M454.865 146.299L454.449 146.923L454.455 146.927L454.865 146.299ZM454.865 160.045L455.281 160.669L455.284 160.667L454.865 160.045ZM444.961 161.102L444.305 160.738L443.686 161.852H444.961V161.102ZM445.313 160.468H446.063V157.574L444.657 160.104L445.313 160.468ZM444.749 169.315L445.295 169.829L445.303 169.821L445.31 169.813L444.749 169.315ZM441.824 169.315L441.263 169.813L441.27 169.821L441.278 169.829L441.824 169.315ZM441.859 145.876L441.329 145.346L441.329 145.346L441.859 145.876ZM453.807 155.075L454.484 155.4L454.488 155.39L453.807 155.075ZM453.807 151.269L454.484 150.944L454.484 150.944L453.807 151.269ZM452.75 149.859L452.252 150.419L452.261 150.427L452.27 150.435L452.75 149.859ZM444.89 149.295L444.266 148.879L443.489 150.045H444.89V149.295ZM445.313 148.66H446.063V146.183L444.689 148.244L445.313 148.66ZM445.313 157.648L444.695 158.073L446.063 160.063V157.648H445.313ZM444.925 157.084V156.334H443.5L444.307 157.509L444.925 157.084ZM451.446 145.991C452.514 145.991 453.509 146.297 454.449 146.923L455.281 145.675C454.106 144.891 452.822 144.491 451.446 144.491V145.991ZM454.455 146.927C455.427 147.561 456.213 148.418 456.816 149.515L458.131 148.793C457.417 147.493 456.465 146.447 455.275 145.671L454.455 146.927ZM456.816 149.515C457.408 150.593 457.71 151.807 457.71 153.172H459.21C459.21 151.576 458.854 150.111 458.131 148.793L456.816 149.515ZM457.71 153.172C457.71 154.511 457.409 155.713 456.816 156.794L458.131 157.516C458.853 156.199 459.21 154.746 459.21 153.172H457.71ZM456.816 156.794C456.212 157.893 455.423 158.765 454.446 159.423L455.284 160.667C456.469 159.868 457.418 158.814 458.131 157.516L456.816 156.794ZM454.449 159.421C453.509 160.047 452.514 160.352 451.446 160.352V161.852C452.822 161.852 454.106 161.453 455.281 160.669L454.449 159.421ZM451.446 160.352H444.961V161.852H451.446V160.352ZM445.616 161.467L445.969 160.832L444.657 160.104L444.305 160.738L445.616 161.467ZM444.563 160.468V167.764H446.063V160.468H444.563ZM444.563 167.764C444.563 168.207 444.432 168.542 444.189 168.817L445.31 169.813C445.818 169.241 446.063 168.543 446.063 167.764H444.563ZM444.203 168.801C443.986 169.032 443.699 169.164 443.269 169.164V170.664C444.061 170.664 444.761 170.397 445.295 169.829L444.203 168.801ZM443.269 169.164C442.872 169.164 442.593 169.038 442.37 168.801L441.278 169.829C441.806 170.39 442.491 170.664 443.269 170.664V169.164ZM442.384 168.817C442.14 168.542 442.01 168.207 442.01 167.764H440.51C440.51 168.543 440.755 169.241 441.263 169.813L442.384 168.817ZM442.01 167.764V147.391H440.51V167.764H442.01ZM442.01 147.391C442.01 146.962 442.143 146.653 442.389 146.406L441.329 145.346C440.776 145.898 440.51 146.6 440.51 147.391H442.01ZM442.389 146.406C442.668 146.127 442.993 145.991 443.41 145.991V144.491C442.605 144.491 441.896 144.779 441.329 145.346L442.389 146.406ZM443.41 145.991H451.446V144.491H443.41V145.991ZM451.446 157.834C452.121 157.834 452.726 157.545 453.248 157.081L452.252 155.96C451.928 156.247 451.664 156.334 451.446 156.334V157.834ZM453.248 157.081C453.756 156.63 454.165 156.063 454.484 155.4L453.131 154.751C452.886 155.262 452.59 155.659 452.252 155.96L453.248 157.081ZM454.488 155.39C454.815 154.682 454.98 153.941 454.98 153.172H453.48C453.48 153.719 453.364 154.246 453.127 154.761L454.488 155.39ZM454.98 153.172C454.98 152.383 454.816 151.637 454.484 150.944L453.131 151.593C453.362 152.075 453.48 152.598 453.48 153.172H454.98ZM454.484 150.944C454.164 150.277 453.75 149.715 453.23 149.283L452.27 150.435C452.597 150.707 452.887 151.085 453.131 151.593L454.484 150.944ZM453.248 149.298C452.726 148.834 452.121 148.545 451.446 148.545V150.045C451.664 150.045 451.928 150.132 452.252 150.419L453.248 149.298ZM451.446 148.545H444.89V150.045H451.446V148.545ZM445.514 149.711L445.937 149.076L444.689 148.244L444.266 148.879L445.514 149.711ZM444.563 148.66V157.648H446.063V148.66H444.563ZM445.931 157.223L445.543 156.659L444.307 157.509L444.695 158.073L445.931 157.223ZM444.925 157.834H451.446V156.334H444.925V157.834ZM463.273 169.315L462.798 169.895L462.806 169.902L462.814 169.908L463.273 169.315ZM463.096 145.876L462.566 145.346L462.566 145.346L463.096 145.876ZM478.217 146.228L477.821 146.865L477.829 146.87L477.837 146.875L478.217 146.228ZM480.825 148.907L480.174 149.279L480.178 149.285L480.825 148.907ZM481.248 155.428L480.563 155.123L480.559 155.131L480.556 155.139L481.248 155.428ZM479.768 157.719L479.219 157.208L479.21 157.218L479.768 157.719ZM477.688 159.305L476.939 159.272L476.885 160.528L478.016 159.98L477.688 159.305ZM477.724 158.494L478.078 157.833L477.026 157.27L476.974 158.462L477.724 158.494ZM479.345 159.763L478.776 160.251L478.788 160.266L478.801 160.28L479.345 159.763ZM480.367 161.314L479.675 161.602L479.682 161.62L479.691 161.637L480.367 161.314ZM480.825 163.076L480.077 163.132L480.08 163.163L480.085 163.195L480.825 163.076ZM481.002 164.627L480.253 164.666L480.254 164.686L480.256 164.706L481.002 164.627ZM481.213 165.755L480.496 165.976L480.504 166L480.513 166.024L481.213 165.755ZM481.848 166.46L482.229 165.814L482.216 165.807L482.203 165.8L481.848 166.46ZM482.799 167.799L482.064 167.946L482.067 167.964L482.072 167.981L482.799 167.799ZM482.411 169.315L481.853 168.815L481.846 168.822L481.839 168.83L482.411 169.315ZM481.425 169.914L481.555 170.653L481.576 170.649L481.596 170.644L481.425 169.914ZM480.226 169.914L480.054 170.644L480.075 170.649L480.096 170.653L480.226 169.914ZM479.239 169.562L478.859 170.208L478.869 170.214L478.88 170.22L479.239 169.562ZM478.041 168.539L477.469 169.025L477.476 169.032L477.482 169.04L478.041 168.539ZM477.054 166.671L476.336 166.889L476.339 166.899L476.342 166.909L477.054 166.671ZM476.49 162.583L475.794 162.861L475.797 162.87L475.801 162.878L476.49 162.583ZM475.891 161.702L475.361 162.232L475.373 162.245L475.386 162.257L475.891 161.702ZM474.904 161.138L474.654 161.845L474.673 161.852L474.692 161.857L474.904 161.138ZM466.374 160.926L465.746 160.516L464.99 161.676H466.374V160.926ZM466.903 160.116H467.653V157.593L466.275 159.706L466.903 160.116ZM466.41 169.315L466.988 169.792L466.995 169.784L467.002 169.775L466.41 169.315ZM466.41 157.296V156.546H465.104L465.762 157.674L466.41 157.296ZM475.856 156.732L476.37 157.278L476.378 157.27L476.386 157.262L475.856 156.732ZM476.843 155.146L477.541 155.42L477.544 155.412L476.843 155.146ZM476.384 150.352L475.789 150.809L475.798 150.82L475.807 150.83L476.384 150.352ZM466.48 149.295L465.778 149.031L465.398 150.045H466.48V149.295ZM466.903 148.167H467.653V144.031L466.201 147.904L466.903 148.167ZM466.903 158.142L466.255 158.52L467.653 160.916V158.142H466.903ZM465.035 169.164C464.542 169.164 464.116 169.019 463.731 168.721L462.814 169.908C463.463 170.41 464.212 170.664 465.035 170.664V169.164ZM463.748 168.734C463.386 168.439 463.247 168.127 463.247 167.764H461.747C461.747 168.623 462.125 169.345 462.798 169.895L463.748 168.734ZM463.247 167.764V147.391H461.747V167.764H463.247ZM463.247 147.391C463.247 146.962 463.38 146.653 463.627 146.406L462.566 145.346C462.014 145.898 461.747 146.6 461.747 147.391H463.247ZM463.627 146.406C463.906 146.127 464.23 145.991 464.647 145.991V144.491C463.842 144.491 463.133 144.779 462.566 145.346L463.627 146.406ZM464.647 145.991H474.798V144.491H464.647V145.991ZM474.798 145.991C475.877 145.991 476.88 146.28 477.821 146.865L478.613 145.592C477.439 144.861 476.163 144.491 474.798 144.491V145.991ZM477.837 146.875C478.799 147.439 479.577 148.235 480.174 149.279L481.477 148.535C480.758 147.277 479.797 146.286 478.597 145.582L477.837 146.875ZM480.178 149.285C480.76 150.283 481.062 151.454 481.062 152.819H482.562C482.562 151.224 482.207 149.786 481.473 148.529L480.178 149.285ZM481.062 152.819C481.062 153.604 480.898 154.369 480.563 155.123L481.934 155.732C482.351 154.794 482.562 153.821 482.562 152.819H481.062ZM480.556 155.139C480.238 155.902 479.794 156.59 479.219 157.208L480.317 158.23C481.011 157.484 481.553 156.646 481.941 155.716L480.556 155.139ZM479.21 157.218C478.66 157.832 478.044 158.299 477.361 158.63L478.016 159.98C478.884 159.559 479.655 158.969 480.326 158.219L479.21 157.218ZM478.438 159.337L478.473 158.527L476.974 158.462L476.939 159.272L478.438 159.337ZM477.37 159.155C477.958 159.47 478.421 159.838 478.776 160.251L479.914 159.275C479.423 158.701 478.806 158.223 478.078 157.833L477.37 159.155ZM478.801 160.28C479.189 160.687 479.477 161.128 479.675 161.602L481.059 161.025C480.787 160.372 480.394 159.779 479.889 159.246L478.801 160.28ZM479.691 161.637C479.906 162.089 480.037 162.584 480.077 163.132L481.573 163.021C481.52 162.299 481.345 161.62 481.044 160.99L479.691 161.637ZM480.085 163.195C480.176 163.764 480.231 164.254 480.253 164.666L481.751 164.588C481.725 164.108 481.663 163.563 481.566 162.958L480.085 163.195ZM480.256 164.706C480.306 165.183 480.384 165.609 480.496 165.976L481.93 165.534C481.855 165.29 481.791 164.965 481.748 164.549L480.256 164.706ZM480.513 166.024C480.699 166.508 481.039 166.876 481.492 167.12L482.203 165.8C482.045 165.715 481.962 165.613 481.913 165.486L480.513 166.024ZM481.466 167.106C481.8 167.303 481.988 167.568 482.064 167.946L483.535 167.652C483.375 166.855 482.929 166.228 482.229 165.814L481.466 167.106ZM482.072 167.981C482.15 168.295 482.092 168.547 481.853 168.815L482.97 169.815C483.53 169.19 483.73 168.431 483.527 167.617L482.072 167.981ZM481.839 168.83C481.687 169.01 481.5 169.126 481.253 169.184L481.596 170.644C482.148 170.514 482.619 170.231 482.984 169.799L481.839 168.83ZM481.294 169.175C480.981 169.231 480.67 169.231 480.357 169.175L480.096 170.653C480.582 170.738 481.069 170.738 481.555 170.653L481.294 169.175ZM480.398 169.184C480.04 169.1 479.78 169.002 479.598 168.903L478.88 170.22C479.216 170.403 479.613 170.54 480.054 170.644L480.398 169.184ZM479.62 168.915C479.303 168.729 478.962 168.444 478.6 168.039L477.482 169.04C477.919 169.528 478.377 169.924 478.859 170.208L479.62 168.915ZM478.612 168.054C478.292 167.676 478.003 167.147 477.766 166.434L476.342 166.909C476.622 167.747 476.991 168.463 477.469 169.025L478.612 168.054ZM477.772 166.454C477.566 165.775 477.452 164.857 477.452 163.675H475.952C475.952 164.938 476.072 166.017 476.336 166.889L477.772 166.454ZM477.452 163.675C477.452 163.186 477.365 162.72 477.179 162.287L475.801 162.878C475.897 163.104 475.952 163.366 475.952 163.675H477.452ZM477.186 162.304C477.007 161.856 476.745 161.465 476.395 161.147L475.386 162.257C475.554 162.409 475.691 162.605 475.794 162.861L477.186 162.304ZM476.421 161.171C476.062 160.812 475.618 160.566 475.116 160.418L474.692 161.857C474.988 161.944 475.203 162.074 475.361 162.232L476.421 161.171ZM475.154 160.43C474.655 160.255 474.097 160.176 473.494 160.176V161.676C473.972 161.676 474.354 161.739 474.654 161.845L475.154 160.43ZM473.494 160.176H466.374V161.676H473.494V160.176ZM467.002 161.336L467.531 160.525L466.275 159.706L465.746 160.516L467.002 161.336ZM466.153 160.116V167.764H467.653V160.116H466.153ZM466.153 167.764C466.153 168.233 466.03 168.581 465.818 168.854L467.002 169.775C467.447 169.203 467.653 168.517 467.653 167.764H466.153ZM465.831 168.838C465.664 169.04 465.432 169.164 465.035 169.164V170.664C465.812 170.664 466.497 170.389 466.988 169.792L465.831 168.838ZM466.41 158.046H474.622V156.546H466.41V158.046ZM474.622 158.046C475.288 158.046 475.874 157.745 476.37 157.278L475.342 156.186C475.039 156.471 474.802 156.546 474.622 156.546V158.046ZM476.386 157.262C476.874 156.774 477.254 156.151 477.541 155.42L476.144 154.871C475.915 155.457 475.636 155.891 475.325 156.202L476.386 157.262ZM477.544 155.412C477.837 154.638 477.98 153.806 477.98 152.925H476.48C476.48 153.642 476.365 154.291 476.141 154.88L477.544 155.412ZM477.98 152.925C477.98 151.748 477.656 150.712 476.962 149.874L475.807 150.83C476.241 151.355 476.48 152.035 476.48 152.925H477.98ZM476.98 149.896C476.357 149.084 475.574 148.545 474.622 148.545V150.045C474.939 150.045 475.33 150.21 475.789 150.809L476.98 149.896ZM474.622 148.545H466.48V150.045H474.622V148.545ZM467.182 149.558L467.605 148.43L466.201 147.904L465.778 149.031L467.182 149.558ZM466.153 148.167V158.142H467.653V148.167H466.153ZM467.551 157.764L467.057 156.918L465.762 157.674L466.255 158.52L467.551 157.764ZM508.168 162.512L507.468 162.243L507.468 162.243L508.168 162.512ZM505.666 166.566L505.114 166.058L505.113 166.058L505.666 166.566ZM501.859 169.28L501.554 168.594L501.55 168.596L501.859 169.28ZM492.272 169.28L492.581 168.596L492.581 168.596L492.272 169.28ZM488.465 166.566L487.908 167.067L487.913 167.073L487.919 167.079L488.465 166.566ZM485.998 162.512L486.698 162.243L486.698 162.243L485.998 162.512ZM485.998 152.643L486.698 152.912L486.698 152.912L485.998 152.643ZM488.465 148.625L487.913 148.117L487.913 148.118L488.465 148.625ZM492.272 145.876L492.581 146.559L492.581 146.559L492.272 145.876ZM501.859 145.876L501.55 146.559L501.554 146.561L501.859 145.876ZM505.666 148.625L505.108 149.127L505.114 149.133L505.119 149.138L505.666 148.625ZM508.168 152.643L507.468 152.912L507.468 152.912L508.168 152.643ZM503.516 153.313L502.842 153.643L502.845 153.648L503.516 153.313ZM500.907 150.246L501.33 149.627L501.33 149.627L500.907 150.246ZM493.224 150.246L493.646 150.866L493.646 150.866L493.224 150.246ZM490.615 153.278L489.945 152.942L489.94 152.952L490.615 153.278ZM490.615 161.878L489.937 162.198L489.941 162.206L489.945 162.213L490.615 161.878ZM493.224 164.909L493.646 164.289L493.646 164.289L493.224 164.909ZM500.907 164.909L501.33 165.529L501.33 165.529L500.907 164.909ZM503.516 161.878L504.187 162.213L504.189 162.208L503.516 161.878ZM508.299 157.578C508.299 159.255 508.02 160.808 507.468 162.243L508.868 162.782C509.491 161.162 509.799 159.425 509.799 157.578H508.299ZM507.468 162.243C506.914 163.685 506.129 164.954 505.114 166.058L506.218 167.073C507.364 165.827 508.248 164.395 508.868 162.782L507.468 162.243ZM505.113 166.058C504.128 167.131 502.944 167.977 501.554 168.594L502.164 169.965C503.734 169.267 505.089 168.303 506.218 167.073L505.113 166.058ZM501.55 168.596C500.199 169.206 498.707 169.517 497.066 169.517V171.017C498.901 171.017 500.606 170.669 502.168 169.963L501.55 168.596ZM497.066 169.517C495.424 169.517 493.932 169.206 492.581 168.596L491.963 169.963C493.525 170.669 495.23 171.017 497.066 171.017V169.517ZM492.581 168.596C491.212 167.978 490.025 167.131 489.012 166.052L487.919 167.079C489.068 168.303 490.418 169.265 491.963 169.963L492.581 168.596ZM489.023 166.064C488.029 164.96 487.254 163.688 486.698 162.243L485.298 162.782C485.917 164.391 486.787 165.822 487.908 167.067L489.023 166.064ZM486.698 162.243C486.146 160.808 485.867 159.255 485.867 157.578H484.367C484.367 159.425 484.675 161.162 485.298 162.782L486.698 162.243ZM485.867 157.578C485.867 155.9 486.146 154.347 486.698 152.912L485.298 152.374C484.675 153.994 484.367 155.73 484.367 157.578H485.867ZM486.698 152.912C487.253 151.469 488.027 150.211 489.018 149.132L487.913 148.118C486.789 149.342 485.918 150.763 485.298 152.374L486.698 152.912ZM489.017 149.133C490.03 148.032 491.216 147.176 492.581 146.559L491.963 145.192C490.414 145.892 489.063 146.868 487.913 148.117L489.017 149.133ZM492.581 146.559C493.932 145.949 495.424 145.639 497.066 145.639V144.139C495.23 144.139 493.525 144.487 491.963 145.192L492.581 146.559ZM497.066 145.639C498.707 145.639 500.199 145.949 501.55 146.559L502.168 145.192C500.606 144.487 498.901 144.139 497.066 144.139V145.639ZM501.554 146.561C502.941 147.177 504.123 148.032 505.108 149.127L506.223 148.123C505.094 146.868 503.738 145.89 502.164 145.191L501.554 146.561ZM505.119 149.138C506.131 150.217 506.914 151.472 507.468 152.912L508.868 152.374C508.247 150.759 507.362 149.336 506.213 148.112L505.119 149.138ZM507.468 152.912C508.02 154.347 508.299 155.9 508.299 157.578H509.799C509.799 155.73 509.491 153.994 508.868 152.374L507.468 152.912ZM505.217 157.578C505.217 155.9 504.878 154.362 504.186 152.978L502.845 153.648C503.422 154.802 503.717 156.107 503.717 157.578H505.217ZM504.189 152.982C503.502 151.583 502.55 150.457 501.33 149.627L500.485 150.866C501.474 151.54 502.261 152.458 502.842 153.643L504.189 152.982ZM501.33 149.627C500.089 148.782 498.659 148.369 497.066 148.369V149.869C498.386 149.869 499.517 150.207 500.485 150.866L501.33 149.627ZM497.066 148.369C495.472 148.369 494.042 148.782 492.802 149.627L493.646 150.866C494.614 150.207 495.745 149.869 497.066 149.869V148.369ZM492.802 149.627C491.585 150.455 490.633 151.566 489.945 152.942L491.286 153.613C491.867 152.451 492.654 151.542 493.646 150.866L492.802 149.627ZM489.94 152.952C489.274 154.336 488.949 155.882 488.949 157.578H490.449C490.449 156.077 490.735 154.758 491.291 153.603L489.94 152.952ZM488.949 157.578C488.949 159.252 489.274 160.796 489.937 162.198L491.293 161.557C490.735 160.375 490.449 159.053 490.449 157.578H488.949ZM489.945 162.213C490.633 163.589 491.585 164.701 492.802 165.529L493.646 164.289C492.654 163.614 491.867 162.704 491.286 161.542L489.945 162.213ZM492.802 165.529C494.042 166.373 495.472 166.787 497.066 166.787V165.287C495.745 165.287 494.614 164.949 493.646 164.289L492.802 165.529ZM497.066 166.787C498.659 166.787 500.089 166.373 501.33 165.529L500.485 164.289C499.517 164.949 498.386 165.287 497.066 165.287V166.787ZM501.33 165.529C502.546 164.701 503.498 163.589 504.186 162.213L502.845 161.542C502.264 162.704 501.477 163.614 500.485 164.289L501.33 165.529ZM504.189 162.208C504.878 160.804 505.217 159.256 505.217 157.578H503.717C503.717 159.048 503.422 160.367 502.842 161.547L504.189 162.208Z" fill="white"/>
<path d="M379.9 97.4C363.2 97.4 349.7 83.8 349.7 67.2C349.7 50.5 363.3 37 379.9 37C396.6 37 410.1 50.6 410.1 67.2C410.1 83.8 396.6 97.4 379.9 97.4ZM379.9 46.6C368.5 46.6 359.3 55.8 359.3 67.2C359.3 78.6 368.5 87.8 379.9 87.8C391.3 87.8 400.5 78.6 400.5 67.2C400.5 55.8 391.3 46.6 379.9 46.6Z" fill="#222222"/>
<path d="M209 97.4999C192.3 97.4999 178.7 83.8999 178.7 67.1999C178.7 50.4999 192.3 36.8999 209 36.8999C225.7 36.8999 239.3 50.4999 239.3 67.1999C239.2 83.9999 225.6 97.4999 209 97.4999ZM209 46.5999C197.6 46.5999 188.4 55.8999 188.4 67.1999C188.4 78.5999 197.7 87.7999 209 87.7999C220.3 87.7999 229.6 78.4999 229.6 67.1999C229.6 55.8999 220.3 46.5999 209 46.5999Z" fill="#222222"/>
<path d="M321.5 97.5001C318.8 97.5001 316.7 95.3001 316.7 92.7001V67.3001C316.7 50.6001 330.3 37.1001 346.9 37.1001C349.6 37.1001 351.7 39.3001 351.7 41.9001C351.7 44.6001 349.5 46.7001 346.9 46.7001C335.5 46.7001 326.3 55.9001 326.3 67.3001V92.7001C326.3 95.4001 324.2 97.5001 321.5 97.5001Z" fill="#222222"/>
<path d="M278.2 97.4C261.5 97.4 248 83.8 248 67.2V41.8C248 39.1 250.2 37 252.8 37C255.4 37 257.6 39.2 257.6 41.8V67.2C257.6 78.6 266.8 87.8 278.2 87.8C289.6 87.8 298.8 78.6 298.8 67.2V41.8C298.8 39.1 301 37 303.6 37C306.3 37 308.4 39.2 308.4 41.8V67.2C308.4 83.8 294.9 97.4 278.2 97.4Z" fill="#222222"/>
<path d="M123.5 97.5C120.8 97.5 118.7 95.3 118.7 92.7V67.2C118.7 55.8 109.5 46.6 98.0999 46.6C86.6999 46.6 77.4999 55.8 77.4999 67.2V92.7C77.4999 95.4 75.2999 97.5 72.6999 97.5C70.0999 97.5 67.8999 95.3 67.8999 92.7V67.2C67.8999 50.5 81.4999 37 98.0999 37C114.8 37 128.3 50.6 128.3 67.2V92.7C128.3 95.4 126.2 97.5 123.5 97.5Z" fill="#222222"/>
<path d="M405.3 97.5998C402.6 97.5998 400.5 95.3998 400.5 92.7998V67.0998C400.5 64.3998 402.7 62.2998 405.3 62.2998C407.9 62.2998 410.1 64.4998 410.1 67.0998V92.7998C410.1 95.4998 408 97.5998 405.3 97.5998Z" fill="#222222"/>
<path d="M447.4 97.4C430.7 97.4 417.2 83.8 417.2 67.2C417.2 50.5 430.8 37 447.4 37C457.5 37 466.8 42 472.5 50.3C474 52.5 473.4 55.5 471.2 57C469 58.5 466 57.9 464.5 55.7C460.7 50 454.3 46.6 447.4 46.6C436 46.6 426.8 55.8 426.8 67.2C426.8 78.6 436 87.8 447.4 87.8C458.8 87.8 468 78.6 468 67.2C468 64.5 470.2 62.4 472.8 62.4C475.4 62.4 477.6 64.6 477.6 67.2C477.6 83.8 464.1 97.4 447.4 97.4Z" fill="#222222"/>
<path d="M175.8 46.7001H129.7C127 46.7001 124.9 44.5001 124.9 41.9001C124.9 39.2001 127.1 37.1001 129.7 37.1001H175.8C178.5 37.1001 180.6 39.3001 180.6 41.9001C180.6 44.5001 178.4 46.7001 175.8 46.7001Z" fill="#222222"/>
<path d="M153 97.4997C150.3 97.4997 148.2 95.2997 148.2 92.6997V42.9997C148.2 40.2997 150.4 38.1997 153 38.1997C155.7 38.1997 157.8 40.3997 157.8 42.9997V92.7997C157.8 95.3997 155.7 97.4997 153 97.4997Z" fill="#222222"/>
<path d="M514.3 97.4C497.6 97.4 484.1 83.8 484.1 67.2C484.1 50.5 497.7 37 514.3 37C530.7 37 544.2 50.3 544.5 66.7C544.5 69.4 542.4 71.5 539.8 71.6H539.7C537.1 71.6 534.9 69.5 534.9 66.9C534.7 55.7 525.5 46.7 514.3 46.7C502.9 46.7 493.7 55.9 493.7 67.3C493.7 78.7 502.9 87.9 514.3 87.9C521.6 87.9 528.4 84 532.1 77.7C533.4 75.4 536.4 74.6 538.7 76C541 77.3 541.8 80.3 540.4 82.6C535 91.7 525 97.4 514.3 97.4Z" fill="#222222"/>
<path d="M539.7 71.6H489.6C486.9 71.6 484.8 69.4 484.8 66.8C484.8 64.1 487 62 489.6 62H539.7C542.4 62 544.5 64.2 544.5 66.8C544.5 69.4 542.3 71.6 539.7 71.6Z" fill="#222222"/>
<path d="M472.8 71.6H439C436.3 71.6 434.2 69.4 434.2 66.8C434.2 64.1 436.4 62 439 62H472.8C475.5 62 477.6 64.2 477.6 66.8C477.6 69.4 475.5 71.6 472.8 71.6Z" fill="#222222"/>
<path d="M30.4 97.4C13.7 97.4 0.199951 83.8 0.199951 67.2C0.199951 50.5 13.8 37 30.4 37C46.8 37 60.3 50.3 60.6 66.7C60.6 69.4 58.4999 71.5 55.8999 71.6C53.1999 71.6 51.1 69.5 51 66.9C50.8 55.7 41.6 46.7 30.4 46.7C19 46.7 9.79996 55.9 9.79996 67.3C9.79996 78.7 19 87.9 30.4 87.9C37.7 87.9 44.5 84 48.2 77.7C49.5 75.4 52.5 74.6 54.8 76C57.1 77.3 57.9 80.3 56.5 82.6C51.1 91.7 41.1 97.4 30.4 97.4Z" fill="#222222"/>
<path d="M55.7999 71.6H5.6999C2.9999 71.6 0.899902 69.4 0.899902 66.8C0.899902 64.1 3.0999 62 5.6999 62H55.7999C58.4999 62 60.5999 64.2 60.5999 66.8C60.5999 69.4 58.3999 71.6 55.7999 71.6Z" fill="#222222"/>
<path d="M631.7 127.4C666.77 127.4 695.2 98.97 695.2 63.8999C695.2 28.8298 666.77 0.399902 631.7 0.399902C596.63 0.399902 568.2 28.8298 568.2 63.8999C568.2 98.97 596.63 127.4 631.7 127.4Z" fill="#47A8B9"/>
<path d="M656.3 84.7999C653.5 83.2999 650.1 84.3999 648.6 87.1999C645.4 93.2999 639.1 97.1999 632.2 97.1999C622 97.1999 613.7 88.8999 613.7 78.6999C613.7 68.4999 622 60.1999 632.2 60.1999C640 60.1999 647 65.0999 649.6 72.4999C650.7 75.3999 653.9 76.9999 656.9 75.8999C659.8 74.7999 661.4 71.5999 660.3 68.5999C657.5 60.7999 651.6 54.6999 644.3 51.3999L656.3 19.9999C657.4 17.0999 656 13.7999 653 12.6999C650.1 11.5999 646.8 12.9999 645.7 15.9999L633.1 48.8999C632.8 48.8999 632.5 48.8999 632.2 48.8999C631.5 48.8999 630.7 48.9999 630 48.9999L639 25.4999C640.1 22.5999 638.7 19.2999 635.7 18.1999C632.8 17.0999 629.5 18.4999 628.4 21.4999L616 53.4999C614.4 54.4999 612.9 55.6999 611.6 56.9999L620.5 33.7999C621.6 30.8999 620.2 27.5999 617.2 26.4999C614.3 25.3999 611 26.7999 609.9 29.7999L601.9 50.5999C601.9 50.5999 593.5 70.0999 593 76.6999C592.6 82.2999 594 85.4999 596.4 88.6999C598.9 92.0999 607.1 102.8 624.1 107.4C625.8 107.9 627.6 108.2 629.4 108.4C630.3 108.5 631.3 108.5 632.3 108.5C643.5 108.5 653.6 102.3 658.8 92.3999C660.1 89.6999 659 86.1999 656.3 84.7999Z" fill="white"/>
<path d="M632.3 89.2C638.154 89.2 642.9 84.4542 642.9 78.6C642.9 72.7458 638.154 68 632.3 68C626.446 68 621.7 72.7458 621.7 78.6C621.7 84.4542 626.446 89.2 632.3 89.2Z" fill="white"/>
</svg>
