<svg width="696" height="193" viewBox="0 0 696 193" fill="none" xmlns="http://www.w3.org/2000/svg">
<path d="M510.6 192.4H445.8C427.1 192.4 411.7 177.1 411.7 158.3C411.7 139.6 427 124.2 445.8 124.2H510.6C529.3 124.2 544.7 139.5 544.7 158.3C544.6 177.1 529.3 192.4 510.6 192.4Z" fill="#47A2B3"/>
<path d="M454.3 147.1C455.4 147.8 456.3 148.8 456.9 150C457.6 151.2 457.9 152.5 457.9 154C457.9 155.4 457.6 156.7 456.9 157.9C456.2 159.1 455.4 160.1 454.3 160.8C453.2 161.5 452.1 161.9 450.9 161.9H444.8V168.6C444.8 169.2 444.6 169.8 444.2 170.2C443.8 170.6 443.3 170.8 442.7 170.8C442.1 170.8 441.6 170.6 441.3 170.2C440.9 169.8 440.7 169.3 440.7 168.7V148.3C440.7 147.7 440.9 147.2 441.3 146.8C441.7 146.4 442.2 146.2 442.8 146.2H450.8C452.1 146 453.3 146.4 454.3 147.1ZM452.2 157.3C452.6 156.9 453 156.4 453.3 155.8C453.6 155.2 453.7 154.6 453.7 153.9C453.7 153.2 453.6 152.6 453.3 152C453 151.4 452.7 150.9 452.2 150.6C451.8 150.2 451.3 150.1 450.9 150.1H444.8V157.9H450.9C451.4 157.8 451.8 157.7 452.2 157.3Z" fill="white" stroke="white" stroke-width="1.5" stroke-miterlimit="10"/>
<path d="M485.6 168C485.8 168.3 485.9 168.6 485.9 169C485.9 169.4 485.8 169.8 485.5 170.2C485.1 170.6 484.6 170.8 483.9 170.8C483.3 170.8 482.8 170.7 482.3 170.4C480.6 169.4 479.8 167.5 479.8 164.5C479.8 163.7 479.5 163 479 162.5C478.4 162 477.7 161.8 476.6 161.8H470V168.6C470 169.2 469.8 169.8 469.5 170.2C469.2 170.6 468.7 170.8 468.1 170.8C467.4 170.8 466.8 170.6 466.3 170.2C465.8 169.8 465.5 169.3 465.5 168.7V148.3C465.5 147.7 465.7 147.2 466.1 146.8C466.5 146.4 467 146.2 467.6 146.2H477.8C479 146.2 480.2 146.5 481.3 147.2C482.4 147.9 483.2 148.8 483.9 149.9C484.5 151.1 484.9 152.3 484.9 153.8C484.9 155 484.6 156.1 483.9 157.2C483.3 158.3 482.4 159.2 481.4 159.9C482.9 160.9 483.7 162.3 483.8 164.1C483.9 164.5 483.9 164.8 483.9 165.2C484 165.9 484.1 166.5 484.2 166.8C484.3 167.1 484.5 167.4 484.8 167.5C485.2 167.4 485.4 167.7 485.6 168ZM478.9 157.5C479.3 157.1 479.6 156.6 479.9 155.9C480.2 155.2 480.3 154.5 480.3 153.7C480.3 153 480.2 152.4 479.9 151.9C479.6 151.3 479.3 150.9 478.9 150.6C478.5 150.3 478.1 150.1 477.7 150.1H470V158.1H477.7C478.1 158.1 478.5 157.9 478.9 157.5Z" fill="white" stroke="white" stroke-width="1.5" stroke-miterlimit="10"/>
<path d="M514 164.7C513 166.6 511.5 168.2 509.7 169.3C507.9 170.4 505.8 171 503.5 171C501.2 171 499.2 170.4 497.3 169.3C495.5 168.2 494.1 166.6 493 164.7C492 162.8 491.5 160.6 491.5 158.3C491.5 156 492 153.8 493 151.9C494 150 495.4 148.4 497.3 147.3C499.1 146.2 501.2 145.6 503.5 145.6C505.8 145.6 507.8 146.2 509.7 147.3C511.5 148.4 512.9 150 514 151.9C515.1 153.8 515.6 156 515.6 158.3C515.6 160.6 515.1 162.8 514 164.7ZM510.1 154.1C509.5 152.8 508.6 151.8 507.5 151.1C506.4 150.4 505.1 150 503.7 150C502.3 150 501 150.4 499.9 151.1C498.8 151.8 497.9 152.9 497.3 154.1C496.7 155.4 496.4 156.8 496.4 158.4C496.4 160 496.7 161.4 497.3 162.7C497.9 164 498.8 165 499.9 165.7C501 166.4 502.3 166.8 503.7 166.8C505.1 166.8 506.4 166.4 507.5 165.7C508.6 165 509.5 163.9 510.1 162.7C510.7 161.4 511.1 160 511.1 158.4C511 156.8 510.7 155.3 510.1 154.1Z" fill="white" stroke="white" stroke-width="1.5" stroke-miterlimit="10"/>
<path d="M379.9 97.4C363.2 97.4 349.7 83.8 349.7 67.2C349.7 50.5 363.3 37 379.9 37C396.6 37 410.1 50.6 410.1 67.2C410.1 83.8 396.6 97.4 379.9 97.4ZM379.9 46.6C368.5 46.6 359.3 55.8 359.3 67.2C359.3 78.6 368.5 87.8 379.9 87.8C391.3 87.8 400.5 78.6 400.5 67.2C400.5 55.8 391.3 46.6 379.9 46.6Z" fill="white"/>
<path d="M209 97.4999C192.3 97.4999 178.7 83.8999 178.7 67.1999C178.7 50.4999 192.3 36.8999 209 36.8999C225.7 36.8999 239.3 50.4999 239.3 67.1999C239.2 83.9999 225.6 97.4999 209 97.4999ZM209 46.5999C197.6 46.5999 188.4 55.8999 188.4 67.1999C188.4 78.5999 197.7 87.7999 209 87.7999C220.3 87.7999 229.6 78.4999 229.6 67.1999C229.6 55.8999 220.3 46.5999 209 46.5999Z" fill="white"/>
<path d="M321.5 97.5001C318.8 97.5001 316.7 95.3001 316.7 92.7001V67.3001C316.7 50.6001 330.3 37.1001 346.9 37.1001C349.6 37.1001 351.7 39.3001 351.7 41.9001C351.7 44.6001 349.5 46.7001 346.9 46.7001C335.5 46.7001 326.3 55.9001 326.3 67.3001V92.7001C326.3 95.4001 324.2 97.5001 321.5 97.5001Z" fill="white"/>
<path d="M278.2 97.4C261.5 97.4 248 83.8 248 67.2V41.8C248 39.1 250.2 37 252.8 37C255.4 37 257.6 39.2 257.6 41.8V67.2C257.6 78.6 266.8 87.8 278.2 87.8C289.6 87.8 298.8 78.6 298.8 67.2V41.8C298.8 39.1 301 37 303.6 37C306.3 37 308.4 39.2 308.4 41.8V67.2C308.4 83.8 294.9 97.4 278.2 97.4Z" fill="white"/>
<path d="M123.5 97.5C120.8 97.5 118.7 95.3 118.7 92.7V67.2C118.7 55.8 109.5 46.6 98.0999 46.6C86.6999 46.6 77.4999 55.8 77.4999 67.2V92.7C77.4999 95.4 75.2999 97.5 72.6999 97.5C70.0999 97.5 67.8999 95.3 67.8999 92.7V67.2C67.8999 50.5 81.4999 37 98.0999 37C114.8 37 128.3 50.6 128.3 67.2V92.7C128.3 95.4 126.2 97.5 123.5 97.5Z" fill="white"/>
<path d="M405.3 97.5998C402.6 97.5998 400.5 95.3998 400.5 92.7998V67.0998C400.5 64.3998 402.7 62.2998 405.3 62.2998C407.9 62.2998 410.1 64.4998 410.1 67.0998V92.7998C410.1 95.4998 408 97.5998 405.3 97.5998Z" fill="white"/>
<path d="M447.4 97.4C430.7 97.4 417.2 83.8 417.2 67.2C417.2 50.5 430.8 37 447.4 37C457.5 37 466.8 42 472.5 50.3C474 52.5 473.4 55.5 471.2 57C469 58.5 466 57.9 464.5 55.7C460.7 50 454.3 46.6 447.4 46.6C436 46.6 426.8 55.8 426.8 67.2C426.8 78.6 436 87.8 447.4 87.8C458.8 87.8 468 78.6 468 67.2C468 64.5 470.2 62.4 472.8 62.4C475.4 62.4 477.6 64.6 477.6 67.2C477.6 83.8 464.1 97.4 447.4 97.4Z" fill="white"/>
<path d="M175.8 46.7001H129.7C127 46.7001 124.9 44.5001 124.9 41.9001C124.9 39.2001 127.1 37.1001 129.7 37.1001H175.8C178.5 37.1001 180.6 39.3001 180.6 41.9001C180.6 44.5001 178.4 46.7001 175.8 46.7001Z" fill="white"/>
<path d="M153 97.4997C150.3 97.4997 148.2 95.2997 148.2 92.6997V42.9997C148.2 40.2997 150.4 38.1997 153 38.1997C155.7 38.1997 157.8 40.3997 157.8 42.9997V92.7997C157.8 95.3997 155.7 97.4997 153 97.4997Z" fill="white"/>
<path d="M514.3 97.4C497.6 97.4 484.1 83.8 484.1 67.2C484.1 50.5 497.7 37 514.3 37C530.7 37 544.2 50.3 544.5 66.7C544.5 69.4 542.4 71.5 539.8 71.6H539.7C537.1 71.6 534.9 69.5 534.9 66.9C534.7 55.7 525.5 46.7 514.3 46.7C502.9 46.7 493.7 55.9 493.7 67.3C493.7 78.7 502.9 87.9 514.3 87.9C521.6 87.9 528.4 84 532.1 77.7C533.4 75.4 536.4 74.6 538.7 76C541 77.3 541.8 80.3 540.4 82.6C535 91.7 525 97.4 514.3 97.4Z" fill="white"/>
<path d="M539.7 71.6H489.6C486.9 71.6 484.8 69.4 484.8 66.8C484.8 64.1 487 62 489.6 62H539.7C542.4 62 544.5 64.2 544.5 66.8C544.5 69.4 542.3 71.6 539.7 71.6Z" fill="white"/>
<path d="M472.8 71.6H439C436.3 71.6 434.2 69.4 434.2 66.8C434.2 64.1 436.4 62 439 62H472.8C475.5 62 477.6 64.2 477.6 66.8C477.6 69.4 475.5 71.6 472.8 71.6Z" fill="white"/>
<path d="M30.4 97.4C13.7 97.4 0.199951 83.8 0.199951 67.2C0.199951 50.5 13.8 37 30.4 37C46.8 37 60.3 50.3 60.6 66.7C60.6 69.4 58.4999 71.5 55.8999 71.6C53.1999 71.6 51.1 69.5 51 66.9C50.8 55.7 41.6 46.7 30.4 46.7C19 46.7 9.79996 55.9 9.79996 67.3C9.79996 78.7 19 87.9 30.4 87.9C37.7 87.9 44.5 84 48.2 77.7C49.5 75.4 52.5 74.6 54.8 76C57.1 77.3 57.9 80.3 56.5 82.6C51.1 91.7 41.1 97.4 30.4 97.4Z" fill="white"/>
<path d="M55.7999 71.6H5.6999C2.9999 71.6 0.899902 69.4 0.899902 66.8C0.899902 64.1 3.0999 62 5.6999 62H55.7999C58.4999 62 60.5999 64.2 60.5999 66.8C60.5999 69.4 58.3999 71.6 55.7999 71.6Z" fill="white"/>
<path d="M631.7 127.4C666.77 127.4 695.2 98.97 695.2 63.8999C695.2 28.8298 666.77 0.399902 631.7 0.399902C596.63 0.399902 568.2 28.8298 568.2 63.8999C568.2 98.97 596.63 127.4 631.7 127.4Z" fill="#47A8B9"/>
<path d="M656.3 84.7999C653.5 83.2999 650.1 84.3999 648.6 87.1999C645.4 93.2999 639.1 97.1999 632.2 97.1999C622 97.1999 613.7 88.8999 613.7 78.6999C613.7 68.4999 622 60.1999 632.2 60.1999C640 60.1999 647 65.0999 649.6 72.4999C650.7 75.3999 653.9 76.9999 656.9 75.8999C659.8 74.7999 661.4 71.5999 660.3 68.5999C657.5 60.7999 651.6 54.6999 644.3 51.3999L656.3 19.9999C657.4 17.0999 656 13.7999 653 12.6999C650.1 11.5999 646.8 12.9999 645.7 15.9999L633.1 48.8999C632.8 48.8999 632.5 48.8999 632.2 48.8999C631.5 48.8999 630.7 48.9999 630 48.9999L639 25.4999C640.1 22.5999 638.7 19.2999 635.7 18.1999C632.8 17.0999 629.5 18.4999 628.4 21.4999L616 53.4999C614.4 54.4999 612.9 55.6999 611.6 56.9999L620.5 33.7999C621.6 30.8999 620.2 27.5999 617.2 26.4999C614.3 25.3999 611 26.7999 609.9 29.7999L601.9 50.5999C601.9 50.5999 593.5 70.0999 593 76.6999C592.6 82.2999 594 85.4999 596.4 88.6999C598.9 92.0999 607.1 102.8 624.1 107.4C625.8 107.9 627.6 108.2 629.4 108.4C630.3 108.5 631.3 108.5 632.3 108.5C643.5 108.5 653.6 102.3 658.8 92.3999C660.1 89.6999 659 86.1999 656.3 84.7999Z" fill="white"/>
<path d="M632.3 89.2C638.154 89.2 642.9 84.4542 642.9 78.6C642.9 72.7458 638.154 68 632.3 68C626.446 68 621.7 72.7458 621.7 78.6C621.7 84.4542 626.446 89.2 632.3 89.2Z" fill="white"/>
</svg>
