<svg fill="currentColor" width="15" height="22" viewBox="0 0 15 22" xmlns="http://www.w3.org/2000/svg">
  <path d="M8.96737 12.7546C7.7419 12.3143 6.38436 12.9601 5.95141 14.1856C5.51112 15.4184 6.15687 16.7686 7.38234 17.2015C8.61514 17.6418 9.96535 16.9961 10.3983 15.7706C10.8386 14.5451 10.2002 13.1949 8.96737 12.7546Z" fill="#47A8B9"/>
  <path d="M13.363 16.2329C12.6952 15.8807 11.866 16.1302 11.5138 16.7979C10.868 18.016 9.60588 18.7866 8.22631 18.8012C7.22099 18.8086 6.27438 18.427 5.55524 17.7225C4.83611 17.0181 4.43251 16.0788 4.42517 15.0735C4.41784 14.0681 4.79942 13.1215 5.50388 12.4024C6.20834 11.6833 7.14761 11.2797 8.15293 11.2723C9.70861 11.2577 11.1395 12.2263 11.7046 13.6792C11.9761 14.3837 12.7686 14.7359 13.4731 14.4644C14.1775 14.1929 14.5297 13.4004 14.2582 12.6959C13.6345 11.0815 12.3944 9.81938 10.8754 9.1296L13.407 2.41523C13.6639 1.73279 13.319 0.969627 12.6365 0.712793C11.9541 0.455959 11.1909 0.80085 10.9341 1.48329L8.27034 8.54989C8.22631 8.54989 8.18228 8.54989 8.13092 8.54989C8.06488 8.54989 8.00617 8.55723 7.94013 8.55723L9.82602 3.51595C10.0829 2.83351 9.73796 2.07034 9.05552 1.81351C8.37308 1.55668 7.60991 1.90157 7.35308 2.58401L4.73338 9.52586C4.58661 9.62126 4.43985 9.72399 4.29309 9.82672L5.96618 5.39451C6.22301 4.71206 5.87812 3.9489 5.19568 3.69206C4.51323 3.43523 3.75007 3.78012 3.49323 4.46257L1.43123 9.92212C1.18907 10.5972 -0.0217179 14.0461 0.000296421 15.3083C0.0296489 16.9153 2.66403 20.2762 6.16431 21.2228C6.69265 21.3989 7.24301 21.5017 7.81538 21.531C7.96214 21.5383 8.1089 21.5457 8.25567 21.5383C10.6406 21.5163 12.8126 20.1881 13.9354 18.0821C14.2876 17.4143 14.0308 16.5851 13.363 16.2329Z" fill="#47A8B9"/>
</svg>
