<svg fill="currentColor" width="24" height="14" viewBox="0 0 24 14" xmlns="http://www.w3.org/2000/svg">
<path d="M11.9966 13.9999C10.1085 13.9999 8.28847 13.578 6.58979 12.7474C6.35838 12.6335 6.26214 12.3545 6.37604 12.1231C6.48994 11.8917 6.76901 11.7954 7.0004 11.9093C8.5704 12.6775 10.2513 13.0667 11.9968 13.0667C16.1484 13.0667 20.0328 10.7492 22.1944 6.9999C21.6288 6.01802 20.9391 5.12302 20.143 4.33522C19.96 4.15413 19.9582 3.85834 20.1393 3.67538C20.3203 3.49147 20.6161 3.49053 20.7991 3.67163C21.7203 4.58255 22.5071 5.62695 23.1389 6.77583C23.2164 6.91583 23.2164 7.08567 23.1389 7.22475C20.841 11.4031 16.5709 13.9999 11.9969 13.9999L11.9966 13.9999Z" fill="black"/>
<path d="M5.00642 11.7227C4.91126 11.7227 4.81595 11.6938 4.73392 11.6341C3.15564 10.4936 1.8144 8.96944 0.855 7.22492C0.7775 7.08492 0.7775 6.91508 0.855 6.776C3.1528 2.5964 7.423 0 11.997 0C14.6056 0 17.1174 0.8186 19.261 2.36688C19.4701 2.51813 19.5168 2.80924 19.3655 3.01828C19.2152 3.2264 18.9232 3.27312 18.7141 3.12281C16.7309 1.69125 14.4077 0.933292 11.9969 0.933292C7.84533 0.933292 3.96093 3.25081 1.79933 7.00009C2.68137 8.52977 3.88073 9.86633 5.28073 10.8771C5.4898 11.0284 5.53651 11.3195 5.38526 11.5285C5.29386 11.6556 5.15198 11.7228 5.00636 11.7228L5.00642 11.7227Z" fill="black"/>
<path d="M9.20828 9.16506C9.05062 9.16506 8.8975 9.08569 8.80875 8.941C8.45406 8.35772 8.26562 7.68568 8.26562 6.99976C8.26562 4.94084 9.93999 3.26648 11.9989 3.26648C13.3113 3.26648 14.5039 3.93568 15.1881 5.05756C15.3225 5.27694 15.2525 5.56444 15.0322 5.6988C14.8137 5.83318 14.5253 5.76318 14.3909 5.54286C13.8776 4.70286 12.9836 4.19974 11.9989 4.19974C10.4551 4.19974 9.19889 5.45598 9.19889 6.99974C9.19889 7.51394 9.33983 8.01802 9.60669 8.45566C9.74107 8.67598 9.67107 8.96254 9.45075 9.09786C9.37435 9.14364 9.29122 9.16505 9.20825 9.16505L9.20828 9.16506Z" fill="black"/>
<path d="M11.9968 10.7331C11.4619 10.7331 10.9459 10.622 10.4624 10.4036C10.2273 10.2972 10.1227 10.0209 10.2291 9.7867C10.3346 9.55248 10.6118 9.44795 10.846 9.55342C11.2092 9.7167 11.5954 9.79982 11.9968 9.79982C13.4873 9.79982 14.7156 8.63498 14.7931 7.14826C14.8071 6.89061 15.0199 6.68247 15.2831 6.70591C15.5407 6.71997 15.7386 6.93919 15.7254 7.19591C15.6218 9.18011 13.9839 10.7331 11.9968 10.7331L11.9968 10.7331Z" fill="black"/>
</svg>
