<svg width="30" height="27" viewBox="0 0 30 27" fill="none" xmlns="http://www.w3.org/2000/svg">
<path d="M0.731934 9.64136H29.2685V24.0797C29.2685 25.1843 28.3731 26.0797 27.2685 26.0797H2.73194C1.62737 26.0797 0.731934 25.1843 0.731934 24.0797V9.64136Z" fill="#FDDCD0"/>
<path d="M0.731934 5.4314C0.731934 4.32683 1.62736 3.4314 2.73193 3.4314H27.2685C28.3731 3.4314 29.2685 4.32683 29.2685 5.4314V9.64144H0.731934V5.4314Z" fill="#F55F24"/>
<path d="M24.5122 20.735C24.5122 20.4588 24.7361 20.235 25.0122 20.235H26.939C27.2152 20.235 27.439 20.4588 27.439 20.735V22.6574C27.439 22.9335 27.2152 23.1574 26.939 23.1574H25.0122C24.7361 23.1574 24.5122 22.9335 24.5122 22.6574V20.735Z" fill="white"/>
<path d="M20.1221 20.735C20.1221 20.4588 20.3459 20.235 20.6221 20.235H22.5489C22.825 20.235 23.0489 20.4588 23.0489 20.735V22.6574C23.0489 22.9335 22.825 23.1574 22.5489 23.1574H20.6221C20.3459 23.1574 20.1221 22.9335 20.1221 22.6574V20.735Z" fill="white"/>
<path d="M15.7319 20.735C15.7319 20.4588 15.9558 20.235 16.2319 20.235H18.1588C18.4349 20.235 18.6588 20.4588 18.6588 20.735V22.6574C18.6588 22.9335 18.4349 23.1574 18.1588 23.1574H16.2319C15.9558 23.1574 15.7319 22.9335 15.7319 22.6574V20.735Z" fill="white"/>
<path d="M11.3413 20.735C11.3413 20.4588 11.5652 20.235 11.8413 20.235H13.7681C14.0443 20.235 14.2681 20.4588 14.2681 20.735V22.6574C14.2681 22.9335 14.0443 23.1574 13.7681 23.1574H11.8413C11.5652 23.1574 11.3413 22.9335 11.3413 22.6574V20.735Z" fill="white"/>
<path d="M6.95117 20.735C6.95117 20.4588 7.17503 20.235 7.45117 20.235H9.378C9.65414 20.235 9.878 20.4588 9.878 20.735V22.6574C9.878 22.9335 9.65414 23.1574 9.378 23.1574H7.45117C7.17503 23.1574 6.95117 22.9335 6.95117 22.6574V20.735Z" fill="white"/>
<path d="M2.56104 20.735C2.56104 20.4588 2.78489 20.235 3.06104 20.235H4.98786C5.26401 20.235 5.48786 20.4588 5.48786 20.735V22.6574C5.48786 22.9335 5.26401 23.1574 4.98786 23.1574H3.06104C2.78489 23.1574 2.56104 22.9335 2.56104 22.6574V20.735Z" fill="white"/>
<path d="M24.5122 16.3514C24.5122 16.0753 24.7361 15.8514 25.0122 15.8514H26.939C27.2152 15.8514 27.439 16.0753 27.439 16.3514V18.2738C27.439 18.55 27.2152 18.7738 26.939 18.7738H25.0122C24.7361 18.7738 24.5122 18.55 24.5122 18.2738V16.3514Z" fill="white"/>
<path d="M20.1221 16.3514C20.1221 16.0753 20.3459 15.8514 20.6221 15.8514H22.5489C22.825 15.8514 23.0489 16.0753 23.0489 16.3514V18.2738C23.0489 18.55 22.825 18.7738 22.5489 18.7738H20.6221C20.3459 18.7738 20.1221 18.55 20.1221 18.2738V16.3514Z" fill="white"/>
<path d="M15.7319 16.3514C15.7319 16.0753 15.9558 15.8514 16.2319 15.8514H18.1588C18.4349 15.8514 18.6588 16.0753 18.6588 16.3514V18.2738C18.6588 18.55 18.4349 18.7738 18.1588 18.7738H16.2319C15.9558 18.7738 15.7319 18.55 15.7319 18.2738V16.3514Z" fill="white"/>
<path d="M11.3413 16.3514C11.3413 16.0753 11.5652 15.8514 11.8413 15.8514H13.7681C14.0443 15.8514 14.2681 16.0753 14.2681 16.3514V18.2738C14.2681 18.55 14.0443 18.7738 13.7681 18.7738H11.8413C11.5652 18.7738 11.3413 18.55 11.3413 18.2738V16.3514Z" fill="white"/>
<path d="M6.95117 16.3514C6.95117 16.0753 7.17503 15.8514 7.45117 15.8514H9.378C9.65414 15.8514 9.878 16.0753 9.878 16.3514V18.2738C9.878 18.55 9.65414 18.7738 9.378 18.7738H7.45117C7.17503 18.7738 6.95117 18.55 6.95117 18.2738V16.3514Z" fill="#FDDCD0"/>
<path d="M2.56104 16.3514C2.56104 16.0753 2.78489 15.8514 3.06104 15.8514H4.98786C5.26401 15.8514 5.48786 16.0753 5.48786 16.3514V18.2738C5.48786 18.55 5.26401 18.7738 4.98786 18.7738H3.06104C2.78489 18.7738 2.56104 18.55 2.56104 18.2738V16.3514Z" fill="white"/>
<path d="M24.5122 11.9679C24.5122 11.6918 24.7361 11.4679 25.0122 11.4679H26.939C27.2152 11.4679 27.439 11.6918 27.439 11.9679V13.8903C27.439 14.1664 27.2152 14.3903 26.939 14.3903H25.0122C24.7361 14.3903 24.5122 14.1664 24.5122 13.8903V11.9679Z" fill="white"/>
<path d="M20.1221 11.9679C20.1221 11.6918 20.3459 11.4679 20.6221 11.4679H22.5489C22.825 11.4679 23.0489 11.6918 23.0489 11.9679V13.8903C23.0489 14.1664 22.825 14.3903 22.5489 14.3903H20.6221C20.3459 14.3903 20.1221 14.1664 20.1221 13.8903V11.9679Z" fill="white"/>
<path d="M15.7319 11.9679C15.7319 11.6918 15.9558 11.4679 16.2319 11.4679H18.1588C18.4349 11.4679 18.6588 11.6918 18.6588 11.9679V13.8903C18.6588 14.1664 18.4349 14.3903 18.1588 14.3903H16.2319C15.9558 14.3903 15.7319 14.1664 15.7319 13.8903V11.9679Z" fill="white"/>
<path d="M11.3413 11.9679C11.3413 11.6918 11.5652 11.4679 11.8413 11.4679H13.7681C14.0443 11.4679 14.2681 11.6918 14.2681 11.9679V13.8903C14.2681 14.1664 14.0443 14.3903 13.7681 14.3903H11.8413C11.5652 14.3903 11.3413 14.1664 11.3413 13.8903V11.9679Z" fill="white"/>
<path d="M6.95117 11.9679C6.95117 11.6918 7.17503 11.4679 7.45117 11.4679H9.378C9.65414 11.4679 9.878 11.6918 9.878 11.9679V13.8903C9.878 14.1664 9.65414 14.3903 9.378 14.3903H7.45117C7.17503 14.3903 6.95117 14.1664 6.95117 13.8903V11.9679Z" fill="white"/>
<path d="M2.56104 11.9679C2.56104 11.6918 2.78489 11.4679 3.06104 11.4679H4.98786C5.26401 11.4679 5.48786 11.6918 5.48786 11.9679V13.8903C5.48786 14.1664 5.26401 14.3903 4.98786 14.3903H3.06104C2.78489 14.3903 2.56104 14.1664 2.56104 13.8903V11.9679Z" fill="white"/>
<path fill-rule="evenodd" clip-rule="evenodd" d="M8.66295 18.7181C8.4651 18.6549 8.24814 18.6931 8.08385 18.8201C7.67037 19.1395 7.06845 18.8471 7.066 18.3245C7.06503 18.1168 6.96182 17.9229 6.79008 17.8061C6.35779 17.512 6.45146 16.8497 6.94785 16.6861C7.14499 16.6212 7.29777 16.4632 7.35599 16.264C7.5027 15.762 8.16155 15.646 8.47137 16.0677C8.59432 16.235 8.79198 16.3312 8.99948 16.3249C9.52198 16.3092 9.83685 16.8995 9.53137 17.3234C9.41 17.4919 9.37944 17.7094 9.44966 17.9048C9.62637 18.3967 9.16093 18.8771 8.66295 18.7181Z" fill="#C1E9DF" stroke="#1E7F51" stroke-width="0.5"/>
<path d="M6.2508 2.14221V4.69926" stroke="#FF9C5D" stroke-linecap="round"/>
<path d="M23.4456 2.14221V4.69926" stroke="#FF9C5D" stroke-linecap="round"/>
<path fill-rule="evenodd" clip-rule="evenodd" d="M17.1967 22.9779C17.0638 22.8859 16.8935 22.865 16.7422 22.9221C16.3616 23.066 15.9801 22.7115 16.0974 22.3218C16.144 22.167 16.1114 21.9991 16.0101 21.8731C15.7553 21.5559 15.9761 21.0841 16.3829 21.0751C16.5445 21.0716 16.6943 20.9887 16.783 20.8536C17.0067 20.5132 17.5237 20.5766 17.6583 20.9609C17.7117 21.1134 17.8369 21.23 17.9928 21.2725C18.3854 21.3795 18.4853 21.8906 18.1612 22.1368C18.0324 22.2347 17.9601 22.3896 17.9678 22.5511C17.9872 22.9575 17.5312 23.2094 17.1967 22.9779Z" fill="#C1E9DF" stroke="#1E7F51" stroke-width="0.5"/>
<path d="M21.4019 13.5752C21.2951 13.4064 21.1119 13.3008 20.9121 13.2929C20.8227 13.2894 20.777 13.1851 20.8335 13.1173C20.9614 12.9636 21.0055 12.7569 20.9512 12.5646C20.9272 12.4796 21.0115 12.4032 21.0944 12.4362C21.28 12.5101 21.4904 12.488 21.6568 12.3771C21.7309 12.3277 21.8296 12.3846 21.8238 12.4734C21.8108 12.6727 21.8969 12.8657 22.0538 12.9893C22.1239 13.0444 22.0997 13.1555 22.014 13.1773C21.8201 13.2265 21.6628 13.3679 21.5935 13.5554C21.5629 13.6382 21.4496 13.6508 21.4019 13.5752Z" stroke="#1E7F51" stroke-width="0.5"/>
<path d="M19.3164 24.837C19.3164 24.837 21.413 24.837 21.9516 22.9079C22.4901 20.9788 23.1973 18.8867 24.7273 18.8867C26.2572 18.8867 26.4675 19.8072 26.2893 20.33C26.111 20.8529 24.9696 21.4505 23.6673 20.6412C22.3649 19.8319 21.955 17.4 23.3411 16.0066C24.7273 14.6132 25.5691 15.0802 26.746 14.6132C27.9229 14.1462 28.0144 12.4882 28.0144 12.4882" stroke="#F55F24" stroke-width="0.5" stroke-linecap="round" stroke-linejoin="round"/>
<ellipse cx="2.92918" cy="15.9873" rx="0.858864" ry="0.857556" fill="#FF9C5D"/>
</svg>
