<svg xmlns="http://www.w3.org/2000/svg" fill="none" viewBox="27.609561752988046 24.966 164.78087649402391 169.94400000000002" style="max-height: 500px" width="164.78087649402391" height="169.94400000000002">
<mask height="219" width="220" y="0" x="0" maskUnits="userSpaceOnUse" style="mask-type:alpha" id="mask0_76_1915">
<rect fill="#D9D9D9" height="219" width="219" x="0.5"/>
</mask>
<g mask="url(#mask0_76_1915)">
<path stroke-miterlimit="10" stroke-width="2" stroke="#FFEADC" fill="white" d="M182.452 28.1807L37.2719 27.6679C33.7826 27.6556 30.9469 30.5662 30.9381 34.169L30.5731 184.07C30.5643 187.673 33.3858 190.604 36.8751 190.616L182.055 191.129C185.544 191.141 188.38 188.231 188.389 184.628L188.754 34.7264C188.763 31.1237 185.941 28.1931 182.452 28.1807Z"/>
<path fill="#FFEADC" d="M175.462 36.3358L43.6087 35.8701C40.1194 35.8578 37.2837 38.7684 37.2749 42.3712L37.0029 154.07C36.9941 157.673 39.8156 160.604 43.3049 160.616L175.158 161.082C178.648 161.094 181.483 158.183 181.492 154.581L181.764 42.8815C181.773 39.2788 178.951 36.3482 175.462 36.3358Z"/>
<path fill="#47A8B9" d="M170.872 167.365C166.162 167.349 162.336 171.276 162.325 176.137C162.313 181 166.121 184.955 170.829 184.97C175.539 184.987 179.365 181.059 179.376 176.198C179.387 171.335 175.58 167.38 170.872 167.365ZM175.061 174.793C175.064 174.882 175.068 174.975 175.067 175.065C175.061 177.847 173.001 181.046 169.255 181.032C168.104 181.027 167.035 180.677 166.133 180.076C166.294 180.097 166.456 180.107 166.62 180.109C167.575 180.113 168.456 179.779 169.153 179.217C168.26 179.196 167.51 178.586 167.251 177.748C167.375 177.773 167.505 177.786 167.634 177.786C167.819 177.787 168 177.764 168.17 177.715C167.239 177.519 166.538 176.668 166.54 175.646L166.54 175.619C166.812 175.778 167.129 175.872 167.461 175.887C166.917 175.506 166.559 174.863 166.56 174.134C166.561 173.749 166.663 173.388 166.839 173.076C167.841 174.351 169.342 175.197 171.033 175.288C170.999 175.134 170.981 174.976 170.981 174.81C170.984 173.646 171.899 172.709 173.024 172.712C173.61 172.714 174.139 172.97 174.512 173.381C174.976 173.289 175.412 173.115 175.809 172.876C175.654 173.367 175.33 173.779 174.91 174.036C175.324 173.986 175.716 173.874 176.081 173.711C175.808 174.13 175.46 174.499 175.063 174.793L175.061 174.793Z"/>
<path fill="#47A8B9" d="M132.104 167.384C127.448 167.368 123.661 171.254 123.65 176.061C123.638 180.869 127.405 184.782 132.061 184.798C136.717 184.815 140.504 180.929 140.515 176.121C140.527 171.314 136.76 167.4 132.104 167.384ZM129.622 180.538L127.569 180.531L127.585 174.151L129.638 174.158L129.622 180.538ZM128.613 173.282L128.601 173.28C127.911 173.28 127.466 172.788 127.468 172.176C127.47 171.564 127.93 171.076 128.632 171.077C129.334 171.078 129.766 171.558 129.778 172.184C129.778 172.796 129.33 173.285 128.615 173.281L128.613 173.282ZM137.028 180.563L134.975 180.556L134.984 177.142C134.986 176.285 134.69 175.698 133.946 175.696C133.378 175.694 133.04 176.087 132.89 176.468C132.835 176.605 132.821 176.796 132.821 176.986L132.813 180.549L130.76 180.542C130.76 180.542 130.8 174.761 130.775 174.162L132.828 174.169L132.827 175.073C133.101 174.639 133.59 174.022 134.679 174.025C136.031 174.03 137.042 174.945 137.036 176.904L137.028 180.563Z"/>
<path fill="#47A8B9" d="M151.538 167.452C146.881 167.435 143.096 171.322 143.084 176.129C143.073 180.937 146.839 184.85 151.496 184.866C156.153 184.883 159.938 180.997 159.95 176.189C159.962 171.38 156.195 167.468 151.538 167.452ZM153.85 172.788L152.625 172.783C152.424 172.783 152.142 172.885 152.141 173.327L152.138 174.505L153.841 174.51L153.637 176.509L152.132 176.503L152.119 182.196L149.839 182.187L149.852 176.495L148.769 176.491L148.773 174.49L149.857 174.494L149.86 173.2C149.862 172.275 150.292 170.827 152.166 170.833L153.856 170.847L153.852 172.788L153.85 172.788Z"/>
<mask height="127" width="146" y="35" x="37" maskUnits="userSpaceOnUse" style="mask-type:luminance" id="mask1_76_1915">
<path fill="white" d="M175.77 36.3063L43.9163 35.8406C40.427 35.8282 37.5913 38.7389 37.5825 42.3416L37.3105 154.041C37.3017 157.643 40.1232 160.574 43.6125 160.586L175.466 161.052C178.955 161.064 181.791 158.154 181.8 154.551L182.072 42.8519C182.08 39.2492 179.259 36.3186 175.77 36.3063Z"/>
</mask>
<g mask="url(#mask1_76_1915)">
<path fill="#245B59" d="M107.289 113.367L91.6583 165.536L106.034 170.499L126.948 143.856"/>
<path fill="#245B59" d="M181.98 133.691C181.98 133.691 172.718 112.567 168.784 107.312C160.662 98.5578 150.959 101.728 140.626 96.5266C128.243 90.2919 141.678 85.1138 128.903 89.6131C120.641 92.5213 112.159 104.407 107.653 112.472C104.034 118.949 115.08 136.314 115.837 141.957C118.146 159.007 108.225 154.358 110.536 171.408C110.85 173.736 116.286 180.702 120.198 181.486C134.187 184.293 148.049 187.937 162.226 187.233C172.46 186.725 179.161 180.603 179.704 165.601C180.949 164.593 188.223 165.949 189.407 154.661C190.155 148.454 181.982 133.692 181.982 133.692L181.98 133.691Z"/>
<path stroke-linejoin="round" stroke-linecap="round" stroke="#1F4946" d="M119.092 104.339C119.092 104.339 125.994 111.985 133.019 110.047C133.019 110.047 142.703 115.595 146.586 102.563"/>
<path stroke-linejoin="round" stroke-linecap="round" stroke="#1F4946" d="M110.208 165.601C110.208 165.601 110.476 159.648 113.434 155.494C117.615 149.622 115.47 142.737 115.47 142.737L110.118 124.883"/>
<path fill="#1F4946" d="M134.667 108.077C133.142 109.962 132.932 112.534 133.309 114.873C133.507 116.099 133.838 117.294 134.166 118.489C134.494 119.684 134.808 120.881 134.888 122.12C134.973 123.435 134.77 124.772 134.077 125.898C133.95 126.105 134.078 126.403 134.275 126.506C134.506 126.624 134.735 126.51 134.864 126.301C136.185 124.155 135.846 121.488 135.253 119.158C134.66 116.827 133.83 114.545 134.043 112.144C134.155 110.89 134.536 109.652 135.327 108.677C135.689 108.23 135.03 107.632 134.667 108.079L134.667 108.077Z"/>
<path fill="#1F4946" d="M132.317 108.068C130.821 110.203 130.113 112.899 130.435 115.522C130.756 118.14 132.097 120.481 132.455 123.087C132.651 124.508 132.555 125.979 131.803 127.222C131.678 127.429 131.803 127.727 132.002 127.83C132.231 127.948 132.463 127.834 132.59 127.626C133.984 125.322 133.379 122.449 132.59 120.046C132.182 118.804 131.711 117.571 131.446 116.286C131.19 115.05 131.169 113.773 131.392 112.531C131.64 111.144 132.176 109.811 132.977 108.667C133.116 108.47 133.127 108.201 132.936 108.028C132.771 107.879 132.456 107.871 132.317 108.069L132.317 108.068Z"/>
<path stroke-linejoin="round" stroke-linecap="round" stroke="#1F4946" d="M155.5 130.128L161.66 142.805C161.66 142.805 168.361 155.484 157.181 161.745"/>
<path fill="#A65E48" d="M148.16 80.1803C149.393 92.7756 142.586 106.024 134.245 106.888C125.905 107.75 116.578 95.2671 115.346 82.6719C114.114 70.0766 121.714 64.6728 130.056 63.8113C138.397 62.9494 146.928 67.5851 148.162 80.1807L148.16 80.1803Z"/>
<path fill="#20090A" d="M128.463 73.3189C130.527 77.6237 120.394 84.2922 114.168 84.0005C114.168 84.0005 121.228 68.5052 128.463 73.3189Z"/>
<path fill="#E36838" d="M116.819 90.0685C114.339 88.6808 111.411 85.7422 111.199 83.0603C110.886 79.1226 113.503 75.3666 113.603 71.4105C113.633 70.2307 113.436 69.0585 113.434 67.8797C113.431 66.4572 113.711 65.0418 114.076 63.6509C114.711 61.2316 115.679 58.7596 117.669 57.0482C119.408 55.5518 121.739 54.8017 124.036 54.2733C126.842 53.6297 129.747 53.2587 132.599 53.5374C135.452 53.8161 138.261 54.7814 140.344 56.5579C141.951 57.9267 143.063 59.7053 144.152 61.4549C146.474 65.1902 148.806 68.9439 150.504 72.963C151.455 75.2143 152.209 77.5717 152.307 80.0018C152.404 82.4318 151.802 84.9535 150.246 86.9588C149.864 87.4519 148.763 88.3388 148.164 88.115C147.942 88.0316 147.65 87.912 147.624 87.6909C147.329 85.2562 146.163 82.5043 144.347 80.35C142.531 78.194 138.834 76.5522 136.017 75.6608C133.953 75.0077 131.7 74.9805 129.503 75.1548C126.734 75.3742 123.93 75.9222 121.514 77.2271C119.099 78.5319 117.108 80.6822 116.597 83.1963C116.194 85.179 116.745 87.9125 117.009 89.5719"/>
<path fill="#20090A" d="M116.803 87.9389C116.328 90.4493 116.011 90.3689 114.754 91.3813C113.497 92.3937 112.127 94.049 112.487 96.1446C112.574 96.6526 112.763 97.1332 112.798 97.6475C112.874 98.7287 112.268 99.5972 111.623 100.093C110.977 100.59 110.153 100.837 109.715 101.621C108.069 104.564 109.967 106.919 110.554 107.655C111.442 106.638 112.815 106.64 113.62 107.947C114.425 109.254 114.699 111.032 114.809 112.718C114.941 114.743 114.119 114.936 114.63 117.027C115.091 118.912 117.546 118.825 118.373 117.265C118.853 119.036 119.582 120.69 120.501 122.092C121.205 123.167 122.369 124.131 123.128 123.288C123.541 122.829 123.646 122.001 123.724 121.244C123.91 119.427 124.052 117.369 123.247 115.835C122.748 114.886 121.92 114.216 121.708 113.087C121.484 111.886 122.759 110.577 122.807 108.561C122.859 106.394 120.857 105.891 121.71 103.321C123.842 96.8887 118.448 94.1992 116.805 87.9375"/>
<path fill="#20090A" d="M147.4 86.6168C148.472 88.968 148.818 88.8182 150.469 89.5284C152.122 90.239 153.756 89.9977 154.855 93.0756C156.523 97.7489 157.852 95.3236 160.139 97.5393C161.256 98.6216 161.605 101.259 161.089 102.109C160.212 101.925 157.908 102.682 156.854 103.767C155.8 104.851 155.093 106.035 155.321 107.708C155.595 109.72 156.08 111.815 155.584 113.725C155.186 115.251 153.795 116.43 152.601 116.155C152.134 116.046 151.682 116.38 151.598 116.866C151.353 118.274 150.928 119.625 150.336 120.852C149.756 122.06 148.626 123.262 147.579 122.607C147.008 122.249 146.714 121.465 146.466 120.74C145.871 119.003 145.276 117.022 145.878 115.341C146.25 114.302 147.058 113.463 147.063 112.313C147.068 111.088 146.164 110.13 145.81 108.969C145.532 108.051 145.903 104.535 145.462 103.714C142.204 97.6368 146.83 93.1121 147.397 86.6218"/>
<path fill="#653825" d="M137.221 86.0997C137.695 86.0061 137.956 85.2702 137.804 84.456C137.653 83.6419 137.146 83.0577 136.672 83.1513C136.199 83.2449 135.938 83.9808 136.089 84.795C136.241 85.6092 136.748 86.1933 137.221 86.0997Z"/>
<path fill="#653825" d="M124.817 88.1811C125.291 88.0875 125.552 87.3517 125.4 86.5375C125.249 85.7233 124.742 85.1392 124.268 85.2328C123.795 85.3264 123.534 86.0623 123.685 86.8764C123.837 87.6906 124.344 88.2747 124.817 88.1811Z"/>
<path stroke-linejoin="round" stroke-linecap="round" stroke-width="2" stroke="#20090A" d="M134.368 79.717C134.368 79.717 138.51 76.9759 141.846 79.7863"/>
<path stroke-linejoin="round" stroke-linecap="round" stroke-width="2" stroke="#20090A" d="M126.423 80.994C126.423 80.994 122.421 79.8274 120.702 82.5672"/>
<path stroke-linecap="round" stroke-miterlimit="10" stroke="#653825" d="M137.882 96.2495C137.882 96.2495 134.385 100.031 128.742 99.0862"/>
<path stroke-linecap="round" stroke-miterlimit="10" stroke="#653825" d="M135.415 99.6926C135.415 99.6926 133.573 100.958 131.936 100.38"/>
<path stroke-linecap="round" stroke-miterlimit="10" stroke="#653825" d="M131.373 88.688C131.373 88.688 131.675 90.7811 130.343 91.9405C129.95 92.2819 129.764 92.8255 129.864 93.3473C130.005 94.0876 130.548 94.9473 132.281 95.0102"/>
<path stroke-linecap="round" stroke-miterlimit="10" stroke="#653825" d="M140.817 83.8673C140.817 83.8673 137.329 80.6684 134.661 83.8462"/>
<path stroke-linecap="round" stroke-miterlimit="10" stroke="#653825" d="M127.874 85.6807C127.874 85.6807 123.951 83.0991 122.106 85.9701"/>
</g>
<path fill="white" d="M94.6911 49.9596L38.8278 49.7623C35.8053 49.7516 33.3489 52.2729 33.3413 55.3936L33.1334 140.775C33.1258 143.896 35.5699 146.434 38.5924 146.445L94.4557 146.642C97.4781 146.653 99.9345 144.132 99.9421 141.011L100.15 55.6296C100.158 52.5088 97.7136 49.9703 94.6911 49.9596Z"/>
<path fill="black" d="M43.8716 60.2687C43.5411 60.2675 43.2201 60.2009 42.9085 60.0688C42.5969 59.9368 42.3157 59.7393 42.065 59.4765L42.6533 58.7489C42.8297 58.9553 43.0272 59.1127 43.2457 59.2211C43.4643 59.3247 43.6783 59.377 43.8878 59.3777C44.1205 59.3785 44.2976 59.3324 44.4188 59.2392C44.5401 59.1415 44.6009 59.013 44.6013 58.854C44.6017 58.6809 44.5392 58.5498 44.4137 58.4604C44.2883 58.3664 44.0627 58.2627 43.7371 58.1493C43.4348 58.0407 43.179 57.9275 42.9698 57.8099C42.7607 57.6875 42.5865 57.5279 42.4473 57.3309C42.3128 57.1293 42.2459 56.8812 42.2466 56.5865C42.2472 56.3246 42.32 56.0863 42.4648 55.8716C42.6097 55.6523 42.8056 55.4799 43.0526 55.3545C43.2997 55.2291 43.5722 55.1669 43.8701 55.1679C44.168 55.169 44.4542 55.2261 44.7286 55.3394C45.0076 55.4479 45.268 55.6032 45.5095 55.8052L44.9421 56.5469C44.5519 56.2181 44.1915 56.0531 43.861 56.0519C43.6841 56.0513 43.5396 56.0976 43.4277 56.1907C43.3204 56.2792 43.2666 56.403 43.2662 56.562C43.2658 56.6977 43.3261 56.8101 43.4469 56.8994C43.5677 56.9841 43.7839 57.0901 44.0955 57.2175C44.4862 57.3732 44.7745 57.5005 44.9605 57.5994C45.1511 57.6983 45.3091 57.8392 45.4343 58.022C45.5642 58.2049 45.6288 58.446 45.6281 58.7454C45.6272 59.0868 45.5404 59.3718 45.3676 59.6004C45.1948 59.829 44.9733 59.999 44.703 60.1103C44.4374 60.2169 44.1603 60.2697 43.8716 60.2687ZM47.817 55.245L48.7597 55.2484L50.598 60.2363L49.5715 60.2327L49.2388 59.2352L47.3324 59.2285L46.9948 60.2236L45.9683 60.22L47.817 55.245ZM48.9545 58.3923L48.2959 56.4325L48.2819 56.4324L47.6208 58.3876L48.9545 58.3923ZM51.2682 55.2572L52.2598 55.2607L53.7752 58.1006L53.7891 58.1006L55.3113 55.2715L56.2959 55.275L56.2838 60.2564L55.3132 60.253L55.3207 57.1589L55.3067 57.1588L54.0934 59.3015L53.458 59.2992L52.2552 57.1481L52.2412 57.148L52.2337 60.2421L51.2561 60.2386L51.2682 55.2572ZM57.42 55.2789L58.4046 55.2824L58.3924 60.2639L57.4079 60.2604L57.42 55.2789ZM60.9304 55.2913L61.8731 55.2947L63.7114 60.2826L62.6849 60.279L62.3522 59.2815L60.4458 59.2748L60.1082 60.2699L59.0817 60.2663L60.9304 55.2913ZM62.0679 58.4386L61.4093 56.4788L61.3953 56.4787L60.7342 58.4339L62.0679 58.4386Z"/>
<path fill="#47A8B9" d="M79.154 123.219L43.7822 123.094C42.6201 123.09 41.6756 124.059 41.6727 125.259L41.6696 126.523C41.6667 127.723 42.6064 128.699 43.7685 128.703L79.1403 128.828C80.3024 128.832 81.2469 127.863 81.2498 126.663L81.2529 125.399C81.2558 124.199 80.3161 123.223 79.154 123.219Z"/>
<path fill="#47A8B9" d="M69.8429 115.575L43.7998 115.483C42.6376 115.479 41.6932 116.448 41.6903 117.648L41.6872 118.912C41.6843 120.112 42.624 121.088 43.7861 121.092L69.8292 121.184C70.9913 121.188 71.9358 120.219 71.9387 119.019L71.9418 117.755C71.9447 116.555 71.005 115.579 69.8429 115.575Z"/>
<path fill="#E6E6E6" d="M80.8197 66.0997L42.3933 65.964C42.0747 65.9628 41.8158 66.2282 41.815 66.5567C41.8142 66.8852 42.0718 67.1524 42.3904 67.1535L80.8168 67.2892C81.1354 67.2903 81.3944 67.025 81.3952 66.6965C81.396 66.368 81.1383 66.1008 80.8197 66.0997Z"/>
<path fill="#E6E6E6" d="M71.4945 64.4507L42.3967 64.3479C42.0781 64.3468 41.8192 64.6122 41.8184 64.9407C41.8176 65.2691 42.0752 65.5363 42.3938 65.5375L71.4916 65.6402C71.8102 65.6414 72.0691 65.376 72.0699 65.0475C72.0707 64.719 71.8131 64.4518 71.4945 64.4507Z"/>
<path fill="#E6E6E6" d="M80.797 75.1294L42.3706 74.9937C42.052 74.9925 41.7931 75.2579 41.7923 75.5864C41.7915 75.9149 42.0491 76.1821 42.3677 76.1832L80.7941 76.3189C81.1127 76.32 81.3717 76.0547 81.3725 75.7262C81.3733 75.3977 81.1156 75.1305 80.797 75.1294Z"/>
<path fill="#E6E6E6" d="M71.4724 73.4822L42.3746 73.3794C42.056 73.3783 41.7971 73.6436 41.7963 73.9721C41.7955 74.3006 42.0531 74.5678 42.3717 74.5689L71.4695 74.6717C71.7881 74.6728 72.047 74.4074 72.0478 74.079C72.0486 73.7505 71.791 73.4833 71.4724 73.4822Z"/>
<path fill="#E6E6E6" d="M76.7496 78.3449L42.3633 78.2234C42.0447 78.2223 41.7857 78.4877 41.7849 78.8161C41.7841 79.1446 42.0418 79.4118 42.3604 79.4129L76.7467 79.5344C77.0653 79.5355 77.3242 79.2702 77.325 78.9417C77.3258 78.6132 77.0682 78.346 76.7496 78.3449Z"/>
<path fill="#E6E6E6" d="M73.5692 76.7194L42.369 76.6092C42.0504 76.608 41.7915 76.8734 41.7907 77.2019C41.7899 77.5304 42.0475 77.7976 42.3661 77.7987L73.5663 77.9089C73.8849 77.91 74.1439 77.6446 74.1447 77.3162C74.1455 76.9877 73.8878 76.7205 73.5692 76.7194Z"/>
<path fill="#E6E6E6" d="M80.7828 81.5898L42.3564 81.454C42.0378 81.4529 41.7789 81.7183 41.7781 82.0468C41.7773 82.3752 42.0349 82.6424 42.3535 82.6436L80.7799 82.7793C81.0986 82.7804 81.3575 82.515 81.3583 82.1866C81.3591 81.8581 81.1015 81.5909 80.7828 81.5898Z"/>
<path fill="#E6E6E6" d="M71.4587 79.9425L42.361 79.8398C42.0423 79.8386 41.7834 80.104 41.7826 80.4325C41.7818 80.761 42.0395 81.0282 42.3581 81.0293L71.4558 81.1321C71.7744 81.1332 72.0334 80.8678 72.0342 80.5393C72.035 80.2109 71.7773 79.9437 71.4587 79.9425Z"/>
<path fill="#E6E6E6" d="M76.7353 84.8035L42.349 84.682C42.0304 84.6809 41.7714 84.9463 41.7706 85.2748C41.7698 85.6032 42.0275 85.8704 42.3461 85.8716L76.7324 85.993C77.051 85.9941 77.31 85.7288 77.3108 85.4003C77.3116 85.0718 77.0539 84.8046 76.7353 84.8035Z"/>
<path fill="#E6E6E6" d="M73.5504 83.1791L42.3502 83.0689C42.0316 83.0678 41.7727 83.3332 41.7719 83.6616C41.7711 83.9901 42.0287 84.2573 42.3473 84.2584L73.5475 84.3686C73.8661 84.3698 74.1251 84.1044 74.1259 83.7759C74.1267 83.4474 73.869 83.1802 73.5504 83.1791Z"/>
<path fill="#E6E6E6" d="M80.7658 88.0481L42.3394 87.9124C42.0207 87.9113 41.7618 88.1767 41.761 88.5051C41.7602 88.8336 42.0178 89.1008 42.3365 89.1019L80.7629 89.2377C81.0815 89.2388 81.3404 88.9734 81.3412 88.6449C81.342 88.3165 81.0844 88.0493 80.7658 88.0481Z"/>
<path fill="#E6E6E6" d="M71.4411 86.3992L42.3434 86.2964C42.0248 86.2953 41.7658 86.5606 41.765 86.8891C41.7642 87.2176 42.0219 87.4848 42.3405 87.4859L71.4382 87.5887C71.7568 87.5898 72.0158 87.3244 72.0166 86.996C72.0174 86.6675 71.7597 86.4003 71.4411 86.3992Z"/>
<path fill="#E6E6E6" d="M76.7183 91.2639L42.332 91.1424C42.0134 91.1413 41.7545 91.4066 41.7537 91.7351C41.7529 92.0636 42.0105 92.3308 42.3291 92.3319L76.7154 92.4534C77.0341 92.4545 77.293 92.1891 77.2938 91.8606C77.2946 91.5322 77.037 91.265 76.7183 91.2639Z"/>
<path fill="#E6E6E6" d="M73.5373 89.6377L42.3372 89.5275C42.0185 89.5264 41.7596 89.7918 41.7588 90.1202C41.758 90.4487 42.0156 90.7159 42.3343 90.717L73.5344 90.8272C73.8531 90.8284 74.112 90.563 74.1128 90.2345C74.1136 89.906 73.8559 89.6388 73.5373 89.6377Z"/>
<path fill="#E6E6E6" d="M80.7516 94.5088L42.3252 94.3731C42.0066 94.372 41.7476 94.6373 41.7468 94.9658C41.746 95.2943 42.0037 95.5615 42.3223 95.5626L80.7487 95.6983C81.0673 95.6995 81.3263 95.4341 81.3271 95.1056C81.3279 94.7771 81.0702 94.5099 80.7516 94.5088Z"/>
<path fill="#E6E6E6" d="M71.4252 92.8595L42.3275 92.7567C42.0089 92.7556 41.75 93.021 41.7492 93.3495C41.7484 93.6779 42.006 93.9451 42.3246 93.9463L71.4223 94.049C71.741 94.0502 71.9999 93.7848 72.0007 93.4563C72.0015 93.1278 71.7439 92.8606 71.4252 92.8595Z"/>
<path fill="#E6E6E6" d="M76.7036 97.7225L42.3173 97.601C41.9986 97.5999 41.7397 97.8653 41.7389 98.1937C41.7381 98.5222 41.9958 98.7894 42.3144 98.7905L76.7007 98.912C77.0193 98.9131 77.2782 98.6477 77.279 98.3193C77.2798 97.9908 77.0222 97.7236 76.7036 97.7225Z"/>
<path fill="#E6E6E6" d="M73.5198 96.0961L42.3196 95.9859C42.001 95.9848 41.742 96.2501 41.7412 96.5786C41.7404 96.9071 41.9981 97.1743 42.3167 97.1754L73.5169 97.2856C73.8355 97.2867 74.0944 97.0214 74.0952 96.6929C74.096 96.3644 73.8384 96.0972 73.5198 96.0961Z"/>
<path fill="#47A8B9" d="M46.8267 173.681L48.1676 173.685L49.6647 178.307L49.6826 178.307L51.2098 173.696L52.5345 173.7L50.2139 180.12L49.1264 180.117L46.8267 173.681Z"/>
<path fill="#47A8B9" d="M53.4503 179.91C53.1049 179.713 52.8382 179.44 52.6499 179.092C52.4615 178.744 52.3671 178.353 52.3681 177.92C52.3694 177.485 52.4659 177.094 52.6558 176.749C52.8461 176.402 53.1148 176.131 53.4604 175.937C53.8059 175.743 54.2012 175.645 54.6438 175.648C55.0864 175.65 55.4759 175.745 55.8223 175.936C56.1686 176.128 56.4394 176.398 56.6316 176.745C56.8234 177.093 56.9185 177.49 56.9186 177.937C56.9187 178.383 56.8192 178.78 56.6255 179.126C56.4318 179.473 56.1599 179.741 55.8119 179.929C55.4639 180.117 55.071 180.212 54.6319 180.21C54.1927 180.208 53.7932 180.109 53.4482 179.911L53.4503 179.91ZM55.4293 178.808C55.6437 178.58 55.7503 178.288 55.7514 177.931C55.7525 177.573 55.6479 177.274 55.4386 177.047C55.2292 176.82 54.9631 176.706 54.6419 176.704C54.3207 176.702 54.0469 176.819 53.8391 177.05C53.6314 177.281 53.5268 177.572 53.5253 177.922C53.5238 178.272 53.6297 178.555 53.8387 178.793C54.0481 179.028 54.3136 179.146 54.6365 179.149C54.9594 179.151 55.2167 179.037 55.4314 178.807L55.4293 178.808Z"/>
<path fill="#47A8B9" d="M57.978 174.893C57.8386 174.75 57.7688 174.58 57.7687 174.38C57.7686 174.181 57.8382 174.011 57.9808 173.87C58.1217 173.728 58.2884 173.659 58.4813 173.659C58.6743 173.659 58.8497 173.733 58.9895 173.873C59.1289 174.016 59.1986 174.187 59.1987 174.386C59.1988 174.585 59.1293 174.755 58.9867 174.896C58.8458 175.038 58.677 175.109 58.4772 175.107C58.2774 175.106 58.1174 175.035 57.978 174.893ZM57.8975 175.73L59.0454 175.734L59.0354 180.153L57.8875 180.149L57.8975 175.73Z"/>
<path fill="#47A8B9" d="M60.2545 175.738L61.4024 175.742L61.4013 176.394L61.4099 176.396C61.574 176.16 61.7683 175.981 61.9898 175.858C62.2129 175.735 62.4513 175.674 62.7085 175.674C62.7549 175.674 62.7845 175.678 62.7962 175.683L62.7925 176.967C62.7168 176.961 62.6174 176.958 62.4943 176.957C62.1497 176.956 61.8797 177.062 61.6876 177.276C61.4939 177.49 61.3974 177.766 61.3966 178.103L61.391 180.158L60.2431 180.154L60.2531 175.735L60.2545 175.738Z"/>
<path fill="#47A8B9" d="M65.9061 173.513L67.054 173.517L67.0389 180.179L65.8909 180.175L65.9061 173.513Z"/>
<path fill="#47A8B9" d="M69.0946 179.973C68.7589 179.782 68.497 179.511 68.3069 179.163C68.1185 178.816 68.0241 178.415 68.025 177.963C68.0258 177.512 68.1189 177.13 68.3048 176.788C68.4889 176.445 68.7429 176.177 69.0647 175.985C69.3865 175.793 69.7491 175.699 70.1529 175.699C70.5566 175.699 70.9255 175.799 71.243 175.992C71.5601 176.186 71.8068 176.452 71.9824 176.791C72.1563 177.131 72.2434 177.513 72.2434 177.941C72.242 178.177 72.2332 178.319 72.2152 178.367L69.2088 178.356C69.2784 178.623 69.4127 178.831 69.611 178.983C69.8092 179.135 70.0487 179.211 70.3289 179.212C70.7323 179.214 71.0653 179.049 71.3293 178.718L72.0734 179.436C71.8795 179.688 71.6255 179.89 71.3096 180.04C70.9937 180.191 70.6317 180.264 70.2228 180.263C69.8139 180.261 69.432 180.164 69.0963 179.973L69.0946 179.973ZM71.1037 177.513C71.0456 177.271 70.94 177.082 70.7851 176.945C70.6303 176.809 70.4305 176.741 70.1842 176.74C69.938 176.738 69.7396 176.805 69.5701 176.937C69.4006 177.069 69.2827 177.259 69.2184 177.506L71.1037 177.513Z"/>
<path fill="#47A8B9" d="M76.8986 179.897C76.4178 179.642 76.0343 179.268 75.7481 178.775C75.4637 178.282 75.3204 177.695 75.3234 177.013C75.324 176.392 75.4525 175.831 75.7038 175.33C75.9568 174.829 76.3205 174.434 76.7986 174.143C77.2749 173.852 77.845 173.708 78.5056 173.71C78.9609 173.711 79.4076 173.816 79.8421 174.023C80.2765 174.23 80.658 174.539 80.9846 174.95L80.0798 175.744C79.8824 175.501 79.6461 175.304 79.3708 175.153C79.0955 175.002 78.8079 174.925 78.5029 174.923C78.1459 174.921 77.8245 175.006 77.5387 175.177C77.2511 175.348 77.0265 175.592 76.8619 175.908C76.6972 176.223 76.6151 176.594 76.6144 177.016C76.6139 177.409 76.6922 177.762 76.8529 178.077C77.0135 178.391 77.2337 178.637 77.517 178.812C77.8 178.988 78.1265 179.076 78.4941 179.078C78.8047 179.08 79.0973 179.006 79.3712 178.86C79.6472 178.713 79.8806 178.516 80.0735 178.269L80.974 179.077C80.6872 179.444 80.3319 179.737 79.9101 179.957C79.4884 180.176 79.0144 180.284 78.4896 180.282C77.9112 180.28 77.3815 180.151 76.899 179.895L76.8986 179.897Z"/>
<path fill="#47A8B9" d="M81.4593 173.803L82.8002 173.807L84.2972 178.429L84.3151 178.429L85.8423 173.818L87.1671 173.822L84.8464 180.242L83.759 180.239L81.4593 173.803Z"/>
</g>
</svg>