<svg width="70" height="62" viewBox="0 0 70 62" fill="none" xmlns="http://www.w3.org/2000/svg">
<mask id="mask0_646_7321" style="mask-type:luminance" maskUnits="userSpaceOnUse" x="0" y="0" width="70" height="62">
<path fill-rule="evenodd" clip-rule="evenodd" d="M0.762695 0.40918H69.3087V61.9842H0.762695V0.40918Z" fill="white"/>
</mask>
<g mask="url(#mask0_646_7321)">
<path fill-rule="evenodd" clip-rule="evenodd" d="M62.5084 6.20863C62.5084 6.20863 49.9165 -6.84013 35.035 6.20863C20.1548 -6.84013 7.56293 6.20863 7.56293 6.20863C7.56293 6.20863 -5.60066 18.692 4.70153 38.5521C11.1866 51.054 21.5275 57.486 28.3006 60.5345C32.5934 62.4678 37.478 62.4678 41.7708 60.5345C48.5439 57.486 58.8848 51.054 65.3698 38.5521C75.672 18.692 62.5084 6.20863 62.5084 6.20863Z" fill="#FFF2D7"/>
</g>
<path fill-rule="evenodd" clip-rule="evenodd" d="M46.7949 10.3881C46.7949 10.3881 49.6621 14.6823 54.7014 16.5886C57.8508 17.779 59.49 20.1243 60.2766 21.7167C61.0059 23.1911 61.837 24.6145 62.8085 25.9441L63.7111 27.1757C64.3144 27.9995 65.2601 28.5109 66.286 28.5663C67.2202 28.616 67.9065 27.7069 67.5927 26.8319L62.2611 11.9819C62.2611 11.9819 58.6131 1.96168 51.5606 1.125L46.7949 10.3881Z" fill="#FFB096"/>
<mask id="mask1_646_7321" style="mask-type:luminance" maskUnits="userSpaceOnUse" x="34" y="0" width="26" height="48">
<path fill-rule="evenodd" clip-rule="evenodd" d="M34.124 0.349609H59.1656V47.4845H34.124V0.349609Z" fill="white"/>
</mask>
<g mask="url(#mask1_646_7321)">
<path fill-rule="evenodd" clip-rule="evenodd" d="M34.1254 36.7813L34.1354 36.6265V36.5967L34.9664 13.6669L35.008 12.5248C35.008 12.4012 35.018 12.2776 35.018 12.164C35.0596 11.6284 35.1427 11.0943 35.2573 10.5787C36.534 4.73329 41.7768 0.349609 48.067 0.349609C50.3194 0.349609 52.4372 0.905027 54.2856 1.8937L54.3056 1.94484V1.95478H54.3156V1.96472L58.1571 17.6499L58.2087 18.8432L58.2202 18.8645L58.3334 21.3958L59.1644 38.8197C59.1959 39.5286 58.6242 40.1152 57.9293 40.1152C57.8877 40.1152 57.8462 40.1053 57.8046 40.1053C57.2745 40.0542 56.8489 39.6834 56.7243 39.1791L53.1737 25.3065L52.9458 24.4002L52.9874 25.3889L53.8285 45.7149V45.7859C53.8285 46.7121 53.0805 47.4735 52.1363 47.4848C51.2852 47.4948 50.5487 46.8769 50.424 46.043L47.3821 26.315L47.2058 25.2141L47.1843 25.0693L46.4994 24.957L46.4894 25.1218L46.3963 26.2227L44.9735 43.8924C44.9104 44.6538 44.2671 45.2305 43.5206 45.2305C43.479 45.2305 43.426 45.2205 43.3859 45.2205C42.6795 45.158 42.1293 44.6026 42.0662 43.9137L40.2393 23.7723L40.2293 23.6289L40.2092 23.7425L37.3335 37.172C37.1773 37.9334 36.5025 38.449 35.766 38.449C35.6413 38.449 35.5167 38.4376 35.392 38.4078C34.624 38.243 34.0938 37.5527 34.1254 36.7813Z" fill="#FFB096"/>
</g>
<path d="M58.2167 18.8639C57.3469 17.9817 56.1892 17.1521 54.7019 16.5868C49.6654 14.6805 46.7969 10.3877 46.7969 10.3877" stroke="#BB826B" stroke-width="0.75" stroke-linecap="round"/>
<path d="M45.6729 24.9691C45.6729 24.9691 46.7876 25.2376 47.8479 25.2561" stroke="#BB826B" stroke-width="0.75" stroke-linecap="round"/>
<path fill-rule="evenodd" clip-rule="evenodd" d="M23.157 10.5281C23.157 10.5281 19.969 14.5936 14.7978 16.1136C11.5667 17.0639 9.7513 19.2784 8.8443 20.8055C8.00465 22.2217 7.06757 23.5783 5.9958 24.8298L5.0014 25.9918C4.33656 26.7674 3.35506 27.2049 2.3277 27.1836C1.39062 27.1623 0.777359 26.2034 1.15706 25.3554L7.61349 10.9514C7.61349 10.9514 12.0195 1.23376 19.115 0.932617L23.157 10.5281Z" fill="#FFB096"/>
<path fill-rule="evenodd" clip-rule="evenodd" d="M34.6455 12.7511L34.6556 15.2412V15.2526L33.7629 37.1823V37.2136C33.7113 37.975 33.1396 38.5929 32.3831 38.7065C32.2999 38.7165 32.2168 38.7264 32.1438 38.7264C31.3442 38.7264 30.6378 38.1398 30.5347 37.3272L28.811 24.4631L28.7909 24.2984L28.6978 23.608L28.5516 24.4418L28.5201 24.6478V24.6577L25.3033 43.6868C25.1887 44.3772 24.5969 44.8815 23.8906 44.8914H23.849C23.0609 44.8914 22.4061 44.2536 22.4061 43.451L22.3545 26.6649V26.3979L22.3445 24.6165V24.4532L21.6381 24.5143L21.6066 24.6478L21.1925 26.4177L21.1294 26.6862L16.8108 45.1798C16.6131 46.0136 15.8351 46.569 14.984 46.4966C14.0913 46.4142 13.4264 45.6741 13.4264 44.809C13.4264 44.7366 13.4264 44.6755 13.4379 44.6031L15.7204 25.3794L15.762 25.0597L15.9497 23.4134L15.441 24.9049L15.3479 25.1933L11.0594 37.8628C10.8831 38.3557 10.4275 38.6852 9.90737 38.7065H9.88731C9.13936 38.7065 8.55762 38.0574 8.64073 37.3272L10.6754 21.0454L10.7284 20.6548L11.0293 18.1845L11.2671 16.281L15.9913 1.90408L16.0744 1.65692C17.7551 0.874217 19.635 0.442383 21.6066 0.442383C28.4685 0.442383 34.1053 5.68121 34.6556 12.3391C34.6556 12.4726 34.6455 12.6175 34.6455 12.7511Z" fill="#FFB096"/>
<path d="M11.1182 18.1171C12.0524 17.3032 13.2703 16.5631 14.7977 16.1128C19.966 14.5914 23.1555 10.5273 23.1555 10.5273" stroke="#BB826B" stroke-width="0.75" stroke-linecap="round"/>
<path d="M23.1576 24.5297C23.1576 24.5297 22.0257 24.7129 20.9668 24.6518" stroke="#BB826B" stroke-width="0.75" stroke-linecap="round"/>
<path d="M33.9537 36.6127L34.8034 12.0947" stroke="#BB826B" stroke-width="0.75" stroke-linecap="round"/>
</svg>
