<?xml version="1.0" encoding="utf-8"?>
<!-- Generator: Adobe Illustrator 27.8.0, SVG Export Plug-In . SVG Version: 6.00 Build 0)  -->
<svg version="1.1" id="Calque_1" xmlns="http://www.w3.org/2000/svg" xmlns:xlink="http://www.w3.org/1999/xlink" x="0px" y="0px"
	 viewBox="0 0 997.9 1022.5" style="enable-background:new 0 0 997.9 1022.5;" xml:space="preserve">
<style type="text/css">
	.st0{fill:#3F3F3F;}
	.st1{fill:#FFFFFF;}
	.st2{fill:#FFFFFF;stroke:#98D3DD;stroke-width:2;stroke-miterlimit:10;}
	.st3{fill:#EBF6F9;}
	.st4{fill:#47A8B9;}
	.st5{fill:#FFFFFF;filter:url(#Adobe_OpacityMaskFilter);}
	.st6{mask:url(#mask0_162_8525_00000181806881946819853260000005428979357471957649_);}
	.st7{fill:#245B59;}
	.st8{fill:none;stroke:#1F4946;stroke-width:3;stroke-linecap:round;stroke-linejoin:round;}
	.st9{fill:#1F4946;stroke:#1F4946;stroke-width:0.75;stroke-miterlimit:10;}
	.st10{fill:#A65E48;}
	.st11{fill:#20090A;}
	.st12{fill:#EA602A;}
	.st13{display:none;fill:#20090A;}
	.st14{fill:#653825;}
	.st15{fill:none;stroke:#20090A;stroke-width:3;stroke-linecap:round;stroke-linejoin:round;}
	.st16{fill:none;stroke:#653825;stroke-width:3;stroke-linecap:round;stroke-miterlimit:10;}
	.st17{fill:#222222;}
	.st18{fill:none;}
	.st19{fill:#CCCBCB;}
	.st20{fill:#B3B3B2;}
	.st21{fill:none;stroke:#B7B6B6;stroke-miterlimit:10;}
	.st22{fill:none;stroke:#DE4D15;stroke-width:4;stroke-linecap:round;stroke-linejoin:round;stroke-miterlimit:10;}
</style>
<path class="st0" d="M908.4,647.1h-775V136.5c0-22.4,18.3-40.7,40.7-40.7h693.5c22.4,0,40.7,18.3,40.7,40.7V647.1z"/>
<path class="st1" d="M863.1,584.3H178.8c-8.6,0-15.5-7-15.5-15.5V148.6c0-16.3,13.3-29.6,29.6-29.6h656.2
	c16.3,0,29.6,13.3,29.6,29.6v420.1C878.6,577.4,871.7,584.3,863.1,584.3z"/>
<path class="st2" d="M720.7,157.4l-360.2-0.1c-8.7,0-15.7,7-15.6,15.7l1,360.4c0,8.7,7.1,15.7,15.7,15.7l360.2,0.1
	c8.7,0,15.7-7,15.6-15.7l-1-360.4C736.4,164.4,729.4,157.4,720.7,157.4z"/>
<path class="st3" d="M703.1,177.1l-327.2-0.1c-8.7,0-15.7,7-15.6,15.7l0.8,268.6c0,8.7,7.1,15.7,15.7,15.7l327.2,0.1
	c8.7,0,15.7-7,15.6-15.7l-0.8-268.6C718.8,184.2,711.7,177.1,703.1,177.1z"/>
<path class="st4" d="M693.4,492.2c-11.7,0-21.1,9.5-21.1,21.2c0,11.7,9.5,21.2,21.2,21.2c11.7,0,21.1-9.5,21.1-21.2
	C714.6,501.7,705.1,492.2,693.4,492.2z M703.9,510.1c0,0.2,0,0.4,0,0.7c0,6.7-5,14.4-14.3,14.4c-2.9,0-5.5-0.8-7.8-2.3
	c0.4,0,0.8,0.1,1.2,0.1c2.4,0,4.6-0.8,6.3-2.2c-2.2,0-4.1-1.5-4.7-3.5c0.3,0.1,0.6,0.1,1,0.1c0.5,0,0.9-0.1,1.3-0.2
	c-2.3-0.5-4.1-2.5-4.1-5l0-0.1c0.7,0.4,1.5,0.6,2.3,0.6c-1.4-0.9-2.3-2.5-2.3-4.2c0-0.9,0.2-1.8,0.7-2.5c2.5,3.1,6.2,5.1,10.4,5.3
	c-0.1-0.4-0.1-0.8-0.1-1.2c0-2.8,2.3-5.1,5-5.1c1.5,0,2.8,0.6,3.7,1.6c1.1-0.2,2.2-0.6,3.2-1.2c-0.4,1.2-1.2,2.2-2.2,2.8
	c1-0.1,2-0.4,2.9-0.8C705.7,508.5,704.9,509.3,703.9,510.1L703.9,510.1z"/>
<path class="st4" d="M597.2,492.6c-11.6,0-20.9,9.4-20.9,20.9c0,11.6,9.4,20.9,21,20.9c11.6,0,20.9-9.4,20.9-20.9
	C618.2,502,608.8,492.6,597.2,492.6z M591.2,524.2l-5.1,0l0-15.3l5.1,0L591.2,524.2z M588.6,506.8L588.6,506.8
	c-1.7,0-2.9-1.2-2.9-2.7c0-1.5,1.1-2.6,2.9-2.7c1.7,0,2.8,1.1,2.9,2.7C591.5,505.6,590.4,506.8,588.6,506.8L588.6,506.8z
	 M609.6,524.2l-5.1,0l0-8.2c0-2.1-0.7-3.5-2.6-3.5c-1.4,0-2.2,0.9-2.6,1.9c-0.1,0.3-0.2,0.8-0.2,1.2l0,8.6l-5.1,0c0,0,0-13.9,0-15.3
	l5.1,0l0,2.2c0.7-1,1.9-2.5,4.6-2.5c3.4,0,5.9,2.2,5.9,6.9L609.6,524.2z"/>
<path class="st4" d="M645.4,492.6c-11.6,0-20.9,9.4-20.9,20.9s9.4,20.9,21,20.9c11.6,0,20.9-9.4,20.9-20.9
	C666.4,502,657,492.6,645.4,492.6z M651.2,505.4l-3,0c-0.5,0-1.2,0.2-1.2,1.3l0,2.8l4.2,0l-0.5,4.8l-3.7,0l0,13.7l-5.7,0l0-13.7
	l-2.7,0l0-4.8l2.7,0l0-3.1c0-2.2,1-5.7,5.7-5.7l4.2,0L651.2,505.4L651.2,505.4z"/>
<defs>
	<filter id="Adobe_OpacityMaskFilter" filterUnits="userSpaceOnUse" x="496.8" y="218.6" width="242.5" height="321.7">
		<feColorMatrix  type="matrix" values="1 0 0 0 0  0 1 0 0 0  0 0 1 0 0  0 0 0 1 0"/>
	</filter>
</defs>
<mask maskUnits="userSpaceOnUse" x="496.8" y="218.6" width="242.5" height="321.7" id="mask0_162_8525_00000181806881946819853260000005428979357471957649_">
	<path class="st5" d="M703.8,177.1L376.7,177c-8.7,0-15.7,7-15.6,15.7l0.8,268.6c0,8.7,7.1,15.7,15.7,15.7l327.2,0.1
		c8.7,0,15.7-7,15.6-15.7l-0.8-268.6C719.5,184.1,712.5,177.1,703.8,177.1z"/>
</mask>
<g class="st6">
	<path class="st7" d="M534.9,362.9l-38.1,125.6l35.7,11.8l51.5-64.2"/>
	<path class="st7" d="M720.5,411.2c0,0-23.3-50.7-33.1-63.3c-20.3-21-44.3-13.3-70-25.7c-30.8-14.9-13.7-6.4-45.3,4.5
		c-25.5,7.9-25.2,14.6-36.3,34.1c-8.9,15.6,18.7,57.3,20.7,70.8c6,41-18.7,29.9-12.8,70.9c0.8,5.6,14.4,22.3,24.1,24.2
		c34.7,6.6,69.2,15.3,104.4,13.5c25.4-1.3,41.9-16.1,43.1-52.1c3.1-2.4,21.1,0.8,23.9-26.4C741,446.6,720.5,411.2,720.5,411.2
		L720.5,411.2z"/>
	<path class="st7" d="M636.4,316.1c0.4,0.4,0.8,0.9,1.2,1.4c0.7,1.2,0.9,2.6,0.9,4c0,1.2-0.1,2.5-0.4,3.7c-0.5,2.3-1.4,4.4-2.4,6.5
		c-0.6,1.4-1.3,2.8-2.1,4.2c-0.5,0.8-1,1.5-1.5,2.2c-0.3,0.5-0.7,0.9-1,1.4c-0.2,0.3-0.5,0.6-0.8,0.7c-0.3,0.1-0.6,0-0.9-0.1
		c-1-0.3-2-0.6-2.7-1.4c-0.6-0.6-0.8-1.5-1.1-2.3c-0.5-1.6-0.9-3.4-0.7-5c-0.1,0.2,0.7,1.2,0.9,1.2c-0.3-1.3-0.2-3.5,0.5-4.6
		c1.1-1.9,2.2-3.8,3.1-5.8c0.4-1,0.8-2,1.2-3c0.4-1,0.7-2,1.1-2.9c0.2-0.6,0.4-1.8,0.9-2.3C633.6,313.1,635.7,315.4,636.4,316.1z"/>
	<path class="st8" d="M564.1,341.1c0,0,17.2,18.3,34.6,13.6c0,0,24.1,13.3,33.6-18.1"/>
	<path class="st8" d="M542.8,488.5c0,0,0.6-14.3,7.9-24.3c10.3-14.2,4.9-30.7,4.9-30.7l-13.5-42.9"/>
	<path class="st9" d="M602.8,350c-3.8,4.5-4.2,10.7-3.3,16.4c0.5,2.9,1.3,5.8,2.2,8.7s1.6,5.7,1.8,8.7c0.2,3.2-0.3,6.4-2,9.1
		c-0.3,0.5,0,1.2,0.5,1.5c0.6,0.3,1.1,0,1.5-0.5c3.3-5.2,2.4-11.6,0.9-17.2c-1.5-5.6-3.6-11.1-3.1-16.9c0.3-3,1.2-6,3.1-8.3
		C605.3,350.3,603.7,348.9,602.8,350L602.8,350z"/>
	<path class="st9" d="M597,350c-3.7,5.1-5.4,11.6-4.6,17.9c0.8,6.3,4.2,11.9,5.1,18.2c0.5,3.4,0.3,7-1.6,9.9c-0.3,0.5,0,1.2,0.5,1.5
		c0.6,0.3,1.1,0,1.5-0.5c3.4-5.5,1.9-12.5-0.1-18.2c-1-3-2.2-5.9-2.9-9c-0.7-3-0.7-6-0.2-9c0.6-3.3,1.9-6.5,3.9-9.3
		c0.3-0.5,0.4-1.1-0.1-1.5C598.1,349.5,597.3,349.5,597,350L597,350z"/>
	<path class="st8" d="M654.8,402.8l15.4,30.4c0,0,16.8,30.4-10.9,45.6"/>
	<path class="st10" d="M635.9,282.8c3.2,30.3-13.5,62.2-34.2,64.3c-20.7,2.1-44-27.8-47.2-58.1c-3.2-30.3,15.6-43.3,36.3-45.5
		C611.5,241.4,632.7,252.5,635.9,282.8L635.9,282.8z"/>
	<path class="st11" d="M583.9,270.1c5.2,10.3-19.9,26.4-35.3,25.8C548.5,295.9,565.8,258.6,583.9,270.1z"/>
	<path class="st12" d="M558.3,306.8c-6.2-3.3-13.5-10.4-14-16.8c-0.8-9.5,5.6-18.5,5.8-28c0.1-2.8-0.4-5.7-0.5-8.5
		c0-3.4,0.7-6.8,1.5-10.2c1.5-5.8,3.9-11.8,8.8-15.9c4.3-3.6,10.1-5.4,15.8-6.7c7-1.6,14.2-2.5,21.2-1.8c7.1,0.6,14.1,2.9,19.3,7.2
		c4,3.3,6.8,7.5,9.5,11.7c5.8,9,11.6,18,15.9,27.6c2.4,5.4,4.3,11.1,4.6,16.9c0.3,5.8-1.2,11.9-5,16.7c-0.9,1.2-3.7,3.3-5.2,2.8
		c-0.6-0.2-1.3-0.5-1.3-1c-0.8-5.9-3.7-12.5-8.2-17.6c-4.5-5.2-13.7-9.1-20.7-11.2c-5.1-1.6-10.7-1.6-16.2-1.2
		c-6.9,0.5-13.8,1.9-19.8,5c-6,3.2-10.9,8.3-12.1,14.4c-1,4.8,0.4,11.3,1.1,15.3"/>
	<path class="st13" d="M558.2,301.7c-1.1,6-1.9,5.8-5,8.3c-3.1,2.4-6.5,6.4-5.6,11.5c0.2,1.2,0.7,2.4,0.8,3.6
		c0.2,2.6-1.3,4.7-2.9,5.9c-1.6,1.2-3.6,1.8-4.7,3.7c-4,7.1,0.7,12.7,2.2,14.5c2.2-2.5,5.6-2.5,7.6,0.7c2,3.1,2.7,7.4,3,11.5
		c0.4,4.9-1.7,5.3-0.4,10.4c1.2,4.5,7.3,4.3,9.3,0.5c1.2,4.3,3,8.2,5.3,11.6c1.8,2.6,4.7,4.9,6.5,2.9c1-1.1,1.3-3.1,1.5-4.9
		c0.4-4.4,0.8-9.3-1.3-13c-1.3-2.3-3.3-3.9-3.9-6.6c-0.6-2.9,2.6-6,2.7-10.9c0.1-5.2-4.9-6.4-2.8-12.6
		C575.8,323.1,562.4,316.7,558.2,301.7"/>
	<path class="st13" d="M634.1,298.3c2.7,5.6,3.5,5.3,7.7,7c4.1,1.7,8.2,1.1,10.9,8.5c4.2,11.2,7.5,5.4,13.2,10.7
		c2.8,2.6,3.7,8.9,2.4,11c-2.2-0.4-7.9,1.4-10.5,4c-2.6,2.6-4.3,5.5-3.8,9.5c0.7,4.8,1.9,9.9,0.7,14.5c-1,3.7-4.4,6.5-7.4,5.9
		c-1.2-0.3-2.3,0.5-2.5,1.7c-0.6,3.4-1.6,6.6-3.1,9.6c-1.4,2.9-4.2,5.8-6.8,4.2c-1.4-0.9-2.2-2.7-2.8-4.5c-1.5-4.2-3-8.9-1.5-13
		c0.9-2.5,2.9-4.5,2.9-7.3c0-2.9-2.3-5.2-3.2-8c-0.7-2.2,0.2-10.7-0.9-12.6C621.4,324.8,632.8,313.9,634.1,298.3"/>
	<path class="st14" d="M608.8,296.1c1.2-0.2,1.8-2,1.4-4c-0.4-2-1.7-3.4-2.8-3.1c-1.2,0.2-1.8,2-1.4,4
		C606.4,294.9,607.7,296.3,608.8,296.1z"/>
	<path class="st14" d="M578.1,301.2c1.2-0.2,1.8-2,1.4-4c-0.4-2-1.7-3.4-2.8-3.1c-1.2,0.2-1.8,2-1.4,4
		C575.7,300,576.9,301.4,578.1,301.2z"/>
	<path class="st15" d="M601.7,281.8c0,0,10.2-6.6,18.6,0.1"/>
	<path class="st15" d="M582,284.9c0,0-9.9-2.8-14.2,3.8"/>
	<path class="st16" d="M610.6,321.5c0,0-8.6,9.1-22.6,6.9"/>
	<path class="st16" d="M604.5,329.8c0,0-4.6,3.1-8.6,1.7"/>
	<path class="st16" d="M594.4,303.4c0,0,0.8,5-2.5,7.8c-1,0.8-1.4,2.1-1.2,3.4c0.4,1.8,1.7,3.8,6,4"/>
	<path class="st16" d="M617.7,291.7c0,0-8.7-7.7-15.3,0"/>
	<path class="st16" d="M585.6,296.2c0,0-9.8-6.2-14.3,0.7"/>
</g>
<path class="st17" d="M390.3,413.1c-1.3,0-2.5-0.3-3.7-0.8c-1.2-0.5-2.3-1.3-3.3-2.3l2.3-2.8c0.7,0.8,1.5,1.4,2.3,1.8
	c0.8,0.4,1.7,0.6,2.5,0.6c0.9,0,1.6-0.2,2-0.5c0.5-0.4,0.7-0.9,0.7-1.5c0-0.7-0.2-1.2-0.7-1.5c-0.5-0.4-1.4-0.8-2.6-1.2
	c-1.2-0.4-2.2-0.8-3-1.3c-0.8-0.5-1.5-1.1-2-1.8c-0.5-0.8-0.8-1.7-0.8-2.9c0-1,0.3-1.9,0.8-2.8c0.6-0.8,1.3-1.5,2.3-2
	c1-0.5,2-0.7,3.2-0.7c1.2,0,2.3,0.2,3.3,0.6c1.1,0.4,2.1,1,3,1.8l-2.2,2.9c-1.5-1.3-2.9-1.9-4.2-1.9c-0.7,0-1.2,0.2-1.7,0.5
	c-0.4,0.3-0.6,0.8-0.6,1.4c0,0.5,0.2,1,0.7,1.3c0.5,0.3,1.3,0.7,2.5,1.2c1.5,0.6,2.6,1.1,3.3,1.5c0.7,0.4,1.4,0.9,1.8,1.6
	c0.5,0.7,0.8,1.6,0.8,2.8c0,1.3-0.3,2.4-1,3.3c-0.7,0.9-1.5,1.5-2.6,2C392.5,412.9,391.4,413.1,390.3,413.1z M405.4,393.7l3.6,0
	l7.2,19.2l-4,0L411,409l-7.4,0l-1.3,3.8l-4,0L405.4,393.7z M409.9,405.8l-2.6-7.5l-0.1,0l-2.5,7.5L409.9,405.8z M418.7,393.7l3.8,0
	l5.9,10.9l0.1,0l5.8-10.9l3.8,0l0.1,19.2l-3.7,0l0-11.9l-0.1,0l-4.6,8.3l-2.5,0l-4.7-8.3l-0.1,0l0,11.9l-3.8,0L418.7,393.7z
	 M442.5,393.7l3.8,0l0.1,19.2l-3.8,0L442.5,393.7z"/>
<path class="st4" d="M475.8,442.8l-87.8,0c-2.9,0-5.2,2.3-5.2,5.2l0,3c0,2.9,2.4,5.2,5.2,5.2l87.8,0c2.9,0,5.2-2.3,5.2-5.2l0-3
	C481,445.2,478.7,442.8,475.8,442.8z"/>
<path class="st4" d="M452.6,424.5l-64.6,0c-2.9,0-5.2,2.3-5.2,5.2l0,3c0,2.9,2.4,5.2,5.2,5.2l64.6,0c2.9,0,5.2-2.3,5.2-5.2l0-3
	C457.8,426.9,455.5,424.5,452.6,424.5z"/>
<path class="st12" d="M385.7,508.4l3.3,0l3.8,11.1l0,0l3.7-11.1l3.3,0l-5.7,15.5l-2.7,0L385.7,508.4z"/>
<path class="st12" d="M402.2,523.3c-0.9-0.5-1.5-1.1-2-2c-0.5-0.8-0.7-1.8-0.7-2.8c0-1,0.2-2,0.7-2.8c0.5-0.8,1.1-1.5,2-2
	c0.9-0.5,1.8-0.7,2.9-0.7c1.1,0,2.1,0.2,2.9,0.7c0.9,0.5,1.5,1.1,2,1.9c0.5,0.8,0.7,1.8,0.7,2.9c0,1.1-0.2,2-0.7,2.9
	c-0.5,0.8-1.1,1.5-2,1.9c-0.9,0.5-1.8,0.7-2.9,0.7C404,524,403.1,523.8,402.2,523.3L402.2,523.3z M407.1,520.6
	c0.5-0.5,0.8-1.3,0.8-2.1c0-0.9-0.3-1.6-0.8-2.1c-0.5-0.5-1.2-0.8-2-0.8c-0.8,0-1.5,0.3-2,0.8c-0.5,0.6-0.8,1.3-0.8,2.1
	c0,0.8,0.3,1.5,0.8,2.1c0.5,0.6,1.2,0.8,2,0.9C405.9,521.5,406.6,521.2,407.1,520.6L407.1,520.6z"/>
<path class="st12" d="M413.4,511.2c-0.3-0.3-0.5-0.8-0.5-1.2c0-0.5,0.2-0.9,0.5-1.2c0.3-0.3,0.8-0.5,1.2-0.5c0.5,0,0.9,0.2,1.3,0.5
	c0.3,0.3,0.5,0.8,0.5,1.2c0,0.5-0.2,0.9-0.5,1.2c-0.3,0.3-0.8,0.5-1.3,0.5C414.1,511.7,413.7,511.6,413.4,511.2z M413.2,513.2l2.8,0
	l0,10.6l-2.8,0L413.2,513.2z"/>
<path class="st12" d="M419,513.2l2.8,0l0,1.6l0,0c0.4-0.6,0.9-1,1.4-1.3c0.6-0.3,1.1-0.4,1.8-0.4c0.1,0,0.2,0,0.2,0l0,3.1
	c-0.2,0-0.4,0-0.7,0c-0.9,0-1.5,0.3-2,0.8c-0.5,0.5-0.7,1.2-0.7,2l0,4.9l-2.8,0L419,513.2L419,513.2z"/>
<path class="st12" d="M433,507.8l2.8,0l0,16l-2.8,0L433,507.8z"/>
<path class="st12" d="M441,523.3c-0.8-0.5-1.5-1.1-2-1.9c-0.5-0.8-0.7-1.8-0.7-2.9c0-1.1,0.2-2,0.7-2.8c0.5-0.8,1.1-1.5,1.9-1.9
	c0.8-0.5,1.7-0.7,2.7-0.7c1,0,1.9,0.2,2.7,0.7c0.8,0.5,1.4,1.1,1.8,1.9c0.4,0.8,0.7,1.7,0.7,2.8c0,0.6,0,0.9-0.1,1l-7.5,0
	c0.2,0.6,0.5,1.1,1,1.5c0.5,0.4,1.1,0.5,1.8,0.5c1,0,1.8-0.4,2.5-1.2l1.9,1.7c-0.5,0.6-1.1,1.1-1.9,1.5c-0.8,0.4-1.7,0.5-2.7,0.5
	C442.8,524,441.9,523.8,441,523.3L441,523.3z M446,517.4c-0.1-0.6-0.4-1-0.8-1.4c-0.4-0.3-0.9-0.5-1.5-0.5c-0.6,0-1.1,0.2-1.5,0.5
	c-0.4,0.3-0.7,0.8-0.9,1.4L446,517.4z"/>
<path class="st12" d="M460.4,523.1c-1.2-0.6-2.2-1.5-2.9-2.7c-0.7-1.2-1.1-2.6-1.1-4.2c0-1.5,0.3-2.8,0.9-4c0.6-1.2,1.5-2.2,2.7-2.9
	c1.2-0.7,2.6-1.1,4.2-1.1c1.1,0,2.2,0.2,3.3,0.7c1.1,0.5,2,1.2,2.8,2.2l-2.2,1.9c-0.5-0.6-1.1-1.1-1.8-1.4c-0.7-0.4-1.4-0.5-2.2-0.5
	c-0.9,0-1.7,0.2-2.4,0.6c-0.7,0.4-1.3,1-1.7,1.8c-0.4,0.8-0.6,1.6-0.6,2.7c0,0.9,0.2,1.8,0.6,2.5c0.4,0.8,1,1.3,1.7,1.8
	c0.7,0.4,1.5,0.6,2.4,0.6c0.8,0,1.5-0.2,2.2-0.5c0.7-0.4,1.3-0.8,1.7-1.4l2.2,1.9c-0.7,0.9-1.6,1.6-2.6,2.1c-1,0.5-2.2,0.8-3.5,0.8
	C462.9,524,461.6,523.7,460.4,523.1L460.4,523.1z"/>
<path class="st12" d="M471.6,508.4l3.3,0l3.8,11.1l0,0l3.7-11.1l3.3,0l-5.7,15.5l-2.7,0L471.6,508.4z"/>
<path class="st7" d="M558.8,320c-1.2,1-5.4,4.9-2.9,9.1c2.1,3.5,6.6,9.2,8.8,11.3c1.4,1.4,10.1,5.2,12.1,3.7
	c1.4-1.1,1.8-6.4,0.5-7.7c-4.8-5-7.8-12.1-10.5-15.8C564.1,317.2,562.3,317,558.8,320z"/>
<path class="st18" d="M878.6,584.3H163.3V133.1c0-7.7,6.3-14,14-14h687.3c7.7,0,14,6.3,14,14V584.3z"/>
<polygon class="st19" points="133.5,617.4 44.1,847 997.9,847 908.6,617.4 "/>
<polygon class="st0" points="160.7,634.5 115.2,755 915,755 874.8,634.5 "/>
<path class="st20" d="M917.7,926.7H124.2c-44.3,0-80.1-35.9-80.1-80.1v0h953.8v0C997.8,890.8,961.9,926.7,917.7,926.7z"/>
<path class="st0" d="M387.6,846.6h252.2v11.7c0,18.6-15.1,33.7-33.7,33.7H421.4c-18.6,0-33.7-15.1-33.7-33.7L387.6,846.6
	L387.6,846.6L387.6,846.6z"/>
<path class="st21" d="M634.9,768.2H392.6c-2.8,0-5,2.3-5,5v54.1c0,2.8,2.3,5,5,5h242.2c2.8,0,5-2.3,5-5v-54.1
	C639.9,770.5,637.6,768.2,634.9,768.2z"/>
<path class="st22" d="M546.1,277.2c1.2-4.8,2.5-9.7,5.4-13.7c1.5-2.2,3.5-4.1,5.4-5.9c4.8-4.4,10.2-8.8,16.7-9.5"/>
<path class="st22" d="M546.1,277.2c-1.4,7.8-4.1,21.4,10.8,28.9"/>
<path class="st22" d="M559.7,256.4c-2.3,7.3-1.8,14.9,2.6,21.2c0.2,0.3,0.4,0.5,0.8,0.5c0.3,0-4.7,6.2-5,6.3
	c-6.6-3.5-9.2-11.3-6.9-18.4"/>
<path class="st22" d="M546.1,281.8c1,5.5,4.1,10.2,9.2,12.6"/>
<path class="st22" d="M567.6,250.3c-1.5,5.7-1.9,10.8,0.5,16.2c1,2.2,2.8,4.8,5,5.7"/>
</svg>
