<svg width="161" height="151" viewBox="0 0 161 151" fill="none" xmlns="http://www.w3.org/2000/svg">
<mask id="mask0_609_311" style="mask-type:luminance" maskUnits="userSpaceOnUse" x="0" y="0" width="161" height="151">
<path fill-rule="evenodd" clip-rule="evenodd" d="M0 0.144592H160.46V150.348H0V0.144592Z" fill="white"/>
</mask>
<g mask="url(#mask0_609_311)">
<path fill-rule="evenodd" clip-rule="evenodd" d="M144.541 14.2915C144.541 14.2915 115.065 -17.5391 80.2282 14.2915C45.3951 -17.5391 15.9187 14.2915 15.9187 14.2915C15.9187 14.2915 -14.896 44.743 9.22045 93.1888C24.4014 123.685 48.6084 139.375 64.4636 146.811C74.5127 151.527 85.947 151.527 95.9961 146.811C111.851 139.375 136.058 123.685 151.239 93.1888C175.356 44.743 144.541 14.2915 144.541 14.2915Z" fill="#ECF8FB"/>
</g>
<path fill-rule="evenodd" clip-rule="evenodd" d="M107.759 24.4876C107.759 24.4876 114.47 34.9627 126.267 39.6129C133.639 42.5166 137.476 48.2375 139.318 52.1219C141.025 55.7187 142.971 59.1908 145.245 62.4341L147.358 65.4384C148.77 67.4481 150.984 68.6956 153.385 68.8307C155.572 68.952 157.179 66.7343 156.444 64.5998L143.963 28.3755C143.963 28.3755 135.424 3.93255 118.915 1.8916L107.759 24.4876Z" fill="#F7B998"/>
<mask id="mask1_609_311" style="mask-type:luminance" maskUnits="userSpaceOnUse" x="78" y="0" width="59" height="115">
<path fill-rule="evenodd" clip-rule="evenodd" d="M78.0964 0H136.717V114.979H78.0964V0Z" fill="white"/>
</mask>
<g mask="url(#mask1_609_311)">
<path fill-rule="evenodd" clip-rule="evenodd" d="M78.0996 88.8688L78.123 88.4911V88.4183L80.0685 32.4844L80.1657 29.6985C80.1657 29.397 80.1892 29.0955 80.1892 28.8183C80.2865 27.512 80.481 26.2091 80.7494 24.9513C83.7379 10.6923 96.0108 -0.0010376 110.736 -0.0010376C116.008 -0.0010376 120.966 1.35382 125.293 3.76554L125.34 3.89029V3.91454H125.363V3.9388L134.356 42.2006L134.476 45.1113L134.503 45.1633L134.768 51.3381L136.714 93.8412C136.787 95.5703 135.449 97.0014 133.822 97.0014C133.725 97.0014 133.628 96.9772 133.531 96.9772C132.289 96.8524 131.293 95.948 131.001 94.7179L122.69 60.8776L122.157 58.6668L122.254 61.0786L124.223 110.661V110.834C124.223 113.093 122.472 114.951 120.261 114.978C118.269 115.003 116.545 113.495 116.253 111.461L109.132 63.3378L108.72 60.6524L108.669 60.2989L107.066 60.0252L107.043 60.4271L106.825 63.1126L103.494 106.215C103.346 108.072 101.84 109.479 100.093 109.479C99.9956 109.479 99.8715 109.455 99.7775 109.455C98.1239 109.303 96.8359 107.948 96.6884 106.267L92.4118 57.1353L92.3883 56.7853L92.3414 57.0625L85.6095 89.8217C85.2439 91.679 83.6641 92.9368 81.9401 92.9368C81.6483 92.9368 81.3565 92.9091 81.0646 92.8364C79.2668 92.4344 78.0258 90.7504 78.0996 88.8688Z" fill="#F7B998"/>
</g>
<path d="M134.496 45.1619C132.46 43.01 129.75 40.9864 126.268 39.6073C114.478 34.9571 107.763 24.4855 107.763 24.4855" stroke="#BB826B" stroke-width="0.75" stroke-linecap="round"/>
<path d="M105.13 60.0557C105.13 60.0557 107.739 60.7106 110.222 60.7556" stroke="#BB826B" stroke-width="0.75" stroke-linecap="round"/>
<path fill-rule="evenodd" clip-rule="evenodd" d="M52.4235 24.83C52.4235 24.83 44.9604 34.7471 32.8552 38.4548C25.2916 40.773 21.0419 46.1751 18.9187 49.9001C16.9531 53.3548 14.7595 56.664 12.2506 59.7167L9.92281 62.5512C8.36648 64.4432 6.06887 65.5104 3.66394 65.4584C1.47031 65.4065 0.0347276 63.0675 0.923582 60.9988L16.0375 25.8626C16.0375 25.8626 26.3515 2.1577 42.9614 1.4231L52.4235 24.83Z" fill="#F7B998"/>
<path fill-rule="evenodd" clip-rule="evenodd" d="M79.3171 30.2522L79.3406 36.3266V36.3543L77.251 89.8488V89.925C77.1302 91.7823 75.7919 93.2896 74.0209 93.5668C73.8264 93.5911 73.6318 93.6153 73.4608 93.6153C71.5891 93.6153 69.9355 92.1842 69.694 90.2022L65.659 58.8221L65.612 58.4202L65.394 56.7361L65.0519 58.7701L64.9781 59.2726V59.2968L57.448 105.716C57.1796 107.4 55.7944 108.63 54.1408 108.654H54.0435C52.1987 108.654 50.6658 107.098 50.6658 105.14L50.5451 64.193V63.5416L50.5216 59.1963V58.7978L48.868 58.9468L48.7942 59.2726L47.8249 63.5901L47.6773 64.245L37.5678 109.357C37.1049 111.391 35.2836 112.746 33.2913 112.57C31.2016 112.369 29.6453 110.563 29.6453 108.453C29.6453 108.276 29.6453 108.127 29.6721 107.951L35.0153 61.0571L35.1126 60.2775L35.552 56.2614L34.3612 59.8998L34.1432 60.6032L24.1042 91.5086C23.6916 92.7109 22.625 93.5149 21.4074 93.5668H21.3605C19.6096 93.5668 18.2478 91.9833 18.4424 90.2022L23.2053 50.485L23.3294 49.5321L24.0338 43.5063L24.5905 38.863L35.6492 3.79259L35.8438 3.18966C39.7782 1.28039 44.1789 0.22699 48.7942 0.22699C64.8573 0.22699 78.0526 13.0063 79.3406 29.2473C79.3406 29.5731 79.3171 29.9265 79.3171 30.2522Z" fill="#F7B998"/>
<path d="M24.241 43.3424C26.4279 41.3569 29.2789 39.5515 32.8545 38.4531C44.9529 34.7419 52.4193 24.8282 52.4193 24.8282" stroke="#BB826B" stroke-width="0.75" stroke-linecap="round"/>
<path d="M52.4244 58.9836C52.4244 58.9836 49.7746 59.4306 47.2959 59.2816" stroke="#BB826B" stroke-width="0.75" stroke-linecap="round"/>
<path d="M77.6977 88.4588L79.6867 28.6509" stroke="#BB826B" stroke-width="0.75" stroke-linecap="round"/>
</svg>
