<svg width="66" height="66" viewBox="0 0 66 66" fill="none" xmlns="http://www.w3.org/2000/svg">
<path d="M53.3312 14.1973L15.0273 28.2202L42.724 54.9913" stroke="#FFB688" stroke-miterlimit="10"/>
<mask id="mask0_5198_22568" style="mask-type:luminance" maskUnits="userSpaceOnUse" x="0" y="11" width="26" height="28">
<path d="M12.6697 38.7366C19.667 38.7366 25.3395 32.601 25.3395 25.0324C25.3395 17.4637 19.667 11.3281 12.6697 11.3281C5.67244 11.3281 0 17.4637 0 25.0324C0 32.601 5.67244 38.7366 12.6697 38.7366Z" fill="white"/>
</mask>
<g mask="url(#mask0_5198_22568)">
<path d="M28.58 10.6914H-2.65234V40.9682H28.58V10.6914Z" fill="#FF9739"/>
<path d="M18.857 33.6391H5.89259C4.12472 32.683 4.12472 30.1333 5.59795 28.5398C7.36582 26.6276 6.48188 25.6715 6.77653 23.1219C6.77653 18.66 9.42833 15.1543 12.9641 15.1543C13.5534 15.1543 14.4373 15.473 14.7319 16.1104C17.0891 15.1543 19.1516 19.2974 19.1516 23.1219C18.5623 26.9463 18.5623 26.9463 19.4463 28.2211C21.2141 29.8146 20.9195 33.3204 18.857 33.6391Z" fill="#7C3B00"/>
<path d="M26.8116 45.7489C26.2223 45.1115 25.6331 43.8366 25.3384 42.5618L22.392 34.5943C22.0973 32.682 21.2134 32.3633 19.4455 32.0446C19.1509 32.0446 15.9098 30.4511 15.6151 30.4511C13.258 29.8137 13.8472 30.1324 12.9633 30.1324C12.0794 30.1324 11.4901 30.1324 10.0169 30.7698C9.72221 30.7698 7.07041 32.0446 6.77576 32.0446C5.00789 32.3633 4.4186 32.682 3.82931 34.5943L1.17751 42.5618C0.882861 43.5179 0.29357 44.7928 -0.29572 45.7489L-5.30469 53.079L-3.53682 54.6726L3.53467 49.5733C5.00789 47.9798 6.18647 46.0676 6.48112 44.1554L7.36505 40.6496L18.8562 40.9683L20.0348 44.4741C20.6241 46.3863 21.8027 48.2985 23.2759 49.892L30.3474 54.9913L32.1152 53.3977L26.8116 45.7489Z" fill="#47A8B9"/>
<path d="M18.8539 52.1229H7.65739C6.47881 52.1229 5.88952 52.1229 5.88952 51.1668C7.0681 46.0675 6.18416 40.3309 4.71094 34.2755C4.71094 33.0007 5.59487 32.3633 6.77345 32.3633H19.7378C20.9164 32.3633 21.8004 33.3194 21.8004 34.2755C20.6218 40.9683 19.1486 47.0236 20.9164 51.1668C20.9164 52.1229 20.0325 52.1229 18.8539 52.1229Z" fill="#47A8B9"/>
<path d="M17.086 31.726C17.086 32.3634 15.0235 34.913 12.6663 34.913C10.3092 34.913 8.83594 32.6821 8.83594 31.726C8.83594 30.7699 10.6038 30.4512 12.961 30.4512C15.3181 30.4512 17.086 31.0886 17.086 31.726Z" fill="#FAC49F"/>
<path d="M15.0274 27.2637H10.9023V30.7694H15.0274V27.2637Z" fill="#FAC49F"/>
<path d="M10.9023 28.2207C10.9023 28.2207 11.7863 28.8581 12.9649 28.8581C12.9649 28.8581 14.1434 28.8581 15.0274 28.2207V28.8581C14.4381 29.4955 12.3756 31.089 10.9023 28.8581V28.2207Z" fill="#F6AB78"/>
<path d="M12.9626 28.8575C15.4036 28.8575 17.3823 26.0037 17.3823 22.4834C17.3823 18.9631 15.4036 16.1094 12.9626 16.1094C10.5217 16.1094 8.54297 18.9631 8.54297 22.4834C8.54297 26.0037 10.5217 28.8575 12.9626 28.8575Z" fill="#FAC49F"/>
<path d="M18.0392 24.117C18.5717 23.4516 18.7042 22.632 18.3351 22.2864C17.966 21.9408 17.235 22.2 16.7025 22.8655C16.17 23.5309 16.0375 24.3505 16.4066 24.6961C16.7757 25.0417 17.5067 24.7824 18.0392 24.117Z" fill="#FAC49F"/>
<path d="M9.50305 24.6687C9.87216 24.3231 9.73969 23.5035 9.20716 22.8381C8.67464 22.1727 7.94371 21.9134 7.57459 22.259C7.20548 22.6046 7.33795 23.4242 7.87048 24.0896C8.403 24.755 9.13393 25.0143 9.50305 24.6687Z" fill="#FAC49F"/>
<path d="M17.3823 22.1647C16.2037 23.1208 15.3198 21.2086 14.7305 19.2964C14.7305 18.9777 14.4359 18.9777 14.4359 19.2964C13.2573 22.1647 9.72155 22.1647 8.54297 22.1647C8.54297 18.9777 10.6055 16.1094 12.9626 16.1094C15.3198 16.1094 17.3823 18.9777 17.3823 22.1647Z" fill="#7C3B00"/>
</g>
<mask id="mask1_5198_22568" style="mask-type:luminance" maskUnits="userSpaceOnUse" x="27" y="38" width="27" height="28">
<path d="M40.6619 65.5081C47.6592 65.5081 53.3317 59.3725 53.3317 51.8038C53.3317 44.2352 47.6592 38.0996 40.6619 38.0996C33.6646 38.0996 27.9922 44.2352 27.9922 51.8038C27.9922 59.3725 33.6646 65.5081 40.6619 65.5081Z" fill="white"/>
</mask>
<g mask="url(#mask1_5198_22568)">
<path d="M56.5722 37.4629H25.3398V67.7397H56.5722V37.4629Z" fill="#FFC449"/>
<path d="M54.8038 72.202C54.2145 71.5646 53.6252 70.2898 53.3306 69.015L50.3841 61.0474C49.7949 59.1352 48.9109 58.8165 47.143 58.4978C46.8484 58.4978 43.6073 56.9042 43.3127 56.9042C41.2501 56.2668 41.8394 56.5855 40.6609 56.5855C39.7769 56.5855 39.1876 56.5855 38.009 57.2229C37.7144 57.2229 35.0626 58.4978 34.768 58.4978C33.0001 58.8165 32.4108 59.1352 31.8215 61.0474L29.1697 69.015C28.875 69.9711 28.2858 71.2459 27.6965 72.202L22.6875 79.5322L24.4554 81.1257L31.5269 76.0264C33.0001 74.4329 34.1787 72.5207 34.768 70.6085L35.9465 67.1027L47.4377 67.4214L48.6163 70.9272C49.2056 72.8394 50.3841 74.7516 51.8574 76.3451L58.9289 81.4444L60.6967 79.8509L54.8038 72.202Z" fill="#EB612A"/>
<path d="M46.5531 78.8944H35.3566C34.178 78.8944 33.5887 78.8944 33.5887 77.9383C34.7673 72.839 33.8834 67.1023 32.4102 61.047C32.4102 59.7722 33.2941 59.1348 34.4727 59.1348H47.4371C48.6156 59.1348 49.4996 60.0909 49.4996 61.047C48.321 67.7398 46.8478 73.7951 48.6156 77.9383C48.6156 78.8944 47.7317 78.8944 46.5531 78.8944Z" fill="#EB612A"/>
<path d="M44.7852 58.4975C44.7852 59.1349 42.7227 61.6845 40.3655 61.6845C38.0084 61.6845 36.5352 59.4536 36.5352 58.4975C36.5352 57.5414 38.303 57.2227 40.6602 57.2227C43.0174 57.2227 44.7852 57.8601 44.7852 58.4975Z" fill="#DD864B"/>
<path d="M42.7227 53.7168H38.5977V57.2225H42.7227V53.7168Z" fill="#DD864B"/>
<path d="M38.5977 54.9922C38.5977 54.9922 39.7762 55.6296 40.6602 55.6296C40.6602 55.6296 41.8388 55.6296 42.7227 54.9922V55.6296C42.1334 56.267 40.0709 57.8605 38.5977 55.6296V54.9922Z" fill="#DD864B"/>
<path d="M40.6619 55.629C43.1028 55.629 45.0815 52.7752 45.0815 49.2549C45.0815 45.7346 43.1028 42.8809 40.6619 42.8809C38.2209 42.8809 36.2422 45.7346 36.2422 49.2549C36.2422 52.7752 38.2209 55.629 40.6619 55.629Z" fill="#DD864B"/>
<path d="M45.8439 50.8826C46.3764 50.2172 46.5089 49.3976 46.1398 49.052C45.7706 48.7064 45.0397 48.9657 44.5072 49.6311C43.9747 50.2965 43.8422 51.1161 44.2113 51.4617C44.5804 51.8073 45.3114 51.5481 45.8439 50.8826Z" fill="#DD864B"/>
<path d="M37.296 51.4343C37.6651 51.0887 37.5327 50.2691 37.0001 49.6037C36.4676 48.9383 35.7367 48.679 35.3676 49.0246C34.9984 49.3702 35.1309 50.1898 35.6634 50.8552C36.196 51.5207 36.9269 51.7799 37.296 51.4343Z" fill="#DD864B"/>
<path d="M45.3756 48.9366C43.9024 49.574 43.0185 47.9805 42.4292 46.0682C42.4292 45.7495 42.1345 45.7495 42.1345 46.0682C40.956 48.9366 36.8309 48.9366 35.6523 48.9366C35.6523 45.4308 37.7149 42.5625 40.6613 42.5625C43.6078 42.5625 45.3756 45.4308 45.3756 48.9366Z" fill="#39150D"/>
</g>
<mask id="mask2_5198_22568" style="mask-type:luminance" maskUnits="userSpaceOnUse" x="40" y="0" width="26" height="28">
<path d="M53.3299 27.9007C60.3272 27.9007 65.9996 21.7651 65.9996 14.1964C65.9996 6.62778 60.3272 0.492188 53.3299 0.492188C46.3326 0.492188 40.6602 6.62778 40.6602 14.1964C40.6602 21.7651 46.3326 27.9007 53.3299 27.9007Z" fill="white"/>
</mask>
<g mask="url(#mask2_5198_22568)">
<path d="M69.2402 0.173828H38.0078V30.4506H69.2402V0.173828Z" fill="#EB602A"/>
<path d="M46.5536 19.2957C47.2045 19.2957 47.7322 18.725 47.7322 18.0209C47.7322 17.3168 47.2045 16.7461 46.5536 16.7461C45.9027 16.7461 45.375 17.3168 45.375 18.0209C45.375 18.725 45.9027 19.2957 46.5536 19.2957Z" fill="#39150D"/>
<path d="M45.9637 21.2078C46.6147 21.2078 47.1423 20.6371 47.1423 19.933C47.1423 19.229 46.6147 18.6582 45.9637 18.6582C45.3128 18.6582 44.7852 19.229 44.7852 19.933C44.7852 20.6371 45.3128 21.2078 45.9637 21.2078Z" fill="#39150D"/>
<path d="M46.2606 22.4832C46.9115 22.4832 47.4392 21.9125 47.4392 21.2084C47.4392 20.5043 46.9115 19.9336 46.2606 19.9336C45.6097 19.9336 45.082 20.5043 45.082 21.2084C45.082 21.9125 45.6097 22.4832 46.2606 22.4832Z" fill="#39150D"/>
<path d="M47.7333 17.3836C48.3842 17.3836 48.9118 16.8129 48.9118 16.1088C48.9118 15.4047 48.3842 14.834 47.7333 14.834C47.0824 14.834 46.5547 15.4047 46.5547 16.1088C46.5547 16.8129 47.0824 17.3836 47.7333 17.3836Z" fill="#39150D"/>
<path d="M48.0262 14.5164C48.6771 14.5164 49.2048 13.9457 49.2048 13.2416C49.2048 12.5376 48.6771 11.9668 48.0262 11.9668C47.3753 11.9668 46.8477 12.5376 46.8477 13.2416C46.8477 13.9457 47.3753 14.5164 48.0262 14.5164Z" fill="#39150D"/>
<path d="M48.0262 12.284C48.6771 12.284 49.2048 11.7132 49.2048 11.0092C49.2048 10.3051 48.6771 9.73438 48.0262 9.73438C47.3753 9.73438 46.8477 10.3051 46.8477 11.0092C46.8477 11.7132 47.3753 12.284 48.0262 12.284Z" fill="#39150D"/>
<path d="M48.6161 10.3719C49.267 10.3719 49.7947 9.80114 49.7947 9.09708C49.7947 8.39302 49.267 7.82227 48.6161 7.82227C47.9652 7.82227 47.4375 8.39302 47.4375 9.09708C47.4375 9.80114 47.9652 10.3719 48.6161 10.3719Z" fill="#39150D"/>
<path d="M49.4989 8.45978C50.1498 8.45978 50.6775 7.88903 50.6775 7.18497C50.6775 6.48091 50.1498 5.91016 49.4989 5.91016C48.848 5.91016 48.3203 6.48091 48.3203 7.18497C48.3203 7.88903 48.848 8.45978 49.4989 8.45978Z" fill="#39150D"/>
<path d="M50.9755 7.5047C51.6264 7.5047 52.154 6.93395 52.154 6.22989C52.154 5.52583 51.6264 4.95508 50.9755 4.95508C50.3245 4.95508 49.7969 5.52583 49.7969 6.22989C49.7969 6.93395 50.3245 7.5047 50.9755 7.5047Z" fill="#39150D"/>
<path d="M52.1512 6.54767C52.8022 6.54767 53.3298 5.97692 53.3298 5.27286C53.3298 4.5688 52.8022 3.99805 52.1512 3.99805C51.5003 3.99805 50.9727 4.5688 50.9727 5.27286C50.9727 5.97692 51.5003 6.54767 52.1512 6.54767Z" fill="#39150D"/>
<path d="M54.2137 6.54767C54.8646 6.54767 55.3923 5.97692 55.3923 5.27286C55.3923 4.5688 54.8646 3.99805 54.2137 3.99805C53.5628 3.99805 53.0352 4.5688 53.0352 5.27286C53.0352 5.97692 53.5628 6.54767 54.2137 6.54767Z" fill="#39150D"/>
<path d="M56.2762 7.5047C56.9271 7.5047 57.4548 6.93395 57.4548 6.22989C57.4548 5.52583 56.9271 4.95508 56.2762 4.95508C55.6253 4.95508 55.0977 5.52583 55.0977 6.22989C55.0977 6.93395 55.6253 7.5047 56.2762 7.5047Z" fill="#39150D"/>
<path d="M57.7489 8.45978C58.3998 8.45978 58.9275 7.88903 58.9275 7.18497C58.9275 6.48091 58.3998 5.91016 57.7489 5.91016C57.098 5.91016 56.5703 6.48091 56.5703 7.18497C56.5703 7.88903 57.098 8.45978 57.7489 8.45978Z" fill="#39150D"/>
<path d="M58.6356 10.3719C59.2865 10.3719 59.8142 9.80114 59.8142 9.09708C59.8142 8.39302 59.2865 7.82227 58.6356 7.82227C57.9847 7.82227 57.457 8.39302 57.457 9.09708C57.457 9.80114 57.9847 10.3719 58.6356 10.3719Z" fill="#39150D"/>
<path d="M58.9286 12.284C59.5795 12.284 60.1072 11.7132 60.1072 11.0092C60.1072 10.3051 59.5795 9.73438 58.9286 9.73438C58.2777 9.73438 57.75 10.3051 57.75 11.0092C57.75 11.7132 58.2777 12.284 58.9286 12.284Z" fill="#39150D"/>
<path d="M58.9286 14.1961C59.5795 14.1961 60.1072 13.6254 60.1072 12.9213C60.1072 12.2172 59.5795 11.6465 58.9286 11.6465C58.2777 11.6465 57.75 12.2172 57.75 12.9213C57.75 13.6254 58.2777 14.1961 58.9286 14.1961Z" fill="#39150D"/>
<path d="M58.9286 16.4285C59.5795 16.4285 60.1072 15.8578 60.1072 15.1537C60.1072 14.4497 59.5795 13.8789 58.9286 13.8789C58.2777 13.8789 57.75 14.4497 57.75 15.1537C57.75 15.8578 58.2777 16.4285 58.9286 16.4285Z" fill="#39150D"/>
<path d="M59.5184 18.659C60.1693 18.659 60.697 18.0882 60.697 17.3842C60.697 16.6801 60.1693 16.1094 59.5184 16.1094C58.8675 16.1094 58.3398 16.6801 58.3398 17.3842C58.3398 18.0882 58.8675 18.659 59.5184 18.659Z" fill="#39150D"/>
<path d="M60.4012 20.5711C61.0521 20.5711 61.5798 20.0004 61.5798 19.2963C61.5798 18.5922 61.0521 18.0215 60.4012 18.0215C59.7503 18.0215 59.2227 18.5922 59.2227 19.2963C59.2227 20.0004 59.7503 20.5711 60.4012 20.5711Z" fill="#39150D"/>
<path d="M60.1083 22.4832C60.7592 22.4832 61.2868 21.9125 61.2868 21.2084C61.2868 20.5043 60.7592 19.9336 60.1083 19.9336C59.4574 19.9336 58.9297 20.5043 58.9297 21.2084C58.9297 21.9125 59.4574 22.4832 60.1083 22.4832Z" fill="#39150D"/>
<path d="M59.2225 23.1199L46.5527 22.8012C44.7849 21.8451 44.7849 19.2955 46.2581 17.7019C47.7313 15.7897 47.142 14.8336 47.142 12.284C47.142 7.82214 49.7938 4.31641 53.3296 4.31641C53.9189 4.31641 54.8028 4.63511 55.0975 5.27252C57.4546 4.31641 59.5171 8.45955 59.5171 12.284C58.9278 16.1084 58.9278 16.4271 60.1064 17.3832C61.5797 19.2955 61.285 22.8012 59.2225 23.1199Z" fill="#39150D"/>
<path d="M67.4735 34.9129C66.8842 34.2755 66.2949 33.0007 66.0002 31.7259L63.0538 23.7583C62.4645 21.8461 61.5806 21.5274 59.8127 21.2087C59.518 21.2087 56.277 19.6152 55.9823 19.6152C53.9198 18.9778 54.5091 19.2965 53.3305 19.2965C52.4466 19.2965 51.8573 19.2965 50.384 19.9339C50.0894 19.9339 47.4376 21.2087 47.143 21.2087C45.3751 21.5274 44.7858 21.8461 44.1965 23.7583L41.5447 31.7259C41.2501 32.682 40.6608 33.9568 40.0715 34.9129L35.0625 42.2431L36.8304 43.8366L43.9019 38.7374C45.3751 37.1439 46.5537 35.2316 47.143 33.3194L48.0269 29.8137L59.5181 30.1324L60.6966 33.6381C61.2859 35.5503 62.4645 37.4626 63.9377 39.0561L71.0092 44.1553L72.7771 42.5618L67.4735 34.9129Z" fill="#FFB688"/>
<path d="M59.225 41.2869H48.0285C46.8499 41.2869 46.2606 41.2869 46.2606 40.3308C47.4392 35.2316 46.5553 29.4949 45.082 23.4396C45.082 22.4835 45.966 21.5273 47.1445 21.5273H60.1089C61.2875 21.5273 62.1715 22.4835 62.1715 23.4396C60.9929 30.1323 59.5196 36.1877 61.2875 40.3308C61.5822 41.2869 60.4036 41.2869 59.225 41.2869Z" fill="#FFB688"/>
<path d="M57.7501 20.89C57.7501 21.5275 55.6876 24.0771 53.3304 24.0771C50.9732 24.0771 49.5 21.8462 49.5 20.89C49.5 19.9339 51.2679 19.6152 53.625 19.6152C55.9822 19.6152 57.7501 20.2526 57.7501 20.89Z" fill="#653825"/>
<path d="M55.6875 16.4277H51.5625V19.9335H55.6875V16.4277Z" fill="#653825"/>
<path d="M51.5625 17.3848C51.5625 17.3848 52.7411 18.0222 53.625 18.0222C53.625 18.0222 54.8036 18.0222 55.6875 17.3848V18.0222C55.0982 18.6596 53.0357 20.2531 51.5625 18.0222V17.3848Z" fill="#39150D"/>
<path d="M53.3298 18.3399C55.7708 18.3399 57.7495 15.4862 57.7495 11.9659C57.7495 8.44556 55.7708 5.5918 53.3298 5.5918C50.8889 5.5918 48.9102 8.44556 48.9102 11.9659C48.9102 15.4862 50.8889 18.3399 53.3298 18.3399Z" fill="#653825"/>
<path d="M58.629 13.199C59.1616 12.5336 59.294 11.714 58.9249 11.3684C58.5558 11.0228 57.8249 11.2821 57.2924 11.9475C56.7598 12.6129 56.6274 13.4325 56.9965 13.7781C57.3656 14.1237 58.0965 13.8645 58.629 13.199Z" fill="#653825"/>
<path d="M50.1007 13.7664C50.4698 13.4208 50.3373 12.6012 49.8048 11.9357C49.2723 11.2703 48.5414 11.011 48.1723 11.3566C47.8031 11.7023 47.9356 12.5219 48.4681 13.1873C49.0007 13.8527 49.7316 14.112 50.1007 13.7664Z" fill="#653825"/>
<path d="M58.0425 11.6472C56.5693 12.2846 55.98 10.691 55.3907 8.77883C55.3907 8.46013 55.096 8.46013 55.096 8.77883C53.9174 11.6472 50.3817 11.6472 49.2031 11.6472C49.2031 8.46013 51.2656 5.5918 53.6228 5.5918C55.98 5.5918 58.0425 8.14142 58.0425 11.6472Z" fill="#39150D"/>
</g>
</svg>
