<svg width="35" height="28" viewBox="0 0 35 28" fill="none" xmlns="http://www.w3.org/2000/svg">
<path d="M29.0576 11.4996C29.3532 10.6389 29.504 9.73161 29.504 8.82623" stroke="#FFB00D" stroke-linecap="round" stroke-linejoin="round"/>
<path d="M30.7705 11.7528C31.3254 10.7269 32.0331 9.77881 32.8655 8.94531" stroke="#FFB00D" stroke-linecap="round" stroke-linejoin="round"/>
<path d="M31.6952 13.2681C32.037 13.1224 32.3788 12.9786 32.7206 12.8329C33.1428 12.6541 33.5751 12.4715 34.0355 12.4268" stroke="#FFB00D" stroke-linecap="round" stroke-linejoin="round"/>
<path d="M14.4215 25.8154L24.5669 25.8406C25.3993 25.8426 26.2196 26.031 26.9635 26.3905L29.7703 27.7447C30.2568 27.9797 30.8279 27.6378 30.8279 27.1113V18.8191C30.8279 14.9702 27.5687 11.8228 23.5878 11.8228H14.4215C10.4386 11.8228 7.18146 14.9722 7.18146 18.8191C7.18146 22.6679 10.4406 25.8154 14.4215 25.8154Z" fill="#47A8B9"/>
<path d="M16.5118 14.3559L6.36641 14.3812C5.53403 14.3831 4.71371 14.5716 3.9698 14.931L1.16303 16.2852C0.676473 16.5203 0.105469 16.1783 0.105469 15.6518V7.35959C0.105469 3.51075 3.36461 0.363281 7.34556 0.363281H16.5118C20.4947 0.363281 23.7519 3.51269 23.7519 7.35959C23.7519 11.2084 20.4927 14.3559 16.5118 14.3559Z" fill="#C1E9DF"/>
<path d="M11.1641 7.72523C11.3531 7.61837 11.5582 7.597 11.7834 7.65723C12.3524 7.81071 12.845 7.80489 13.2652 7.63974C13.6834 7.4746 13.9729 7.12099 14.1277 6.58087C14.2484 6.1651 14.1921 5.77652 13.9608 5.41903C13.7296 5.06154 13.3818 4.81868 12.9174 4.69239C12.4529 4.56611 11.9804 4.60691 11.5301 4.81674C11.2707 4.94497 11.0294 4.978 10.8042 4.91777C10.6414 4.87308 10.5087 4.78371 10.4082 4.64965C10.2312 4.42233 10.1769 4.19696 10.2413 3.97158C10.2976 3.77924 10.4283 3.62769 10.6374 3.51306C11.0355 3.28963 11.4697 3.1478 11.9362 3.08952C12.4026 3.03123 12.8731 3.0662 13.3476 3.19443C13.9327 3.35181 14.4293 3.62575 14.8375 4.01433C15.2456 4.4029 15.5251 4.86142 15.6799 5.39183C15.8327 5.92224 15.8307 6.45847 15.6759 6.99859C15.4446 7.79711 15.0244 8.36638 14.4172 8.70444C13.808 9.0425 13.0963 9.1649 12.278 9.0697C12.2297 9.07553 12.2036 9.08913 12.1956 9.11439L12.0629 9.57679C12.0005 9.79245 11.8739 9.95371 11.6869 10.0606C11.4979 10.1674 11.2928 10.1888 11.0676 10.1286C10.8424 10.0683 10.6796 9.94594 10.575 9.75943C10.4705 9.57485 10.4504 9.37279 10.5127 9.15713L10.7861 8.20901C10.8485 7.99335 10.9731 7.83209 11.1621 7.72523H11.1641ZM9.83916 11.9976C9.74266 11.8325 9.73059 11.6285 9.79895 11.3876L9.85927 11.1758C9.92964 10.9349 10.0483 10.7678 10.2192 10.6745C10.3901 10.5813 10.5992 10.5677 10.8505 10.6357L11.0194 10.6803C11.2687 10.7484 11.4416 10.8649 11.5381 11.0281C11.6346 11.1933 11.6467 11.3973 11.5783 11.6382L11.518 11.85C11.4476 12.0909 11.327 12.258 11.1581 12.3512C10.9872 12.4445 10.7761 12.4561 10.5268 12.3901L10.3579 12.3454C10.1086 12.2774 9.93567 12.1628 9.83916 11.9976Z" fill="#47A8B9"/>
<path d="M14.582 19.8206L16.6368 21.8062L22.6545 15.9912" stroke="white" stroke-width="2" stroke-linecap="round" stroke-linejoin="round"/>
</svg>
