<svg width="50" height="40" viewBox="0 0 50 40" fill="none" xmlns="http://www.w3.org/2000/svg">
<path d="M41.5996 23.4506H17.5632C17.3107 23.4506 17.0582 23.3638 16.8706 23.2192L15.096 21.8232C14.9085 21.6786 14.6488 21.5918 14.4035 21.5918H0.711694C0.264438 21.5918 -0.0313282 21.8594 0.0480237 22.1993L3.97955 38.8707C4.05891 39.2034 4.48452 39.4783 4.93178 39.4783H45.3796C45.8269 39.4783 46.1227 39.2106 46.0433 38.8707L42.5518 24.0509C42.4725 23.7182 42.0469 23.4506 41.5996 23.4506Z" fill="#2D8C96"/>
<path d="M37.2717 0.248047H8.59675C7.03856 0.248047 5.76172 1.52823 5.76172 3.0905V33.3304C5.76172 34.8927 7.03856 36.1729 8.59675 36.1729H41.2465C42.8046 36.1729 44.0815 34.8927 44.0815 33.3304V7.03955L37.2717 0.248047Z" fill="#DEF5FA"/>
<mask id="mask0_1534_2474" style="mask-type:luminance" maskUnits="userSpaceOnUse" x="8" y="4" width="10" height="10">
<path d="M13.2863 13.4187C15.8002 13.4187 17.8382 11.3754 17.8382 8.85485C17.8382 6.33431 15.8002 4.29102 13.2863 4.29102C10.7723 4.29102 8.73438 6.33431 8.73438 8.85485C8.73438 11.3754 10.7723 13.4187 13.2863 13.4187Z" fill="white"/>
</mask>
<g mask="url(#mask0_1534_2474)">
<path d="M18.9271 4.14648H7.84668V14.1276H18.9271V4.14648Z" fill="#FF9C5D"/>
</g>
<mask id="mask1_1534_2474" style="mask-type:luminance" maskUnits="userSpaceOnUse" x="8" y="4" width="10" height="10">
<path d="M13.2863 13.4187C15.8002 13.4187 17.8382 11.3754 17.8382 8.85485C17.8382 6.33431 15.8002 4.29102 13.2863 4.29102C10.7723 4.29102 8.73438 6.33431 8.73438 8.85485C8.73438 11.3754 10.7723 13.4187 13.2863 13.4187Z" fill="white"/>
</mask>
<g mask="url(#mask1_1534_2474)">
<path d="M10.9199 10.5121C11.1669 10.5121 11.3672 10.3113 11.3672 10.0637C11.3672 9.816 11.1669 9.61523 10.9199 9.61523C10.6729 9.61523 10.4727 9.816 10.4727 10.0637C10.4727 10.3113 10.6729 10.5121 10.9199 10.5121Z" fill="#3D1000"/>
</g>
<mask id="mask2_1534_2474" style="mask-type:luminance" maskUnits="userSpaceOnUse" x="8" y="4" width="10" height="10">
<path d="M13.2863 13.4187C15.8002 13.4187 17.8382 11.3754 17.8382 8.85485C17.8382 6.33431 15.8002 4.29102 13.2863 4.29102C10.7723 4.29102 8.73438 6.33431 8.73438 8.85485C8.73438 11.3754 10.7723 13.4187 13.2863 13.4187Z" fill="white"/>
</mask>
<g mask="url(#mask2_1534_2474)">
<path d="M10.6963 11.098C10.9433 11.098 11.1435 10.8973 11.1435 10.6496C11.1435 10.4019 10.9433 10.2012 10.6963 10.2012C10.4493 10.2012 10.249 10.4019 10.249 10.6496C10.249 10.8973 10.4493 11.098 10.6963 11.098Z" fill="#3D1000"/>
</g>
<mask id="mask3_1534_2474" style="mask-type:luminance" maskUnits="userSpaceOnUse" x="8" y="4" width="10" height="10">
<path d="M13.2863 13.4187C15.8002 13.4187 17.8382 11.3754 17.8382 8.85485C17.8382 6.33431 15.8002 4.29102 13.2863 4.29102C10.7723 4.29102 8.73438 6.33431 8.73438 8.85485C8.73438 11.3754 10.7723 13.4187 13.2863 13.4187Z" fill="white"/>
</mask>
<g mask="url(#mask3_1534_2474)">
<path d="M10.8183 11.5531C11.0654 11.5531 11.2656 11.3523 11.2656 11.1047C11.2656 10.857 11.0654 10.6562 10.8183 10.6562C10.5713 10.6562 10.3711 10.857 10.3711 11.1047C10.3711 11.3523 10.5713 11.5531 10.8183 11.5531Z" fill="#3D1000"/>
</g>
<mask id="mask4_1534_2474" style="mask-type:luminance" maskUnits="userSpaceOnUse" x="8" y="4" width="10" height="10">
<path d="M13.2863 13.4187C15.8002 13.4187 17.8382 11.3754 17.8382 8.85485C17.8382 6.33431 15.8002 4.29102 13.2863 4.29102C10.7723 4.29102 8.73438 6.33431 8.73438 8.85485C8.73438 11.3754 10.7723 13.4187 13.2863 13.4187Z" fill="white"/>
</mask>
<g mask="url(#mask4_1534_2474)">
<path d="M11.2656 9.86756C11.5126 9.86756 11.7129 9.66679 11.7129 9.41913C11.7129 9.17147 11.5126 8.9707 11.2656 8.9707C11.0186 8.9707 10.8184 9.17147 10.8184 9.41913C10.8184 9.66679 11.0186 9.86756 11.2656 9.86756Z" fill="#3D1000"/>
</g>
<mask id="mask5_1534_2474" style="mask-type:luminance" maskUnits="userSpaceOnUse" x="8" y="4" width="10" height="10">
<path d="M13.2863 13.4187C15.8002 13.4187 17.8382 11.3754 17.8382 8.85485C17.8382 6.33431 15.8002 4.29102 13.2863 4.29102C10.7723 4.29102 8.73438 6.33431 8.73438 8.85485C8.73438 11.3754 10.7723 13.4187 13.2863 13.4187Z" fill="white"/>
</mask>
<g mask="url(#mask5_1534_2474)">
<path d="M11.3672 8.96326C11.6142 8.96326 11.8144 8.76249 11.8144 8.51483C11.8144 8.26717 11.6142 8.06641 11.3672 8.06641C11.1202 8.06641 10.9199 8.26717 10.9199 8.51483C10.9199 8.76249 11.1202 8.96326 11.3672 8.96326Z" fill="#3D1000"/>
</g>
<mask id="mask6_1534_2474" style="mask-type:luminance" maskUnits="userSpaceOnUse" x="8" y="4" width="10" height="10">
<path d="M13.2863 13.4187C15.8002 13.4187 17.8382 11.3754 17.8382 8.85485C17.8382 6.33431 15.8002 4.29102 13.2863 4.29102C10.7723 4.29102 8.73438 6.33431 8.73438 8.85485C8.73438 11.3754 10.7723 13.4187 13.2863 13.4187Z" fill="white"/>
</mask>
<g mask="url(#mask6_1534_2474)">
<path d="M11.3672 8.22693C11.6142 8.22693 11.8144 8.02616 11.8144 7.77851C11.8144 7.53085 11.6142 7.33008 11.3672 7.33008C11.1202 7.33008 10.9199 7.53085 10.9199 7.77851C10.9199 8.02616 11.1202 8.22693 11.3672 8.22693Z" fill="#3D1000"/>
</g>
<mask id="mask7_1534_2474" style="mask-type:luminance" maskUnits="userSpaceOnUse" x="8" y="4" width="10" height="10">
<path d="M13.2863 13.4187C15.8002 13.4187 17.8382 11.3754 17.8382 8.85485C17.8382 6.33431 15.8002 4.29102 13.2863 4.29102C10.7723 4.29102 8.73438 6.33431 8.73438 8.85485C8.73438 11.3754 10.7723 13.4187 13.2863 13.4187Z" fill="white"/>
</mask>
<g mask="url(#mask7_1534_2474)">
<path d="M11.5908 7.52381C11.8378 7.52381 12.0381 7.32304 12.0381 7.07538C12.0381 6.82772 11.8378 6.62695 11.5908 6.62695C11.3438 6.62695 11.1436 6.82772 11.1436 7.07538C11.1436 7.32304 11.3438 7.52381 11.5908 7.52381Z" fill="#3D1000"/>
</g>
<mask id="mask8_1534_2474" style="mask-type:luminance" maskUnits="userSpaceOnUse" x="8" y="4" width="10" height="10">
<path d="M13.2863 13.4187C15.8002 13.4187 17.8382 11.3754 17.8382 8.85485C17.8382 6.33431 15.8002 4.29102 13.2863 4.29102C10.7723 4.29102 8.73438 6.33431 8.73438 8.85485C8.73438 11.3754 10.7723 13.4187 13.2863 13.4187Z" fill="white"/>
</mask>
<g mask="url(#mask8_1534_2474)">
<path d="M11.9228 6.91639C12.1699 6.91639 12.3701 6.71562 12.3701 6.46796C12.3701 6.2203 12.1699 6.01953 11.9228 6.01953C11.6758 6.01953 11.4756 6.2203 11.4756 6.46796C11.4756 6.71562 11.6758 6.91639 11.9228 6.91639Z" fill="#3D1000"/>
</g>
<mask id="mask9_1534_2474" style="mask-type:luminance" maskUnits="userSpaceOnUse" x="8" y="4" width="10" height="10">
<path d="M13.2863 13.4187C15.8002 13.4187 17.8382 11.3754 17.8382 8.85485C17.8382 6.33431 15.8002 4.29102 13.2863 4.29102C10.7723 4.29102 8.73438 6.33431 8.73438 8.85485C8.73438 11.3754 10.7723 13.4187 13.2863 13.4187Z" fill="white"/>
</mask>
<g mask="url(#mask9_1534_2474)">
<path d="M12.4062 6.58435C12.6533 6.58435 12.8535 6.38359 12.8535 6.13593C12.8535 5.88827 12.6533 5.6875 12.4062 5.6875C12.1592 5.6875 11.959 5.88827 11.959 6.13593C11.959 6.38359 12.1592 6.58435 12.4062 6.58435Z" fill="#3D1000"/>
</g>
<mask id="mask10_1534_2474" style="mask-type:luminance" maskUnits="userSpaceOnUse" x="8" y="4" width="10" height="10">
<path d="M13.2863 13.4187C15.8002 13.4187 17.8382 11.3754 17.8382 8.85485C17.8382 6.33431 15.8002 4.29102 13.2863 4.29102C10.7723 4.29102 8.73438 6.33431 8.73438 8.85485C8.73438 11.3754 10.7723 13.4187 13.2863 13.4187Z" fill="white"/>
</mask>
<g mask="url(#mask10_1534_2474)">
<path d="M12.8965 6.35975C13.1435 6.35975 13.3437 6.15898 13.3437 5.91132C13.3437 5.66366 13.1435 5.46289 12.8965 5.46289C12.6495 5.46289 12.4492 5.66366 12.4492 5.91132C12.4492 6.15898 12.6495 6.35975 12.8965 6.35975Z" fill="#3D1000"/>
</g>
<mask id="mask11_1534_2474" style="mask-type:luminance" maskUnits="userSpaceOnUse" x="8" y="4" width="10" height="10">
<path d="M13.2863 13.4187C15.8002 13.4187 17.8382 11.3754 17.8382 8.85485C17.8382 6.33431 15.8002 4.29102 13.2863 4.29102C10.7723 4.29102 8.73438 6.33431 8.73438 8.85485C8.73438 11.3754 10.7723 13.4187 13.2863 13.4187Z" fill="white"/>
</mask>
<g mask="url(#mask11_1534_2474)">
<path d="M13.5674 6.35975C13.8144 6.35975 14.0146 6.15898 14.0146 5.91132C14.0146 5.66366 13.8144 5.46289 13.5674 5.46289C13.3204 5.46289 13.1201 5.66366 13.1201 5.91132C13.1201 6.15898 13.3204 6.35975 13.5674 6.35975Z" fill="#3D1000"/>
</g>
<mask id="mask12_1534_2474" style="mask-type:luminance" maskUnits="userSpaceOnUse" x="8" y="4" width="10" height="10">
<path d="M13.2863 13.4187C15.8002 13.4187 17.8382 11.3754 17.8382 8.85485C17.8382 6.33431 15.8002 4.29102 13.2863 4.29102C10.7723 4.29102 8.73438 6.33431 8.73438 8.85485C8.73438 11.3754 10.7723 13.4187 13.2863 13.4187Z" fill="white"/>
</mask>
<g mask="url(#mask12_1534_2474)">
<path d="M14.2959 6.62732C14.5429 6.62732 14.7431 6.42656 14.7431 6.1789C14.7431 5.93124 14.5429 5.73047 14.2959 5.73047C14.0489 5.73047 13.8486 5.93124 13.8486 6.1789C13.8486 6.42656 14.0489 6.62732 14.2959 6.62732Z" fill="#3D1000"/>
</g>
<mask id="mask13_1534_2474" style="mask-type:luminance" maskUnits="userSpaceOnUse" x="8" y="4" width="10" height="10">
<path d="M13.2863 13.4187C15.8002 13.4187 17.8382 11.3754 17.8382 8.85485C17.8382 6.33431 15.8002 4.29102 13.2863 4.29102C10.7723 4.29102 8.73438 6.33431 8.73438 8.85485C8.73438 11.3754 10.7723 13.4187 13.2863 13.4187Z" fill="white"/>
</mask>
<g mask="url(#mask13_1534_2474)">
<path d="M14.8799 6.91639C15.1269 6.91639 15.3271 6.71562 15.3271 6.46796C15.3271 6.2203 15.1269 6.01953 14.8799 6.01953C14.6329 6.01953 14.4326 6.2203 14.4326 6.46796C14.4326 6.71562 14.6329 6.91639 14.8799 6.91639Z" fill="#3D1000"/>
</g>
<mask id="mask14_1534_2474" style="mask-type:luminance" maskUnits="userSpaceOnUse" x="8" y="4" width="10" height="10">
<path d="M13.2863 13.4187C15.8002 13.4187 17.8382 11.3754 17.8382 8.85485C17.8382 6.33431 15.8002 4.29102 13.2863 4.29102C10.7723 4.29102 8.73438 6.33431 8.73438 8.85485C8.73438 11.3754 10.7723 13.4187 13.2863 13.4187Z" fill="white"/>
</mask>
<g mask="url(#mask14_1534_2474)">
<path d="M15.1904 7.52381C15.4374 7.52381 15.6377 7.32304 15.6377 7.07538C15.6377 6.82772 15.4374 6.62695 15.1904 6.62695C14.9434 6.62695 14.7432 6.82772 14.7432 7.07538C14.7432 7.32304 14.9434 7.52381 15.1904 7.52381Z" fill="#3D1000"/>
</g>
<mask id="mask15_1534_2474" style="mask-type:luminance" maskUnits="userSpaceOnUse" x="8" y="4" width="10" height="10">
<path d="M13.2863 13.4187C15.8002 13.4187 17.8382 11.3754 17.8382 8.85485C17.8382 6.33431 15.8002 4.29102 13.2863 4.29102C10.7723 4.29102 8.73438 6.33431 8.73438 8.85485C8.73438 11.3754 10.7723 13.4187 13.2863 13.4187Z" fill="white"/>
</mask>
<g mask="url(#mask15_1534_2474)">
<path d="M15.335 8.22693C15.582 8.22693 15.7822 8.02616 15.7822 7.77851C15.7822 7.53085 15.582 7.33008 15.335 7.33008C15.0879 7.33008 14.8877 7.53085 14.8877 7.77851C14.8877 8.02616 15.0879 8.22693 15.335 8.22693Z" fill="#3D1000"/>
</g>
<mask id="mask16_1534_2474" style="mask-type:luminance" maskUnits="userSpaceOnUse" x="8" y="4" width="10" height="10">
<path d="M13.2863 13.4187C15.8002 13.4187 17.8382 11.3754 17.8382 8.85485C17.8382 6.33431 15.8002 4.29102 13.2863 4.29102C10.7723 4.29102 8.73438 6.33431 8.73438 8.85485C8.73438 11.3754 10.7723 13.4187 13.2863 13.4187Z" fill="white"/>
</mask>
<g mask="url(#mask16_1534_2474)">
<path d="M15.335 8.84803C15.582 8.84803 15.7822 8.64726 15.7822 8.3996C15.7822 8.15194 15.582 7.95117 15.335 7.95117C15.0879 7.95117 14.8877 8.15194 14.8877 8.3996C14.8877 8.64726 15.0879 8.84803 15.335 8.84803Z" fill="#3D1000"/>
</g>
<mask id="mask17_1534_2474" style="mask-type:luminance" maskUnits="userSpaceOnUse" x="8" y="4" width="10" height="10">
<path d="M13.2863 13.4187C15.8002 13.4187 17.8382 11.3754 17.8382 8.85485C17.8382 6.33431 15.8002 4.29102 13.2863 4.29102C10.7723 4.29102 8.73438 6.33431 8.73438 8.85485C8.73438 11.3754 10.7723 13.4187 13.2863 13.4187Z" fill="white"/>
</mask>
<g mask="url(#mask17_1534_2474)">
<path d="M15.335 9.52771C15.582 9.52771 15.7822 9.32695 15.7822 9.07929C15.7822 8.83163 15.582 8.63086 15.335 8.63086C15.0879 8.63086 14.8877 8.83163 14.8877 9.07929C14.8877 9.32695 15.0879 9.52771 15.335 9.52771Z" fill="#3D1000"/>
</g>
<mask id="mask18_1534_2474" style="mask-type:luminance" maskUnits="userSpaceOnUse" x="8" y="4" width="10" height="10">
<path d="M13.2863 13.4187C15.8002 13.4187 17.8382 11.3754 17.8382 8.85485C17.8382 6.33431 15.8002 4.29102 13.2863 4.29102C10.7723 4.29102 8.73438 6.33431 8.73438 8.85485C8.73438 11.3754 10.7723 13.4187 13.2863 13.4187Z" fill="white"/>
</mask>
<g mask="url(#mask18_1534_2474)">
<path d="M15.4717 10.3168C15.7187 10.3168 15.9189 10.116 15.9189 9.86835C15.9189 9.62069 15.7187 9.41992 15.4717 9.41992C15.2247 9.41992 15.0244 9.62069 15.0244 9.86835C15.0244 10.116 15.2247 10.3168 15.4717 10.3168Z" fill="#3D1000"/>
</g>
<mask id="mask19_1534_2474" style="mask-type:luminance" maskUnits="userSpaceOnUse" x="8" y="4" width="10" height="10">
<path d="M13.2863 13.4187C15.8002 13.4187 17.8382 11.3754 17.8382 8.85485C17.8382 6.33431 15.8002 4.29102 13.2863 4.29102C10.7723 4.29102 8.73438 6.33431 8.73438 8.85485C8.73438 11.3754 10.7723 13.4187 13.2863 13.4187Z" fill="white"/>
</mask>
<g mask="url(#mask19_1534_2474)">
<path d="M15.7822 10.9672C16.0292 10.9672 16.2295 10.7664 16.2295 10.5187C16.2295 10.2711 16.0292 10.0703 15.7822 10.0703C15.5352 10.0703 15.335 10.2711 15.335 10.5187C15.335 10.7664 15.5352 10.9672 15.7822 10.9672Z" fill="#3D1000"/>
</g>
<mask id="mask20_1534_2474" style="mask-type:luminance" maskUnits="userSpaceOnUse" x="8" y="4" width="10" height="10">
<path d="M13.2863 13.4187C15.8002 13.4187 17.8382 11.3754 17.8382 8.85485C17.8382 6.33431 15.8002 4.29102 13.2863 4.29102C10.7723 4.29102 8.73438 6.33431 8.73438 8.85485C8.73438 11.3754 10.7723 13.4187 13.2863 13.4187Z" fill="white"/>
</mask>
<g mask="url(#mask20_1534_2474)">
<path d="M15.6953 11.5531C15.9423 11.5531 16.1426 11.3523 16.1426 11.1047C16.1426 10.857 15.9423 10.6562 15.6953 10.6562C15.4483 10.6562 15.248 10.857 15.248 11.1047C15.248 11.3523 15.4483 11.5531 15.6953 11.5531Z" fill="#3D1000"/>
</g>
<mask id="mask21_1534_2474" style="mask-type:luminance" maskUnits="userSpaceOnUse" x="8" y="4" width="10" height="10">
<path d="M13.2863 13.4187C15.8002 13.4187 17.8382 11.3754 17.8382 8.85485C17.8382 6.33431 15.8002 4.29102 13.2863 4.29102C10.7723 4.29102 8.73438 6.33431 8.73438 8.85485C8.73438 11.3754 10.7723 13.4187 13.2863 13.4187Z" fill="white"/>
</mask>
<g mask="url(#mask21_1534_2474)">
<path d="M15.4353 11.7265L10.8546 11.6759C10.1909 11.3215 10.2702 10.4897 10.7103 10.0051C11.3235 9.33247 11.0638 9.0721 11.1287 8.19694C11.1287 6.76487 12.117 5.58594 13.3217 5.58594C13.502 5.58594 13.8483 5.67273 13.9493 5.88248C14.7933 5.5787 15.5219 6.96738 15.5219 8.19694C15.356 9.4265 15.356 9.52776 15.695 9.90386C16.2433 10.4535 16.1856 11.6252 15.4353 11.7265Z" fill="#3D1000"/>
</g>
<mask id="mask22_1534_2474" style="mask-type:luminance" maskUnits="userSpaceOnUse" x="8" y="4" width="10" height="10">
<path d="M13.2863 13.4187C15.8002 13.4187 17.8382 11.3754 17.8382 8.85485C17.8382 6.33431 15.8002 4.29102 13.2863 4.29102C10.7723 4.29102 8.73438 6.33431 8.73438 8.85485C8.73438 11.3754 10.7723 13.4187 13.2863 13.4187Z" fill="white"/>
</mask>
<g mask="url(#mask22_1534_2474)">
<path d="M18.3286 15.6328C18.1122 15.3652 17.8958 14.9746 17.7876 14.6202L16.7704 11.9875C16.5973 11.4016 16.2582 11.2281 15.609 11.134C15.5441 11.1268 14.3177 10.6277 14.2528 10.6133C13.4809 10.4325 13.6973 10.4831 13.3583 10.4831C13.0553 10.4903 12.8678 10.5265 12.3556 10.6711C12.269 10.6928 11.2879 11.1268 11.2014 11.134C10.5882 11.2064 10.379 11.3944 10.1193 11.973L9.12379 14.6202C9.01558 14.9746 8.79916 15.3724 8.58275 15.6328L6.7793 18.0919L7.38526 18.6199L9.86681 16.9347C10.3862 16.4356 10.7613 15.8136 10.9705 15.1265L11.3312 13.9114L15.4431 14.0054L15.8759 15.1192C16.0851 15.8064 16.5252 16.4284 17.0446 16.9274L19.5261 18.6126L20.1321 18.0847L18.3286 15.6328Z" fill="#47A6B7"/>
<path d="M15.4146 17.7733H11.4181C11.0142 17.7733 10.7977 17.7878 10.7977 17.4261C11.2234 15.712 10.8699 13.8604 10.4082 11.9004C10.4082 11.5387 10.74 11.2422 11.144 11.2422H15.7248C16.1288 11.2422 16.4606 11.5387 16.4606 11.9004C16.0133 14.0919 15.5012 16.0809 16.1793 17.4261C16.1793 17.7878 15.8186 17.7733 15.4146 17.7733Z" fill="#47A6B7"/>
</g>
<mask id="mask23_1534_2474" style="mask-type:luminance" maskUnits="userSpaceOnUse" x="8" y="4" width="10" height="10">
<path d="M13.2863 13.4187C15.8002 13.4187 17.8382 11.3754 17.8382 8.85485C17.8382 6.33431 15.8002 4.29102 13.2863 4.29102C10.7723 4.29102 8.73438 6.33431 8.73438 8.85485C8.73438 11.3754 10.7723 13.4187 13.2863 13.4187Z" fill="white"/>
</mask>
<g mask="url(#mask23_1534_2474)">
<path d="M14.8444 11.0605C14.8444 11.3137 14.1014 12.0876 13.2862 12.0876C12.471 12.0876 11.8867 11.3137 11.8867 11.0605C11.8867 10.8074 12.5504 10.5977 13.3656 10.5977C14.1807 10.6049 14.8444 10.8074 14.8444 11.0605Z" fill="#653825"/>
</g>
<mask id="mask24_1534_2474" style="mask-type:luminance" maskUnits="userSpaceOnUse" x="8" y="4" width="10" height="10">
<path d="M13.2863 13.4187C15.8002 13.4187 17.8382 11.3754 17.8382 8.85485C17.8382 6.33431 15.8002 4.29102 13.2863 4.29102C10.7723 4.29102 8.73438 6.33431 8.73438 8.85485C8.73438 11.3754 10.7723 13.4187 13.2863 13.4187Z" fill="white"/>
</mask>
<g mask="url(#mask24_1534_2474)">
<path d="M14.072 9.53516H12.6221V10.7141H14.072V9.53516Z" fill="#653825"/>
</g>
<mask id="mask25_1534_2474" style="mask-type:luminance" maskUnits="userSpaceOnUse" x="8" y="4" width="10" height="10">
<path d="M13.2863 13.4187C15.8002 13.4187 17.8382 11.3754 17.8382 8.85485C17.8382 6.33431 15.8002 4.29102 13.2863 4.29102C10.7723 4.29102 8.73438 6.33431 8.73438 8.85485C8.73438 11.3754 10.7723 13.4187 13.2863 13.4187Z" fill="white"/>
</mask>
<g mask="url(#mask25_1534_2474)">
<path d="M12.6221 9.89648C12.6221 9.89648 12.99 10.1135 13.3435 10.1207C13.3435 10.1207 13.7402 10.1207 14.072 9.89648V10.0701C13.8628 10.3087 13.1703 10.7572 12.6221 10.0628C12.6221 10.0701 12.6221 9.93988 12.6221 9.89648Z" fill="#3D1000"/>
</g>
<mask id="mask26_1534_2474" style="mask-type:luminance" maskUnits="userSpaceOnUse" x="8" y="4" width="10" height="10">
<path d="M13.2863 13.4187C15.8002 13.4187 17.8382 11.3754 17.8382 8.85485C17.8382 6.33431 15.8002 4.29102 13.2863 4.29102C10.7723 4.29102 8.73438 6.33431 8.73438 8.85485C8.73438 11.3754 10.7723 13.4187 13.2863 13.4187Z" fill="white"/>
</mask>
<g mask="url(#mask26_1534_2474)">
<path d="M13.3437 10.1211C14.2281 10.1211 14.9451 9.18851 14.9451 8.0381C14.9451 6.88768 14.2281 5.95508 13.3437 5.95508C12.4592 5.95508 11.7422 6.88768 11.7422 8.0381C11.7422 9.18851 12.4592 10.1211 13.3437 10.1211Z" fill="#653825"/>
</g>
<mask id="mask27_1534_2474" style="mask-type:luminance" maskUnits="userSpaceOnUse" x="9" y="5" width="10" height="10">
<path d="M17.7056 12.9129C19.3504 11.0075 19.1426 8.12541 17.2414 6.47564C15.3403 4.82586 12.4657 5.03312 10.8209 6.93857C9.17615 8.84401 9.38395 11.7261 11.2851 13.3758C13.1862 15.0256 16.0608 14.8184 17.7056 12.9129Z" fill="white"/>
</mask>
<g mask="url(#mask27_1534_2474)">
<path d="M15.191 8.53043C15.3657 8.3281 15.3973 8.0687 15.2618 7.95104C15.1262 7.83339 14.8747 7.90203 14.7 8.10435C14.5254 8.30668 14.4937 8.56608 14.6293 8.68374C14.7649 8.8014 15.0164 8.73276 15.191 8.53043Z" fill="#653825"/>
</g>
<mask id="mask28_1534_2474" style="mask-type:luminance" maskUnits="userSpaceOnUse" x="8" y="3" width="10" height="10">
<path d="M16.2483 11.1923C18.1494 9.54256 18.3572 6.66049 16.7124 4.75505C15.0676 2.84961 12.1931 2.64235 10.2919 4.29212C8.39078 5.94189 8.18298 8.82396 9.82778 10.7294C11.4726 12.6348 14.3471 12.8421 16.2483 11.1923Z" fill="white"/>
</mask>
<g mask="url(#mask28_1534_2474)">
<path d="M12.1026 8.68763C12.2382 8.56997 12.2065 8.31057 12.0318 8.10824C11.8572 7.90591 11.6057 7.83727 11.4701 7.95493C11.3345 8.07259 11.3662 8.33199 11.5408 8.53432C11.7155 8.73665 11.967 8.80529 12.1026 8.68763Z" fill="#653825"/>
</g>
<mask id="mask29_1534_2474" style="mask-type:luminance" maskUnits="userSpaceOnUse" x="8" y="4" width="10" height="10">
<path d="M13.2863 13.4187C15.8002 13.4187 17.8382 11.3754 17.8382 8.85485C17.8382 6.33431 15.8002 4.29102 13.2863 4.29102C10.7723 4.29102 8.73438 6.33431 8.73438 8.85485C8.73438 11.3754 10.7723 13.4187 13.2863 13.4187Z" fill="white"/>
</mask>
<g mask="url(#mask29_1534_2474)">
<path d="M14.9455 7.92243C14.4622 8.17558 14.1664 7.5825 13.9716 6.95325C13.95 6.88092 13.8562 6.88092 13.8201 6.94602C13.3873 7.9152 12.1033 7.92243 11.7354 7.90797C11.7354 6.81583 12.4567 5.88281 13.3585 5.88281C14.2674 5.88281 14.9455 6.8303 14.9455 7.92243Z" fill="#3D1000"/>
</g>
<mask id="mask30_1534_2474" style="mask-type:luminance" maskUnits="userSpaceOnUse" x="8" y="4" width="10" height="10">
<path d="M13.2863 13.4187C15.8002 13.4187 17.8382 11.3754 17.8382 8.85485C17.8382 6.33431 15.8002 4.29102 13.2863 4.29102C10.7723 4.29102 8.73438 6.33431 8.73438 8.85485C8.73438 11.3754 10.7723 13.4187 13.2863 13.4187Z" fill="white"/>
</mask>
<g mask="url(#mask30_1534_2474)">
<path d="M14.9014 8.42816C14.9086 8.4137 15.0168 8.07376 15.1899 8.13162" stroke="#3D1000" stroke-width="0.9949" stroke-miterlimit="10" stroke-linecap="round"/>
</g>
<mask id="mask31_1534_2474" style="mask-type:luminance" maskUnits="userSpaceOnUse" x="8" y="4" width="10" height="10">
<path d="M13.2863 13.4187C15.8002 13.4187 17.8382 11.3754 17.8382 8.85485C17.8382 6.33431 15.8002 4.29102 13.2863 4.29102C10.7723 4.29102 8.73438 6.33431 8.73438 8.85485C8.73438 11.3754 10.7723 13.4187 13.2863 13.4187Z" fill="white"/>
</mask>
<g mask="url(#mask31_1534_2474)">
<path d="M11.5039 8.11133C11.5111 8.11133 11.7492 8.15472 11.8141 8.4368" stroke="#3D1000" stroke-width="0.9949" stroke-miterlimit="10" stroke-linecap="round"/>
</g>
<mask id="mask32_1534_2474" style="mask-type:luminance" maskUnits="userSpaceOnUse" x="8" y="4" width="10" height="10">
<path d="M13.2863 13.4187C15.8002 13.4187 17.8382 11.3754 17.8382 8.85485C17.8382 6.33431 15.8002 4.29102 13.2863 4.29102C10.7723 4.29102 8.73438 6.33431 8.73438 8.85485C8.73438 11.3754 10.7723 13.4187 13.2863 13.4187Z" fill="white"/>
</mask>
<g mask="url(#mask32_1534_2474)">
<path d="M13.6748 8.22579C13.6748 8.22579 13.9345 7.97265 14.2231 8.22579" stroke="#3D1000" stroke-width="0.9949" stroke-miterlimit="10" stroke-linecap="round"/>
</g>
<mask id="mask33_1534_2474" style="mask-type:luminance" maskUnits="userSpaceOnUse" x="8" y="4" width="10" height="10">
<path d="M13.2863 13.4187C15.8002 13.4187 17.8382 11.3754 17.8382 8.85485C17.8382 6.33431 15.8002 4.29102 13.2863 4.29102C10.7723 4.29102 8.73438 6.33431 8.73438 8.85485C8.73438 11.3754 10.7723 13.4187 13.2863 13.4187Z" fill="white"/>
</mask>
<g mask="url(#mask33_1534_2474)">
<path d="M13.2786 8.21094C13.2786 8.21094 13.3363 8.37729 13.1271 8.50025C13.1271 8.50025 12.9828 8.57257 12.9756 8.79679C12.9756 8.79679 12.9828 8.98484 13.0982 9.0427" stroke="#3D1000" stroke-width="0.9949" stroke-miterlimit="10" stroke-linecap="round"/>
</g>
<mask id="mask34_1534_2474" style="mask-type:luminance" maskUnits="userSpaceOnUse" x="8" y="4" width="10" height="10">
<path d="M13.2863 13.4187C15.8002 13.4187 17.8382 11.3754 17.8382 8.85485C17.8382 6.33431 15.8002 4.29102 13.2863 4.29102C10.7723 4.29102 8.73438 6.33431 8.73438 8.85485C8.73438 11.3754 10.7723 13.4187 13.2863 13.4187Z" fill="white"/>
</mask>
<g mask="url(#mask34_1534_2474)">
<path d="M13.502 9.57227C13.502 9.57227 13.3361 9.64459 13.2207 9.57227" stroke="#3D1000" stroke-width="0.9949" stroke-miterlimit="10" stroke-linecap="round"/>
</g>
<mask id="mask35_1534_2474" style="mask-type:luminance" maskUnits="userSpaceOnUse" x="8" y="4" width="10" height="10">
<path d="M13.2863 13.4187C15.8002 13.4187 17.8382 11.3754 17.8382 8.85485C17.8382 6.33431 15.8002 4.29102 13.2863 4.29102C10.7723 4.29102 8.73438 6.33431 8.73438 8.85485C8.73438 11.3754 10.7723 13.4187 13.2863 13.4187Z" fill="white"/>
</mask>
<g mask="url(#mask35_1534_2474)">
<path d="M13.8055 9.29688C13.8055 9.29688 13.4232 9.53555 12.9326 9.37644" stroke="#3D1000" stroke-width="0.9949" stroke-miterlimit="10" stroke-linecap="round"/>
</g>
<mask id="mask36_1534_2474" style="mask-type:luminance" maskUnits="userSpaceOnUse" x="8" y="4" width="10" height="10">
<path d="M13.2863 13.4187C15.8002 13.4187 17.8382 11.3754 17.8382 8.85485C17.8382 6.33431 15.8002 4.29102 13.2863 4.29102C10.7723 4.29102 8.73438 6.33431 8.73438 8.85485C8.73438 11.3754 10.7723 13.4187 13.2863 13.4187Z" fill="white"/>
</mask>
<g mask="url(#mask36_1534_2474)">
<path d="M12.377 8.22579C12.377 8.22579 12.6367 7.97265 12.9252 8.22579" stroke="#3D1000" stroke-width="0.9949" stroke-miterlimit="10" stroke-linecap="round"/>
</g>
<mask id="mask37_1534_2474" style="mask-type:luminance" maskUnits="userSpaceOnUse" x="8" y="4" width="10" height="10">
<path d="M13.2863 13.4187C15.8002 13.4187 17.8382 11.3754 17.8382 8.85485C17.8382 6.33431 15.8002 4.29102 13.2863 4.29102C10.7723 4.29102 8.73438 6.33431 8.73438 8.85485C8.73438 11.3754 10.7723 13.4187 13.2863 13.4187Z" fill="white"/>
</mask>
<g mask="url(#mask37_1534_2474)">
<path d="M13.7188 7.7624C13.7188 7.7624 14.0145 7.46586 14.4978 7.89259" stroke="#3D1000" stroke-width="1.5149" stroke-miterlimit="10" stroke-linecap="round"/>
</g>
<mask id="mask38_1534_2474" style="mask-type:luminance" maskUnits="userSpaceOnUse" x="8" y="4" width="10" height="10">
<path d="M13.2863 13.4187C15.8002 13.4187 17.8382 11.3754 17.8382 8.85485C17.8382 6.33431 15.8002 4.29102 13.2863 4.29102C10.7723 4.29102 8.73438 6.33431 8.73438 8.85485C8.73438 11.3754 10.7723 13.4187 13.2863 13.4187Z" fill="white"/>
</mask>
<g mask="url(#mask38_1534_2474)">
<path d="M12.6438 8.45764C12.6876 8.45764 12.7232 8.39936 12.7232 8.32745C12.7232 8.25555 12.6876 8.19727 12.6438 8.19727C12.6 8.19727 12.5645 8.25555 12.5645 8.32745C12.5645 8.39936 12.6 8.45764 12.6438 8.45764Z" fill="#3D1000"/>
</g>
<mask id="mask39_1534_2474" style="mask-type:luminance" maskUnits="userSpaceOnUse" x="8" y="4" width="10" height="10">
<path d="M13.2863 13.4187C15.8002 13.4187 17.8382 11.3754 17.8382 8.85485C17.8382 6.33431 15.8002 4.29102 13.2863 4.29102C10.7723 4.29102 8.73438 6.33431 8.73438 8.85485C8.73438 11.3754 10.7723 13.4187 13.2863 13.4187Z" fill="white"/>
</mask>
<g mask="url(#mask39_1534_2474)">
<path d="M13.9417 8.45764C13.9855 8.45764 14.021 8.39936 14.021 8.32745C14.021 8.25555 13.9855 8.19727 13.9417 8.19727C13.8978 8.19727 13.8623 8.25555 13.8623 8.32745C13.8623 8.39936 13.8978 8.45764 13.9417 8.45764Z" fill="#3D1000"/>
</g>
<path d="M21.6172 7.03906H40.1423" stroke="#D4D4D4" stroke-width="7" stroke-miterlimit="10" stroke-linecap="round" stroke-linejoin="round"/>
<path d="M11.2148 19.002H40.1422" stroke="#D4D4D4" stroke-width="6" stroke-miterlimit="10" stroke-linecap="round" stroke-linejoin="round"/>
<path d="M11.2148 16.7891H40.1422" stroke="#D4D4D4" stroke-width="6" stroke-miterlimit="10" stroke-linecap="round" stroke-linejoin="round"/>
<path d="M21.6172 9.48438H32.6471" stroke="#EFEFEF" stroke-width="5" stroke-miterlimit="10" stroke-linecap="round" stroke-linejoin="round"/>
<path d="M37.2715 0.248047L44.0741 7.04678L40.193 7.65433C38.0289 7.99427 36.1822 6.0776 36.5861 3.92226L37.2715 0.248047Z" fill="#D9FAFF"/>
<path d="M49.131 20.2759H25.0946C24.8421 20.2759 24.6257 20.1747 24.5102 19.9938L23.3921 18.3231C23.2767 18.1423 23.0603 18.041 22.8078 18.041H9.12318C8.67593 18.041 8.25031 18.3665 8.17096 18.7643L4.23943 38.7555C4.16008 39.1533 4.45584 39.4787 4.9031 39.4787H45.351C45.7982 39.4787 46.2238 39.1533 46.3032 38.7555L49.7947 20.9992C49.874 20.6014 49.5783 20.2759 49.131 20.2759Z" fill="#47A6B7"/>
</svg>
