<svg width="19" height="24" viewBox="0 0 19 24" fill="none" xmlns="http://www.w3.org/2000/svg">
<g clip-path="url(#clip0_1781_503)">
<path d="M7.56948 0.698596C6.98692 1.45425 8.09978 5.87642 3.0677 10.4489C3.0677 10.4489 -0.919263 12.8296 0.197473 18.7265C0.197473 18.7265 0.985188 22.6307 6.20695 23.7236L11.7674 23.8048C11.7674 23.8048 14.4944 23.8759 14.9473 23.7967C14.9473 23.7967 17.4808 12.139 16.9737 11.1964C16.3795 10.4205 17.5001 9.82124 16.4027 9.47388C12.3829 9.57342 13.2267 8.70808 9.62877 8.80964C9.62877 8.80964 12.6035 4.10918 10.4823 0.737191C10.4823 0.737191 8.79654 -0.895987 7.56948 0.696565V0.698596Z" fill="#B78058"/>
<path d="M9.07135 0.247925C9.07135 0.247925 9.18554 3.8982 7.51721 3.55491" stroke="#804F2A" stroke-linecap="round" stroke-linejoin="round"/>
<path d="M16.5885 13.7195C17.7077 13.7195 18.6149 12.7673 18.6149 11.5927C18.6149 10.4181 17.7077 9.46594 16.5885 9.46594C15.4694 9.46594 14.5621 10.4181 14.5621 11.5927C14.5621 12.7673 15.4694 13.7195 16.5885 13.7195Z" fill="#B78058"/>
<path d="M16.9756 17.0813C18.0947 17.0813 19.002 16.1291 19.002 14.9545C19.002 13.78 18.0947 12.8278 16.9756 12.8278C15.8565 12.8278 14.9492 13.78 14.9492 14.9545C14.9492 16.1291 15.8565 17.0813 16.9756 17.0813Z" fill="#B78058"/>
<path d="M16.5885 20.4433C17.7077 20.4433 18.6149 19.4911 18.6149 18.3165C18.6149 17.1419 17.7077 16.1897 16.5885 16.1897C15.4694 16.1897 14.5621 17.1419 14.5621 18.3165C14.5621 19.4911 15.4694 20.4433 16.5885 20.4433Z" fill="#B78058"/>
<path d="M14.9492 23.8051C16.0684 23.8051 16.9756 22.8529 16.9756 21.6783C16.9756 20.5037 16.0684 19.5515 14.9492 19.5515C13.8301 19.5515 12.9229 20.5037 12.9229 21.6783C12.9229 22.8529 13.8301 23.8051 14.9492 23.8051Z" fill="#B78058"/>
<path d="M11.5526 8.75293H8.29333" stroke="#804F2A" stroke-linecap="round" stroke-linejoin="round"/>
<path d="M14.5621 9.46601C14.5621 9.46601 10.5422 9.25272 10.5558 11.412C10.5558 11.412 10.2984 13.1 12.1022 13.2808C13.906 13.4616 17.8155 13.2808 17.8155 13.2808" stroke="#804F2A" stroke-linecap="round" stroke-linejoin="round"/>
<path d="M17.8155 13.2808L12.406 13.36C12.406 13.36 10.1087 13.2808 10.1106 15.1841C10.1106 15.1841 10.0468 17.0814 12.5086 17.0814C14.1615 17.0814 17.8155 16.8884 17.8155 16.8884" stroke="#804F2A" stroke-linecap="round" stroke-linejoin="round"/>
<path d="M17.4846 17.0448L13.1454 17.1179C13.1454 17.1179 11.2526 17.3068 11.2545 18.7877C11.2545 18.7877 11.2526 20.5407 13.2267 20.5407C14.5525 20.5407 16.5866 20.4412 16.5866 20.4412" stroke="#804F2A" stroke-linecap="round" stroke-linejoin="round"/>
<path d="M15.9769 20.4432L13.0912 20.5143C13.0912 20.5143 11.7771 20.8536 11.8351 21.922C11.8351 21.922 11.8351 23.799 13.1473 23.799C14.0299 23.799 15.9789 23.6283 15.9789 23.6283" stroke="#804F2A" stroke-linecap="round" stroke-linejoin="round"/>
</g>
<defs>
<clipPath id="clip0_1781_503">
<rect width="19" height="24" fill="white"/>
</clipPath>
</defs>
</svg>
