<svg width="49" height="48" viewBox="0 0 49 48" fill="none" xmlns="http://www.w3.org/2000/svg">
<path d="M44.75 0.375H4.23945C2.3832 0.375 0.875 1.9043 0.875 3.78164V44.2184C0.875 46.0957 2.3832 47.625 4.23945 47.625H44.75C46.6063 47.625 48.125 46.0957 48.125 44.2184V3.78164C48.125 1.9043 46.6063 0.375 44.75 0.375ZM15.1555 40.875H8.15234V18.3258H15.166V40.875H15.1555ZM11.6539 15.2461C9.40742 15.2461 7.59336 13.4215 7.59336 11.1855C7.59336 8.94961 9.40742 7.125 11.6539 7.125C13.8898 7.125 15.7145 8.94961 15.7145 11.1855C15.7145 13.432 13.9004 15.2461 11.6539 15.2461ZM41.4066 40.875H34.4035V29.9062C34.4035 27.2906 34.3508 23.9262 30.7648 23.9262C27.1156 23.9262 26.5566 26.7738 26.5566 29.7164V40.875H19.5535V18.3258H26.2719V21.4055H26.3668C27.3055 19.6336 29.5941 17.7668 33.0008 17.7668C40.0883 17.7668 41.4066 22.4391 41.4066 28.5141V40.875Z" fill="#47A8B9"/>
</svg>
