<svg width="86" height="86" viewBox="0 0 86 86" fill="none" xmlns="http://www.w3.org/2000/svg">
<mask id="mask0_3715_5667" style="mask-type:alpha" maskUnits="userSpaceOnUse" x="0" y="0" width="86" height="86">
<rect width="86" height="86" fill="#D9D9D9"/>
</mask>
<g mask="url(#mask0_3715_5667)">
<path fill-rule="evenodd" clip-rule="evenodd" d="M41.7515 44.3777C41.7515 44.3777 38.7817 41.3306 34.0276 40.2314C31.0569 39.5447 29.3676 37.8851 28.5187 36.7377C27.7316 35.6744 26.857 34.6556 25.8598 33.7186L24.9358 32.8495C24.3169 32.2679 23.4128 31.946 22.4727 31.9733C21.6152 31.9982 21.0648 32.731 21.4241 33.3694L27.5139 44.214C27.5139 44.214 31.6681 51.5289 38.1695 51.6856L41.7515 44.3777Z" fill="#F3C8B3"/>
<mask id="mask1_3715_5667" style="mask-type:luminance" maskUnits="userSpaceOnUse" x="28" y="16" width="37" height="54">
<path fill-rule="evenodd" clip-rule="evenodd" d="M28.1094 16.7432H64.3824V69.3053H28.1094V16.7432Z" fill="white"/>
</mask>
<g mask="url(#mask1_3715_5667)">
<path fill-rule="evenodd" clip-rule="evenodd" d="M35.5871 51.2404C35.5871 51.2404 41.1461 63.9629 47.9467 66.768C54.7473 69.5732 62.1135 64.3813 62.1146 60.2227C62.1158 56.0641 56.3736 51.2926 56.3736 51.2926C53.9495 48.5737 52.5416 45.3364 52.322 41.9736L51.1232 23.6145C51.0852 23.0298 50.5472 22.5504 49.8399 22.4717C49.0166 22.3797 48.2618 22.8583 48.163 23.535L46.6467 33.9477L43.2957 18.7721C43.1807 18.2522 42.6303 17.8734 41.9858 17.8718C41.2414 17.8702 40.6387 18.3676 40.6454 18.9779L40.8184 33.3654L40.1777 33.3256L35.4996 17.7245C35.3123 17.1001 34.5908 16.6838 33.8103 16.7501C32.9301 16.8249 32.2979 17.4805 32.4139 18.2008L34.9825 34.2182L30.3206 23.3253C30.1618 22.955 29.7369 22.7056 29.2587 22.7017C28.5657 22.6962 28.0267 23.1959 28.1199 23.7587L30.7854 39.667L35.5871 51.2404Z" fill="#F3C8B3"/>
</g>
<path fill-rule="evenodd" clip-rule="evenodd" d="M41.7511 44.3764L41.7007 44.4793C42.2017 44.4178 42.6827 44.2572 43.1019 44.0038C44.2607 43.3031 45.9576 41.9568 46.6792 39.7867C47.8275 36.3358 44.8283 34.8157 44.8283 34.8157C44.8283 34.8157 41.9174 33.1842 39.6264 35.7184C36.2831 34.1656 34.4265 36.6226 34.4265 36.6226C34.4265 36.6226 33.1298 38.184 34.0861 40.2466C38.806 41.3566 41.7511 44.3764 41.7511 44.3764Z" fill="#F55F24"/>
<path d="M38.1688 51.6825C37.2619 51.6592 36.3949 51.4996 35.5859 51.2426" stroke="#EDA988" stroke-width="0.75" stroke-linecap="round"/>
<path d="M30.6328 38.751C31.4988 39.3574 32.6234 39.9062 34.0275 40.2328C38.7778 41.3327 41.7485 44.3783 41.7485 44.3783" stroke="#EDA988" stroke-width="0.75" stroke-linecap="round"/>
<path d="M41.5702 33.3022C41.5702 33.3022 40.5312 33.1745 39.5625 33.2313" stroke="#EDA988" stroke-width="0.75" stroke-linecap="round"/>
</g>
</svg>
