<?xml version="1.0" encoding="utf-8"?>
<!-- Generator: Adobe Illustrator 27.8.0, SVG Export Plug-In . SVG Version: 6.00 Build 0)  -->
<svg version="1.1" id="mac" xmlns="http://www.w3.org/2000/svg" xmlns:xlink="http://www.w3.org/1999/xlink" x="0px" y="0px"
	 viewBox="0 0 695.3 342.4" style="enable-background:new 0 0 695.3 342.4;" xml:space="preserve">
<style type="text/css">
	.st0{fill:#3F3F3F;}
	.st1{fill:#CCCCCC;}
	.st2{fill:#B3B3B3;}
	.st3{fill:none;stroke:#3F3F3F;stroke-width:3;stroke-miterlimit:10;}
	.st4{opacity:0.5;fill:#FFFFFF;enable-background:new    ;}
</style>
<path class="st0" d="M654.5,47.7c0.5,0,0.8,0.1,0.9,0.1c0,0.2,0,0.5-0.1,1.1l-63.8,231.6c-0.8,3.1-4.6,6-7.8,6h-371
	c-0.5,0-0.8-0.1-0.9-0.1c0-0.2,0-0.5,0.1-1.1l63.8-231.6c0.8-3.1,4.6-6,7.8-6L654.5,47.7 M654.5,38.7H283.5
	c-7.2,0-14.5,5.6-16.4,12.6l-63.8,231.6c-1.9,7,2.3,12.6,9.5,12.6h371.1c7.2,0,14.5-5.7,16.4-12.6L664,51.4
	C666,44.4,661.7,38.7,654.5,38.7L654.5,38.7L654.5,38.7z"/>
<path class="st1" d="M40.7,267.3h549.2c7.8,0,14.2,6.3,14.2,14.2v0c0,7.8-6.3,14.2-14.2,14.2H40.7c-7.8,0-14.2-6.3-14.2-14.2v0
	C26.6,273.6,32.9,267.3,40.7,267.3z"/>
<path class="st2" d="M277.9,267.3h312c7.8,0,14.2,6.3,14.2,14.2v0c0,7.8-6.3,14.2-14.2,14.2h-312c-7.8,0-14.2-6.3-14.2-14.2v0
	C263.7,273.6,270,267.3,277.9,267.3z"/>
<line class="st3" x1="213.8" y1="265.8" x2="598.7" y2="265.8"/>
<path class="st0" d="M106,267.3h52.9v2.5c0,3.9-3.2,7.1-7.1,7.1h-38.7c-3.9,0-7.1-3.2-7.1-7.1L106,267.3L106,267.3L106,267.3z"/>
<polygon class="st4" points="376,264.4 298.6,264.4 439.7,47.2 517,47.2 "/>
<polygon class="st4" points="398.5,264.4 387.6,264.4 528.6,47.2 539.6,47.2 "/>
</svg>
