<svg width="226" height="226" viewBox="0 0 226 226" fill="none" xmlns="http://www.w3.org/2000/svg">
<mask id="mask0_666_2911" style="mask-type:alpha" maskUnits="userSpaceOnUse" x="0" y="0" width="226" height="226">
<rect width="226" height="226" fill="#D9D9D9"/>
</mask>
<g mask="url(#mask0_666_2911)">
<path d="M113.188 172.33C160.236 172.33 198.376 170.757 198.376 168.817C198.376 166.877 160.236 165.305 113.188 165.305C66.14 165.305 28 166.877 28 168.817C28 170.757 66.14 172.33 113.188 172.33Z" fill="#FFEADC"/>
<path d="M163.739 169.937H164.331C165.957 169.937 167.336 168.563 167.336 166.832V86.6068C167.336 84.927 166.006 83.5017 164.331 83.5017H163.739C162.113 83.5017 160.734 84.8761 160.734 86.6068V166.832C160.734 168.512 162.064 169.937 163.739 169.937Z" fill="#884938"/>
<path d="M62.44 169.937H63.0313C64.6572 169.937 66.0368 168.563 66.0368 166.832V86.6068C66.0368 84.927 64.7065 83.5017 63.0313 83.5017H62.44C60.8141 83.5017 59.4346 84.8761 59.4346 86.6068V166.832C59.4346 168.512 60.7649 169.937 62.44 169.937Z" fill="#884938"/>
<path d="M49.4816 98.2639H176.204C180.146 98.2639 183.348 94.9551 183.348 90.8828C183.348 86.8105 180.146 83.5017 176.204 83.5017H49.4816C45.54 83.5017 42.3374 86.8105 42.3374 90.8828C42.3374 94.9551 45.5892 98.2639 49.4816 98.2639Z" fill="#B46248"/>
<path d="M49.4816 118.625H176.204C180.146 118.625 183.348 115.317 183.348 111.244C183.348 107.172 180.146 103.863 176.204 103.863H49.4816C45.54 103.863 42.3374 107.172 42.3374 111.244C42.3374 115.317 45.5892 118.625 49.4816 118.625Z" fill="#B46248"/>
<path d="M36.7208 139.038H189.015C192.956 139.038 196.159 135.729 196.159 131.657C196.159 127.585 192.956 124.276 189.015 124.276H36.7208C32.7792 124.276 29.5767 127.585 29.5767 131.657C29.5767 135.729 32.7792 139.038 36.7208 139.038Z" fill="#B46248"/>
<mask id="mask1_666_2911" style="mask-type:luminance" maskUnits="userSpaceOnUse" x="42" y="83" width="142" height="16">
<path d="M49.4811 98.2639H176.204C180.145 98.2639 183.348 94.9551 183.348 90.8828C183.348 86.8105 180.145 83.5017 176.204 83.5017H49.4811C45.5395 83.5017 42.3369 86.8105 42.3369 90.8828C42.3369 94.9551 45.5887 98.2639 49.4811 98.2639Z" fill="white"/>
</mask>
<g mask="url(#mask1_666_2911)">
<path d="M96.8302 83.298C108.901 84.5706 125.308 82.3308 125.21 80.3964C125.21 80.091 124.766 80.091 119.248 77.7494C115.799 76.2732 115.553 76.1205 114.567 75.815C112.4 75.1533 110.478 75.0006 105.206 75.0515C98.3576 75.1024 94.8102 75.1533 89.9324 75.7641C85.4981 76.3241 82.2956 76.7313 82.0985 77.8003C81.8521 78.9202 85.1532 80.1928 87.3211 81.0073C91.9032 82.738 96.1897 83.1961 96.8302 83.298Z" stroke="#8D4C3B" stroke-width="1.431" stroke-miterlimit="10"/>
<path d="M95.3024 84.1634C110.034 85.6905 130.087 82.9926 129.939 80.651C129.939 80.2946 129.397 80.2437 122.647 77.3931C118.41 75.6115 118.114 75.4078 116.981 75.0515C114.321 74.237 111.956 74.0843 105.551 74.1352C97.1746 74.1861 92.8389 74.237 86.8772 75.0006C81.4575 75.7133 77.5651 76.2223 77.2695 77.4949C76.9246 78.8693 81.014 80.3965 83.6253 81.4145C89.3407 83.5016 94.514 84.0616 95.3024 84.1634Z" stroke="#8D4C3B" stroke-width="1.431" stroke-miterlimit="10"/>
<path d="M92.1986 84.6214C112.252 86.3012 139.695 83.0434 139.547 80.3964C139.547 79.9891 138.808 79.9382 129.693 76.7821C123.978 74.7969 123.584 74.5424 122.007 74.1351C118.41 73.2189 115.208 73.0661 106.388 73.1679C94.9577 73.2698 89.0453 73.3716 80.9157 74.2878C73.5252 75.1023 68.204 75.7132 67.7606 77.1894C67.2679 78.7674 72.8354 80.4982 76.3336 81.5671C84.0197 83.9087 91.1146 84.5196 92.1986 84.6214Z" stroke="#8D4C3B" stroke-width="1.431" stroke-miterlimit="10"/>
<path d="M84.6602 85.6906C110.527 87.6758 145.952 83.6544 145.804 80.4474C145.755 79.9384 144.868 79.8875 133.142 76.0697C125.751 73.6772 125.259 73.3717 123.239 72.9136C118.607 71.8446 114.469 71.641 103.137 71.7937C88.3555 71.9464 80.7679 72.0991 70.2733 73.1681C60.7149 74.1862 53.8664 74.9498 53.2751 76.6805C52.6346 78.564 59.7788 80.651 64.3116 81.9746C74.1164 84.8252 83.2314 85.5888 84.6602 85.6906Z" stroke="#8D4C3B" stroke-width="1.431" stroke-miterlimit="10"/>
<path d="M168.272 93.7333C177.091 94.4459 189.162 93.0206 189.113 91.8498C189.113 91.6462 188.817 91.6462 184.777 90.2718C182.264 89.4064 182.067 89.3046 181.378 89.101C179.801 88.6938 178.372 88.6428 174.529 88.6937C169.503 88.7447 166.892 88.7956 163.295 89.2028C160.044 89.5591 157.679 89.8136 157.482 90.4754C157.284 91.1881 159.699 91.9516 161.275 92.4098C164.675 93.4278 167.779 93.6824 168.272 93.7333Z" stroke="#8D4C3B" stroke-width="1.431" stroke-miterlimit="10"/>
<path d="M166.202 94.6496C178.224 95.6677 194.68 93.6825 194.582 92.1044C194.582 91.8499 194.138 91.8499 188.669 89.9155C185.221 88.6938 185.023 88.592 184.038 88.3375C181.87 87.7776 179.949 87.6758 174.677 87.7776C167.828 87.8285 164.281 87.8794 159.403 88.4393C154.969 88.9484 151.766 89.3047 151.52 90.1701C151.224 91.1372 154.575 92.1553 156.644 92.8171C161.325 94.2424 165.562 94.5987 166.202 94.6496Z" stroke="#8D4C3B" stroke-width="1.431" stroke-miterlimit="10"/>
<path d="M164.675 95.4131C179.357 96.6348 199.459 94.2423 199.361 92.308C199.361 92.0025 198.819 92.0025 192.167 89.661C187.98 88.1847 187.684 88.032 186.501 87.7266C183.841 87.0648 181.525 86.963 175.071 87.0139C166.695 87.1157 162.359 87.1666 156.397 87.8284C150.978 88.4393 147.085 88.8974 146.74 89.9664C146.396 91.1372 150.436 92.3589 152.998 93.1733C158.713 94.8532 163.886 95.3113 164.675 95.4131Z" stroke="#8D4C3B" stroke-width="1.431" stroke-miterlimit="10"/>
<path d="M161.571 95.7695C181.575 97.0421 209.067 94.2423 209.018 92.0025C209.018 91.6462 208.328 91.6462 199.263 88.9992C193.547 87.3703 193.202 87.1666 191.626 86.8612C188.029 86.0976 184.826 85.9958 176.056 86.1486C164.626 86.3013 158.713 86.4031 150.584 87.2175C143.193 87.9302 137.823 88.4901 137.379 89.6609C136.887 90.9845 142.356 92.3589 145.854 93.2751C153.441 95.2604 160.487 95.7185 161.571 95.7695Z" stroke="#8D4C3B" stroke-width="1.431" stroke-miterlimit="10"/>
<path d="M153.983 96.7366C179.801 98.2637 215.324 94.7513 215.226 92.0534C215.226 91.6462 214.29 91.5953 202.662 88.4901C195.321 86.5049 194.828 86.3012 192.808 85.894C188.177 85.0286 184.038 84.8759 172.706 85.0286C157.925 85.2323 150.337 85.385 139.793 86.3522C130.235 87.2175 123.337 87.9302 122.746 89.3555C122.105 90.9335 129.151 92.6134 133.684 93.7333C143.489 96.0749 152.604 96.6348 153.983 96.7366Z" stroke="#8D4C3B" stroke-width="1.431" stroke-miterlimit="10"/>
<path d="M169.355 93.0206C176.204 93.5296 185.664 92.4606 185.615 91.6971C185.615 91.5444 185.368 91.5444 182.264 90.5772C180.293 89.9663 180.195 89.9154 179.653 89.7627C178.421 89.5082 177.337 89.4573 174.282 89.5082C170.341 89.5591 168.321 89.61 165.562 89.8645C163 90.119 161.177 90.3227 161.029 90.7808C160.881 91.2389 162.753 91.7989 163.936 92.1043C166.547 92.817 168.961 93.0206 169.355 93.0206Z" stroke="#8D4C3B" stroke-width="1.431" stroke-miterlimit="10"/>
<path d="M170.538 91.4936C174.973 91.799 180.984 91.1373 180.984 90.6282C180.984 90.5264 180.836 90.5264 178.816 89.9665C177.584 89.6101 177.485 89.5592 177.141 89.4574C176.352 89.3047 175.662 89.2538 173.692 89.3047C171.179 89.3556 169.898 89.3556 168.075 89.5592C166.449 89.7119 165.266 89.8646 165.168 90.1192C165.069 90.4246 166.252 90.73 167.04 90.9336C168.715 91.3409 170.292 91.4427 170.538 91.4936Z" stroke="#8D4C3B" stroke-width="1.431" stroke-miterlimit="10"/>
<path d="M93.529 98.5693C81.0143 98.2129 65.2479 102.54 65.987 104.83C66.0855 105.187 66.5289 105.187 72.8355 107.478C76.7771 108.903 77.0727 109.106 78.1567 109.361C80.5709 109.972 82.5417 109.921 87.8136 109.361C94.7114 108.648 98.2096 108.241 102.94 107.019C107.226 105.899 110.281 105.085 110.182 103.812C110.084 102.438 106.29 101.216 103.925 100.453C98.653 98.7729 94.2187 98.6202 93.529 98.5693Z" stroke="#8D4C3B" stroke-width="1.431" stroke-miterlimit="10"/>
<path d="M95.9923 97.9076C79.0434 97.8566 57.3153 103.252 58.1529 105.9C58.3007 106.307 58.8427 106.307 67.2186 108.699C72.4905 110.226 72.8354 110.43 74.2642 110.685C77.4668 111.295 80.1766 111.194 87.3701 110.379C96.7314 109.361 101.56 108.801 108.014 107.274C113.877 105.849 118.115 104.831 118.065 103.354C118.016 101.776 113.04 100.504 109.837 99.6892C102.89 97.9585 96.8792 97.9076 95.9923 97.9076Z" stroke="#8D4C3B" stroke-width="1.431" stroke-miterlimit="10"/>
<path d="M101.905 96.2278C80.078 96.3296 52.0433 103.1 53.0287 106.307C53.1765 106.816 53.9156 106.765 64.6072 109.616C71.3079 111.397 71.8006 111.652 73.6236 111.957C77.7623 112.67 81.2112 112.517 90.474 111.499C102.594 110.125 108.802 109.412 117.129 107.478C124.717 105.696 130.186 104.423 130.186 102.642C130.186 100.707 123.781 99.2311 119.691 98.2639C110.773 96.2278 103.087 96.2278 101.905 96.2278Z" stroke="#8D4C3B" stroke-width="1.431" stroke-miterlimit="10"/>
<path d="M187.389 81.6689C181.821 81.8725 173.347 82.2798 163.049 82.9415C139.301 84.4686 123.19 86.403 116.932 87.0139C100.772 88.6428 76.0874 88.9482 40.2188 82.6361" stroke="#8D4C3B" stroke-width="1.431" stroke-miterlimit="10"/>
<path d="M190.985 110.888C180.244 110.175 159.009 107.783 141.42 103.1C127.673 99.4345 122.007 95.5149 113.878 93.8859C90.967 89.3555 67.3666 93.8859 32.4834 105.441" stroke="#8D4C3B" stroke-width="1.431" stroke-miterlimit="10"/>
<path d="M201.332 105.289C188.226 105.696 157.284 104.932 139.695 100.249C125.949 96.5839 120.529 93.7842 112.399 92.1552C89.538 87.6248 38.9868 93.5806 15.0908 102.998" stroke="#8D4C3B" stroke-width="1.431" stroke-miterlimit="10"/>
<path d="M209.659 98.0602C196.553 98.4674 175.514 103.761 145.903 97.7038C131.713 94.8023 125.012 92.1553 116.883 90.5263C94.0708 86.0468 50.4175 96.2785 20.3135 83.5525" stroke="#8D4C3B" stroke-width="1.431" stroke-miterlimit="10"/>
</g>
<mask id="mask2_666_2911" style="mask-type:luminance" maskUnits="userSpaceOnUse" x="42" y="103" width="142" height="16">
<path d="M49.4811 118.625H176.204C180.145 118.625 183.348 115.317 183.348 111.244C183.348 107.172 180.145 103.863 176.204 103.863H49.4811C45.5395 103.863 42.3369 107.172 42.3369 111.244C42.3369 115.317 45.5887 118.625 49.4811 118.625Z" fill="white"/>
</mask>
<g mask="url(#mask2_666_2911)">
<path d="M77.0725 120.203C52.5853 117.964 19.0816 122.138 19.2787 125.701C19.328 126.261 20.1656 126.312 31.3499 130.537C38.3462 133.235 38.8389 133.489 40.7605 134.049C45.1948 135.271 49.0871 135.475 59.828 135.373C73.8207 135.22 80.9649 135.169 90.9174 133.998C99.9339 132.929 106.438 132.115 106.93 130.232C107.472 128.144 100.722 125.854 96.4357 124.378C87.0251 121.171 78.4028 120.305 77.0725 120.203Z" stroke="#8D4C3B" stroke-width="1.431" stroke-miterlimit="10"/>
<path d="M137.823 118.931C145.361 119.135 154.821 116.539 154.377 115.164C154.328 114.96 154.032 114.96 150.239 113.586C147.874 112.721 147.677 112.619 147.036 112.466C145.607 112.11 144.376 112.11 141.222 112.466C137.084 112.924 134.965 113.128 132.157 113.892C129.595 114.553 127.772 115.062 127.821 115.826C127.87 116.64 130.136 117.404 131.615 117.862C134.719 118.829 137.379 118.88 137.823 118.931Z" stroke="#8D4C3B" stroke-width="1.431" stroke-miterlimit="10"/>
<path d="M136.443 120.153C146.691 120.458 159.6 116.946 159.009 115.011C158.91 114.706 158.565 114.706 153.392 112.873C150.14 111.703 149.894 111.55 149.056 111.346C147.085 110.837 145.46 110.888 141.124 111.346C135.507 111.957 132.6 112.263 128.757 113.281C125.259 114.197 122.746 114.859 122.845 115.928C122.943 117.048 125.998 118.066 127.969 118.677C132.255 120.051 135.901 120.153 136.443 120.153Z" stroke="#8D4C3B" stroke-width="1.431" stroke-miterlimit="10"/>
<path d="M135.458 121.171C147.972 121.527 163.739 117.2 163 114.909C162.901 114.553 162.458 114.553 156.151 112.262C152.21 110.837 151.914 110.633 150.83 110.379C148.416 109.768 146.445 109.819 141.173 110.379C134.275 111.092 130.777 111.499 126.047 112.721C121.761 113.84 118.706 114.655 118.805 115.927C118.903 117.302 122.697 118.524 125.062 119.287C130.334 120.967 134.768 121.12 135.458 121.171Z" stroke="#8D4C3B" stroke-width="1.431" stroke-miterlimit="10"/>
<path d="M132.994 121.832C149.943 121.883 171.671 116.488 170.834 113.84C170.686 113.433 170.144 113.433 161.768 111.041C156.496 109.514 156.151 109.31 154.722 109.056C151.52 108.445 148.81 108.546 141.617 109.361C132.255 110.379 127.427 110.939 120.972 112.466C115.109 113.891 110.872 114.909 110.921 116.386C110.971 117.964 115.947 119.236 119.149 120.051C126.097 121.782 132.058 121.832 132.994 121.832Z" stroke="#8D4C3B" stroke-width="1.431" stroke-miterlimit="10"/>
<path d="M127.082 123.512C148.908 123.411 176.943 116.64 175.958 113.433C175.81 112.924 175.071 112.975 164.379 110.125C157.679 108.343 157.186 108.088 155.363 107.783C151.224 107.07 147.775 107.223 138.512 108.241C126.392 109.615 120.184 110.328 111.857 112.262C104.27 114.044 98.8008 115.317 98.8008 117.098C98.8008 119.033 105.206 120.509 109.295 121.476C118.213 123.512 125.899 123.512 127.082 123.512Z" stroke="#8D4C3B" stroke-width="1.431" stroke-miterlimit="10"/>
<path d="M138.463 118.015C144.277 118.066 151.717 116.182 151.421 115.215C151.372 115.062 151.175 115.062 148.268 114.146C146.445 113.586 146.297 113.484 145.804 113.382C144.671 113.128 143.784 113.179 141.321 113.433C138.118 113.79 136.443 113.993 134.226 114.502C132.206 115.011 130.777 115.368 130.777 115.877C130.777 116.437 132.551 116.946 133.635 117.251C136.098 117.964 138.167 118.015 138.463 118.015Z" stroke="#8D4C3B" stroke-width="1.431" stroke-miterlimit="10"/>
<path d="M139.301 117.2C142.996 117.149 147.824 116.029 147.677 115.52C147.677 115.419 147.529 115.469 145.706 115.011C144.573 114.757 144.474 114.706 144.178 114.655C143.489 114.553 142.897 114.604 141.321 114.757C139.251 115.011 138.217 115.113 136.788 115.419C135.507 115.724 134.571 115.928 134.521 116.182C134.521 116.488 135.605 116.691 136.295 116.844C137.823 117.2 139.104 117.2 139.301 117.2Z" stroke="#8D4C3B" stroke-width="1.431" stroke-miterlimit="10"/>
<path d="M38.0015 108.852C48.7423 109.564 69.9778 111.957 87.5672 116.64C101.314 120.305 106.98 124.225 115.109 125.854C138.02 130.384 161.62 125.854 196.503 114.299" stroke="#8D4C3B" stroke-width="1.431" stroke-miterlimit="10"/>
<path d="M27.6055 114.451C40.7113 114.044 71.653 114.808 89.2424 119.491C102.989 123.156 108.408 125.956 116.538 127.585C139.399 132.115 189.951 126.159 213.847 116.742" stroke="#8D4C3B" stroke-width="1.431" stroke-miterlimit="10"/>
<path d="M24.6494 118.117C37.7553 117.709 60.6166 115.266 90.2279 121.273C104.418 124.174 109.739 128.196 117.868 129.825C140.73 134.355 184.334 124.123 214.438 136.849" stroke="#8D4C3B" stroke-width="1.431" stroke-miterlimit="10"/>
<path d="M91.164 100.809C83.6257 100.606 74.1658 103.202 74.6093 104.576C74.6585 104.78 74.9542 104.78 78.748 106.154C81.1129 107.019 81.31 107.121 81.9505 107.274C83.3793 107.63 84.6111 107.63 87.7644 107.274C91.9031 106.816 94.0217 106.612 96.8301 105.849C99.3921 105.187 101.215 104.678 101.166 103.914C101.117 103.1 98.8502 102.336 97.3721 101.878C94.2188 100.911 91.5582 100.86 91.164 100.809Z" stroke="#8D4C3B" stroke-width="1.431" stroke-miterlimit="10"/>
<path d="M92.5433 99.5873C82.2951 99.2818 69.3864 102.794 69.9776 104.729C70.0761 105.034 70.421 105.034 75.5944 106.867C78.8462 108.037 79.0926 108.19 79.9302 108.394C81.901 108.903 83.5269 108.852 87.8627 108.394C93.4795 107.783 96.3864 107.477 100.229 106.459C103.728 105.543 106.24 104.881 106.142 103.812C106.043 102.692 102.989 101.674 101.018 101.063C96.682 99.6891 93.0853 99.5873 92.5433 99.5873Z" stroke="#8D4C3B" stroke-width="1.431" stroke-miterlimit="10"/>
<path d="M93.529 98.5693C81.0143 98.2129 65.2479 102.54 65.987 104.83C66.0855 105.187 66.5289 105.187 72.8355 107.478C76.7771 108.903 77.0727 109.106 78.1567 109.361C80.5709 109.972 82.5417 109.921 87.8136 109.361C94.7114 108.648 98.2096 108.241 102.94 107.019C107.226 105.899 110.281 105.085 110.182 103.812C110.084 102.438 106.29 101.216 103.925 100.453C98.653 98.7729 94.2187 98.6202 93.529 98.5693Z" stroke="#8D4C3B" stroke-width="1.431" stroke-miterlimit="10"/>
<path d="M95.9923 97.9076C79.0434 97.8566 57.3153 103.252 58.1529 105.9C58.3007 106.307 58.8427 106.307 67.2186 108.699C72.4905 110.226 72.8354 110.43 74.2642 110.685C77.4668 111.295 80.1766 111.194 87.3701 110.379C96.7314 109.361 101.56 108.801 108.014 107.274C113.877 105.849 118.115 104.831 118.065 103.354C118.016 101.776 113.04 100.504 109.837 99.6892C102.89 97.9585 96.8792 97.9076 95.9923 97.9076Z" stroke="#8D4C3B" stroke-width="1.431" stroke-miterlimit="10"/>
<path d="M101.905 96.2278C80.078 96.3296 52.0433 103.1 53.0287 106.307C53.1765 106.816 53.9156 106.765 64.6072 109.616C71.3079 111.397 71.8006 111.652 73.6236 111.957C77.7623 112.67 81.2112 112.517 90.474 111.499C102.594 110.125 108.802 109.412 117.129 107.478C124.717 105.696 130.186 104.423 130.186 102.642C130.186 100.707 123.781 99.2311 119.691 98.2639C110.773 96.2278 103.087 96.2278 101.905 96.2278Z" stroke="#8D4C3B" stroke-width="1.431" stroke-miterlimit="10"/>
<path d="M90.4739 101.725C84.66 101.674 77.2202 103.558 77.5159 104.525C77.5651 104.678 77.7622 104.678 80.6692 105.594C82.4921 106.154 82.64 106.256 83.1327 106.358C84.2659 106.612 85.1527 106.561 87.6162 106.307C90.8188 105.95 92.494 105.747 94.7111 105.238C96.7312 104.729 98.16 104.372 98.16 103.863C98.16 103.303 96.3863 102.794 95.3024 102.489C92.8881 101.776 90.8188 101.725 90.4739 101.725Z" stroke="#8D4C3B" stroke-width="1.431" stroke-miterlimit="10"/>
<path d="M95.4998 103.151C91.8046 103.202 86.9761 104.321 87.1239 104.83C87.1239 104.932 87.2717 104.881 89.0947 105.339C90.2279 105.594 90.3265 105.645 90.6221 105.696C91.3119 105.798 91.9031 105.747 93.4798 105.594C95.5491 105.339 96.5838 105.238 98.0126 104.932C99.2936 104.627 100.23 104.423 100.279 104.169C100.279 103.863 99.1951 103.66 98.5053 103.507C96.9779 103.151 95.6969 103.151 95.4998 103.151Z" stroke="#8D4C3B" stroke-width="1.431" stroke-miterlimit="10"/>
<path d="M190.985 110.888C180.244 110.175 159.009 107.783 141.42 103.1C127.673 99.4345 122.007 95.5149 113.878 93.8859C90.967 89.3555 67.3666 93.8859 32.4834 105.441" stroke="#8D4C3B" stroke-width="1.431" stroke-miterlimit="10"/>
<path d="M201.332 105.289C188.226 105.696 157.284 104.932 139.695 100.249C125.949 96.5839 120.529 93.7842 112.399 92.1552C89.538 87.6248 38.9868 93.5806 15.0908 102.998" stroke="#8D4C3B" stroke-width="1.431" stroke-miterlimit="10"/>
<path d="M209.659 98.0602C196.553 98.4674 175.514 103.761 145.903 97.7038C131.713 94.8023 125.012 92.1553 116.883 90.5263C94.0708 86.0468 50.4175 96.2785 20.3135 83.5525" stroke="#8D4C3B" stroke-width="1.431" stroke-miterlimit="10"/>
</g>
<mask id="mask3_666_2911" style="mask-type:luminance" maskUnits="userSpaceOnUse" x="29" y="124" width="168" height="16">
<path d="M36.7213 139.038H189.015C192.957 139.038 196.159 135.729 196.159 131.657C196.159 127.585 192.957 124.276 189.015 124.276H36.7213C32.7797 124.276 29.5771 127.585 29.5771 131.657C29.5771 135.729 32.7797 139.038 36.7213 139.038Z" fill="white"/>
</mask>
<g mask="url(#mask3_666_2911)">
<path d="M135.951 138.173C127.082 137.257 115.06 138.885 115.11 140.311C115.11 140.514 115.454 140.565 119.495 142.245C122.057 143.314 122.204 143.467 122.894 143.67C124.471 144.18 125.9 144.23 129.792 144.23C134.818 144.18 137.429 144.18 141.026 143.721C144.277 143.314 146.593 143.009 146.79 142.245C146.987 141.431 144.524 140.464 142.947 139.904C139.548 138.58 136.443 138.224 135.951 138.173Z" stroke="#8D4C3B" stroke-miterlimit="10"/>
<path d="M137.971 137.053C125.9 135.78 109.493 138.02 109.591 139.954C109.591 140.26 110.035 140.26 115.553 142.601C119.002 144.078 119.248 144.23 120.234 144.536C122.401 145.198 124.323 145.35 129.595 145.299C136.443 145.248 139.991 145.198 144.869 144.587C149.303 144.027 152.506 143.62 152.703 142.551C152.949 141.431 149.648 140.158 147.48 139.344C142.898 137.613 138.611 137.155 137.971 137.053Z" stroke="#8D4C3B" stroke-miterlimit="10"/>
<path d="M139.499 136.187C124.767 134.66 104.714 137.358 104.862 139.7C104.862 140.056 105.404 140.107 112.154 142.958C116.391 144.739 116.686 144.943 117.82 145.299C120.48 146.114 122.845 146.266 129.25 146.216C137.626 146.165 141.962 146.114 147.924 145.35C153.343 144.638 157.236 144.128 157.531 142.856C157.876 141.481 153.787 139.954 151.176 138.936C145.46 136.849 140.287 136.289 139.499 136.187Z" stroke="#8D4C3B" stroke-miterlimit="10"/>
<path d="M142.603 135.729C122.55 134.049 95.1062 137.307 95.254 139.954C95.254 140.362 95.9931 140.413 105.108 143.569C110.823 145.554 111.218 145.808 112.794 146.216C116.391 147.132 119.593 147.285 128.413 147.183C139.843 147.081 145.756 146.979 153.885 146.063C161.276 145.248 166.597 144.638 167.041 143.161C167.533 141.583 161.966 139.853 158.468 138.784C150.732 136.442 143.687 135.831 142.603 135.729Z" stroke="#8D4C3B" stroke-miterlimit="10"/>
<path d="M150.141 134.66C124.274 132.675 88.8487 136.696 88.9966 139.903C89.0458 140.413 89.9327 140.463 101.659 144.281C109.049 146.674 109.542 146.979 111.562 147.437C116.194 148.506 120.332 148.71 131.664 148.557C146.446 148.404 154.033 148.252 164.528 147.183C174.086 146.165 180.935 145.401 181.526 143.67C182.166 141.787 175.022 139.7 170.489 138.376C160.685 135.526 151.57 134.762 150.141 134.66Z" stroke="#8D4C3B" stroke-miterlimit="10"/>
<path d="M134.867 138.987C127.969 138.376 118.558 139.547 118.608 140.514C118.608 140.667 118.854 140.667 122.007 141.838C123.978 142.55 124.126 142.652 124.668 142.805C125.9 143.161 127.033 143.212 130.038 143.161C133.98 143.11 136 143.11 138.759 142.754C141.321 142.449 143.144 142.245 143.243 141.685C143.39 141.125 141.518 140.463 140.286 140.056C137.675 139.242 135.261 139.038 134.867 138.987Z" stroke="#8D4C3B" stroke-miterlimit="10"/>
<path d="M66.5294 126.312C57.71 125.497 45.6389 127.025 45.6881 128.246C45.6881 128.45 45.9838 128.45 50.0239 129.977C52.5367 130.944 52.7338 131.046 53.4235 131.199C55.0002 131.606 56.429 131.708 60.3214 131.657C65.3469 131.606 67.9582 131.555 71.555 131.148C74.8068 130.792 77.1717 130.486 77.3196 129.824C77.5166 129.112 75.1024 128.297 73.5258 127.788C70.1261 126.668 66.9728 126.363 66.5294 126.312Z" stroke="#8D4C3B" stroke-miterlimit="10"/>
<path d="M68.5495 125.192C56.5276 124.123 40.0713 126.159 40.1699 127.839C40.1699 128.094 40.6133 128.145 46.0823 130.181C49.5312 131.453 49.7775 131.606 50.7137 131.861C52.8816 132.471 54.8031 132.573 60.075 132.522C66.9235 132.471 70.471 132.42 75.3487 131.861C79.783 131.351 82.9856 130.944 83.232 130.028C83.5276 129.01 80.1772 127.89 78.0586 127.177C73.4272 125.701 69.19 125.294 68.5495 125.192Z" stroke="#8D4C3B" stroke-miterlimit="10"/>
<path d="M70.0273 124.225C55.2956 122.851 35.2426 125.396 35.3412 127.534C35.3412 127.89 35.8832 127.89 42.5839 130.435C46.8211 132.064 47.0675 132.217 48.25 132.522C50.9105 133.235 53.2755 133.388 59.6806 133.337C68.0565 133.286 72.3923 133.184 78.354 132.522C83.7737 131.861 87.666 131.402 87.9617 130.232C88.3066 128.959 84.2171 127.585 81.6551 126.719C75.989 124.836 70.8157 124.327 70.0273 124.225Z" stroke="#8D4C3B" stroke-miterlimit="10"/>
<path d="M73.0329 122.952C52.9799 121.323 25.5365 124.53 25.635 127.127C25.635 127.534 26.3741 127.585 35.4398 130.639C41.1551 132.573 41.5493 132.828 43.1259 133.184C46.7226 134.049 49.9252 134.202 58.7446 134.1C70.1752 133.948 76.0876 133.897 84.2172 132.981C91.6077 132.166 96.9289 131.555 97.3723 130.181C97.865 128.654 92.3468 126.974 88.7993 125.905C81.2117 123.665 74.1168 123.054 73.0329 122.952Z" stroke="#8D4C3B" stroke-miterlimit="10"/>
<path d="M77.073 120.203C52.5858 117.964 19.0821 122.138 19.2792 125.701C19.3285 126.261 20.166 126.312 31.3504 130.537C38.3467 133.235 38.8394 133.489 40.761 134.049C45.1953 135.271 49.0876 135.475 59.8285 135.373C73.8212 135.22 80.9654 135.169 90.9179 133.998C99.9344 132.929 106.438 132.115 106.931 130.232C107.473 128.144 100.723 125.854 96.4362 124.378C87.0256 121.171 78.4033 120.305 77.073 120.203Z" stroke="#8D4C3B" stroke-miterlimit="10"/>
<path d="M65.4454 127.33C58.5476 126.821 49.137 127.89 49.1862 128.654C49.1862 128.806 49.4326 128.806 52.5366 129.774C54.5074 130.384 54.6059 130.435 55.1479 130.588C56.3797 130.843 57.4636 130.894 60.5184 130.843C64.46 130.792 66.48 130.741 69.2392 130.486C71.8012 130.232 73.6242 130.028 73.772 129.57C73.9198 129.112 72.0476 128.552 70.8651 128.246C68.2538 127.534 65.8395 127.33 65.4454 127.33Z" stroke="#8D4C3B" stroke-miterlimit="10"/>
<path d="M64.2138 127.941C59.7795 127.636 53.7686 128.297 53.7686 128.806C53.7686 128.908 53.9164 128.908 55.9364 129.468C57.1682 129.824 57.2667 129.875 57.6116 129.977C58.3999 130.13 59.0897 130.181 61.0605 130.13C63.5733 130.079 64.8543 130.079 66.6773 129.875C68.3032 129.723 69.4857 129.57 69.5843 129.315C69.6828 129.01 68.5003 128.705 67.712 128.501C66.0368 128.043 64.4602 127.941 64.2138 127.941Z" stroke="#8D4C3B" stroke-miterlimit="10"/>
<path d="M44.2593 138.682C49.8268 138.478 58.3013 138.071 68.5987 137.409C92.3469 135.882 108.458 133.948 114.716 133.337C130.876 131.708 155.56 131.402 191.429 137.715" stroke="#8D4C3B" stroke-miterlimit="10"/>
<path d="M38.002 108.852C48.7428 109.564 69.9783 111.957 87.5677 116.64C101.314 120.305 106.98 124.225 115.11 125.854C138.02 130.384 161.621 125.854 196.504 114.299" stroke="#8D4C3B" stroke-miterlimit="10"/>
<path d="M27.606 114.451C40.7118 114.044 71.6534 114.808 89.2429 119.491C102.989 123.156 108.409 125.956 116.539 127.585C139.4 132.115 189.951 126.159 213.847 116.742" stroke="#8D4C3B" stroke-miterlimit="10"/>
<path d="M24.6499 118.117C37.7558 117.709 60.6171 115.266 90.2284 121.273C104.418 124.174 109.739 128.196 117.869 129.825C140.73 134.355 184.334 124.123 214.438 136.849" stroke="#8D4C3B" stroke-miterlimit="10"/>
</g>
<path d="M180.294 99.5364C179.259 95.3114 171.474 80.7018 168.617 79.1747C167.681 78.6657 162.064 75.3569 159.206 74.3388C154.427 72.659 151.323 73.5244 149.204 73.2698C146.987 73.1171 142.701 73.9825 138.808 74.8479C137.33 75.1533 136.296 76.4259 135.212 77.5967C128.659 84.7233 127.131 94.6496 126.047 104.372L135.015 105.849L137.724 91.5444C137.774 95.3623 136.148 114.248 136.493 114.197C136.838 114.146 138.168 114.96 138.316 115.215C139.153 117.149 144.819 116.793 146.544 116.844C150.14 116.895 154.033 114.706 157.383 113.281C164.577 110.175 168.42 121.883 170.292 120.407C172.953 118.269 165.119 106.307 165.069 104.576C165.02 102.642 164.626 95.1586 164.626 95.1586C165.513 96.584 171.031 99.6382 172.213 102.489C173.199 104.881 174.381 123.92 174.283 124.021C175.022 124.174 177.633 124.53 179.998 124.429C180.885 124.327 181.082 102.998 180.294 99.5364Z" fill="#FF9C5D"/>
<path d="M164.577 171.362C164.528 171.922 164.38 172.431 164.232 172.991C164.232 174.671 160.882 180.525 160.882 180.525C160.093 182.205 156.201 181.951 155.659 180.525C155.659 180.525 153.442 172.431 153.639 170.853C154.082 167.239 156.349 165.356 160.093 165.305C163.789 165.254 164.971 168.155 164.577 171.362Z" fill="#E9A13D"/>
<path d="M162.655 159.043C162.704 162.403 163.246 166.017 163.493 169.377C163.493 169.428 163.542 170.191 162.852 169.988C162.655 169.937 159.995 169.122 159.256 168.919C158.172 168.766 157.088 168.868 156.004 169.224C155.511 169.377 155.068 168.919 155.166 168.41C155.807 165.254 155.905 163.625 156.644 160.469C156.644 160.469 161.423 159.4 162.655 159.043Z" fill="#653825"/>
<path d="M160.832 111.652C160.241 111.499 164.724 113.281 166.449 115.368C168.173 117.455 169.159 120 169.799 122.596C170.341 124.785 170.588 127.432 169.011 129.112C167.828 130.385 165.956 130.69 164.232 130.944C161.522 131.301 158.812 131.708 156.053 132.064C154.23 132.319 152.358 132.573 150.584 132.166C148.81 131.759 147.086 130.486 146.642 128.705C146.396 127.585 146.593 126.414 146.938 125.345C147.726 122.494 148.958 119.796 150.387 117.251C151.274 115.724 152.21 114.197 153.54 113.026C154.87 111.855 156.496 110.99 158.27 110.99L160.832 111.652Z" fill="#492B28"/>
<path d="M165.168 126.16C165.858 127.127 166.055 128.297 166.154 129.468C166.843 136.086 165.415 142.805 165.612 149.474C165.661 151.561 165.907 153.699 165.809 155.786C165.71 158.433 165.07 161.08 164.429 163.676C164.38 163.981 164.281 164.287 163.986 164.439C163.739 164.541 163.493 164.541 163.197 164.541C161.818 164.49 160.438 164.439 159.01 164.439C158.27 164.439 157.482 164.389 156.842 164.083C156.3 163.829 155.856 163.371 155.561 162.861C154.822 161.742 154.526 160.418 154.28 159.095C152.407 149.525 151.176 139.802 152.309 130.13C152.358 129.519 152.506 128.908 152.999 128.501C153.343 128.247 153.836 128.145 154.083 127.839C154.329 127.585 154.329 127.178 154.526 126.923C154.723 126.669 155.068 126.465 155.364 126.312C156.645 125.701 157.975 125.04 159.453 125.091C161.769 125.141 163.641 123.92 165.168 126.16Z" fill="#492B28"/>
<path d="M110.823 121.731C113.878 125.956 119.791 126.872 124.323 129.264C126.787 130.588 129.447 131.861 132.009 132.93C134.03 133.795 136.838 135.22 139.055 134.966C139.548 134.915 140.336 134.1 140.385 133.591C140.484 132.013 140.336 130.995 140.336 129.468C142.356 130.741 146.051 129.875 147.973 129.57C152.26 128.959 155.314 127.941 159.207 126.057C159.453 125.956 159.65 125.803 159.896 125.701C165.365 124.734 154.033 111.702 150.535 112.466C147.185 113.23 144.278 113.688 140.829 113.688C137.676 113.688 134.572 113.331 131.468 112.771C126.048 111.753 120.185 111.244 114.716 111.601C110.429 111.957 108.36 118.269 110.823 121.731Z" fill="#492B28"/>
<path d="M147.726 127.33C145.903 119.135 153.59 113.026 153.59 113.026C153.59 113.026 157.679 109.768 161.621 112.059" stroke="#331D1B" stroke-width="2" stroke-miterlimit="10" stroke-linecap="round" stroke-linejoin="round"/>
<path d="M163.493 122.596C163.493 122.596 157.531 116.793 152.653 123.003C152.653 123.003 151.225 124.632 151.52 127.941" stroke="#331D1B" stroke-width="2" stroke-miterlimit="10" stroke-linecap="round" stroke-linejoin="round"/>
<path d="M152.654 128.196C153.196 128.348 153.688 128.603 154.181 128.908C155.856 129.315 157.384 130.181 158.27 131.759C159.059 133.184 161.424 137.664 159.896 139.14C158.96 140.056 155.905 139.802 154.624 139.802C153.048 139.853 151.373 139.649 149.845 139.14C146.347 137.918 144.918 135.22 145.657 131.453C146.396 127.737 149.5 127.177 152.654 128.196Z" fill="#E9A13D"/>
<path d="M140.237 127.636C143.44 128.247 146.987 128.45 150.19 128.908C150.239 128.908 150.978 129.01 150.633 129.672C150.535 129.876 149.204 132.37 148.909 133.082C148.564 134.151 148.416 135.271 148.515 136.442C148.564 136.951 148.022 137.358 147.579 137.155C144.721 135.882 143.194 135.424 140.385 134.05C140.434 133.999 140.385 128.959 140.237 127.636Z" fill="#653825"/>
<path d="M156.497 75.1025C157.137 75.4079 157.778 75.5097 158.418 75.7643C159.059 76.0188 159.65 76.426 159.995 77.1387C160.34 77.8513 160.241 78.7676 159.65 79.1748C159.404 79.3785 159.108 79.4294 158.812 79.4803C156.743 79.8875 154.624 80.2947 152.555 80.6511C151.914 80.7529 151.274 80.9056 150.633 80.8547C148.466 80.7529 146.593 79.073 144.918 77.4441C144.425 76.986 143.933 76.4769 143.785 75.7643C143.637 75.0516 144.031 74.3389 144.672 74.2371C148.81 73.6772 153.048 73.5245 156.497 75.1025Z" fill="#653825"/>
<path d="M183.103 123.309C183.053 122.8 182.758 122.24 182.265 122.138C181.822 121.985 181.28 122.24 180.836 121.985C180.59 121.832 180.442 121.527 180.245 121.374C179.752 120.967 179.013 121.273 178.471 121.527C178.274 121.629 178.077 121.68 177.88 121.68C177.239 121.629 176.944 120.662 176.303 120.611C175.663 120.56 175.367 121.425 174.924 121.934C174.48 122.392 173.791 122.545 173.199 122.8C172.608 123.054 172.017 123.614 172.115 124.225C172.214 124.887 173.002 125.192 173.692 125.294C174.283 125.396 175.022 125.498 175.515 125.09C175.613 124.989 175.712 124.887 175.86 124.785C176.254 124.581 176.697 124.989 177.042 125.192C177.436 125.447 177.88 125.549 178.323 125.599C179.112 125.752 179.949 125.956 180.787 125.803C182.166 125.752 183.201 124.734 183.103 123.309Z" fill="#653825"/>
<path d="M146.741 77.4949H159.798C157.088 75.5606 156.3 70.2156 158.714 66.856L146.741 68.7903V77.4949Z" fill="#653825"/>
<path d="M161.029 64.7181C162.227 64.7181 163.197 63.7153 163.197 62.4783C163.197 61.2413 162.227 60.2385 161.029 60.2385C159.832 60.2385 158.861 61.2413 158.861 62.4783C158.861 63.7153 159.832 64.7181 161.029 64.7181Z" fill="#3D1000"/>
<path d="M144.376 58.4059C146.254 58.4059 147.776 56.8333 147.776 54.8935C147.776 52.9537 146.254 51.3811 144.376 51.3811C142.499 51.3811 140.977 52.9537 140.977 54.8935C140.977 56.8333 142.499 58.4059 144.376 58.4059Z" fill="#3D1000"/>
<path d="M143.735 57.8459C143.193 59.4748 142.602 65.1761 142.898 66.9069C143.39 70.0629 147.726 71.641 149.254 71.7428C152.062 71.9464 154.427 70.4702 156.398 69.5539C157.58 68.9939 158.713 67.3141 160.241 63.5981C162.852 57.3369 160.093 51.7883 154.87 50.2103C152.358 49.4467 149.204 49.3958 147.036 51.6356C145.755 52.9082 144.277 56.1661 143.735 57.8459Z" fill="#653825"/>
<path d="M161.177 64.2089C161.621 63.3945 161.571 62.4782 161.079 62.2237C160.586 61.9692 159.847 62.4273 159.453 63.2418C159.009 64.0562 158.517 65.2779 158.96 65.5324C159.453 65.787 160.734 65.0234 161.177 64.2089Z" fill="#653825"/>
<path d="M148.219 58.9658C148.219 58.9658 148.466 60.0857 147.037 60.7984C147.037 60.7984 146.052 61.1547 145.854 62.6818C145.854 62.6818 145.756 63.9544 146.446 64.4126" stroke="#3D1000" stroke-width="1.0491" stroke-miterlimit="10" stroke-linecap="round"/>
<path d="M151.77 60.2038C151.806 59.8685 151.682 59.5792 151.492 59.5576C151.303 59.536 151.121 59.7904 151.085 60.1257C151.049 60.4611 151.174 60.7504 151.363 60.772C151.552 60.7935 151.735 60.5392 151.77 60.2038Z" fill="#3D1000"/>
<path d="M145.46 59.1413C145.496 58.806 145.371 58.5167 145.182 58.4951C144.993 58.4735 144.81 58.7279 144.774 59.0632C144.738 59.3986 144.863 59.6879 145.052 59.7095C145.242 59.731 145.424 59.4767 145.46 59.1413Z" fill="#3D1000"/>
<path d="M150.535 57.5405C150.535 57.5405 153.442 56.7769 154.526 59.6785" stroke="#3D1000" stroke-width="2" stroke-miterlimit="10" stroke-linecap="round"/>
<path d="M147.283 56.8787C147.283 56.8787 144.82 55.4024 143.539 57.235" stroke="#3D1000" stroke-width="2" stroke-miterlimit="10" stroke-linecap="round"/>
<path d="M152.998 60.2892C152.998 60.2892 152.309 58.6602 150.781 59.322" stroke="#3D1000" stroke-width="1.0491" stroke-miterlimit="10" stroke-linecap="round"/>
<path d="M146.249 58.6603C146.249 58.6603 145.165 57.4895 144.376 58.4567" stroke="#3D1000" stroke-width="1.0491" stroke-miterlimit="10" stroke-linecap="round"/>
<path d="M150.24 65.6343C150.24 65.6343 147.825 67.2123 145.312 65.787" stroke="#3D1000" stroke-width="0.977" stroke-miterlimit="10" stroke-linecap="round"/>
<path d="M148.712 67.6194C148.712 67.6194 147.628 67.9757 146.889 67.4158" stroke="#3D1000" stroke-width="1.0491" stroke-miterlimit="10" stroke-linecap="round"/>
<path d="M149.057 71.2337C150.239 71.2337 150.929 71.0301 151.816 70.5719C152.555 70.1647 153.294 69.7575 154.033 69.4011C153.935 69.6047 153.836 69.8593 153.738 70.0629C153.541 70.5719 153.294 71.081 152.949 71.4882C152.703 71.7936 152.309 71.9972 152.013 72.2518C150.584 73.4226 146.988 74.1352 146.791 74.1861V70.7246C147.037 70.7755 148.86 71.2337 149.057 71.2337Z" fill="#3D1000"/>
<path opacity="0.48" d="M147.086 95.1079C147.283 94.6497 147.727 94.2934 147.874 93.7844C148.022 93.428 148.022 93.0717 147.874 92.7154C147.677 92.2572 147.283 91.9009 147.086 91.4428C146.643 90.5774 146.938 89.5593 147.529 88.7958C148.022 88.1849 148.811 87.6759 148.909 86.9123C149.155 86.8105 149.451 86.8614 149.747 86.9123C150.239 87.0141 150.781 87.1668 151.274 87.2686C151.816 87.3704 152.358 87.5231 152.752 87.9304C153.097 88.2867 153.196 88.7958 153.196 89.3048C153.196 89.6611 153.097 90.0684 152.9 90.3738C152.703 90.6283 152.457 90.781 152.259 91.0355C151.915 91.4937 151.915 92.2063 152.259 92.6645C152.407 92.8172 152.604 92.9699 152.703 93.1735C152.949 93.5298 152.9 94.0389 152.604 94.3443C152.309 94.6497 151.816 94.9043 151.915 95.2606C151.964 95.4642 152.112 95.6169 152.259 95.7696C152.604 96.126 152.752 96.7368 152.506 97.144C152.161 97.704 151.422 97.8058 150.781 97.8058C150.338 97.8567 149.894 97.8567 149.451 97.9076C149.303 97.9076 149.155 97.9076 149.008 97.9076C148.663 97.8058 148.367 97.6022 148.022 97.4495C147.727 97.2968 147.48 97.144 147.283 96.8895C146.938 96.4314 146.79 95.7187 147.086 95.1079Z" fill="url(#paint0_linear_666_2911)"/>
<path d="M153.146 105.289L152.998 107.274C152.998 107.528 152.752 107.783 152.505 107.783H147.529C147.283 107.783 147.086 107.579 147.036 107.274L146.889 105.238L153.146 105.289Z" fill="white"/>
<path d="M153.047 102.845H146.987C146.79 102.845 146.593 102.642 146.593 102.438C146.593 102.234 146.79 102.031 146.987 102.031H153.047C153.244 102.031 153.441 102.234 153.441 102.438C153.491 102.642 153.294 102.845 153.047 102.845Z" fill="white"/>
<path d="M153.047 103.66H146.987C146.79 103.66 146.593 103.456 146.593 103.252C146.593 103.049 146.79 102.845 146.987 102.845H153.047C153.244 102.845 153.441 103.049 153.441 103.252C153.491 103.507 153.294 103.66 153.047 103.66Z" fill="white"/>
<path d="M152.998 104.525H147.135C146.938 104.525 146.741 104.322 146.741 104.118C146.741 103.914 146.938 103.711 147.135 103.711H152.998C153.195 103.711 153.392 103.914 153.392 104.118C153.392 104.322 153.195 104.525 152.998 104.525Z" fill="white"/>
<path d="M152.998 105.34H147.135C146.938 105.34 146.741 105.136 146.741 104.932C146.741 104.729 146.938 104.525 147.135 104.525H152.998C153.195 104.525 153.392 104.729 153.392 104.932C153.392 105.136 153.195 105.34 152.998 105.34Z" fill="white"/>
<path d="M146.889 97.2458H153.245C153.54 97.2458 153.737 97.5004 153.737 97.8058L153.442 102.285L146.741 102.234L146.396 97.8058C146.347 97.5004 146.593 97.2458 146.889 97.2458Z" fill="white"/>
<path d="M146.642 100.555L150.732 99.1802C150.929 99.1293 151.175 99.1293 151.372 99.2311L152.604 99.9946C152.703 100.046 152.801 100.147 152.9 100.3C153.047 100.555 153.245 101.013 153.195 101.522C153.146 101.776 153.245 102.031 153.392 102.184C153.639 102.489 153.885 102.947 153.688 103.456C153.639 103.609 153.639 103.812 153.688 103.965C153.787 104.271 153.934 104.729 153.885 105.238C153.885 105.645 153.54 106.001 153.146 106.052L145.608 106.816C145.016 106.867 144.573 106.307 144.77 105.747L146.15 101.115C146.199 100.86 146.396 100.656 146.642 100.555Z" fill="#653825"/>
<path d="M146.248 107.019L132.896 108.648C131.615 108.801 130.334 108.547 129.201 107.936L127.131 106.816C126.442 106.459 126.047 105.747 126.047 104.932C126.047 104.881 126.047 104.831 126.047 104.78C126.047 103.405 126.688 102.082 127.772 101.267L131.024 98.7729L146.297 101.115V107.019H146.248Z" fill="#FF9C5D"/>
<path d="M133.783 98.7729L135.754 99.1293L146.297 101.115V107.019L132.945 108.648C131.664 108.801 130.383 108.547 129.25 107.936L127.181 106.816C126.491 106.459 126.097 105.747 126.097 104.932C126.097 104.881 126.097 104.831 126.097 104.78" stroke="#E2814B" stroke-width="2.0981" stroke-miterlimit="10" stroke-linecap="round" stroke-linejoin="round"/>
<path d="M137.675 91.5444L136.443 98.8237" stroke="#E2814B" stroke-width="2.0981" stroke-miterlimit="10" stroke-linecap="round" stroke-linejoin="round"/>
<path d="M162.803 93.7334C163 93.8352 165.809 96.3295 165.809 96.3295C165.809 96.3295 169.898 99.6383 169.997 99.7401C170.046 99.791 172.165 101.165 172.559 104.525C172.953 107.885 173.101 109.157 173.101 109.157" stroke="#E2814B" stroke-width="2.0981" stroke-miterlimit="10" stroke-linecap="round" stroke-linejoin="round"/>
<path d="M122.845 115.979C122.845 115.979 128.905 116.538 133.882 120.204L139.942 124.734C140.139 129.315 141.913 135.984 137.676 134.915" stroke="#331D1B" stroke-width="2" stroke-miterlimit="10" stroke-linecap="round" stroke-linejoin="round"/>
<path d="M144.721 54.13C146.381 54.13 147.726 52.7398 147.726 51.0248C147.726 49.3099 146.381 47.9197 144.721 47.9197C143.061 47.9197 141.715 49.3099 141.715 51.0248C141.715 52.7398 143.061 54.13 144.721 54.13Z" fill="#3D1000"/>
<path d="M151.323 54.0282C153.201 54.0282 154.723 52.4556 154.723 50.5158C154.723 48.576 153.201 47.0034 151.323 47.0034C149.445 47.0034 147.923 48.576 147.923 50.5158C147.923 52.4556 149.445 54.0282 151.323 54.0282Z" fill="#3D1000"/>
<path d="M148.564 51.941C150.442 51.941 151.964 50.3685 151.964 48.4287C151.964 46.4888 150.442 44.9163 148.564 44.9163C146.687 44.9163 145.165 46.4888 145.165 48.4287C145.165 50.3685 146.687 51.941 148.564 51.941Z" fill="#3D1000"/>
<path d="M155.462 56.6241C157.339 56.6241 158.861 55.0516 158.861 53.1118C158.861 51.1719 157.339 49.5994 155.462 49.5994C153.584 49.5994 152.062 51.1719 152.062 53.1118C152.062 55.0516 153.584 56.6241 155.462 56.6241Z" fill="#3D1000"/>
<path d="M159.108 62.2745C160.496 62.2745 161.621 61.1122 161.621 59.6784C161.621 58.2446 160.496 57.0823 159.108 57.0823C157.72 57.0823 156.595 58.2446 156.595 59.6784C156.595 61.1122 157.72 62.2745 159.108 62.2745Z" fill="#3D1000"/>
<path d="M161.621 62.6309C162.818 62.6309 163.788 61.6282 163.788 60.3912C163.788 59.1542 162.818 58.1514 161.621 58.1514C160.423 58.1514 159.453 59.1542 159.453 60.3912C159.453 61.6282 160.423 62.6309 161.621 62.6309Z" fill="#3D1000"/>
<path d="M159.502 58.9149C161.38 58.9149 162.902 57.3424 162.902 55.4025C162.902 53.4627 161.38 51.8901 159.502 51.8901C157.625 51.8901 156.103 53.4627 156.103 55.4025C156.103 57.3424 157.625 58.9149 159.502 58.9149Z" fill="#3D1000"/>
<path d="M153.738 51.0248C155.615 51.0248 157.137 49.4522 157.137 47.5124C157.137 45.5726 155.615 44 153.738 44C151.86 44 150.338 45.5726 150.338 47.5124C150.338 49.4522 151.86 51.0248 153.738 51.0248Z" fill="#3D1000"/>
<path d="M157.876 51.6866C159.754 51.6866 161.276 50.1141 161.276 48.1743C161.276 46.2344 159.754 44.6619 157.876 44.6619C155.999 44.6619 154.477 46.2344 154.477 48.1743C154.477 50.1141 155.999 51.6866 157.876 51.6866Z" fill="#3D1000"/>
<path d="M160.192 55.1481C162.069 55.1481 163.591 53.5755 163.591 51.6357C163.591 49.6958 162.069 48.1233 160.192 48.1233C158.314 48.1233 156.792 49.6958 156.792 51.6357C156.792 53.5755 158.314 55.1481 160.192 55.1481Z" fill="#3D1000"/>
<path d="M161.226 58.9659C163.104 58.9659 164.626 57.3934 164.626 55.4536C164.626 53.5137 163.104 51.9412 161.226 51.9412C159.349 51.9412 157.827 53.5137 157.827 55.4536C157.827 57.3934 159.349 58.9659 161.226 58.9659Z" fill="#3D1000"/>
<path d="M161.62 60.6966C163.226 60.6966 164.527 59.352 164.527 57.6933C164.527 56.0346 163.226 54.6899 161.62 54.6899C160.015 54.6899 158.713 56.0346 158.713 57.6933C158.713 59.352 160.015 60.6966 161.62 60.6966Z" fill="#3D1000"/>
<path d="M158.861 64.1582C158.861 64.1582 159.551 62.631 160.389 63.2419" stroke="#3D1000" stroke-width="0.977" stroke-miterlimit="10" stroke-linecap="round"/>
<path d="M74.2647 161.181C74.2155 162.709 72.2939 163.625 72.2939 165.152C72.2939 165.966 72.8359 166.679 73.5257 167.035C74.2155 167.392 75.0038 167.494 75.7921 167.595C76.3834 167.697 77.0731 167.748 77.5658 167.341C78.0093 166.984 78.1571 166.323 78.1078 165.712C78.0093 163.523 76.137 161.538 74.0184 161.385" fill="white"/>
<path d="M84.3648 158.738C83.675 160.367 82.9852 161.945 82.3447 163.574C82.1969 163.93 82.0491 164.338 82.1476 164.745C82.2462 165.05 82.4432 165.254 82.6403 165.406C83.5272 166.17 84.5126 166.883 85.498 167.494C85.7936 167.697 86.1385 167.85 86.4834 167.646C86.6805 167.494 86.8283 167.239 86.9268 166.985C87.321 165.712 87.3703 164.388 87.4195 163.065C87.4688 161.792 87.4195 160.418 86.7297 159.451C86.04 158.534 84.3155 158.534 83.9214 159.756" fill="white"/>
<path d="M90.1297 160.011C90.376 158.229 100.673 137.46 102.349 132.573C103.186 130.079 104.073 127.432 103.827 124.734C103.531 121.782 101.905 119.287 100.329 116.997C97.5695 113.026 88.6023 111.041 85.3997 110.481C82.3943 109.921 74.4618 109.31 74.1169 116.793C73.6242 126.923 83.7738 124.021 91.1151 129.163C84.8578 131.403 85.5476 153.546 83.4289 158.484C83.4289 158.993 82.9362 160.367 85.8432 161.385C87.3706 161.945 89.8833 161.996 90.1297 160.011Z" fill="#EDA72B"/>
<path d="M80.3743 162.505C80.6207 160.723 90.9181 139.954 92.5933 135.068C93.4309 132.573 94.3178 129.926 94.0714 127.228C93.7758 124.276 92.1499 121.782 90.5733 119.491C87.8141 115.52 78.847 113.535 75.6444 112.975C72.6389 112.415 59.4345 113.179 59.0896 120.713C58.5969 130.843 76.3342 130.995 84.1189 130.333C74.659 133.031 78.4035 155.327 73.6736 161.029C73.6736 161.538 73.1809 162.912 76.0878 163.93C77.6152 164.439 80.0787 164.49 80.3743 162.505Z" fill="#EDA72B"/>
<path d="M80.374 162.505C80.6204 160.723 90.9178 139.955 92.593 135.068C93.4306 132.573 94.3175 129.926 94.0711 127.228C93.874 125.04 92.9379 123.156 91.8047 121.375C90.9671 120 89.9324 118.829 88.7007 117.862C86.9762 116.488 84.2664 114.706 81.5565 114.401" stroke="#D18F26" stroke-width="2.0981" stroke-miterlimit="10" stroke-linecap="round" stroke-linejoin="round"/>
<path d="M72.1952 108.139C70.6186 112.517 68.3029 116.488 69.7317 120.916C71.5055 118.015 75.792 115.978 79.1916 115.062C84.0201 113.739 91.9033 115.724 92.9872 113.331C90.6223 109.106 85.6953 105.594 83.3303 101.369C82.739 100.351 82.1971 99.2819 81.7044 98.2129C81.3102 97.3984 80.9653 96.5331 80.4726 95.7695C79.7828 94.8023 78.6989 93.9879 77.4179 94.1406C76.3339 94.2933 75.9398 94.8532 75.8412 95.7695C75.5456 98.4674 74.7573 101.114 73.8212 103.66C73.2792 105.187 72.7372 106.663 72.1952 108.139Z" fill="white"/>
<path d="M82.6899 100.046C82.8377 101.216 84.0202 104.372 84.6607 105.39C86.3358 108.19 88.2574 113.993 90.4745 115.571C92.5439 117.048 97.668 116.844 102.743 119.542C101.905 116.691 91.115 111.143 87.1242 102.234C85.8924 99.4347 84.7592 96.7367 84.907 93.937C84.7099 95.4641 82.1972 95.5659 82.6899 100.046Z" fill="#E3CBB0"/>
<path d="M88.5532 88.8975C88.7502 93.4279 85.1042 94.7005 84.9072 96.7876C84.4637 102.336 79.6845 114.91 75.8415 116.895C63.7703 123.156 71.1115 140.056 68.2046 141.329C63.0805 143.62 57.7101 139.496 57.2174 137.664C56.0349 133.184 55.3944 124.276 56.2812 118.218C57.2666 111.295 64.263 105.747 64.2137 96.8894C64.1644 77.9531 67.9582 69.1975 68.648 68.6376C70.0769 67.365 76.6791 71.9464 79.1918 73.219C83.4783 78.2076 88.5532 82.789 88.5532 88.8975Z" fill="#E3CBB0"/>
<path d="M78.6499 73.9826C80.4236 73.9317 85.1536 84.2653 84.7594 84.5707C83.7247 84.9779 78.2065 81.3128 74.4127 77.9531L71.8999 73.9826H78.6499Z" fill="white"/>
<path d="M73.8211 74.8479L76.2846 75.2042C77.6641 75.4079 80.374 78.8694 80.374 77.5967C76.7773 72.5063 78.0583 66.0924 78.4032 59.8821L70.4707 60.4929V67.5686C70.52 71.8446 70.52 74.0844 73.8211 74.8479Z" fill="#F7B999"/>
<path d="M78.009 68.6376C78.009 68.6376 74.2644 67.4668 73.9196 66.7033C73.5747 65.8888 77.3685 72.5063 78.2553 72.4045C78.3046 72.4045 77.8612 69.6048 78.009 68.6376Z" fill="#B47764"/>
<path d="M70.126 62.1218C73.4271 67.6195 78.8961 70.2665 82.345 68.0776C85.7939 65.8378 86.9272 56.3187 83.5768 50.8211C80.2757 45.3234 73.8213 45.9852 70.3231 48.225C66.8249 50.4647 66.8249 56.6242 70.126 62.1218Z" fill="#F7B999"/>
<path opacity="0.48" d="M94.1696 100.555C94.3666 100.097 94.8101 99.7402 94.9579 99.2311C95.1057 98.8748 95.1057 98.5185 94.9579 98.1621C94.7608 97.704 94.3666 97.3477 94.1696 96.8895C93.7261 96.0242 94.0217 95.0061 94.613 94.2425C95.1057 93.6317 95.894 93.1226 95.9926 92.3591C96.2389 92.2573 96.5345 92.3082 96.8301 92.3591C97.3228 92.4609 97.8648 92.6136 98.3575 92.7154C98.8995 92.8172 99.4415 92.9699 99.8356 93.3772C100.181 93.7335 100.279 94.2425 100.279 94.7516C100.279 95.1079 100.181 95.5151 99.9834 95.8206C99.7864 96.0751 99.54 96.2278 99.3429 96.4823C98.998 96.9405 98.998 97.6531 99.3429 98.1112C99.4907 98.264 99.6878 98.4167 99.7863 98.6203C100.033 98.9766 99.9834 99.4857 99.6878 99.7911C99.3922 100.097 98.8995 100.351 98.998 100.707C99.0473 100.911 99.1951 101.064 99.3429 101.216C99.6878 101.573 99.8356 102.184 99.5893 102.591C99.2444 103.151 98.5053 103.253 97.8648 103.253C97.4214 103.303 96.978 103.303 96.5345 103.354C96.3867 103.354 96.2389 103.354 96.0911 103.354C95.7462 103.253 95.4506 103.049 95.1057 102.896C94.8101 102.744 94.5637 102.591 94.3666 102.336C94.0217 101.878 93.8739 101.165 94.1696 100.555Z" fill="url(#paint1_linear_666_2911)"/>
<path d="M100.23 110.735L100.082 112.721C100.082 112.975 99.8358 113.23 99.5895 113.23H94.6132C94.3668 113.23 94.1697 113.026 94.1205 112.721L93.9727 110.685L100.23 110.735Z" fill="white"/>
<path d="M100.131 108.292H94.0709C93.8738 108.292 93.6768 108.088 93.6768 107.885C93.6768 107.681 93.8738 107.478 94.0709 107.478H100.131C100.328 107.478 100.525 107.681 100.525 107.885C100.525 108.088 100.377 108.292 100.131 108.292Z" fill="white"/>
<path d="M100.131 109.106H94.0709C93.8738 109.106 93.6768 108.903 93.6768 108.699C93.6768 108.496 93.8738 108.292 94.0709 108.292H100.131C100.328 108.292 100.525 108.496 100.525 108.699C100.525 108.954 100.377 109.106 100.131 109.106Z" fill="white"/>
<path d="M100.082 109.972H94.2189C94.0218 109.972 93.8247 109.768 93.8247 109.565C93.8247 109.361 94.0218 109.157 94.2189 109.157H100.082C100.279 109.157 100.476 109.361 100.476 109.565C100.476 109.768 100.279 109.972 100.082 109.972Z" fill="white"/>
<path d="M100.082 110.786H94.2189C94.0218 110.786 93.8247 110.583 93.8247 110.379C93.8247 110.176 94.0218 109.972 94.2189 109.972H100.082C100.279 109.972 100.476 110.176 100.476 110.379C100.476 110.583 100.279 110.786 100.082 110.786Z" fill="white"/>
<path d="M93.9726 102.693H100.328C100.624 102.693 100.821 102.947 100.821 103.253L100.526 107.732L93.8248 107.681L93.4799 103.253C93.4307 102.947 93.677 102.693 93.9726 102.693Z" fill="white"/>
<path d="M93.7264 106.001L97.8158 104.627C98.0129 104.576 98.2592 104.576 98.4563 104.678L99.688 105.441C99.7866 105.492 99.8851 105.594 99.9837 105.747C100.131 106.001 100.329 106.459 100.279 106.969C100.23 107.223 100.329 107.478 100.476 107.63C100.723 107.936 100.969 108.394 100.772 108.903C100.723 109.056 100.723 109.259 100.772 109.412C100.871 109.717 101.018 110.176 100.969 110.685C100.969 111.092 100.624 111.448 100.23 111.499L92.6917 112.263C92.1004 112.313 91.657 111.754 91.8541 111.194L93.2337 106.561C93.2829 106.307 93.48 106.103 93.7264 106.001Z" fill="#F7B999"/>
<path d="M81.2609 109.107C84.3157 105.289 84.2664 95.8206 84.2664 95.8206C86.5328 92.4609 85.646 86.8615 85.646 86.8615C85.646 86.8615 82.7883 76.1207 78.6989 73.9827L78.354 72.6592" stroke="#CCAF93" stroke-width="2" stroke-miterlimit="10" stroke-linecap="round" stroke-linejoin="round"/>
<path d="M69.4852 101.675C69.4852 101.675 67.81 107.63 68.9432 110.481C69.8794 112.568 71.456 113.993 74.0673 113.841C80.3739 113.433 86.6805 113.077 92.987 112.67C93.3812 110.481 93.2827 110.379 93.4797 108.139C93.529 107.783 93.4798 106.612 93.2827 106.358C93.0856 105.951 69.4852 101.675 69.4852 101.675Z" fill="#E3CBB0"/>
<path d="M93.2829 106.307L76.2847 102.947V87.6758" stroke="#CCAF93" stroke-width="2" stroke-miterlimit="10" stroke-linecap="round" stroke-linejoin="round"/>
<path d="M92.8887 112.262L72.8358 113.433C67.9088 113.79 67.0712 107.274 67.0712 107.274L64.3613 95.5659" stroke="#CCAF93" stroke-width="2" stroke-miterlimit="10" stroke-linecap="round" stroke-linejoin="round"/>
<path d="M85.3006 85.2832C70.1747 76.7313 69.2386 71.5391 69.0415 70.521" stroke="#CCAF93" stroke-width="2" stroke-miterlimit="10" stroke-linecap="round" stroke-linejoin="round"/>
<path d="M68.795 70.6228L64.7549 77.0876H73.3279L68.795 80.1928C68.795 80.1928 78.3534 85.0287 84.9556 85.2832C84.9556 85.2832 85.4976 81.4654 84.7585 79.3274" stroke="#CCAF93" stroke-width="2" stroke-miterlimit="10" stroke-linecap="round" stroke-linejoin="round"/>
<path d="M66.2334 120.662C60.2224 120.662 60.3209 114.553 60.3209 114.553C60.3209 114.553 58.7443 118.829 58.8921 118.982C58.9906 119.135 60.518 123.054 60.518 123.054L65.2972 123.665L66.2334 120.662Z" stroke="#CCAF93" stroke-width="2" stroke-miterlimit="10" stroke-linecap="round" stroke-linejoin="round"/>
<path d="M58.8923 118.982L58.5967 127.687C58.5967 127.687 60.5182 130.537 63.5237 129.672" stroke="#CCAF93" stroke-width="2" stroke-miterlimit="10" stroke-linecap="round" stroke-linejoin="round"/>
<path d="M62.0947 121.222C62.0947 121.527 61.8483 121.782 61.5527 121.782C61.2571 121.782 61.0107 121.527 61.0107 121.222C61.0107 120.916 61.2571 120.662 61.5527 120.662C61.8976 120.662 62.0947 120.916 62.0947 121.222Z" fill="#CCAF93"/>
<path d="M86.5821 59.0677C86.8777 59.4749 87.1733 59.8821 86.9762 60.3403C86.8777 60.6457 86.582 60.8493 86.2372 60.9511C85.8923 61.0529 85.5474 61.1038 85.2025 61.1548C85.1039 61.1548 85.0054 61.1548 84.9069 61.1548C84.8083 61.1038 84.8083 61.0529 84.7591 60.9511C84.4634 59.984 84.6112 58.9659 84.7591 57.9478C84.8576 57.4896 84.9069 57.0315 85.0054 56.5734C85.1039 56.0643 85.3503 56.1661 85.3996 56.6243C85.5966 57.5406 86.0401 58.355 86.5821 59.0677Z" fill="#F7B999"/>
<path d="M82.7886 57.1332C82.7886 57.1332 83.5769 55.9115 84.6608 56.166" stroke="#B47764" stroke-width="0.75" stroke-miterlimit="10" stroke-linecap="round"/>
<path d="M84.907 54.5373C83.0347 54.0282 81.6059 56.268 81.5073 56.8789" stroke="#F55F24" stroke-width="2" stroke-miterlimit="10" stroke-linecap="round"/>
<path d="M84.2171 63.1909C83.5273 63.2927 82.7883 63.2927 82.0985 63.1909C81.8028 63.14 81.5072 63.4454 81.655 63.7508C81.8028 64.0054 81.9507 64.2599 82.1477 64.5144" stroke="#B47764" stroke-width="0.75" stroke-miterlimit="10" stroke-linecap="round"/>
<path d="M84.2174 57.6931C84.4079 57.6931 84.5623 57.4424 84.5623 57.1332C84.5623 56.8239 84.4079 56.5732 84.2174 56.5732C84.027 56.5732 83.8726 56.8239 83.8726 57.1332C83.8726 57.4424 84.027 57.6931 84.2174 57.6931Z" fill="#B47764"/>
<path d="M81.4579 45.6798C82.5912 46.3416 84.2171 47.9705 84.2171 49.8539C84.2171 51.5847 83.3302 55.0462 82.2955 56.4715C80.6696 58.7622 76.5309 59.7294 76.1368 61.511C75.2992 65.6343 75.4963 65.8379 75.8904 70.012C76.1368 73.0154 76.2846 76.5278 73.8703 78.3603C72.7864 79.2257 71.4561 79.6838 70.2244 80.3456C65.7408 82.6872 63.1295 90.7809 63.7207 93.5807C56.9707 85.8432 63.3758 80.651 61.8484 74.3898C60.3211 68.1795 61.3065 62.6309 63.1787 55.4534C67.3667 39.2659 80.3247 45.018 81.4579 45.6798Z" fill="#F55F24"/>
<path d="M78.8466 53.7227C76.4816 56.217 75.7426 61.0529 75.4962 64.3107C75.3977 65.9397 75.4962 67.5686 75.7426 69.1466C76.2353 72.0482 76.5309 78.004 71.4561 79.6329" stroke="#E75223" stroke-width="2" stroke-miterlimit="10" stroke-linecap="round" stroke-linejoin="round"/>
<path d="M61.1094 81.1601C61.1094 81.1601 63.967 72.8627 62.8338 69.4521" stroke="#E75223" stroke-width="2" stroke-miterlimit="10" stroke-linecap="round" stroke-linejoin="round"/>
<path d="M81.4094 164.898C81.5079 164.694 81.6065 164.389 81.6065 164.389C81.6065 164.389 82.0992 164.643 82.1484 164.643C83.1338 165.305 84.4149 165.305 85.5481 165.305C86.1393 165.305 86.7305 165.305 87.2232 164.999C87.5189 164.796 87.7652 164.541 88.1101 164.338C88.5043 164.134 88.997 164.083 89.4404 164.185C89.8838 164.287 90.3273 164.49 90.7214 164.694C91.3127 164.949 91.9039 165.254 92.1995 165.865C92.4952 166.425 92.4459 167.137 92.2488 167.697C92.0517 168.257 91.7068 168.868 91.5097 169.428C91.4605 169.53 91.4112 169.632 91.3619 169.733C91.2634 169.835 91.1156 169.835 91.017 169.835C89.9331 169.835 88.8984 169.784 87.8145 169.632C87.5189 169.581 87.2725 169.53 86.9769 169.581C86.8291 169.581 86.632 169.632 86.4842 169.632C86.1393 169.632 85.7944 169.428 85.5481 169.174C85.351 168.868 85.2524 168.461 85.0554 168.155C84.8583 167.799 84.5134 167.494 84.1685 167.29C83.7743 167.036 83.3309 166.934 82.986 166.679C81.2616 165.305 81.0645 165.763 81.4094 164.898Z" fill="white"/>
<path d="M98.0131 166.73C98.4072 166.73 98.8014 166.628 99.1955 166.73C99.3434 166.781 99.4912 166.934 99.4912 167.086C99.4912 167.29 99.2448 167.392 99.0477 167.443C97.5696 167.799 96.0915 168.105 94.5642 168.257C94.5149 168.257 94.4656 168.257 94.4163 168.257C94.3671 168.206 94.3671 168.206 94.3671 168.155C94.2685 167.799 94.5149 167.443 94.6134 167.086C94.7612 166.577 94.6134 166.17 94.4656 165.712C94.909 165.61 95.7466 166.119 96.1408 166.323C96.732 166.577 97.3726 166.781 98.0131 166.73Z" fill="white"/>
<path d="M81.2613 165.305C82.1482 165.559 83.035 165.916 83.8233 166.425C84.2668 166.679 84.6609 166.985 85.1044 167.29C85.3507 167.443 85.5971 167.646 85.7449 167.85C86.0405 168.206 86.1883 168.766 86.0898 169.224C84.7102 168.817 83.2321 168.613 81.8033 168.613C81.6062 168.613 81.1628 168.613 81.0642 168.41C80.9657 168.206 81.1628 167.646 81.1628 167.443C81.212 166.781 81.2613 166.017 81.2613 165.305Z" fill="#27363E"/>
<path d="M87.8141 160.927C87.7648 160.876 87.6663 160.825 87.617 160.825C87.4692 160.825 87.3707 160.927 87.3214 161.08C87.1243 161.334 86.9272 161.538 86.7302 161.741C86.4838 161.945 86.1882 162.2 86.1389 162.505C86.0896 162.709 86.1882 162.912 86.2375 163.116C86.336 163.472 86.3853 163.829 86.336 164.236C86.6809 164.185 86.9765 164.032 87.3214 163.879C87.8634 163.676 89.2429 163.778 89.5386 163.167C89.6864 162.861 89.0951 162.301 88.898 162.047C88.5039 161.64 88.159 161.283 87.8141 160.927Z" fill="#1D282D"/>
<path d="M99.6885 167.035C99.9348 167.29 100.083 167.646 100.083 168.054C100.083 168.104 100.083 168.155 100.033 168.257C99.9841 168.308 99.9348 168.563 99.8363 168.563C99.3928 168.766 99.0479 168.97 98.6045 169.173C98.3582 169.275 97.964 169.173 97.6684 169.224C97.2742 169.326 96.8801 169.581 96.5352 169.632C95.1556 169.682 93.1848 169.784 93.2833 169.733C93.3326 169.682 93.4311 169.428 93.4804 169.377C93.7268 168.919 93.9731 168.512 94.1702 168.054C94.318 167.748 94.5151 167.392 94.5151 167.035C94.6629 167.341 94.3673 167.799 94.6136 168.054C94.7122 168.206 94.9093 168.206 95.1063 168.155C95.3034 168.104 95.402 168.003 95.5498 167.901C95.8454 167.748 96.141 167.646 96.4859 167.595C96.8308 167.545 97.1757 167.545 97.4713 167.545C98.0625 167.494 98.6538 167.341 99.245 167.188C99.3436 167.137 99.4914 167.086 99.3928 166.985C99.3928 166.934 99.3436 166.934 99.2943 166.934C99.1465 166.883 98.9494 166.832 98.8016 166.781C99.1465 166.679 99.4421 166.832 99.6885 167.035Z" fill="#27363E"/>
<path d="M94.761 166.73C94.8596 166.527 94.9088 166.221 94.8103 166.018C94.761 165.865 94.6625 165.814 94.5147 165.712C94.022 165.407 93.4307 165.305 92.938 165.05C92.4946 164.796 92.1004 164.439 91.7063 164.134C91.0165 163.574 90.2774 163.167 89.5384 162.811C89.4891 162.811 89.4399 162.76 89.3906 162.76C89.2921 162.76 89.2428 162.811 89.1935 162.861C88.8486 163.116 88.4545 163.116 88.0603 162.963C87.8632 162.861 87.7154 162.709 87.5183 162.709C87.2227 162.709 87.0256 162.963 86.8778 163.218C86.6807 163.523 86.4837 163.778 86.2373 164.032C86.0895 164.185 85.9417 164.338 85.7939 164.389C85.5968 164.439 85.3997 164.389 85.2026 164.389C84.2665 164.185 83.1333 163.88 82.2464 163.574C82.1479 163.523 82.0986 163.523 82.0001 163.523C81.9015 163.574 81.803 163.676 81.7537 163.829C81.6552 163.981 81.5566 164.338 81.5566 164.338C81.5566 164.338 82.0986 164.796 82.2957 164.898C82.9362 165.203 83.5274 165.508 84.2172 165.661C84.8577 165.865 85.5968 165.916 86.2373 165.712C87.1242 165.458 87.8632 164.847 88.7008 164.541C88.9964 164.439 89.292 164.389 89.5877 164.49C89.9326 164.643 90.1789 164.999 90.4745 165.203C90.918 165.559 91.4599 165.661 91.9034 165.967C91.9526 166.018 92.0512 166.068 92.0512 166.119C92.0512 166.17 92.0512 166.221 92.0512 166.272C91.9526 167.392 91.8541 168.512 91.2136 169.428C91.3121 169.326 92.4453 169.428 92.6424 169.428C92.9873 169.428 93.3322 169.479 93.5293 169.174C94.0713 168.614 94.4161 167.596 94.761 166.73Z" fill="#27363E"/>
<path d="M88.1098 169.123C89.1937 169.173 90.8196 169.377 92.0514 169.479C95.0569 169.632 99.4419 168.97 100.082 168.155C100.23 168.664 100.279 169.479 99.8853 169.886C99.4912 170.293 98.9985 170.497 98.5058 170.65C97.3233 171.006 96.0915 171.006 94.8598 171.006C92.9383 171.006 91.0167 171.006 89.0952 171.006C87.5678 171.006 86.0897 171.006 84.5623 171.006C83.9218 171.006 83.2813 171.006 82.6408 170.904C82.0496 170.802 81.409 170.65 80.8671 170.446C80.8178 170.395 80.7193 170.395 80.67 170.344C80.6207 170.293 80.5715 170.192 80.5715 170.09C80.5222 169.581 80.5222 168.614 81.0642 168.512C81.6061 168.41 82.7393 168.563 83.3306 168.664C84.9565 168.919 86.4839 169.072 88.1098 169.123Z" fill="#F3F2F2"/>
<path d="M94.2687 166.119C94.2687 165.916 94.1702 165.763 94.0716 165.61C94.0716 165.559 94.0224 165.559 94.0224 165.559C93.9731 165.508 93.8746 165.559 93.8253 165.61C93.7267 165.712 93.6282 165.763 93.5297 165.865C93.4311 165.61 93.2833 165.356 93.1848 165.152C92.9384 165.203 92.6428 165.305 92.4457 165.508C92.4457 165.254 92.4457 164.999 92.3472 164.796C92.3472 164.796 92.3472 164.745 92.2979 164.745H92.2486C92.1501 164.847 92.0023 164.948 91.9037 165.05C91.8052 164.745 91.7067 164.388 91.6574 164.083C91.3618 164.083 91.1154 164.287 90.8691 164.49C90.8691 164.185 90.8691 163.879 90.8691 163.625C90.8198 163.981 93.1355 168.104 90.13 163.981C90.0808 163.727 90.13 163.472 90.2778 163.269C89.9329 163.218 89.588 163.319 89.3417 163.574C89.2924 163.319 89.3417 163.116 89.391 162.861" stroke="#1D282D" stroke-width="1.431" stroke-miterlimit="10" stroke-linecap="round" stroke-linejoin="round"/>
<path d="M100.083 168.156C99.3929 169.072 94.6137 169.53 93.5791 169.53C90.5243 169.53 87.1247 169.072 85.1539 168.919C83.5772 168.817 82.5918 168.359 81.0645 168.512" stroke="#D9D9D9" stroke-width="0.7155" stroke-miterlimit="10" stroke-linecap="round"/>
<path d="M71.9984 165.457C72.0969 165.254 72.1954 164.948 72.1954 164.948C72.1954 164.948 72.6882 165.203 72.7374 165.203C73.7228 165.865 75.0038 165.865 76.1371 165.865C76.7283 165.865 77.3195 165.865 77.8122 165.559C78.1079 165.356 78.3542 165.101 78.6991 164.897C79.0933 164.694 79.586 164.643 80.0294 164.745C80.4728 164.847 80.9163 165.05 81.3104 165.254C81.9017 165.508 82.4929 165.814 82.7885 166.425C83.0841 166.985 83.0349 167.697 82.8378 168.257C82.6407 168.868 82.2958 169.428 82.0987 169.988C82.0495 170.09 82.0002 170.192 81.9509 170.293C81.8524 170.395 81.7046 170.395 81.606 170.395C80.5221 170.395 79.4874 170.344 78.4035 170.192C78.1079 170.141 77.8615 170.09 77.5659 170.141C77.4181 170.141 77.221 170.192 77.0732 170.192C76.7283 170.192 76.3834 169.988 76.1371 169.733C75.94 169.428 75.8414 169.021 75.6444 168.715C75.4473 168.359 75.1024 168.054 74.7575 167.85C74.3633 167.595 73.9199 167.494 73.575 167.239C71.8998 165.916 71.7027 166.374 71.9984 165.457Z" fill="white"/>
<path d="M88.6024 167.341C88.9966 167.341 89.3907 167.239 89.7849 167.341C89.9327 167.392 90.0805 167.545 90.0805 167.697C90.0805 167.901 89.8342 168.003 89.6371 168.054C88.159 168.41 86.6809 168.715 85.1535 168.868C85.1042 168.868 85.055 168.868 85.0057 168.868C84.9564 168.817 84.9564 168.817 84.9564 168.766C84.8579 168.41 85.1042 168.054 85.2028 167.697C85.3506 167.188 85.2028 166.781 85.055 166.323C85.4984 166.221 86.336 166.73 86.7301 166.934C87.3707 167.137 87.9619 167.341 88.6024 167.341Z" fill="white"/>
<path d="M71.9 165.916C72.7868 166.17 73.6737 166.526 74.462 167.035C74.9054 167.29 75.2996 167.595 75.743 167.901C75.9894 168.054 76.2357 168.257 76.3835 168.461C76.6792 168.817 76.827 169.377 76.7284 169.835C75.3489 169.428 73.8708 169.224 72.4419 169.224C72.2449 169.224 71.8014 169.224 71.7029 169.021C71.6043 168.817 71.8014 168.257 71.8014 168.054C71.8507 167.341 71.8507 166.628 71.9 165.916Z" fill="#27363E"/>
<path d="M78.4035 161.538C78.3542 161.487 78.2556 161.436 78.2064 161.436C78.0586 161.436 77.96 161.538 77.9108 161.691C77.7137 161.945 77.5166 162.149 77.3195 162.352C77.0732 162.556 76.7775 162.81 76.7283 163.116C76.679 163.319 76.7775 163.523 76.8268 163.727C76.9254 164.083 76.9746 164.439 76.9254 164.847C77.2702 164.796 77.5659 164.643 77.9108 164.49C78.4527 164.287 79.8323 164.388 80.1279 163.778C80.2757 163.472 79.6845 162.912 79.4874 162.658C79.0932 162.25 78.7976 161.894 78.4035 161.538Z" fill="#1D282D"/>
<path d="M90.2778 167.595C90.5242 167.85 90.672 168.206 90.672 168.613C90.672 168.664 90.672 168.715 90.6227 168.817C90.5734 168.868 90.5242 169.123 90.4256 169.123C89.9822 169.326 89.6373 169.53 89.1939 169.733C88.9475 169.835 88.5534 169.733 88.2577 169.784C87.8636 169.886 87.4694 170.141 87.1245 170.191C85.745 170.242 83.7742 170.344 83.8727 170.293C83.922 170.242 84.0205 169.988 84.0698 169.937C84.3161 169.479 84.5625 169.072 84.7596 168.613C84.9074 168.308 85.1044 167.952 85.1044 167.595C85.2523 167.901 84.9566 168.359 85.203 168.613C85.3015 168.766 85.4986 168.766 85.6957 168.715C85.8928 168.664 85.9913 168.563 86.1391 168.461C86.4347 168.308 86.7304 168.206 87.0753 168.155C87.4201 168.104 87.765 168.104 88.0607 168.104C88.6519 168.054 89.2431 167.901 89.8344 167.748C89.9329 167.697 90.0807 167.646 89.9822 167.544C89.9822 167.494 89.9329 167.494 89.8837 167.494C89.7358 167.443 89.5388 167.392 89.391 167.341C89.7358 167.29 90.0807 167.392 90.2778 167.595Z" fill="#27363E"/>
<path d="M85.3509 167.341C85.4494 167.137 85.4987 166.832 85.4001 166.628C85.3509 166.476 85.2523 166.425 85.1045 166.323C84.6118 166.018 84.0206 165.916 83.5279 165.661C83.0844 165.407 82.6903 165.05 82.2961 164.745C81.6063 164.185 80.8673 163.778 80.1282 163.421C80.079 163.421 80.0297 163.37 79.9804 163.37C79.8819 163.37 79.8326 163.421 79.7834 163.472C79.4385 163.727 79.0443 163.727 78.6501 163.574C78.4531 163.472 78.3052 163.32 78.1082 163.32C77.8125 163.32 77.6155 163.574 77.4677 163.829C77.2706 164.134 77.0735 164.389 76.8271 164.643C76.6793 164.796 76.5315 164.949 76.3837 164.999C76.1866 165.05 75.9896 164.999 75.7925 164.999C74.8563 164.796 73.7231 164.49 72.8363 164.185C72.7377 164.134 72.6885 164.134 72.5899 164.134C72.4914 164.185 72.3928 164.287 72.3436 164.439C72.245 164.592 72.1465 164.949 72.1465 164.949C72.1465 164.949 72.6885 165.407 72.8855 165.508C73.526 165.814 74.1173 166.119 74.8071 166.272C75.4476 166.476 76.1866 166.527 76.8271 166.323C77.714 166.068 78.4531 165.458 79.2907 165.152C79.5863 165.05 79.8819 164.999 80.1775 165.101C80.5224 165.254 80.7688 165.61 81.0644 165.814C81.5078 166.17 82.0498 166.272 82.4932 166.577C82.5425 166.628 82.641 166.679 82.641 166.73C82.641 166.781 82.641 166.832 82.641 166.883C82.5425 168.003 82.4439 169.123 81.8034 170.039C81.902 169.937 83.0352 170.039 83.2323 170.039C83.5772 170.039 83.922 170.09 84.1191 169.784C84.6611 169.174 85.0553 168.206 85.3509 167.341Z" fill="#27363E"/>
<path d="M78.6991 169.683C79.7831 169.733 81.409 169.937 82.6407 170.039C85.6462 170.192 90.0313 169.53 90.6718 168.715C90.8196 169.224 90.8689 170.039 90.4747 170.446C90.0805 170.853 89.5878 171.057 89.0951 171.21C87.9126 171.566 86.6809 171.566 85.4491 171.566C83.5276 171.566 81.6061 171.566 79.6845 171.566C78.1572 171.566 76.6791 171.566 75.1517 171.566C74.5112 171.566 73.8707 171.566 73.2302 171.464C72.6389 171.362 71.9984 171.21 71.4564 171.006C71.4072 170.955 71.3086 170.955 71.2594 170.904C71.2101 170.853 71.1608 170.752 71.1608 170.65C71.1115 170.141 71.1115 169.173 71.6535 169.072C72.1955 168.97 73.3287 169.123 73.9199 169.224C75.5458 169.479 77.1225 169.683 78.6991 169.683Z" fill="#F3F2F2"/>
<path d="M84.8581 166.73C84.8581 166.526 84.7595 166.374 84.661 166.221C84.661 166.17 84.6117 166.17 84.6117 166.17C84.5624 166.119 84.4639 166.17 84.4146 166.221C84.3161 166.323 84.2176 166.374 84.119 166.476C84.0205 166.221 83.8727 165.966 83.7741 165.763C83.5278 165.814 83.2321 165.916 83.0351 166.119C83.0351 165.865 83.0351 165.61 82.9365 165.407C82.9365 165.407 82.9365 165.356 82.8873 165.356H82.838C82.7395 165.457 82.5916 165.559 82.4931 165.661C82.3946 165.356 82.296 164.999 82.2467 164.694C81.9511 164.694 81.7048 164.897 81.4584 165.101C81.4584 164.796 81.4584 164.49 81.4584 164.236C81.4092 164.592 83.7249 168.715 80.7194 164.592C80.6701 164.338 80.7194 164.083 80.8672 163.879C80.5223 163.828 80.1774 163.93 79.9311 164.185C79.8818 163.93 79.9311 163.727 79.9803 163.472" stroke="#1D282D" stroke-width="1.431" stroke-miterlimit="10" stroke-linecap="round" stroke-linejoin="round"/>
<path d="M90.6716 168.766C89.9818 169.682 85.2026 170.141 84.1679 170.141C81.1132 170.141 77.7135 169.682 75.7427 169.53C74.1661 169.428 73.1807 168.97 71.6533 169.122" stroke="#D9D9D9" stroke-width="0.7155" stroke-miterlimit="10" stroke-linecap="round"/>
</g>
<defs>
<linearGradient id="paint0_linear_666_2911" x1="150.044" y1="99.8649" x2="150.044" y2="88.5503" gradientUnits="userSpaceOnUse">
<stop offset="0.1777" stop-color="white"/>
<stop offset="0.9003" stop-color="white" stop-opacity="0"/>
</linearGradient>
<linearGradient id="paint1_linear_666_2911" x1="97.1211" y1="105.312" x2="97.1211" y2="93.9971" gradientUnits="userSpaceOnUse">
<stop offset="0.1777" stop-color="white"/>
<stop offset="0.9003" stop-color="white" stop-opacity="0"/>
</linearGradient>
</defs>
</svg>
