<svg width="110" height="97" viewBox="0 0 110 97" fill="none" xmlns="http://www.w3.org/2000/svg">
<path d="M85.4865 54.9365H42.3614C41.9084 54.9365 41.4554 54.777 41.1189 54.511L37.935 51.9444C37.5985 51.6784 37.1326 51.5188 36.6925 51.5188H12.1273C11.3248 51.5188 10.7942 52.0108 10.9365 52.6359L17.9903 83.2892C18.1327 83.9009 18.8963 84.4062 19.6987 84.4062H92.2685C93.0709 84.4062 93.6015 83.9142 93.4592 83.2892L87.1949 56.0403C87.0525 55.4286 86.2889 54.9365 85.4865 54.9365Z" fill="#2D8C96"/>
<path d="M77.721 12.2746H26.2737C23.4781 12.2746 21.1873 14.6284 21.1873 17.5009V73.1024C21.1873 75.9749 23.4781 78.3287 26.2737 78.3287H84.8524C87.648 78.3287 89.9389 75.9749 89.9389 73.1024V24.762L77.721 12.2746Z" fill="white"/>
<mask id="mask0_1781_635" style="mask-type:luminance" maskUnits="userSpaceOnUse" x="26" y="19" width="17" height="18">
<path d="M34.6864 36.4913C39.1968 36.4913 42.8532 32.7344 42.8532 28.0999C42.8532 23.4655 39.1968 19.7085 34.6864 19.7085C30.176 19.7085 26.5195 23.4655 26.5195 28.0999C26.5195 32.7344 30.176 36.4913 34.6864 36.4913Z" fill="white"/>
</mask>
<g mask="url(#mask0_1781_635)">
<path d="M44.8076 19.4425H24.9276V37.7946H44.8076V19.4425Z" fill="#FF9C5D"/>
</g>
<mask id="mask1_1781_635" style="mask-type:luminance" maskUnits="userSpaceOnUse" x="26" y="19" width="17" height="18">
<path d="M34.6864 36.4913C39.1968 36.4913 42.8532 32.7344 42.8532 28.0999C42.8532 23.4655 39.1968 19.7085 34.6864 19.7085C30.176 19.7085 26.5195 23.4655 26.5195 28.0999C26.5195 32.7344 30.176 36.4913 34.6864 36.4913Z" fill="white"/>
</mask>
<g mask="url(#mask1_1781_635)">
<path d="M30.4411 31.1453C30.8843 31.1453 31.2436 30.7762 31.2436 30.3208C31.2436 29.8654 30.8843 29.4963 30.4411 29.4963C29.9979 29.4963 29.6387 29.8654 29.6387 30.3208C29.6387 30.7762 29.9979 31.1453 30.4411 31.1453Z" fill="#3D1000"/>
</g>
<mask id="mask2_1781_635" style="mask-type:luminance" maskUnits="userSpaceOnUse" x="26" y="19" width="17" height="18">
<path d="M34.6864 36.4913C39.1968 36.4913 42.8532 32.7344 42.8532 28.0999C42.8532 23.4655 39.1968 19.7085 34.6864 19.7085C30.176 19.7085 26.5195 23.4655 26.5195 28.0999C26.5195 32.7344 30.176 36.4913 34.6864 36.4913Z" fill="white"/>
</mask>
<g mask="url(#mask2_1781_635)">
<path d="M30.04 32.2225C30.4832 32.2225 30.8424 31.8533 30.8424 31.3979C30.8424 30.9426 30.4832 30.5734 30.04 30.5734C29.5968 30.5734 29.2375 30.9426 29.2375 31.3979C29.2375 31.8533 29.5968 32.2225 30.04 32.2225Z" fill="#3D1000"/>
</g>
<mask id="mask3_1781_635" style="mask-type:luminance" maskUnits="userSpaceOnUse" x="26" y="19" width="17" height="18">
<path d="M34.6864 36.4913C39.1968 36.4913 42.8532 32.7344 42.8532 28.0999C42.8532 23.4655 39.1968 19.7085 34.6864 19.7085C30.176 19.7085 26.5195 23.4655 26.5195 28.0999C26.5195 32.7344 30.176 36.4913 34.6864 36.4913Z" fill="white"/>
</mask>
<g mask="url(#mask3_1781_635)">
<path d="M30.26 33.0603C30.7031 33.0603 31.0624 32.6911 31.0624 32.2358C31.0624 31.7804 30.7031 31.4113 30.26 31.4113C29.8168 31.4113 29.4575 31.7804 29.4575 32.2358C29.4575 32.6911 29.8168 33.0603 30.26 33.0603Z" fill="#3D1000"/>
</g>
<mask id="mask4_1781_635" style="mask-type:luminance" maskUnits="userSpaceOnUse" x="26" y="19" width="17" height="18">
<path d="M34.6864 36.4913C39.1968 36.4913 42.8532 32.7344 42.8532 28.0999C42.8532 23.4655 39.1968 19.7085 34.6864 19.7085C30.176 19.7085 26.5195 23.4655 26.5195 28.0999C26.5195 32.7344 30.176 36.4913 34.6864 36.4913Z" fill="white"/>
</mask>
<g mask="url(#mask4_1781_635)">
<path d="M31.0625 29.9617C31.5056 29.9617 31.8649 29.5926 31.8649 29.1372C31.8649 28.6818 31.5056 28.3127 31.0625 28.3127C30.6193 28.3127 30.26 28.6818 30.26 29.1372C30.26 29.5926 30.6193 29.9617 31.0625 29.9617Z" fill="#3D1000"/>
</g>
<mask id="mask5_1781_635" style="mask-type:luminance" maskUnits="userSpaceOnUse" x="26" y="19" width="17" height="18">
<path d="M34.6864 36.4913C39.1968 36.4913 42.8532 32.7344 42.8532 28.0999C42.8532 23.4655 39.1968 19.7085 34.6864 19.7085C30.176 19.7085 26.5195 23.4655 26.5195 28.0999C26.5195 32.7344 30.176 36.4913 34.6864 36.4913Z" fill="white"/>
</mask>
<g mask="url(#mask5_1781_635)">
<path d="M31.2436 28.2994C31.6868 28.2994 32.0461 27.9303 32.0461 27.4749C32.0461 27.0195 31.6868 26.6504 31.2436 26.6504C30.8004 26.6504 30.4412 27.0195 30.4412 27.4749C30.4412 27.9303 30.8004 28.2994 31.2436 28.2994Z" fill="#3D1000"/>
</g>
<mask id="mask6_1781_635" style="mask-type:luminance" maskUnits="userSpaceOnUse" x="26" y="19" width="17" height="18">
<path d="M34.6864 36.4913C39.1968 36.4913 42.8532 32.7344 42.8532 28.0999C42.8532 23.4655 39.1968 19.7085 34.6864 19.7085C30.176 19.7085 26.5195 23.4655 26.5195 28.0999C26.5195 32.7344 30.176 36.4913 34.6864 36.4913Z" fill="white"/>
</mask>
<g mask="url(#mask6_1781_635)">
<path d="M31.2436 26.9429C31.6868 26.9429 32.0461 26.5738 32.0461 26.1184C32.0461 25.663 31.6868 25.2939 31.2436 25.2939C30.8004 25.2939 30.4412 25.663 30.4412 26.1184C30.4412 26.5738 30.8004 26.9429 31.2436 26.9429Z" fill="#3D1000"/>
</g>
<mask id="mask7_1781_635" style="mask-type:luminance" maskUnits="userSpaceOnUse" x="26" y="19" width="17" height="18">
<path d="M34.6864 36.4913C39.1968 36.4913 42.8532 32.7344 42.8532 28.0999C42.8532 23.4655 39.1968 19.7085 34.6864 19.7085C30.176 19.7085 26.5195 23.4655 26.5195 28.0999C26.5195 32.7344 30.176 36.4913 34.6864 36.4913Z" fill="white"/>
</mask>
<g mask="url(#mask7_1781_635)">
<path d="M31.6449 25.653C32.088 25.653 32.4473 25.2838 32.4473 24.8285C32.4473 24.3731 32.088 24.004 31.6449 24.004C31.2017 24.004 30.8424 24.3731 30.8424 24.8285C30.8424 25.2838 31.2017 25.653 31.6449 25.653Z" fill="#3D1000"/>
</g>
<mask id="mask8_1781_635" style="mask-type:luminance" maskUnits="userSpaceOnUse" x="26" y="19" width="17" height="18">
<path d="M34.6864 36.4913C39.1968 36.4913 42.8532 32.7344 42.8532 28.0999C42.8532 23.4655 39.1968 19.7085 34.6864 19.7085C30.176 19.7085 26.5195 23.4655 26.5195 28.0999C26.5195 32.7344 30.176 36.4913 34.6864 36.4913Z" fill="white"/>
</mask>
<g mask="url(#mask8_1781_635)">
<path d="M32.2402 24.5359C32.6834 24.5359 33.0426 24.1667 33.0426 23.7114C33.0426 23.256 32.6834 22.8868 32.2402 22.8868C31.797 22.8868 31.4377 23.256 31.4377 23.7114C31.4377 24.1667 31.797 24.5359 32.2402 24.5359Z" fill="#3D1000"/>
</g>
<mask id="mask9_1781_635" style="mask-type:luminance" maskUnits="userSpaceOnUse" x="26" y="19" width="17" height="18">
<path d="M34.6864 36.4913C39.1968 36.4913 42.8532 32.7344 42.8532 28.0999C42.8532 23.4655 39.1968 19.7085 34.6864 19.7085C30.176 19.7085 26.5195 23.4655 26.5195 28.0999C26.5195 32.7344 30.176 36.4913 34.6864 36.4913Z" fill="white"/>
</mask>
<g mask="url(#mask9_1781_635)">
<path d="M33.1074 23.9242C33.5506 23.9242 33.9098 23.555 33.9098 23.0997C33.9098 22.6443 33.5506 22.2751 33.1074 22.2751C32.6642 22.2751 32.3049 22.6443 32.3049 23.0997C32.3049 23.555 32.6642 23.9242 33.1074 23.9242Z" fill="#3D1000"/>
</g>
<mask id="mask10_1781_635" style="mask-type:luminance" maskUnits="userSpaceOnUse" x="26" y="19" width="17" height="18">
<path d="M34.6864 36.4913C39.1968 36.4913 42.8532 32.7344 42.8532 28.0999C42.8532 23.4655 39.1968 19.7085 34.6864 19.7085C30.176 19.7085 26.5195 23.4655 26.5195 28.0999C26.5195 32.7344 30.176 36.4913 34.6864 36.4913Z" fill="white"/>
</mask>
<g mask="url(#mask10_1781_635)">
<path d="M33.9875 23.5119C34.4307 23.5119 34.79 23.1427 34.79 22.6874C34.79 22.232 34.4307 21.8629 33.9875 21.8629C33.5443 21.8629 33.1851 22.232 33.1851 22.6874C33.1851 23.1427 33.5443 23.5119 33.9875 23.5119Z" fill="#3D1000"/>
</g>
<mask id="mask11_1781_635" style="mask-type:luminance" maskUnits="userSpaceOnUse" x="26" y="19" width="17" height="18">
<path d="M34.6864 36.4913C39.1968 36.4913 42.8532 32.7344 42.8532 28.0999C42.8532 23.4655 39.1968 19.7085 34.6864 19.7085C30.176 19.7085 26.5195 23.4655 26.5195 28.0999C26.5195 32.7344 30.176 36.4913 34.6864 36.4913Z" fill="white"/>
</mask>
<g mask="url(#mask11_1781_635)">
<path d="M35.1911 23.5119C35.6343 23.5119 35.9936 23.1427 35.9936 22.6874C35.9936 22.232 35.6343 21.8629 35.1911 21.8629C34.7479 21.8629 34.3887 22.232 34.3887 22.6874C34.3887 23.1427 34.7479 23.5119 35.1911 23.5119Z" fill="#3D1000"/>
</g>
<mask id="mask12_1781_635" style="mask-type:luminance" maskUnits="userSpaceOnUse" x="26" y="19" width="17" height="18">
<path d="M34.6864 36.4913C39.1968 36.4913 42.8532 32.7344 42.8532 28.0999C42.8532 23.4655 39.1968 19.7085 34.6864 19.7085C30.176 19.7085 26.5195 23.4655 26.5195 28.0999C26.5195 32.7344 30.176 36.4913 34.6864 36.4913Z" fill="white"/>
</mask>
<g mask="url(#mask12_1781_635)">
<path d="M36.4984 24.0039C36.9416 24.0039 37.3008 23.6348 37.3008 23.1794C37.3008 22.7241 36.9416 22.3549 36.4984 22.3549C36.0552 22.3549 35.6959 22.7241 35.6959 23.1794C35.6959 23.6348 36.0552 24.0039 36.4984 24.0039Z" fill="#3D1000"/>
</g>
<mask id="mask13_1781_635" style="mask-type:luminance" maskUnits="userSpaceOnUse" x="26" y="19" width="17" height="18">
<path d="M34.6864 36.4913C39.1968 36.4913 42.8532 32.7344 42.8532 28.0999C42.8532 23.4655 39.1968 19.7085 34.6864 19.7085C30.176 19.7085 26.5195 23.4655 26.5195 28.0999C26.5195 32.7344 30.176 36.4913 34.6864 36.4913Z" fill="white"/>
</mask>
<g mask="url(#mask13_1781_635)">
<path d="M37.5467 24.5359C37.9899 24.5359 38.3492 24.1667 38.3492 23.7114C38.3492 23.256 37.9899 22.8868 37.5467 22.8868C37.1035 22.8868 36.7443 23.256 36.7443 23.7114C36.7443 24.1667 37.1035 24.5359 37.5467 24.5359Z" fill="#3D1000"/>
</g>
<mask id="mask14_1781_635" style="mask-type:luminance" maskUnits="userSpaceOnUse" x="26" y="19" width="17" height="18">
<path d="M34.6864 36.4913C39.1968 36.4913 42.8532 32.7344 42.8532 28.0999C42.8532 23.4655 39.1968 19.7085 34.6864 19.7085C30.176 19.7085 26.5195 23.4655 26.5195 28.0999C26.5195 32.7344 30.176 36.4913 34.6864 36.4913Z" fill="white"/>
</mask>
<g mask="url(#mask14_1781_635)">
<path d="M38.1032 25.653C38.5464 25.653 38.9057 25.2838 38.9057 24.8285C38.9057 24.3731 38.5464 24.004 38.1032 24.004C37.66 24.004 37.3008 24.3731 37.3008 24.8285C37.3008 25.2838 37.66 25.653 38.1032 25.653Z" fill="#3D1000"/>
</g>
<mask id="mask15_1781_635" style="mask-type:luminance" maskUnits="userSpaceOnUse" x="26" y="19" width="17" height="18">
<path d="M34.6864 36.4913C39.1968 36.4913 42.8532 32.7344 42.8532 28.0999C42.8532 23.4655 39.1968 19.7085 34.6864 19.7085C30.176 19.7085 26.5195 23.4655 26.5195 28.0999C26.5195 32.7344 30.176 36.4913 34.6864 36.4913Z" fill="white"/>
</mask>
<g mask="url(#mask15_1781_635)">
<path d="M38.3621 26.9429C38.8053 26.9429 39.1646 26.5738 39.1646 26.1184C39.1646 25.663 38.8053 25.2939 38.3621 25.2939C37.919 25.2939 37.5597 25.663 37.5597 26.1184C37.5597 26.5738 37.919 26.9429 38.3621 26.9429Z" fill="#3D1000"/>
</g>
<mask id="mask16_1781_635" style="mask-type:luminance" maskUnits="userSpaceOnUse" x="26" y="19" width="17" height="18">
<path d="M34.6864 36.4913C39.1968 36.4913 42.8532 32.7344 42.8532 28.0999C42.8532 23.4655 39.1968 19.7085 34.6864 19.7085C30.176 19.7085 26.5195 23.4655 26.5195 28.0999C26.5195 32.7344 30.176 36.4913 34.6864 36.4913Z" fill="white"/>
</mask>
<g mask="url(#mask16_1781_635)">
<path d="M38.3621 28.0866C38.8053 28.0866 39.1646 27.7174 39.1646 27.2621C39.1646 26.8067 38.8053 26.4376 38.3621 26.4376C37.919 26.4376 37.5597 26.8067 37.5597 27.2621C37.5597 27.7174 37.919 28.0866 38.3621 28.0866Z" fill="#3D1000"/>
</g>
<mask id="mask17_1781_635" style="mask-type:luminance" maskUnits="userSpaceOnUse" x="26" y="19" width="17" height="18">
<path d="M34.6864 36.4913C39.1968 36.4913 42.8532 32.7344 42.8532 28.0999C42.8532 23.4655 39.1968 19.7085 34.6864 19.7085C30.176 19.7085 26.5195 23.4655 26.5195 28.0999C26.5195 32.7344 30.176 36.4913 34.6864 36.4913Z" fill="white"/>
</mask>
<g mask="url(#mask17_1781_635)">
<path d="M38.3621 29.3367C38.8053 29.3367 39.1646 28.9676 39.1646 28.5122C39.1646 28.0568 38.8053 27.6877 38.3621 27.6877C37.919 27.6877 37.5597 28.0568 37.5597 28.5122C37.5597 28.9676 37.919 29.3367 38.3621 29.3367Z" fill="#3D1000"/>
</g>
<mask id="mask18_1781_635" style="mask-type:luminance" maskUnits="userSpaceOnUse" x="26" y="19" width="17" height="18">
<path d="M34.6864 36.4913C39.1968 36.4913 42.8532 32.7344 42.8532 28.0999C42.8532 23.4655 39.1968 19.7085 34.6864 19.7085C30.176 19.7085 26.5195 23.4655 26.5195 28.0999C26.5195 32.7344 30.176 36.4913 34.6864 36.4913Z" fill="white"/>
</mask>
<g mask="url(#mask18_1781_635)">
<path d="M38.608 30.7862C39.0512 30.7862 39.4104 30.4171 39.4104 29.9617C39.4104 29.5064 39.0512 29.1372 38.608 29.1372C38.1648 29.1372 37.8055 29.5064 37.8055 29.9617C37.8055 30.4171 38.1648 30.7862 38.608 30.7862Z" fill="#3D1000"/>
</g>
<mask id="mask19_1781_635" style="mask-type:luminance" maskUnits="userSpaceOnUse" x="26" y="19" width="17" height="18">
<path d="M34.6864 36.4913C39.1968 36.4913 42.8532 32.7344 42.8532 28.0999C42.8532 23.4655 39.1968 19.7085 34.6864 19.7085C30.176 19.7085 26.5195 23.4655 26.5195 28.0999C26.5195 32.7344 30.176 36.4913 34.6864 36.4913Z" fill="white"/>
</mask>
<g mask="url(#mask19_1781_635)">
<path d="M39.1645 31.9831C39.6077 31.9831 39.967 31.614 39.967 31.1586C39.967 30.7033 39.6077 30.3341 39.1645 30.3341C38.7213 30.3341 38.3621 30.7033 38.3621 31.1586C38.3621 31.614 38.7213 31.9831 39.1645 31.9831Z" fill="#3D1000"/>
</g>
<mask id="mask20_1781_635" style="mask-type:luminance" maskUnits="userSpaceOnUse" x="26" y="19" width="17" height="18">
<path d="M34.6864 36.4913C39.1968 36.4913 42.8532 32.7344 42.8532 28.0999C42.8532 23.4655 39.1968 19.7085 34.6864 19.7085C30.176 19.7085 26.5195 23.4655 26.5195 28.0999C26.5195 32.7344 30.176 36.4913 34.6864 36.4913Z" fill="white"/>
</mask>
<g mask="url(#mask20_1781_635)">
<path d="M39.0092 33.0603C39.4524 33.0603 39.8117 32.6911 39.8117 32.2358C39.8117 31.7804 39.4524 31.4113 39.0092 31.4113C38.5661 31.4113 38.2068 31.7804 38.2068 32.2358C38.2068 32.6911 38.5661 33.0603 39.0092 33.0603Z" fill="#3D1000"/>
</g>
<mask id="mask21_1781_635" style="mask-type:luminance" maskUnits="userSpaceOnUse" x="26" y="19" width="17" height="18">
<path d="M34.6864 36.4913C39.1968 36.4913 42.8532 32.7344 42.8532 28.0999C42.8532 23.4655 39.1968 19.7085 34.6864 19.7085C30.176 19.7085 26.5195 23.4655 26.5195 28.0999C26.5195 32.7344 30.176 36.4913 34.6864 36.4913Z" fill="white"/>
</mask>
<g mask="url(#mask21_1781_635)">
<path d="M38.5433 33.3794L30.3247 33.2863C29.134 32.6347 29.2763 31.1054 30.0658 30.2144C31.166 28.9776 30.7 28.4989 30.8165 26.8897C30.8165 24.2566 32.5897 22.0889 34.7511 22.0889C35.0747 22.0889 35.6959 22.2485 35.8771 22.6342C37.3914 22.0756 38.6986 24.629 38.6986 26.8897C38.4009 29.1505 38.4009 29.3367 39.0092 30.0282C39.9929 31.0389 39.8893 33.1933 38.5433 33.3794Z" fill="#3D1000"/>
</g>
<mask id="mask22_1781_635" style="mask-type:luminance" maskUnits="userSpaceOnUse" x="26" y="19" width="17" height="18">
<path d="M34.6864 36.4913C39.1968 36.4913 42.8532 32.7344 42.8532 28.0999C42.8532 23.4655 39.1968 19.7085 34.6864 19.7085C30.176 19.7085 26.5195 23.4655 26.5195 28.0999C26.5195 32.7344 30.176 36.4913 34.6864 36.4913Z" fill="white"/>
</mask>
<g mask="url(#mask22_1781_635)">
<path d="M43.7333 40.5607C43.3451 40.0686 42.9568 39.3505 42.7626 38.6989L40.9377 33.8582C40.6271 32.781 40.0188 32.4618 38.854 32.2889C38.7375 32.2756 36.5372 31.358 36.4207 31.3314C35.0359 30.999 35.4241 31.0921 34.8158 31.0921C34.2722 31.1054 33.9357 31.1719 33.0168 31.4378C32.8615 31.4777 31.1013 32.2756 30.946 32.2889C29.8458 32.4219 29.4705 32.7677 29.0046 33.8316L27.2185 38.6989C27.0243 39.3505 26.636 40.0819 26.2478 40.5607L23.0121 45.0822L24.0993 46.053L28.5516 42.9544C29.4834 42.0368 30.1565 40.8931 30.5318 39.6298L31.1789 37.3956L38.5563 37.5685L39.3328 39.6165C39.7082 40.8798 40.4977 42.0235 41.4296 42.9411L45.8818 46.0397L46.969 45.0689L43.7333 40.5607Z" fill="#47A6B7"/>
<path d="M38.5045 44.497H31.3342C30.6094 44.497 30.2211 44.5236 30.2211 43.8587C30.9847 40.7069 30.3505 37.3025 29.5222 33.6986C29.5222 33.0336 30.1176 32.4884 30.8424 32.4884H39.061C39.7858 32.4884 40.3811 33.0336 40.3811 33.6986C39.5787 37.7281 38.6598 41.3852 39.8764 43.8587C39.8764 44.5236 39.2292 44.497 38.5045 44.497Z" fill="#47A6B7"/>
</g>
<mask id="mask23_1781_635" style="mask-type:luminance" maskUnits="userSpaceOnUse" x="26" y="19" width="17" height="18">
<path d="M34.6864 36.4913C39.1968 36.4913 42.8532 32.7344 42.8532 28.0999C42.8532 23.4655 39.1968 19.7085 34.6864 19.7085C30.176 19.7085 26.5195 23.4655 26.5195 28.0999C26.5195 32.7344 30.176 36.4913 34.6864 36.4913Z" fill="white"/>
</mask>
<g mask="url(#mask23_1781_635)">
<path d="M37.482 32.156C37.482 32.6214 36.1489 34.0444 34.6864 34.0444C33.2239 34.0444 32.1755 32.6214 32.1755 32.156C32.1755 31.6905 33.3663 31.3049 34.8288 31.3049C36.2913 31.3182 37.482 31.6905 37.482 32.156Z" fill="#653825"/>
</g>
<mask id="mask24_1781_635" style="mask-type:luminance" maskUnits="userSpaceOnUse" x="26" y="19" width="17" height="18">
<path d="M34.6864 36.4913C39.1968 36.4913 42.8532 32.7344 42.8532 28.0999C42.8532 23.4655 39.1968 19.7085 34.6864 19.7085C30.176 19.7085 26.5195 23.4655 26.5195 28.0999C26.5195 32.7344 30.176 36.4913 34.6864 36.4913Z" fill="white"/>
</mask>
<g mask="url(#mask24_1781_635)">
<path d="M36.0971 29.35H33.4956V31.5176H36.0971V29.35Z" fill="#653825"/>
</g>
<mask id="mask25_1781_635" style="mask-type:luminance" maskUnits="userSpaceOnUse" x="26" y="19" width="17" height="18">
<path d="M34.6864 36.4913C39.1968 36.4913 42.8532 32.7344 42.8532 28.0999C42.8532 23.4655 39.1968 19.7085 34.6864 19.7085C30.176 19.7085 26.5195 23.4655 26.5195 28.0999C26.5195 32.7344 30.176 36.4913 34.6864 36.4913Z" fill="white"/>
</mask>
<g mask="url(#mask25_1781_635)">
<path d="M33.4956 30.0149C33.4956 30.0149 34.1557 30.4139 34.7899 30.4272C34.7899 30.4272 35.5017 30.4271 36.0971 30.0149V30.3341C35.7218 30.7729 34.4793 31.5974 33.4956 30.3208C33.4956 30.3341 33.4956 30.0947 33.4956 30.0149Z" fill="#3D1000"/>
</g>
<mask id="mask26_1781_635" style="mask-type:luminance" maskUnits="userSpaceOnUse" x="26" y="19" width="17" height="18">
<path d="M34.6864 36.4913C39.1968 36.4913 42.8532 32.7344 42.8532 28.0999C42.8532 23.4655 39.1968 19.7085 34.6864 19.7085C30.176 19.7085 26.5195 23.4655 26.5195 28.0999C26.5195 32.7344 30.176 36.4913 34.6864 36.4913Z" fill="white"/>
</mask>
<g mask="url(#mask26_1781_635)">
<path d="M34.7899 30.4271C36.3768 30.4271 37.6632 28.7124 37.6632 26.5971C37.6632 24.4819 36.3768 22.7672 34.7899 22.7672C33.203 22.7672 31.9166 24.4819 31.9166 26.5971C31.9166 28.7124 33.203 30.4271 34.7899 30.4271Z" fill="#653825"/>
</g>
<mask id="mask27_1781_635" style="mask-type:luminance" maskUnits="userSpaceOnUse" x="28" y="21" width="17" height="18">
<path d="M42.6271 35.5725C45.5725 32.0748 45.1906 26.7756 41.774 23.7365C38.3575 20.6973 33.2001 21.069 30.2546 24.5667C27.3092 28.0644 27.6912 33.3636 31.1077 36.4028C34.5243 39.442 39.6817 39.0703 42.6271 35.5725Z" fill="white"/>
</mask>
<g mask="url(#mask27_1781_635)">
<path d="M38.106 27.5053C38.4189 27.1338 38.4749 26.6568 38.2312 26.44C37.9875 26.2232 37.5362 26.3486 37.2234 26.7202C36.9105 27.0917 36.8545 27.5686 37.0982 27.7855C37.3419 28.0023 37.7932 27.8769 38.106 27.5053Z" fill="#653825"/>
</g>
<mask id="mask28_1781_635" style="mask-type:luminance" maskUnits="userSpaceOnUse" x="26" y="17" width="17" height="18">
<path d="M39.992 32.3846C43.4086 29.3454 43.7905 24.0462 40.8451 20.5485C37.8997 17.0508 32.7423 16.6791 29.3257 19.7182C25.9092 22.7574 25.5273 28.0566 28.4727 31.5543C31.4181 35.052 36.5755 35.4237 39.992 32.3846Z" fill="white"/>
</mask>
<g mask="url(#mask28_1781_635)">
<path d="M32.5631 27.7904C32.8069 27.5736 32.7508 27.0966 32.4379 26.7251C32.1251 26.3536 31.6738 26.2281 31.4301 26.4449C31.1864 26.6618 31.2424 27.1387 31.5553 27.5102C31.8681 27.8818 32.3194 28.0072 32.5631 27.7904Z" fill="#653825"/>
</g>
<mask id="mask29_1781_635" style="mask-type:luminance" maskUnits="userSpaceOnUse" x="26" y="19" width="17" height="18">
<path d="M34.6864 36.4913C39.1968 36.4913 42.8532 32.7344 42.8532 28.0999C42.8532 23.4655 39.1968 19.7085 34.6864 19.7085C30.176 19.7085 26.5195 23.4655 26.5195 28.0999C26.5195 32.7344 30.176 36.4913 34.6864 36.4913Z" fill="white"/>
</mask>
<g mask="url(#mask29_1781_635)">
<path d="M37.6632 26.3844C36.796 26.8499 36.2654 25.7594 35.9159 24.6024C35.8771 24.4694 35.7088 24.4694 35.6441 24.5891C34.8676 26.3711 32.5638 26.3844 31.9037 26.3578C31.9037 24.3497 33.198 22.6342 34.8158 22.6342C36.4466 22.6342 37.6632 24.3763 37.6632 26.3844Z" fill="#3D1000"/>
</g>
<mask id="mask30_1781_635" style="mask-type:luminance" maskUnits="userSpaceOnUse" x="26" y="19" width="17" height="18">
<path d="M34.6864 36.4913C39.1968 36.4913 42.8532 32.7344 42.8532 28.0999C42.8532 23.4655 39.1968 19.7085 34.6864 19.7085C30.176 19.7085 26.5195 23.4655 26.5195 28.0999C26.5195 32.7344 30.176 36.4913 34.6864 36.4913Z" fill="white"/>
</mask>
<g mask="url(#mask30_1781_635)">
<path d="M37.5856 27.3153C37.5985 27.2887 37.7927 26.6637 38.1033 26.77" stroke="#3D1000" stroke-width="0.2" stroke-miterlimit="10" stroke-linecap="round"/>
</g>
<mask id="mask31_1781_635" style="mask-type:luminance" maskUnits="userSpaceOnUse" x="26" y="19" width="17" height="18">
<path d="M34.6864 36.4913C39.1968 36.4913 42.8532 32.7344 42.8532 28.0999C42.8532 23.4655 39.1968 19.7085 34.6864 19.7085C30.176 19.7085 26.5195 23.4655 26.5195 28.0999C26.5195 32.7344 30.176 36.4913 34.6864 36.4913Z" fill="white"/>
</mask>
<g mask="url(#mask31_1781_635)">
<path d="M31.4895 26.7302C31.5024 26.7302 31.9296 26.81 32.046 27.3286" stroke="#3D1000" stroke-width="0.2" stroke-miterlimit="10" stroke-linecap="round"/>
</g>
<mask id="mask32_1781_635" style="mask-type:luminance" maskUnits="userSpaceOnUse" x="26" y="19" width="17" height="18">
<path d="M34.6864 36.4913C39.1968 36.4913 42.8532 32.7344 42.8532 28.0999C42.8532 23.4655 39.1968 19.7085 34.6864 19.7085C30.176 19.7085 26.5195 23.4655 26.5195 28.0999C26.5195 32.7344 30.176 36.4913 34.6864 36.4913Z" fill="white"/>
</mask>
<g mask="url(#mask32_1781_635)">
<path d="M35.3853 26.943C35.3853 26.943 35.8512 26.4775 36.3689 26.943" stroke="#3D1000" stroke-width="0.2" stroke-miterlimit="10" stroke-linecap="round"/>
</g>
<mask id="mask33_1781_635" style="mask-type:luminance" maskUnits="userSpaceOnUse" x="26" y="19" width="17" height="18">
<path d="M34.6864 36.4913C39.1968 36.4913 42.8532 32.7344 42.8532 28.0999C42.8532 23.4655 39.1968 19.7085 34.6864 19.7085C30.176 19.7085 26.5195 23.4655 26.5195 28.0999C26.5195 32.7344 30.176 36.4913 34.6864 36.4913Z" fill="white"/>
</mask>
<g mask="url(#mask33_1781_635)">
<path d="M34.6735 26.9163C34.6735 26.9163 34.777 27.2222 34.4017 27.4483C34.4017 27.4483 34.1428 27.5813 34.1299 27.9935C34.1299 27.9935 34.1428 28.3393 34.3499 28.4457" stroke="#3D1000" stroke-width="0.2" stroke-miterlimit="10" stroke-linecap="round"/>
</g>
<mask id="mask34_1781_635" style="mask-type:luminance" maskUnits="userSpaceOnUse" x="26" y="19" width="17" height="18">
<path d="M34.6864 36.4913C39.1968 36.4913 42.8532 32.7344 42.8532 28.0999C42.8532 23.4655 39.1968 19.7085 34.6864 19.7085C30.176 19.7085 26.5195 23.4655 26.5195 28.0999C26.5195 32.7344 30.176 36.4913 34.6864 36.4913Z" fill="white"/>
</mask>
<g mask="url(#mask34_1781_635)">
<path d="M35.0747 29.4165C35.0747 29.4165 34.777 29.5495 34.5699 29.4165" stroke="#3D1000" stroke-width="0.2" stroke-miterlimit="10" stroke-linecap="round"/>
</g>
<mask id="mask35_1781_635" style="mask-type:luminance" maskUnits="userSpaceOnUse" x="26" y="19" width="17" height="18">
<path d="M34.6864 36.4913C39.1968 36.4913 42.8532 32.7344 42.8532 28.0999C42.8532 23.4655 39.1968 19.7085 34.6864 19.7085C30.176 19.7085 26.5195 23.4655 26.5195 28.0999C26.5195 32.7344 30.176 36.4913 34.6864 36.4913Z" fill="white"/>
</mask>
<g mask="url(#mask35_1781_635)">
<path d="M35.6182 28.9111C35.6182 28.9111 34.9322 29.35 34.0521 29.0574" stroke="#3D1000" stroke-width="0.2" stroke-miterlimit="10" stroke-linecap="round"/>
</g>
<mask id="mask36_1781_635" style="mask-type:luminance" maskUnits="userSpaceOnUse" x="26" y="19" width="17" height="18">
<path d="M34.6864 36.4913C39.1968 36.4913 42.8532 32.7344 42.8532 28.0999C42.8532 23.4655 39.1968 19.7085 34.6864 19.7085C30.176 19.7085 26.5195 23.4655 26.5195 28.0999C26.5195 32.7344 30.176 36.4913 34.6864 36.4913Z" fill="white"/>
</mask>
<g mask="url(#mask36_1781_635)">
<path d="M33.0555 26.943C33.0555 26.943 33.5215 26.4775 34.0392 26.943" stroke="#3D1000" stroke-width="0.2" stroke-miterlimit="10" stroke-linecap="round"/>
</g>
<mask id="mask37_1781_635" style="mask-type:luminance" maskUnits="userSpaceOnUse" x="26" y="19" width="17" height="18">
<path d="M34.6864 36.4913C39.1968 36.4913 42.8532 32.7344 42.8532 28.0999C42.8532 23.4655 39.1968 19.7085 34.6864 19.7085C30.176 19.7085 26.5195 23.4655 26.5195 28.0999C26.5195 32.7344 30.176 36.4913 34.6864 36.4913Z" fill="white"/>
</mask>
<g mask="url(#mask37_1781_635)">
<path d="M35.4629 26.0918C35.4629 26.0918 35.9935 25.5466 36.8607 26.3312" stroke="#3D1000" stroke-width="0.2" stroke-miterlimit="10" stroke-linecap="round"/>
</g>
<mask id="mask38_1781_635" style="mask-type:luminance" maskUnits="userSpaceOnUse" x="26" y="19" width="17" height="18">
<path d="M34.6864 36.4913C39.1968 36.4913 42.8532 32.7344 42.8532 28.0999C42.8532 23.4655 39.1968 19.7085 34.6864 19.7085C30.176 19.7085 26.5195 23.4655 26.5195 28.0999C26.5195 32.7344 30.176 36.4913 34.6864 36.4913Z" fill="white"/>
</mask>
<g mask="url(#mask38_1781_635)">
<path d="M33.5345 27.3685C33.6131 27.3685 33.6768 27.2613 33.6768 27.1291C33.6768 26.9969 33.6131 26.8897 33.5345 26.8897C33.4558 26.8897 33.3921 26.9969 33.3921 27.1291C33.3921 27.2613 33.4558 27.3685 33.5345 27.3685Z" fill="#3D1000"/>
</g>
<mask id="mask39_1781_635" style="mask-type:luminance" maskUnits="userSpaceOnUse" x="26" y="19" width="17" height="18">
<path d="M34.6864 36.4913C39.1968 36.4913 42.8532 32.7344 42.8532 28.0999C42.8532 23.4655 39.1968 19.7085 34.6864 19.7085C30.176 19.7085 26.5195 23.4655 26.5195 28.0999C26.5195 32.7344 30.176 36.4913 34.6864 36.4913Z" fill="white"/>
</mask>
<g mask="url(#mask39_1781_635)">
<path d="M35.8642 27.3685C35.9428 27.3685 36.0065 27.2613 36.0065 27.1291C36.0065 26.9969 35.9428 26.8897 35.8642 26.8897C35.7855 26.8897 35.7218 26.9969 35.7218 27.1291C35.7218 27.2613 35.7855 27.3685 35.8642 27.3685Z" fill="#3D1000"/>
</g>
<path d="M49.6353 24.762H82.8721" stroke="#D4D4D4" stroke-miterlimit="10" stroke-linecap="round" stroke-linejoin="round"/>
<path d="M30.9719 46.7579H82.8722" stroke="#D4D4D4" stroke-miterlimit="10" stroke-linecap="round" stroke-linejoin="round"/>
<path d="M30.9719 42.6885H82.8722" stroke="#D4D4D4" stroke-miterlimit="10" stroke-linecap="round" stroke-linejoin="round"/>
<path d="M49.6353 29.257H69.4246" stroke="#EFEFEF" stroke-miterlimit="10" stroke-linecap="round" stroke-linejoin="round"/>
<path d="M77.7209 12.2746L89.9259 24.7753L82.9627 25.8924C79.0799 26.5174 75.7666 22.9933 76.4913 19.0303L77.7209 12.2746Z" fill="#D9FAFF"/>
<path d="M98.9987 49.0985H55.8736C55.4206 49.0985 55.0324 48.9123 54.8253 48.5798L52.8192 45.5078C52.6121 45.1754 52.2238 44.9892 51.7708 44.9892H27.2185C26.4161 44.9892 25.6525 45.5876 25.5101 46.3191L18.4563 83.0764C18.3139 83.8078 18.8446 84.4062 19.647 84.4062H92.2167C93.0192 84.4062 93.7828 83.8078 93.9252 83.0764L100.189 50.4283C100.332 49.6969 99.8011 49.0985 98.9987 49.0985Z" fill="#47A6B7"/>
</svg>
