<svg width="60" height="60" viewBox="0 0 60 60" fill="none" xmlns="http://www.w3.org/2000/svg" >
<mask id="mask0_2267_12708" style="mask-type:alpha" maskUnits="userSpaceOnUse" x="0" y="0" width="60" height="60">
<rect width="60" height="60" fill="#D9D9D9"/>
</mask>
<g mask="url(#mask0_2267_12708)">
<path d="M3.33789 23.0046H56.3344V45.6911C56.3344 50.1094 52.7527 53.6911 48.3344 53.6911H11.3379C6.91962 53.6911 3.33789 50.1093 3.33789 45.6911V23.0046Z" fill="#E9E8E8"/>
<path d="M3.33789 19.412C3.33789 14.9937 6.91961 11.412 11.3379 11.412H48.3344C52.7527 11.412 56.3344 14.9937 56.3344 19.412V23.0046H3.33789V19.412Z" fill="currentColor"/>
<rect x="47.502" y="42.7803" width="5.43554" height="5.45536" rx="2" fill="white"/>
<rect x="39.3477" y="42.7803" width="5.43554" height="5.45536" rx="2" fill="white"/>
<rect x="31.1953" y="42.7803" width="5.43554" height="5.45536" rx="2" fill="white"/>
<rect x="23.041" y="42.7803" width="5.43554" height="5.45536" rx="2" fill="white"/>
<rect x="14.8887" y="42.7803" width="5.43554" height="5.45536" rx="2" fill="white"/>
<rect x="6.73438" y="42.7803" width="5.43554" height="5.45536" rx="2" fill="white"/>
<rect x="47.502" y="34.5973" width="5.43554" height="5.45537" rx="2" fill="white"/>
<rect x="39.3477" y="34.5973" width="5.43554" height="5.45537" rx="2" fill="white"/>
<rect x="31.1953" y="34.5973" width="5.43554" height="5.45537" rx="2" fill="white"/>
<rect x="23.041" y="34.5973" width="5.43554" height="5.45537" rx="2" fill="white"/>
<rect x="14.8887" y="34.5973" width="5.43554" height="5.45537" rx="2" fill="#FFE4D5"/>
<rect x="6.73438" y="34.5973" width="5.43554" height="5.45537" rx="2" fill="white"/>
<rect x="47.502" y="26.4142" width="5.43554" height="5.45537" rx="2" fill="white"/>
<rect x="39.3477" y="26.4142" width="5.43554" height="5.45537" rx="2" fill="white"/>
<rect x="31.1953" y="26.4142" width="5.43554" height="5.45537" rx="2" fill="white"/>
<rect x="23.041" y="26.4142" width="5.43554" height="5.45537" rx="2" fill="white"/>
<rect x="14.8887" y="26.4142" width="5.43554" height="5.45537" rx="2" fill="white"/>
<rect x="6.73438" y="26.4142" width="5.43554" height="5.45537" rx="2" fill="white"/>
<path fill-rule="evenodd" clip-rule="evenodd" d="M18.0677 39.9489C17.6994 39.8308 17.2965 39.9021 16.9907 40.1395C16.2228 40.7359 15.1056 40.1854 15.1011 39.2134C15.0993 38.827 14.9069 38.4637 14.5883 38.2458C13.7856 37.697 13.9569 36.4619 14.8807 36.1558C15.2475 36.0343 15.5314 35.7398 15.6393 35.3686C15.9112 34.4334 17.1375 34.2164 17.7118 35.0019C17.9397 35.3136 18.3068 35.4929 18.6929 35.4812C19.6653 35.4516 20.2471 36.5535 19.6799 37.3448C19.4547 37.6589 19.3977 38.0663 19.5277 38.43C19.8547 39.345 18.9926 40.2458 18.0677 39.9489Z" fill="#C4ECE2" stroke="#1E7F51"/>
<path d="M13.5878 9.00545V13.7788" stroke="#FF9C5D" stroke-width="3" stroke-linecap="round"/>
<path d="M45.5214 9.00545V13.7788" stroke="#FF9C5D" stroke-width="3" stroke-linecap="round"/>
<path fill-rule="evenodd" clip-rule="evenodd" d="M33.9159 47.9009C33.6685 47.7288 33.3523 47.6898 33.0707 47.7968C32.3637 48.0654 31.6568 47.4002 31.8739 46.6755C31.9602 46.3875 31.8993 46.073 31.7115 45.8379C31.2384 45.2459 31.646 44.3654 32.4032 44.3486C32.7039 44.3419 32.9821 44.1875 33.1466 43.9359C33.5612 43.3017 34.5235 43.4203 34.7729 44.1363C34.8719 44.4204 35.1046 44.6378 35.3947 44.7173C36.1254 44.9174 36.3087 45.8707 35.7069 46.3303C35.468 46.5127 35.3332 46.8031 35.3474 47.1036C35.3834 47.8594 34.5372 48.3332 33.9159 47.9009Z" fill="#C4ECE2" stroke="#1E7F51"/>
<path d="M41.7537 30.3309C41.5491 30.0055 41.1978 29.802 40.8147 29.7867C40.6818 29.7815 40.6071 29.6226 40.696 29.5152C40.9402 29.2204 41.0245 28.8228 40.9208 28.4532C40.8832 28.3194 41.0151 28.2031 41.1407 28.2533C41.4965 28.3957 41.8993 28.3534 42.2176 28.1402C42.3309 28.0642 42.482 28.1518 42.4731 28.2883C42.4482 28.6715 42.6132 29.0427 42.9139 29.2809C43.02 29.3649 42.9857 29.5377 42.8514 29.5719C42.4806 29.6666 42.1797 29.9386 42.0474 30.2983C41.9992 30.4292 41.8247 30.4437 41.7537 30.3309Z" stroke="#1E7F51"/>
<path d="M37.8516 51.3712C37.8516 51.3712 41.7453 51.3712 42.7454 47.77C43.7456 44.1688 45.0589 40.2635 47.9003 40.2635C50.7417 40.2635 51.1321 41.9818 50.8011 42.9578C50.4702 43.9339 48.3504 45.0495 45.9318 43.5387C43.5131 42.0279 42.7518 37.4882 45.326 34.887C47.9003 32.2858 49.4637 33.1576 51.6494 32.2858C53.8351 31.4141 54.0051 28.3189 54.0051 28.3189" stroke="#5BA3B0" stroke-linecap="round" stroke-linejoin="round"/>
<path d="M41.0467 16.8805C41.0467 16.8805 37.0591 20.8385 30.8426 18.0607C24.6262 15.2828 18.5369 22.3058 20.9023 26.6708C22.6222 29.8446 27.1796 31.8811 27.9251 30.2006C28.6706 28.52 26.7236 25.8568 22.154 26.2431C21.8968 26.2648 21.6467 26.3 21.4036 26.347C16.5148 27.2929 11.819 31.1366 7.9481 27.9889V27.9889" stroke="#FF9C5D" stroke-linecap="round" stroke-linejoin="round"/>
<ellipse cx="7.4173" cy="34.8509" rx="1.59503" ry="1.60085" fill="#FF9C5D"/>
</g>
</svg>