<svg width="110" height="87" viewBox="0 0 110 87" fill="none" xmlns="http://www.w3.org/2000/svg">
<path d="M91.9139 51.5637H39.1888C38.6349 51.5637 38.0811 51.3733 37.6697 51.056L33.777 47.994C33.3656 47.6767 32.7959 47.4863 32.2579 47.4863H2.22425C1.24317 47.4863 0.594397 48.0733 0.76846 48.819L9.39246 85.3885C9.56652 86.1183 10.5001 86.7211 11.4812 86.7211H100.206C101.187 86.7211 101.835 86.1341 101.661 85.3885L94.0026 52.8805C93.8285 52.1507 92.8949 51.5637 91.9139 51.5637Z" fill="#2D8C96"/>
<path d="M82.4233 0.669922H19.5235C16.1055 0.669922 13.3047 3.47808 13.3047 6.90497V73.2377C13.3047 76.6646 16.1055 79.4727 19.5235 79.4727H91.1422C94.5602 79.4727 97.361 76.6646 97.361 73.2377V15.5674L82.4233 0.669922Z" fill="#DEF5FA"/>
<mask id="mask0_1521_1511" style="mask-type:luminance" maskUnits="userSpaceOnUse" x="19" y="9" width="21" height="21">
<path d="M29.7973 29.5669C35.3118 29.5669 39.7822 25.0848 39.7822 19.5559C39.7822 14.027 35.3118 9.54492 29.7973 9.54492C24.2829 9.54492 19.8125 14.027 19.8125 19.5559C19.8125 25.0848 24.2829 29.5669 29.7973 29.5669Z" fill="white"/>
</mask>
<g mask="url(#mask0_1521_1511)">
<path d="M42.1834 9.22852H17.8779V31.1226H42.1834V9.22852Z" fill="#FF9C5D"/>
</g>
<mask id="mask1_1521_1511" style="mask-type:luminance" maskUnits="userSpaceOnUse" x="19" y="9" width="21" height="21">
<path d="M29.7973 29.5669C35.3118 29.5669 39.7822 25.0848 39.7822 19.5559C39.7822 14.027 35.3118 9.54492 29.7973 9.54492C24.2829 9.54492 19.8125 14.027 19.8125 19.5559C19.8125 25.0848 24.2829 29.5669 29.7973 29.5669Z" fill="white"/>
</mask>
<g mask="url(#mask1_1521_1511)">
<path d="M24.6119 23.1821C25.1538 23.1821 25.593 22.7417 25.593 22.1985C25.593 21.6552 25.1538 21.2148 24.6119 21.2148C24.0701 21.2148 23.6309 21.6552 23.6309 22.1985C23.6309 22.7417 24.0701 23.1821 24.6119 23.1821Z" fill="#3D1000"/>
</g>
<mask id="mask2_1521_1511" style="mask-type:luminance" maskUnits="userSpaceOnUse" x="19" y="9" width="21" height="21">
<path d="M29.7973 29.5669C35.3118 29.5669 39.7822 25.0848 39.7822 19.5559C39.7822 14.027 35.3118 9.54492 29.7973 9.54492C24.2829 9.54492 19.8125 14.027 19.8125 19.5559C19.8125 25.0848 24.2829 29.5669 29.7973 29.5669Z" fill="white"/>
</mask>
<g mask="url(#mask2_1521_1511)">
<path d="M24.1315 24.4732C24.6733 24.4732 25.1125 24.0328 25.1125 23.4895C25.1125 22.9463 24.6733 22.5059 24.1315 22.5059C23.5896 22.5059 23.1504 22.9463 23.1504 23.4895C23.1504 24.0328 23.5896 24.4732 24.1315 24.4732Z" fill="#3D1000"/>
</g>
<mask id="mask3_1521_1511" style="mask-type:luminance" maskUnits="userSpaceOnUse" x="19" y="9" width="21" height="21">
<path d="M29.7973 29.5669C35.3118 29.5669 39.7822 25.0848 39.7822 19.5559C39.7822 14.027 35.3118 9.54492 29.7973 9.54492C24.2829 9.54492 19.8125 14.027 19.8125 19.5559C19.8125 25.0848 24.2829 29.5669 29.7973 29.5669Z" fill="white"/>
</mask>
<g mask="url(#mask3_1521_1511)">
<path d="M24.3971 25.4673C24.9389 25.4673 25.3782 25.0269 25.3782 24.4836C25.3782 23.9404 24.9389 23.5 24.3971 23.5C23.8553 23.5 23.416 23.9404 23.416 24.4836C23.416 25.0269 23.8553 25.4673 24.3971 25.4673Z" fill="#3D1000"/>
</g>
<mask id="mask4_1521_1511" style="mask-type:luminance" maskUnits="userSpaceOnUse" x="19" y="9" width="21" height="21">
<path d="M29.7973 29.5669C35.3118 29.5669 39.7822 25.0848 39.7822 19.5559C39.7822 14.027 35.3118 9.54492 29.7973 9.54492C24.2829 9.54492 19.8125 14.027 19.8125 19.5559C19.8125 25.0848 24.2829 29.5669 29.7973 29.5669Z" fill="white"/>
</mask>
<g mask="url(#mask4_1521_1511)">
<path d="M25.3688 21.7739C25.9106 21.7739 26.3499 21.3335 26.3499 20.7903C26.3499 20.247 25.9106 19.8066 25.3688 19.8066C24.8269 19.8066 24.3877 20.247 24.3877 20.7903C24.3877 21.3335 24.8269 21.7739 25.3688 21.7739Z" fill="#3D1000"/>
</g>
<mask id="mask5_1521_1511" style="mask-type:luminance" maskUnits="userSpaceOnUse" x="19" y="9" width="21" height="21">
<path d="M29.7973 29.5669C35.3118 29.5669 39.7822 25.0848 39.7822 19.5559C39.7822 14.027 35.3118 9.54492 29.7973 9.54492C24.2829 9.54492 19.8125 14.027 19.8125 19.5559C19.8125 25.0848 24.2829 29.5669 29.7973 29.5669Z" fill="white"/>
</mask>
<g mask="url(#mask5_1521_1511)">
<path d="M25.5983 19.7896C26.1401 19.7896 26.5793 19.3492 26.5793 18.8059C26.5793 18.2627 26.1401 17.8223 25.5983 17.8223C25.0564 17.8223 24.6172 18.2627 24.6172 18.8059C24.6172 19.3492 25.0564 19.7896 25.5983 19.7896Z" fill="#3D1000"/>
</g>
<mask id="mask6_1521_1511" style="mask-type:luminance" maskUnits="userSpaceOnUse" x="19" y="9" width="21" height="21">
<path d="M29.7973 29.5669C35.3118 29.5669 39.7822 25.0848 39.7822 19.5559C39.7822 14.027 35.3118 9.54492 29.7973 9.54492C24.2829 9.54492 19.8125 14.027 19.8125 19.5559C19.8125 25.0848 24.2829 29.5669 29.7973 29.5669Z" fill="white"/>
</mask>
<g mask="url(#mask6_1521_1511)">
<path d="M25.5983 18.1743C26.1401 18.1743 26.5793 17.7339 26.5793 17.1907C26.5793 16.6474 26.1401 16.207 25.5983 16.207C25.0564 16.207 24.6172 16.6474 24.6172 17.1907C24.6172 17.7339 25.0564 18.1743 25.5983 18.1743Z" fill="#3D1000"/>
</g>
<mask id="mask7_1521_1511" style="mask-type:luminance" maskUnits="userSpaceOnUse" x="19" y="9" width="21" height="21">
<path d="M29.7973 29.5669C35.3118 29.5669 39.7822 25.0848 39.7822 19.5559C39.7822 14.027 35.3118 9.54492 29.7973 9.54492C24.2829 9.54492 19.8125 14.027 19.8125 19.5559C19.8125 25.0848 24.2829 29.5669 29.7973 29.5669Z" fill="white"/>
</mask>
<g mask="url(#mask7_1521_1511)">
<path d="M26.0924 16.6353C26.6342 16.6353 27.0735 16.1949 27.0735 15.6516C27.0735 15.1084 26.6342 14.668 26.0924 14.668C25.5506 14.668 25.1113 15.1084 25.1113 15.6516C25.1113 16.1949 25.5506 16.6353 26.0924 16.6353Z" fill="#3D1000"/>
</g>
<mask id="mask8_1521_1511" style="mask-type:luminance" maskUnits="userSpaceOnUse" x="19" y="9" width="21" height="21">
<path d="M29.7973 29.5669C35.3118 29.5669 39.7822 25.0848 39.7822 19.5559C39.7822 14.027 35.3118 9.54492 29.7973 9.54492C24.2829 9.54492 19.8125 14.027 19.8125 19.5559C19.8125 25.0848 24.2829 29.5669 29.7973 29.5669Z" fill="white"/>
</mask>
<g mask="url(#mask8_1521_1511)">
<path d="M26.8131 15.2993C27.3549 15.2993 27.7942 14.8589 27.7942 14.3157C27.7942 13.7724 27.3549 13.332 26.8131 13.332C26.2713 13.332 25.832 13.7724 25.832 14.3157C25.832 14.8589 26.2713 15.2993 26.8131 15.2993Z" fill="#3D1000"/>
</g>
<mask id="mask9_1521_1511" style="mask-type:luminance" maskUnits="userSpaceOnUse" x="19" y="9" width="21" height="21">
<path d="M29.7973 29.5669C35.3118 29.5669 39.7822 25.0848 39.7822 19.5559C39.7822 14.027 35.3118 9.54492 29.7973 9.54492C24.2829 9.54492 19.8125 14.027 19.8125 19.5559C19.8125 25.0848 24.2829 29.5669 29.7973 29.5669Z" fill="white"/>
</mask>
<g mask="url(#mask9_1521_1511)">
<path d="M27.8717 14.5747C28.4135 14.5747 28.8528 14.1343 28.8528 13.5911C28.8528 13.0478 28.4135 12.6074 27.8717 12.6074C27.3299 12.6074 26.8906 13.0478 26.8906 13.5911C26.8906 14.1343 27.3299 14.5747 27.8717 14.5747Z" fill="#3D1000"/>
</g>
<mask id="mask10_1521_1511" style="mask-type:luminance" maskUnits="userSpaceOnUse" x="19" y="9" width="21" height="21">
<path d="M29.7973 29.5669C35.3118 29.5669 39.7822 25.0848 39.7822 19.5559C39.7822 14.027 35.3118 9.54492 29.7973 9.54492C24.2829 9.54492 19.8125 14.027 19.8125 19.5559C19.8125 25.0848 24.2829 29.5669 29.7973 29.5669Z" fill="white"/>
</mask>
<g mask="url(#mask10_1521_1511)">
<path d="M28.9567 14.0786C29.4985 14.0786 29.9377 13.6382 29.9377 13.095C29.9377 12.5517 29.4985 12.1113 28.9567 12.1113C28.4148 12.1113 27.9756 12.5517 27.9756 13.095C27.9756 13.6382 28.4148 14.0786 28.9567 14.0786Z" fill="#3D1000"/>
</g>
<mask id="mask11_1521_1511" style="mask-type:luminance" maskUnits="userSpaceOnUse" x="19" y="9" width="21" height="21">
<path d="M29.7973 29.5669C35.3118 29.5669 39.7822 25.0848 39.7822 19.5559C39.7822 14.027 35.3118 9.54492 29.7973 9.54492C24.2829 9.54492 19.8125 14.027 19.8125 19.5559C19.8125 25.0848 24.2829 29.5669 29.7973 29.5669Z" fill="white"/>
</mask>
<g mask="url(#mask11_1521_1511)">
<path d="M30.4186 14.0786C30.9604 14.0786 31.3997 13.6382 31.3997 13.095C31.3997 12.5517 30.9604 12.1113 30.4186 12.1113C29.8767 12.1113 29.4375 12.5517 29.4375 13.095C29.4375 13.6382 29.8767 14.0786 30.4186 14.0786Z" fill="#3D1000"/>
</g>
<mask id="mask12_1521_1511" style="mask-type:luminance" maskUnits="userSpaceOnUse" x="19" y="9" width="21" height="21">
<path d="M29.7973 29.5669C35.3118 29.5669 39.7822 25.0848 39.7822 19.5559C39.7822 14.027 35.3118 9.54492 29.7973 9.54492C24.2829 9.54492 19.8125 14.027 19.8125 19.5559C19.8125 25.0848 24.2829 29.5669 29.7973 29.5669Z" fill="white"/>
</mask>
<g mask="url(#mask12_1521_1511)">
<path d="M32.0201 14.6665C32.562 14.6665 33.0012 14.2261 33.0012 13.6829C33.0012 13.1396 32.562 12.6992 32.0201 12.6992C31.4783 12.6992 31.0391 13.1396 31.0391 13.6829C31.0391 14.2261 31.4783 14.6665 32.0201 14.6665Z" fill="#3D1000"/>
</g>
<mask id="mask13_1521_1511" style="mask-type:luminance" maskUnits="userSpaceOnUse" x="19" y="9" width="21" height="21">
<path d="M29.7973 29.5669C35.3118 29.5669 39.7822 25.0848 39.7822 19.5559C39.7822 14.027 35.3118 9.54492 29.7973 9.54492C24.2829 9.54492 19.8125 14.027 19.8125 19.5559C19.8125 25.0848 24.2829 29.5669 29.7973 29.5669Z" fill="white"/>
</mask>
<g mask="url(#mask13_1521_1511)">
<path d="M33.3043 15.2993C33.8462 15.2993 34.2854 14.8589 34.2854 14.3157C34.2854 13.7724 33.8462 13.332 33.3043 13.332C32.7625 13.332 32.3232 13.7724 32.3232 14.3157C32.3232 14.8589 32.7625 15.2993 33.3043 15.2993Z" fill="#3D1000"/>
</g>
<mask id="mask14_1521_1511" style="mask-type:luminance" maskUnits="userSpaceOnUse" x="19" y="9" width="21" height="21">
<path d="M29.7973 29.5669C35.3118 29.5669 39.7822 25.0848 39.7822 19.5559C39.7822 14.027 35.3118 9.54492 29.7973 9.54492C24.2829 9.54492 19.8125 14.027 19.8125 19.5559C19.8125 25.0848 24.2829 29.5669 29.7973 29.5669Z" fill="white"/>
</mask>
<g mask="url(#mask14_1521_1511)">
<path d="M33.9781 16.6353C34.52 16.6353 34.9592 16.1949 34.9592 15.6516C34.9592 15.1084 34.52 14.668 33.9781 14.668C33.4363 14.668 32.9971 15.1084 32.9971 15.6516C32.9971 16.1949 33.4363 16.6353 33.9781 16.6353Z" fill="#3D1000"/>
</g>
<mask id="mask15_1521_1511" style="mask-type:luminance" maskUnits="userSpaceOnUse" x="19" y="9" width="21" height="21">
<path d="M29.7973 29.5669C35.3118 29.5669 39.7822 25.0848 39.7822 19.5559C39.7822 14.027 35.3118 9.54492 29.7973 9.54492C24.2829 9.54492 19.8125 14.027 19.8125 19.5559C19.8125 25.0848 24.2829 29.5669 29.7973 29.5669Z" fill="white"/>
</mask>
<g mask="url(#mask15_1521_1511)">
<path d="M34.2946 18.1743C34.8364 18.1743 35.2756 17.7339 35.2756 17.1907C35.2756 16.6474 34.8364 16.207 34.2946 16.207C33.7527 16.207 33.3135 16.6474 33.3135 17.1907C33.3135 17.7339 33.7527 18.1743 34.2946 18.1743Z" fill="#3D1000"/>
</g>
<mask id="mask16_1521_1511" style="mask-type:luminance" maskUnits="userSpaceOnUse" x="19" y="9" width="21" height="21">
<path d="M29.7973 29.5669C35.3118 29.5669 39.7822 25.0848 39.7822 19.5559C39.7822 14.027 35.3118 9.54492 29.7973 9.54492C24.2829 9.54492 19.8125 14.027 19.8125 19.5559C19.8125 25.0848 24.2829 29.5669 29.7973 29.5669Z" fill="white"/>
</mask>
<g mask="url(#mask16_1521_1511)">
<path d="M34.2946 19.5415C34.8364 19.5415 35.2756 19.1011 35.2756 18.5579C35.2756 18.0146 34.8364 17.5742 34.2946 17.5742C33.7527 17.5742 33.3135 18.0146 33.3135 18.5579C33.3135 19.1011 33.7527 19.5415 34.2946 19.5415Z" fill="#3D1000"/>
</g>
<mask id="mask17_1521_1511" style="mask-type:luminance" maskUnits="userSpaceOnUse" x="19" y="9" width="21" height="21">
<path d="M29.7973 29.5669C35.3118 29.5669 39.7822 25.0848 39.7822 19.5559C39.7822 14.027 35.3118 9.54492 29.7973 9.54492C24.2829 9.54492 19.8125 14.027 19.8125 19.5559C19.8125 25.0848 24.2829 29.5669 29.7973 29.5669Z" fill="white"/>
</mask>
<g mask="url(#mask17_1521_1511)">
<path d="M34.2946 21.0298C34.8364 21.0298 35.2756 20.5894 35.2756 20.0461C35.2756 19.5029 34.8364 19.0625 34.2946 19.0625C33.7527 19.0625 33.3135 19.5029 33.3135 20.0461C33.3135 20.5894 33.7527 21.0298 34.2946 21.0298Z" fill="#3D1000"/>
</g>
<mask id="mask18_1521_1511" style="mask-type:luminance" maskUnits="userSpaceOnUse" x="19" y="9" width="21" height="21">
<path d="M29.7973 29.5669C35.3118 29.5669 39.7822 25.0848 39.7822 19.5559C39.7822 14.027 35.3118 9.54492 29.7973 9.54492C24.2829 9.54492 19.8125 14.027 19.8125 19.5559C19.8125 25.0848 24.2829 29.5669 29.7973 29.5669Z" fill="white"/>
</mask>
<g mask="url(#mask18_1521_1511)">
<path d="M34.5963 22.7564C35.1381 22.7564 35.5774 22.316 35.5774 21.7727C35.5774 21.2295 35.1381 20.7891 34.5963 20.7891C34.0545 20.7891 33.6152 21.2295 33.6152 21.7727C33.6152 22.316 34.0545 22.7564 34.5963 22.7564Z" fill="#3D1000"/>
</g>
<mask id="mask19_1521_1511" style="mask-type:luminance" maskUnits="userSpaceOnUse" x="19" y="9" width="21" height="21">
<path d="M29.7973 29.5669C35.3118 29.5669 39.7822 25.0848 39.7822 19.5559C39.7822 14.027 35.3118 9.54492 29.7973 9.54492C24.2829 9.54492 19.8125 14.027 19.8125 19.5559C19.8125 25.0848 24.2829 29.5669 29.7973 29.5669Z" fill="white"/>
</mask>
<g mask="url(#mask19_1521_1511)">
<path d="M35.2877 24.1899C35.8296 24.1899 36.2688 23.7496 36.2688 23.2063C36.2688 22.663 35.8296 22.2227 35.2877 22.2227C34.7459 22.2227 34.3066 22.663 34.3066 23.2063C34.3066 23.7496 34.7459 24.1899 35.2877 24.1899Z" fill="#3D1000"/>
</g>
<mask id="mask20_1521_1511" style="mask-type:luminance" maskUnits="userSpaceOnUse" x="19" y="9" width="21" height="21">
<path d="M29.7973 29.5669C35.3118 29.5669 39.7822 25.0848 39.7822 19.5559C39.7822 14.027 35.3118 9.54492 29.7973 9.54492C24.2829 9.54492 19.8125 14.027 19.8125 19.5559C19.8125 25.0848 24.2829 29.5669 29.7973 29.5669Z" fill="white"/>
</mask>
<g mask="url(#mask20_1521_1511)">
<path d="M35.0836 25.4673C35.6255 25.4673 36.0647 25.0269 36.0647 24.4836C36.0647 23.9404 35.6255 23.5 35.0836 23.5C34.5418 23.5 34.1025 23.9404 34.1025 24.4836C34.1025 25.0269 34.5418 25.4673 35.0836 25.4673Z" fill="#3D1000"/>
</g>
<mask id="mask21_1521_1511" style="mask-type:luminance" maskUnits="userSpaceOnUse" x="19" y="9" width="21" height="21">
<path d="M29.7973 29.5669C35.3118 29.5669 39.7822 25.0848 39.7822 19.5559C39.7822 14.027 35.3118 9.54492 29.7973 9.54492C24.2829 9.54492 19.8125 14.027 19.8125 19.5559C19.8125 25.0848 24.2829 29.5669 29.7973 29.5669Z" fill="white"/>
</mask>
<g mask="url(#mask21_1521_1511)">
<path d="M34.5272 25.8524L24.479 25.7414C23.0232 24.964 23.1973 23.1395 24.1626 22.0765C25.5076 20.601 24.9379 20.0299 25.0803 18.1102C25.0803 14.9689 27.2482 12.3828 29.8908 12.3828C30.2864 12.3828 31.0459 12.5732 31.2675 13.0333C33.1189 12.3669 34.7171 15.4131 34.7171 18.1102C34.3531 20.8073 34.3531 21.0294 35.0968 21.8544C36.2994 23.0601 36.1729 25.6303 34.5272 25.8524Z" fill="#3D1000"/>
</g>
<mask id="mask22_1521_1511" style="mask-type:luminance" maskUnits="userSpaceOnUse" x="19" y="9" width="21" height="21">
<path d="M29.7973 29.5669C35.3118 29.5669 39.7822 25.0848 39.7822 19.5559C39.7822 14.027 35.3118 9.54492 29.7973 9.54492C24.2829 9.54492 19.8125 14.027 19.8125 19.5559C19.8125 25.0848 24.2829 29.5669 29.7973 29.5669Z" fill="white"/>
</mask>
<g mask="url(#mask22_1521_1511)">
<path d="M40.8691 34.4159C40.3944 33.8288 39.9197 32.9721 39.6824 32.1947L37.4512 26.4198C37.0714 25.1347 36.3277 24.7539 34.9036 24.5477C34.7611 24.5318 32.0711 23.4371 31.9287 23.4054C30.2355 23.0087 30.7102 23.1198 29.9665 23.1198C29.3019 23.1356 28.8905 23.215 27.767 23.5323C27.5771 23.5799 25.4251 24.5318 25.2352 24.5477C23.8902 24.7063 23.4313 25.1188 22.8616 26.388L20.6779 32.1947C20.4406 32.9721 19.9658 33.8447 19.4911 34.4159L15.5352 39.81L16.8644 40.9682L22.3078 37.2716C23.4471 36.1769 24.2699 34.8125 24.7288 33.3053L25.52 30.6399L34.5396 30.8462L35.489 33.2894C35.9479 34.7966 36.9132 36.161 38.0525 37.2557L43.4959 40.9523L44.8251 39.7942L40.8691 34.4159Z" fill="#47A6B7"/>
<path d="M34.471 39.1154H25.7046C24.8185 39.1154 24.3437 39.1471 24.3437 38.3539C25.2774 34.5938 24.502 30.5323 23.4893 26.2328C23.4893 25.4395 24.2172 24.7891 25.1033 24.7891H35.1514C36.0376 24.7891 36.7655 25.4395 36.7655 26.2328C35.7844 31.04 34.6609 35.4029 36.1483 38.3539C36.1483 39.1471 35.3571 39.1154 34.471 39.1154Z" fill="#47A6B7"/>
</g>
<mask id="mask23_1521_1511" style="mask-type:luminance" maskUnits="userSpaceOnUse" x="19" y="9" width="21" height="21">
<path d="M29.7973 29.5669C35.3118 29.5669 39.7822 25.0848 39.7822 19.5559C39.7822 14.027 35.3118 9.54492 29.7973 9.54492C24.2829 9.54492 19.8125 14.027 19.8125 19.5559C19.8125 25.0848 24.2829 29.5669 29.7973 29.5669Z" fill="white"/>
</mask>
<g mask="url(#mask23_1521_1511)">
<path d="M33.2222 24.3904C33.2222 24.9457 31.5923 26.6432 29.8042 26.6432C28.0161 26.6432 26.7344 24.9457 26.7344 24.3904C26.7344 23.8351 28.1902 23.375 29.9783 23.375C31.7664 23.3909 33.2222 23.8351 33.2222 24.3904Z" fill="#653825"/>
</g>
<mask id="mask24_1521_1511" style="mask-type:luminance" maskUnits="userSpaceOnUse" x="19" y="9" width="21" height="21">
<path d="M29.7973 29.5669C35.3118 29.5669 39.7822 25.0848 39.7822 19.5559C39.7822 14.027 35.3118 9.54492 29.7973 9.54492C24.2829 9.54492 19.8125 14.027 19.8125 19.5559C19.8125 25.0848 24.2829 29.5669 29.7973 29.5669Z" fill="white"/>
</mask>
<g mask="url(#mask24_1521_1511)">
<path d="M31.5341 21.0469H28.3535V23.6329H31.5341V21.0469Z" fill="#653825"/>
</g>
<mask id="mask25_1521_1511" style="mask-type:luminance" maskUnits="userSpaceOnUse" x="19" y="9" width="21" height="21">
<path d="M29.7973 29.5669C35.3118 29.5669 39.7822 25.0848 39.7822 19.5559C39.7822 14.027 35.3118 9.54492 29.7973 9.54492C24.2829 9.54492 19.8125 14.027 19.8125 19.5559C19.8125 25.0848 24.2829 29.5669 29.7973 29.5669Z" fill="white"/>
</mask>
<g mask="url(#mask25_1521_1511)">
<path d="M28.3535 21.8379C28.3535 21.8379 29.1605 22.3138 29.9359 22.3297C29.9359 22.3297 30.8062 22.3297 31.5341 21.8379V22.2187C31.0752 22.7422 29.5561 23.7259 28.3535 22.2028C28.3535 22.2187 28.3535 21.9331 28.3535 21.8379Z" fill="#3D1000"/>
</g>
<mask id="mask26_1521_1511" style="mask-type:luminance" maskUnits="userSpaceOnUse" x="19" y="9" width="21" height="21">
<path d="M29.7973 29.5669C35.3118 29.5669 39.7822 25.0848 39.7822 19.5559C39.7822 14.027 35.3118 9.54492 29.7973 9.54492C24.2829 9.54492 19.8125 14.027 19.8125 19.5559C19.8125 25.0848 24.2829 29.5669 29.7973 29.5669Z" fill="white"/>
</mask>
<g mask="url(#mask26_1521_1511)">
<path d="M29.9309 22.3318C31.871 22.3318 33.4438 20.2861 33.4438 17.7626C33.4438 15.2391 31.871 13.1934 29.9309 13.1934C27.9907 13.1934 26.418 15.2391 26.418 17.7626C26.418 20.2861 27.9907 22.3318 29.9309 22.3318Z" fill="#653825"/>
</g>
<mask id="mask27_1521_1511" style="mask-type:luminance" maskUnits="userSpaceOnUse" x="21" y="11" width="21" height="21">
<path d="M39.5173 28.4492C43.1253 24.2695 42.6694 17.9475 38.4992 14.3287C34.329 10.7098 28.0235 11.1645 24.4156 15.3441C20.8076 19.5238 21.2635 25.8458 25.4337 29.4646C29.6039 33.0835 35.9094 32.6288 39.5173 28.4492Z" fill="white"/>
</mask>
<g mask="url(#mask27_1521_1511)">
<path d="M34.0041 18.8341C34.3872 18.3903 34.4567 17.8213 34.1593 17.5632C33.8619 17.3051 33.3102 17.4557 32.9271 17.8995C32.544 18.3433 32.4745 18.9123 32.7719 19.1704C33.0693 19.4285 33.621 19.278 34.0041 18.8341Z" fill="#653825"/>
</g>
<mask id="mask28_1521_1511" style="mask-type:luminance" maskUnits="userSpaceOnUse" x="19" y="7" width="21" height="21">
<path d="M36.3195 24.6694C40.4897 21.0505 40.9456 14.7286 37.3376 10.5489C33.7297 6.3692 27.4242 5.91456 23.254 9.53342C19.0838 13.1523 18.6279 19.4742 22.2359 23.6539C25.8438 27.8336 32.1493 28.2882 36.3195 24.6694Z" fill="white"/>
</mask>
<g mask="url(#mask28_1521_1511)">
<path d="M27.2169 19.1809C27.5143 18.9228 27.4448 18.3538 27.0617 17.91C26.6786 17.4662 26.1269 17.3156 25.8295 17.5737C25.5321 17.8318 25.6016 18.4008 25.9847 18.8446C26.3678 19.2884 26.9195 19.439 27.2169 19.1809Z" fill="#653825"/>
</g>
<mask id="mask29_1521_1511" style="mask-type:luminance" maskUnits="userSpaceOnUse" x="19" y="9" width="21" height="21">
<path d="M29.7973 29.5669C35.3118 29.5669 39.7822 25.0848 39.7822 19.5559C39.7822 14.027 35.3118 9.54492 29.7973 9.54492C24.2829 9.54492 19.8125 14.027 19.8125 19.5559C19.8125 25.0848 24.2829 29.5669 29.7973 29.5669Z" fill="white"/>
</mask>
<g mask="url(#mask29_1521_1511)">
<path d="M33.4342 17.5072C32.374 18.0625 31.7252 16.7615 31.298 15.3813C31.2505 15.2226 31.0448 15.2226 30.9657 15.3654C30.0162 17.4913 27.1996 17.5072 26.3926 17.4755C26.3926 15.0798 27.975 13.0332 29.9529 13.0332C31.9467 13.0332 33.4342 15.1116 33.4342 17.5072Z" fill="#3D1000"/>
</g>
<mask id="mask30_1521_1511" style="mask-type:luminance" maskUnits="userSpaceOnUse" x="19" y="9" width="21" height="21">
<path d="M29.7973 29.5669C35.3118 29.5669 39.7822 25.0848 39.7822 19.5559C39.7822 14.027 35.3118 9.54492 29.7973 9.54492C24.2829 9.54492 19.8125 14.027 19.8125 19.5559C19.8125 25.0848 24.2829 29.5669 29.7973 29.5669Z" fill="white"/>
</mask>
<g mask="url(#mask30_1521_1511)">
<path d="M33.3496 18.6142C33.3654 18.5825 33.6028 17.8368 33.9826 17.9637" stroke="#3D1000" stroke-width="0.3" stroke-miterlimit="10" stroke-linecap="round"/>
</g>
<mask id="mask31_1521_1511" style="mask-type:luminance" maskUnits="userSpaceOnUse" x="19" y="9" width="21" height="21">
<path d="M29.7973 29.5669C35.3118 29.5669 39.7822 25.0848 39.7822 19.5559C39.7822 14.027 35.3118 9.54492 29.7973 9.54492C24.2829 9.54492 19.8125 14.027 19.8125 19.5559C19.8125 25.0848 24.2829 29.5669 29.7973 29.5669Z" fill="white"/>
</mask>
<g mask="url(#mask31_1521_1511)">
<path d="M25.9014 17.9219C25.9172 17.9219 26.4394 18.0171 26.5818 18.6358" stroke="#3D1000" stroke-width="0.3" stroke-miterlimit="10" stroke-linecap="round"/>
</g>
<mask id="mask32_1521_1511" style="mask-type:luminance" maskUnits="userSpaceOnUse" x="19" y="9" width="21" height="21">
<path d="M29.7973 29.5669C35.3118 29.5669 39.7822 25.0848 39.7822 19.5559C39.7822 14.027 35.3118 9.54492 29.7973 9.54492C24.2829 9.54492 19.8125 14.027 19.8125 19.5559C19.8125 25.0848 24.2829 29.5669 29.7973 29.5669Z" fill="white"/>
</mask>
<g mask="url(#mask32_1521_1511)">
<path d="M30.6533 18.1687C30.6533 18.1687 31.223 17.6134 31.8559 18.1687" stroke="#3D1000" stroke-width="0.3" stroke-miterlimit="10" stroke-linecap="round"/>
</g>
<mask id="mask33_1521_1511" style="mask-type:luminance" maskUnits="userSpaceOnUse" x="19" y="9" width="21" height="21">
<path d="M29.7973 29.5669C35.3118 29.5669 39.7822 25.0848 39.7822 19.5559C39.7822 14.027 35.3118 9.54492 29.7973 9.54492C24.2829 9.54492 19.8125 14.027 19.8125 19.5559C19.8125 25.0848 24.2829 29.5669 29.7973 29.5669Z" fill="white"/>
</mask>
<g mask="url(#mask33_1521_1511)">
<path d="M29.7857 18.1387C29.7857 18.1387 29.9123 18.5036 29.4534 18.7733C29.4534 18.7733 29.1369 18.9319 29.1211 19.4238C29.1211 19.4238 29.1369 19.8363 29.3901 19.9632" stroke="#3D1000" stroke-width="0.3" stroke-miterlimit="10" stroke-linecap="round"/>
</g>
<mask id="mask34_1521_1511" style="mask-type:luminance" maskUnits="userSpaceOnUse" x="19" y="9" width="21" height="21">
<path d="M29.7973 29.5669C35.3118 29.5669 39.7822 25.0848 39.7822 19.5559C39.7822 14.027 35.3118 9.54492 29.7973 9.54492C24.2829 9.54492 19.8125 14.027 19.8125 19.5559C19.8125 25.0848 24.2829 29.5669 29.7973 29.5669Z" fill="white"/>
</mask>
<g mask="url(#mask34_1521_1511)">
<path d="M30.2812 21.127C30.2812 21.127 29.9172 21.2856 29.6641 21.127" stroke="#3D1000" stroke-width="0.3" stroke-miterlimit="10" stroke-linecap="round"/>
</g>
<mask id="mask35_1521_1511" style="mask-type:luminance" maskUnits="userSpaceOnUse" x="19" y="9" width="21" height="21">
<path d="M29.7973 29.5669C35.3118 29.5669 39.7822 25.0848 39.7822 19.5559C39.7822 14.027 35.3118 9.54492 29.7973 9.54492C24.2829 9.54492 19.8125 14.027 19.8125 19.5559C19.8125 25.0848 24.2829 29.5669 29.7973 29.5669Z" fill="white"/>
</mask>
<g mask="url(#mask35_1521_1511)">
<path d="M30.9489 20.5234C30.9489 20.5234 30.1102 21.047 29.0342 20.698" stroke="#3D1000" stroke-width="0.3" stroke-miterlimit="10" stroke-linecap="round"/>
</g>
<mask id="mask36_1521_1511" style="mask-type:luminance" maskUnits="userSpaceOnUse" x="19" y="9" width="21" height="21">
<path d="M29.7973 29.5669C35.3118 29.5669 39.7822 25.0848 39.7822 19.5559C39.7822 14.027 35.3118 9.54492 29.7973 9.54492C24.2829 9.54492 19.8125 14.027 19.8125 19.5559C19.8125 25.0848 24.2829 29.5669 29.7973 29.5669Z" fill="white"/>
</mask>
<g mask="url(#mask36_1521_1511)">
<path d="M27.8154 18.1687C27.8154 18.1687 28.3851 17.6134 29.018 18.1687" stroke="#3D1000" stroke-width="0.3" stroke-miterlimit="10" stroke-linecap="round"/>
</g>
<mask id="mask37_1521_1511" style="mask-type:luminance" maskUnits="userSpaceOnUse" x="19" y="9" width="21" height="21">
<path d="M29.7973 29.5669C35.3118 29.5669 39.7822 25.0848 39.7822 19.5559C39.7822 14.027 35.3118 9.54492 29.7973 9.54492C24.2829 9.54492 19.8125 14.027 19.8125 19.5559C19.8125 25.0848 24.2829 29.5669 29.7973 29.5669Z" fill="white"/>
</mask>
<g mask="url(#mask37_1521_1511)">
<path d="M30.752 17.1575C30.752 17.1575 31.4007 16.507 32.4609 17.4431" stroke="#3D1000" stroke-width="0.51" stroke-miterlimit="10" stroke-linecap="round"/>
</g>
<mask id="mask38_1521_1511" style="mask-type:luminance" maskUnits="userSpaceOnUse" x="19" y="9" width="21" height="21">
<path d="M29.7973 29.5669C35.3118 29.5669 39.7822 25.0848 39.7822 19.5559C39.7822 14.027 35.3118 9.54492 29.7973 9.54492C24.2829 9.54492 19.8125 14.027 19.8125 19.5559C19.8125 25.0848 24.2829 29.5669 29.7973 29.5669Z" fill="white"/>
</mask>
<g mask="url(#mask38_1521_1511)">
<path d="M28.3928 18.6786C28.4889 18.6786 28.5669 18.5507 28.5669 18.393C28.5669 18.2353 28.4889 18.1074 28.3928 18.1074C28.2967 18.1074 28.2188 18.2353 28.2188 18.393C28.2188 18.5507 28.2967 18.6786 28.3928 18.6786Z" fill="#3D1000"/>
</g>
<mask id="mask39_1521_1511" style="mask-type:luminance" maskUnits="userSpaceOnUse" x="19" y="9" width="21" height="21">
<path d="M29.7973 29.5669C35.3118 29.5669 39.7822 25.0848 39.7822 19.5559C39.7822 14.027 35.3118 9.54492 29.7973 9.54492C24.2829 9.54492 19.8125 14.027 19.8125 19.5559C19.8125 25.0848 24.2829 29.5669 29.7973 29.5669Z" fill="white"/>
</mask>
<g mask="url(#mask39_1521_1511)">
<path d="M31.2424 18.6786C31.3386 18.6786 31.4165 18.5507 31.4165 18.393C31.4165 18.2353 31.3386 18.1074 31.2424 18.1074C31.1463 18.1074 31.0684 18.2353 31.0684 18.393C31.0684 18.5507 31.1463 18.6786 31.2424 18.6786Z" fill="#3D1000"/>
</g>
<path d="M48.0869 15.5645H88.7226" stroke="#D4D4D4" stroke-width="4" stroke-miterlimit="10" stroke-linecap="round" stroke-linejoin="round"/>
<path d="M25.2578 41.8047H88.7114" stroke="#D4D4D4" stroke-width="3" stroke-miterlimit="10" stroke-linecap="round" stroke-linejoin="round"/>
<path d="M25.2578 36.9531H88.7114" stroke="#D4D4D4" stroke-width="3" stroke-miterlimit="10" stroke-linecap="round" stroke-linejoin="round"/>
<path d="M48.0869 20.9258H72.2816" stroke="#EFEFEF" stroke-width="3" stroke-miterlimit="10" stroke-linecap="round" stroke-linejoin="round"/>
<path d="M82.4178 0.669922L97.3397 15.5833L88.8265 16.916C84.0793 17.6616 80.0284 13.4573 80.9145 8.72948L82.4178 0.669922Z" fill="#D9FAFF"/>
<path d="M108.436 44.6055H55.7105C55.1567 44.6055 54.682 44.3834 54.4288 43.9867L51.9761 40.3219C51.7229 39.9252 51.2482 39.7031 50.6944 39.7031H20.6765C19.6954 39.7031 18.7618 40.4171 18.5878 41.2897L9.96377 85.1413C9.78971 86.0139 10.4385 86.7278 11.4196 86.7278H100.144C101.125 86.7278 102.059 86.0139 102.233 85.1413L109.891 46.192C110.065 45.3194 109.417 44.6055 108.436 44.6055Z" fill="#47A6B7"/>
</svg>
