<svg width="39" height="31" viewBox="0 0 39 31" fill="none" xmlns="http://www.w3.org/2000/svg">
<path d="M30.5669 5.55518C30.9862 4.25282 31.2001 2.8799 31.2001 1.50992" stroke="#FFB00D" stroke-width="2" stroke-linecap="round" stroke-linejoin="round"/>
<path d="M32.9976 5.93744C33.7848 4.38519 34.7889 2.95053 35.9697 1.68933" stroke="#FFB00D" stroke-width="2" stroke-linecap="round" stroke-linejoin="round"/>
<path d="M34.3096 8.23065C34.7945 8.01016 35.2794 7.79261 35.7643 7.57212C36.3633 7.30165 36.9765 7.0253 37.6297 6.95769" stroke="#FFB00D" stroke-width="2" stroke-linecap="round" stroke-linejoin="round"/>
<path d="M23.6455 27.3818L9.25243 27.42C8.07155 27.423 6.90777 27.7082 5.85239 28.252L1.87047 30.3011C1.18019 30.6568 0.370117 30.1394 0.370117 29.3427V16.7954C0.370117 10.9715 4.99383 6.20889 10.6415 6.20889H23.6455C29.2961 6.20889 33.917 10.9744 33.917 16.7954C33.917 22.6192 29.2933 27.3818 23.6455 27.3818Z" fill="#ECF8FB"/>
<path d="M16.0582 17.348C16.3263 17.1863 16.6173 17.154 16.9368 17.2451C17.744 17.4774 18.4428 17.4685 19.039 17.2187C19.6323 16.9688 20.043 16.4337 20.2626 15.6164C20.4338 14.9873 20.3539 14.3993 20.0259 13.8584C19.6979 13.3175 19.2044 12.95 18.5455 12.7589C17.8866 12.5678 17.2163 12.6295 16.5774 12.947C16.2094 13.1411 15.8671 13.191 15.5476 13.0999C15.3166 13.0323 15.1283 12.8971 14.9857 12.6942C14.7347 12.3502 14.6577 12.0092 14.749 11.6682C14.8288 11.3771 15.0142 11.1478 15.3109 10.9744C15.8757 10.6363 16.4918 10.4217 17.1535 10.3335C17.8153 10.2453 18.4827 10.2982 19.1559 10.4922C19.9859 10.7304 20.6905 11.1449 21.2695 11.7329C21.8486 12.3208 22.245 13.0146 22.4647 13.8172C22.6815 14.6198 22.6786 15.4312 22.459 16.2485C22.1309 17.4568 21.5348 18.3182 20.6734 18.8297C19.8091 19.3412 18.7994 19.5265 17.6384 19.3824C17.57 19.3912 17.5329 19.4118 17.5215 19.45L17.3332 20.1497C17.2448 20.476 17.0651 20.72 16.7998 20.8817C16.5317 21.0434 16.2408 21.0758 15.9213 20.9846C15.6018 20.8935 15.3708 20.7083 15.2225 20.4261C15.0741 20.1468 15.0456 19.841 15.134 19.5147L15.522 18.08C15.6104 17.7537 15.7872 17.5097 16.0554 17.348H16.0582ZM14.1785 23.8128C14.0416 23.5629 14.0245 23.2542 14.1215 22.8897L14.207 22.5692C14.3069 22.2047 14.4751 21.9518 14.7176 21.8107C14.9601 21.6696 15.2567 21.649 15.6132 21.7519L15.8528 21.8196C16.2065 21.9225 16.4518 22.0988 16.5888 22.3458C16.7257 22.5957 16.7428 22.9044 16.6458 23.2689L16.5602 23.5894C16.4604 23.9539 16.2893 24.2067 16.0497 24.3478C15.8072 24.489 15.5077 24.5066 15.154 24.4066L14.9144 24.339C14.5607 24.2361 14.3154 24.0627 14.1785 23.8128Z" fill="#47A8B9"/>
</svg>
