<svg width="23" height="23" viewBox="0 0 23 23" fill="none" xmlns="http://www.w3.org/2000/svg">
<mask id="mask0_1780_1056" style="mask-type:alpha" maskUnits="userSpaceOnUse" x="1" y="0" width="20" height="20">
<rect x="1" width="20" height="20" fill="#D9D9D9"/>
</mask>
<g mask="url(#mask0_1780_1056)">
</g>
<g clip-path="url(#clip0_1780_1056)">
<path d="M18.09 6.33997L5.08997 10.68L14.5 19.07" stroke="#A6DAEA" stroke-miterlimit="10"/>
<mask id="mask1_1780_1056" style="mask-type:luminance" maskUnits="userSpaceOnUse" x="0" y="5" width="9" height="10">
<path d="M4.34 14.06C6.73692 14.06 8.68 12.1169 8.68 9.72C8.68 7.32309 6.73692 5.38 4.34 5.38C1.94308 5.38 0 7.32309 0 9.72C0 12.1169 1.94308 14.06 4.34 14.06Z" fill="white"/>
</mask>
<g mask="url(#mask1_1780_1056)">
<path d="M9.71002 5.23999H-0.849976V14.73H9.71002V5.23999Z" fill="#47A8B9"/>
<path d="M6.38998 12.45L2.01998 12.4C1.38998 12.07 1.45998 11.27 1.87998 10.81C2.46998 10.17 2.20998 9.91999 2.27998 9.08999C2.27998 7.71999 3.21998 6.60999 4.36998 6.60999C4.53998 6.60999 4.86998 6.68999 4.96997 6.88999C5.77997 6.59999 6.46997 7.91999 6.46997 9.08999C6.30998 10.26 6.30998 10.35 6.62998 10.71C7.15998 11.24 7.09998 12.35 6.37998 12.44L6.38998 12.45Z" fill="#F8A921"/>
<path d="M9.15001 16.1699C8.95001 15.9199 8.74001 15.5499 8.63001 15.2099L7.66001 12.7099C7.50001 12.1499 7.17001 11.9899 6.56001 11.8999C6.50001 11.8999 5.33001 11.4199 5.27001 11.4099C4.53001 11.2399 4.74001 11.2899 4.41001 11.2899C4.12001 11.2899 3.94001 11.3299 3.46001 11.4699C3.38001 11.4899 2.44001 11.8999 2.36001 11.9099C1.78001 11.9799 1.57001 12.1599 1.33001 12.6999L0.380015 15.2099C0.280015 15.5499 0.0700147 15.9199 -0.139985 16.1699L-1.85999 18.5099L-1.27999 19.0099L1.09001 17.3999C1.58001 16.9299 1.94001 16.3299 2.14001 15.6799L2.49001 14.5299L6.41001 14.6199L6.82001 15.6799C7.02001 16.3299 7.44001 16.9299 7.93001 17.3999L10.3 19.0099L10.88 18.5099L9.16001 16.1699H9.15001Z" fill="#F49A5F"/>
<path d="M6.36998 18.2H2.55998C2.17998 18.2 1.96998 18.22 1.96998 17.87C2.36998 16.24 2.03998 14.48 1.59998 12.61C1.59998 12.26 1.90998 11.98 2.29998 11.98H6.66998C7.04998 11.98 7.36998 12.26 7.36998 12.61C6.93998 14.69 6.44998 16.58 7.09998 17.87C7.09998 18.22 6.75998 18.2 6.36998 18.2Z" fill="#F49A5F"/>
<path d="M5.82001 11.82C5.82001 12.06 5.11001 12.8 4.34001 12.8C3.57001 12.8 3.01001 12.06 3.01001 11.82C3.01001 11.58 3.64001 11.38 4.42001 11.38C5.20001 11.38 5.83001 11.58 5.83001 11.82H5.82001Z" fill="#FAC49F"/>
<path d="M5.08996 10.37H3.70996V11.49H5.08996V10.37Z" fill="#FAC49F"/>
<path d="M3.70996 10.72C3.70996 10.72 4.05996 10.93 4.39996 10.93C4.39996 10.93 4.77996 10.93 5.08996 10.72V10.89C4.88996 11.12 4.22996 11.55 3.70996 10.89V10.73V10.72Z" fill="#F6AB78"/>
<path d="M4.38999 10.93C5.23498 10.93 5.91999 10.0435 5.91999 8.94997C5.91999 7.85645 5.23498 6.96997 4.38999 6.96997C3.54499 6.96997 2.85999 7.85645 2.85999 8.94997C2.85999 10.0435 3.54499 10.93 4.38999 10.93Z" fill="#FAC49F"/>
<path d="M6.1502 9.41564C6.31647 9.22356 6.34632 8.97701 6.21688 8.86496C6.08743 8.75291 5.8477 8.81778 5.68143 9.00987C5.51516 9.20195 5.48531 9.4485 5.61476 9.56055C5.7442 9.67261 5.98393 9.60773 6.1502 9.41564Z" fill="#FAC49F"/>
<path d="M3.21004 9.5546C3.33949 9.44255 3.30964 9.19599 3.14337 9.00391C2.9771 8.81183 2.73737 8.74695 2.60792 8.859C2.47847 8.97105 2.50832 9.2176 2.67459 9.40969C2.84087 9.60177 3.08059 9.66665 3.21004 9.5546Z" fill="#FAC49F"/>
<path d="M5.92 8.84003C5.46 9.08003 5.18 8.52003 4.99 7.92003C4.97 7.85003 4.88 7.85003 4.85 7.92003C4.43 8.84003 3.22 8.85003 2.87 8.84003C2.87 7.80003 3.56 6.91003 4.42 6.91003C5.28 6.91003 5.93 7.81003 5.93 8.85003L5.92 8.84003Z" fill="#F8A921"/>
</g>
<mask id="mask2_1780_1056" style="mask-type:luminance" maskUnits="userSpaceOnUse" x="9" y="13" width="10" height="10">
<path d="M13.75 22.42C16.147 22.42 18.09 20.4769 18.09 18.08C18.09 15.6831 16.147 13.74 13.75 13.74C11.3531 13.74 9.41003 15.6831 9.41003 18.08C9.41003 20.4769 11.3531 22.42 13.75 22.42Z" fill="white"/>
</mask>
<g mask="url(#mask2_1780_1056)">
<path d="M19.1301 13.61H8.57007V23.1H19.1301V13.61Z" fill="#267D8C"/>
<path d="M18.56 24.5299C18.36 24.2799 18.15 23.9099 18.04 23.5699L17.07 21.0699C16.91 20.5099 16.58 20.3499 15.97 20.2599C15.91 20.2599 14.74 19.7799 14.68 19.7699C13.94 19.5999 14.15 19.6499 13.82 19.6499C13.53 19.6499 13.35 19.6899 12.87 19.8299C12.79 19.8499 11.85 20.2599 11.77 20.2699C11.19 20.3399 10.98 20.5199 10.74 21.0599L9.79005 23.5699C9.69005 23.9099 9.48005 24.2799 9.27005 24.5299L7.55005 26.8699L8.13005 27.3699L10.5 25.7599C10.99 25.2899 11.35 24.6899 11.55 24.0399L11.9 22.8899L15.82 22.9799L16.23 24.0399C16.43 24.6899 16.85 25.2899 17.34 25.7599L19.71 27.3699L20.29 26.8699L18.57 24.5299H18.56Z" fill="#EB612A"/>
<path d="M15.78 26.57H11.97C11.59 26.57 11.38 26.59 11.38 26.24C11.78 24.61 11.45 22.85 11.01 20.98C11.01 20.63 11.32 20.35 11.71 20.35H16.08C16.46 20.35 16.78 20.63 16.78 20.98C16.35 23.06 15.86 24.95 16.51 26.24C16.51 26.59 16.17 26.57 15.78 26.57Z" fill="#EB612A"/>
<path d="M15.2401 20.19C15.2401 20.43 14.5301 21.17 13.7601 21.17C12.9901 21.17 12.4301 20.43 12.4301 20.19C12.4301 19.95 13.0601 19.75 13.8401 19.75C14.6201 19.75 15.2501 19.95 15.2501 20.19H15.2401Z" fill="#DD864B"/>
<path d="M14.5 18.73H13.12V19.85H14.5V18.73Z" fill="#DD864B"/>
<path d="M13.12 19.08C13.12 19.08 13.47 19.29 13.81 19.29C13.81 19.29 14.19 19.29 14.5 19.08V19.25C14.3 19.48 13.64 19.91 13.12 19.25V19.09V19.08Z" fill="#DD864B"/>
<path d="M13.81 19.29C14.655 19.29 15.34 18.4035 15.34 17.31C15.34 16.2164 14.655 15.33 13.81 15.33C12.965 15.33 12.28 16.2164 12.28 17.31C12.28 18.4035 12.965 19.29 13.81 19.29Z" fill="#DD864B"/>
<path d="M15.5663 17.7748C15.7326 17.5827 15.7625 17.3361 15.633 17.2241C15.5036 17.112 15.2638 17.1769 15.0976 17.369C14.9313 17.5611 14.9014 17.8076 15.0309 17.9197C15.1603 18.0317 15.4001 17.9669 15.5663 17.7748Z" fill="#DD864B"/>
<path d="M12.6239 17.9103C12.7533 17.7983 12.7235 17.5517 12.5572 17.3596C12.3909 17.1675 12.1512 17.1027 12.0217 17.2147C11.8923 17.3268 11.9221 17.5733 12.0884 17.7654C12.2547 17.9575 12.4944 18.0224 12.6239 17.9103Z" fill="#DD864B"/>
<path d="M15.44 17.2C14.94 17.44 14.64 16.87 14.43 16.26C14.41 16.19 14.31 16.19 14.28 16.26C13.83 17.2 12.51 17.21 12.13 17.2C12.13 16.14 12.87 15.23 13.81 15.23C14.75 15.23 15.44 16.15 15.44 17.21V17.2Z" fill="#39150D"/>
</g>
<mask id="mask3_1780_1056" style="mask-type:luminance" maskUnits="userSpaceOnUse" x="13" y="2" width="10" height="9">
<path d="M18.09 10.68C20.4869 10.68 22.43 8.73692 22.43 6.34C22.43 3.94308 20.4869 2 18.09 2C15.6931 2 13.75 3.94308 13.75 6.34C13.75 8.73692 15.6931 10.68 18.09 10.68Z" fill="white"/>
</mask>
<g mask="url(#mask3_1780_1056)">
<path d="M23.47 1.85999H12.91V11.35H23.47V1.85999Z" fill="#EB602A"/>
<path d="M15.84 7.91994C16.0775 7.91994 16.27 7.72742 16.27 7.48994C16.27 7.25245 16.0775 7.05994 15.84 7.05994C15.6026 7.05994 15.41 7.25245 15.41 7.48994C15.41 7.72742 15.6026 7.91994 15.84 7.91994Z" fill="#39150D"/>
<path d="M15.6201 8.48C15.8575 8.48 16.0501 8.28748 16.0501 8.05C16.0501 7.81251 15.8575 7.62 15.6201 7.62C15.3826 7.62 15.1901 7.81251 15.1901 8.05C15.1901 8.28748 15.3826 8.48 15.6201 8.48Z" fill="#39150D"/>
<path d="M15.7401 8.90993C15.9775 8.90993 16.1701 8.71741 16.1701 8.47993C16.1701 8.24244 15.9775 8.04993 15.7401 8.04993C15.5026 8.04993 15.3101 8.24244 15.3101 8.47993C15.3101 8.71741 15.5026 8.90993 15.7401 8.90993Z" fill="#39150D"/>
<path d="M16.17 7.30995C16.4075 7.30995 16.6 7.11743 16.6 6.87995C16.6 6.64247 16.4075 6.44995 16.17 6.44995C15.9325 6.44995 15.74 6.64247 15.74 6.87995C15.74 7.11743 15.9325 7.30995 16.17 7.30995Z" fill="#39150D"/>
<path d="M16.26 6.44997C16.4974 6.44997 16.69 6.25745 16.69 6.01997C16.69 5.78248 16.4974 5.58997 16.26 5.58997C16.0225 5.58997 15.83 5.78248 15.83 6.01997C15.83 6.25745 16.0225 6.44997 16.26 6.44997Z" fill="#39150D"/>
<path d="M16.26 5.74C16.4974 5.74 16.69 5.54749 16.69 5.31C16.69 5.07252 16.4974 4.88 16.26 4.88C16.0225 4.88 15.83 5.07252 15.83 5.31C15.83 5.54749 16.0225 5.74 16.26 5.74Z" fill="#39150D"/>
<path d="M16.48 5.07997C16.7175 5.07997 16.91 4.88745 16.91 4.64997C16.91 4.41249 16.7175 4.21997 16.48 4.21997C16.2426 4.21997 16.05 4.41249 16.05 4.64997C16.05 4.88745 16.2426 5.07997 16.48 5.07997Z" fill="#39150D"/>
<path d="M16.79 4.50001C17.0275 4.50001 17.22 4.3075 17.22 4.07001C17.22 3.83253 17.0275 3.64001 16.79 3.64001C16.5525 3.64001 16.36 3.83253 16.36 4.07001C16.36 4.3075 16.5525 4.50001 16.79 4.50001Z" fill="#39150D"/>
<path d="M17.26 4.17995C17.4974 4.17995 17.69 3.98743 17.69 3.74995C17.69 3.51246 17.4974 3.31995 17.26 3.31995C17.0225 3.31995 16.83 3.51246 16.83 3.74995C16.83 3.98743 17.0225 4.17995 17.26 4.17995Z" fill="#39150D"/>
<path d="M17.72 3.96999C17.9575 3.96999 18.15 3.77747 18.15 3.53999C18.15 3.3025 17.9575 3.10999 17.72 3.10999C17.4826 3.10999 17.29 3.3025 17.29 3.53999C17.29 3.77747 17.4826 3.96999 17.72 3.96999Z" fill="#39150D"/>
<path d="M18.3601 3.96999C18.5975 3.96999 18.7901 3.77747 18.7901 3.53999C18.7901 3.3025 18.5975 3.10999 18.3601 3.10999C18.1226 3.10999 17.9301 3.3025 17.9301 3.53999C17.9301 3.77747 18.1226 3.96999 18.3601 3.96999Z" fill="#39150D"/>
<path d="M19.06 4.23C19.2975 4.23 19.49 4.03748 19.49 3.8C19.49 3.56251 19.2975 3.37 19.06 3.37C18.8225 3.37 18.63 3.56251 18.63 3.8C18.63 4.03748 18.8225 4.23 19.06 4.23Z" fill="#39150D"/>
<path d="M19.6201 4.50001C19.8575 4.50001 20.0501 4.3075 20.0501 4.07001C20.0501 3.83253 19.8575 3.64001 19.6201 3.64001C19.3826 3.64001 19.1901 3.83253 19.1901 4.07001C19.1901 4.3075 19.3826 4.50001 19.6201 4.50001Z" fill="#39150D"/>
<path d="M19.91 5.07997C20.1475 5.07997 20.34 4.88745 20.34 4.64997C20.34 4.41249 20.1475 4.21997 19.91 4.21997C19.6725 4.21997 19.48 4.41249 19.48 4.64997C19.48 4.88745 19.6725 5.07997 19.91 5.07997Z" fill="#39150D"/>
<path d="M20.05 5.74C20.2875 5.74 20.48 5.54749 20.48 5.31C20.48 5.07252 20.2875 4.88 20.05 4.88C19.8125 4.88 19.62 5.07252 19.62 5.31C19.62 5.54749 19.8125 5.74 20.05 5.74Z" fill="#39150D"/>
<path d="M20.05 6.33998C20.2875 6.33998 20.48 6.14746 20.48 5.90998C20.48 5.6725 20.2875 5.47998 20.05 5.47998C19.8125 5.47998 19.62 5.6725 19.62 5.90998C19.62 6.14746 19.8125 6.33998 20.05 6.33998Z" fill="#39150D"/>
<path d="M20.05 6.99C20.2875 6.99 20.48 6.79749 20.48 6.56C20.48 6.32252 20.2875 6.13 20.05 6.13C19.8125 6.13 19.62 6.32252 19.62 6.56C19.62 6.79749 19.8125 6.99 20.05 6.99Z" fill="#39150D"/>
<path d="M20.18 7.74C20.4175 7.74 20.61 7.54749 20.61 7.31C20.61 7.07252 20.4175 6.88 20.18 6.88C19.9425 6.88 19.75 7.07252 19.75 7.31C19.75 7.54749 19.9425 7.74 20.18 7.74Z" fill="#39150D"/>
<path d="M20.48 8.34999C20.7175 8.34999 20.91 8.15747 20.91 7.91999C20.91 7.68251 20.7175 7.48999 20.48 7.48999C20.2426 7.48999 20.05 7.68251 20.05 7.91999C20.05 8.15747 20.2426 8.34999 20.48 8.34999Z" fill="#39150D"/>
<path d="M20.39 8.90993C20.6274 8.90993 20.82 8.71741 20.82 8.47993C20.82 8.24244 20.6274 8.04993 20.39 8.04993C20.1525 8.04993 19.96 8.24244 19.96 8.47993C19.96 8.71741 20.1525 8.90993 20.39 8.90993Z" fill="#39150D"/>
<path d="M20.14 9.06998L15.77 9.01998C15.14 8.68998 15.21 7.88998 15.63 7.42998C16.22 6.78998 15.96 6.53998 16.03 5.70998C16.03 4.33998 16.97 3.22998 18.12 3.22998C18.29 3.22998 18.62 3.30998 18.72 3.50998C19.53 3.21998 20.22 4.53998 20.22 5.70998C20.06 6.87998 20.06 6.96998 20.38 7.32998C20.91 7.85998 20.85 8.96998 20.13 9.05998L20.14 9.06998Z" fill="#39150D"/>
<path d="M22.9 12.7899C22.7 12.5399 22.49 12.1699 22.38 11.8299L21.41 9.32993C21.25 8.76993 20.92 8.60993 20.31 8.51993C20.25 8.51993 19.08 8.03994 19.02 8.02994C18.28 7.85994 18.49 7.90993 18.16 7.90993C17.87 7.90993 17.69 7.94994 17.21 8.08994C17.13 8.10994 16.19 8.51994 16.11 8.52994C15.53 8.59994 15.32 8.77994 15.08 9.31994L14.13 11.8299C14.03 12.1699 13.82 12.5399 13.61 12.7899L11.89 15.1299L12.47 15.6299L14.84 14.0199C15.33 13.5499 15.69 12.9499 15.89 12.2999L16.24 11.1499L20.16 11.2399L20.57 12.2999C20.77 12.9499 21.19 13.5499 21.68 14.0199L24.05 15.6299L24.63 15.1299L22.91 12.7899H22.9Z" fill="#48A6B7"/>
<path d="M20.12 14.82H16.31C15.93 14.82 15.72 14.84 15.72 14.49C16.12 12.86 15.79 11.1 15.35 9.22998C15.35 8.87998 15.66 8.59998 16.05 8.59998H20.42C20.8 8.59998 21.12 8.87998 21.12 9.22998C20.69 11.31 20.2 13.2 20.85 14.49C20.85 14.84 20.51 14.82 20.12 14.82Z" fill="#48A6B7"/>
<path d="M19.58 8.44C19.58 8.68 18.87 9.42 18.1 9.42C17.33 9.42 16.77 8.68 16.77 8.44C16.77 8.2 17.4 8 18.18 8C18.96 8 19.59 8.2 19.59 8.44H19.58Z" fill="#653825"/>
<path d="M18.84 6.98999H17.46V8.10999H18.84V6.98999Z" fill="#653825"/>
<path d="M17.46 7.32996C17.46 7.32996 17.81 7.53996 18.15 7.53996C18.15 7.53996 18.53 7.53996 18.84 7.32996V7.49996C18.64 7.72996 17.98 8.15996 17.46 7.49996V7.33996V7.32996Z" fill="#39150D"/>
<path d="M18.15 7.54997C18.995 7.54997 19.68 6.66349 19.68 5.56997C19.68 4.47644 18.995 3.58997 18.15 3.58997C17.305 3.58997 16.62 4.47644 16.62 5.56997C16.62 6.66349 17.305 7.54997 18.15 7.54997Z" fill="#653825"/>
<path d="M19.9103 6.02978C20.0766 5.8377 20.1065 5.59115 19.977 5.47909C19.8476 5.36704 19.6078 5.43192 19.4416 5.624C19.2753 5.81609 19.2454 6.06264 19.3749 6.17469C19.5043 6.28674 19.7441 6.22186 19.9103 6.02978Z" fill="#653825"/>
<path d="M16.9716 6.17349C17.1011 6.06144 17.0712 5.81489 16.905 5.62281C16.7387 5.43073 16.499 5.36585 16.3695 5.4779C16.2401 5.58995 16.2699 5.8365 16.4362 6.02858C16.6025 6.22067 16.8422 6.28555 16.9716 6.17349Z" fill="#653825"/>
<path d="M19.68 5.46003C19.22 5.70003 18.94 5.14003 18.75 4.54003C18.73 4.47003 18.64 4.47003 18.61 4.54003C18.19 5.46003 16.98 5.47003 16.63 5.46003C16.63 4.42003 17.32 3.53003 18.18 3.53003C19.04 3.53003 19.69 4.43003 19.69 5.47003L19.68 5.46003Z" fill="#39150D"/>
</g>
</g>
<defs>
<clipPath id="clip0_1780_1056">
<rect width="22.43" height="20.42" fill="white" transform="translate(0 2)"/>
</clipPath>
</defs>
</svg>
