<svg width="100" height="100" viewBox="0 0 100 100" fill="none" xmlns="http://www.w3.org/2000/svg">
<path d="M42.7655 84.0581L71.5831 84.1283C73.9478 84.1283 76.2825 84.6894 78.3867 85.7415L86.3627 89.7194C87.7454 90.4108 89.3687 89.4088 89.3687 87.8557V63.487C89.3687 52.1743 80.1102 42.9158 68.7975 42.9158H42.7655C31.4529 42.9158 22.1943 52.1743 22.1943 63.487C22.1943 74.8096 31.4529 84.0581 42.7655 84.0581Z" fill="white"/>
<path d="M48.6974 50.3707L19.8798 50.4409C17.5151 50.4509 15.1804 51.002 13.0762 52.0541L5.10025 56.0321C3.71749 56.7234 2.09424 55.7214 2.09424 54.1683V29.8096C2.09424 18.497 11.3528 9.23846 22.6654 9.23846H48.6974C60.0101 9.23846 69.2686 18.497 69.2686 29.8096C69.2686 41.1222 60.0101 50.3707 48.6974 50.3707Z" fill="#47A8B9"/>
<path d="M51.1624 75.5811C50.2806 75.5811 49.449 75.2304 48.8277 74.6092L42.9961 68.7775C41.7035 67.485 41.7035 65.3908 42.9961 64.0982C44.2886 62.8056 46.3828 62.8056 47.6754 64.0982L51.1724 67.5952L65.9319 52.8356C67.2245 51.5431 69.3187 51.5431 70.6113 52.8356C71.9039 54.1282 71.9039 56.2224 70.6113 57.515L53.5171 74.6092C52.8958 75.2304 52.0542 75.5811 51.1824 75.5811H51.1624Z" fill="#47A8B9"/>
<path d="M26.1122 40.6513C25.4909 39.7495 25.3106 38.7575 25.5811 37.6854C25.8517 36.5932 26.4729 35.7916 27.4549 35.2706C28.4268 34.7495 29.5791 34.6593 30.9018 34.99C32.1943 35.3106 33.1563 35.9319 33.7775 36.8537C34.3988 37.7655 34.5691 38.7776 34.2986 39.8698C34.028 40.9419 33.4068 41.7235 32.4348 42.2345C31.4629 42.7455 30.3306 42.8357 29.028 42.505C27.7054 42.1744 26.7334 41.5631 26.1122 40.6513ZM43.6873 19.8497C44.9098 21.493 45.2104 23.5371 44.6092 25.972C44.1082 27.976 43.026 29.4189 41.3727 30.3106C39.7094 31.2024 37.7855 31.3928 35.5911 30.9018L34.7795 33.2766L28.0861 31.6032L29.6893 24.3187L32.5551 25.0301C33.8978 25.3607 34.9599 25.471 35.7515 25.3607C36.543 25.2405 37.024 24.8597 37.1843 24.1984C37.2945 23.7676 37.2645 23.4068 37.1142 23.1062C36.9539 22.8156 36.6933 22.6253 36.3326 22.5351C35.8817 22.4249 35.511 22.485 35.2204 22.7154C34.9298 22.9459 34.7294 23.2866 34.6192 23.7475L27.4849 21.9639C27.7655 20.5311 28.3667 19.3187 29.2885 18.3167C30.2004 17.3146 31.4128 16.6233 32.9058 16.2625C34.3988 15.9018 36.1222 15.9619 38.0861 16.4529C40.6112 17.0842 42.4849 18.2265 43.7074 19.8698L43.6873 19.8497Z" fill="white"/>
<path d="M35.7415 59.3587H15.8717C12.7755 59.3587 10.2405 56.8236 10.2405 53.7275C10.2405 50.6313 12.7755 48.0962 15.8717 48.0962H35.7415C38.8377 48.0962 41.3727 50.6313 41.3727 53.7275C41.3727 56.8337 38.8377 59.3587 35.7415 59.3587Z" fill="#F55F24"/>
<path d="M15.4308 51.022L19.8096 53.2064C20.1803 53.3968 20.1803 53.9279 19.8096 54.1082L15.4308 56.3026C15.1001 56.473 14.6993 56.2225 14.6993 55.8517V51.473C14.7094 51.1022 15.1001 50.8517 15.4308 51.022Z" fill="white"/>
<path d="M25.1002 55.7214L24.1784 54.0581H23.9178V55.7214H22.8457V51.3126H24.6493C25 51.3126 25.2906 51.3727 25.5411 51.493C25.7816 51.6132 25.972 51.7836 26.0922 51.994C26.2124 52.2044 26.2726 52.4449 26.2726 52.7054C26.2726 52.9659 26.1924 53.2565 26.0221 53.487C25.8517 53.7174 25.6112 53.8778 25.2906 53.978L26.3126 55.7214H25.1002ZM23.9279 53.2966H24.5892C24.7896 53.2966 24.9299 53.2465 25.0301 53.1563C25.1303 53.0561 25.1804 52.9259 25.1804 52.7455C25.1804 52.5651 25.1303 52.4449 25.0301 52.3547C24.9299 52.2545 24.7796 52.2144 24.5892 52.2144H23.9279V53.3066V53.2966Z" fill="white"/>
<path d="M29.2184 52.1743V53.0661H30.6613V53.8978H29.2184V54.8697H30.8416V55.7314H28.1362V51.3226H30.8416V52.1844H29.2184V52.1743Z" fill="white"/>
<path d="M32.8457 52.3447C33.0361 52.004 33.2966 51.7335 33.6373 51.5431C33.978 51.3527 34.3588 51.2525 34.7796 51.2525C35.2005 51.2525 35.7516 51.3928 36.1223 51.6633C36.493 51.9439 36.7435 52.3146 36.8738 52.7956H35.6914C35.6013 52.6152 35.481 52.4749 35.3207 52.3747C35.1604 52.2745 34.98 52.2345 34.7696 52.2345C34.4389 52.2345 34.1684 52.3547 33.968 52.5751C33.7676 52.8056 33.6574 53.1162 33.6574 53.497C33.6574 53.8778 33.7576 54.1884 33.968 54.4188C34.1684 54.6493 34.4389 54.7595 34.7696 54.7595C35.1003 54.7595 35.1604 54.7094 35.3207 54.6192C35.481 54.519 35.6113 54.3788 35.6914 54.1984H36.8738C36.7435 54.6794 36.5031 55.0501 36.1223 55.3307C35.7516 55.6012 35.3007 55.7415 34.7796 55.7415C34.2586 55.7415 33.968 55.6413 33.6373 55.4509C33.2966 55.2605 33.0361 55 32.8457 54.6593C32.6554 54.3186 32.5652 53.9379 32.5652 53.497C32.5652 53.0561 32.6554 52.6753 32.8457 52.3347V52.3447Z" fill="white"/>
</svg>
