<svg viewBox="0 0 82 64" fill="none" xmlns="http://www.w3.org/2000/svg">
<path d="M64.4697 10.908C65.3627 8.13438 65.8183 5.21054 65.8183 2.29297" stroke="#FFC449" stroke-width="4" stroke-linecap="round" stroke-linejoin="round"/>
<path d="M69.6455 11.7218C71.3221 8.41604 73.4603 5.36073 75.9752 2.6748" stroke="#FFC449" stroke-width="4" stroke-linecap="round" stroke-linejoin="round"/>
<path d="M72.4395 16.6055C73.4721 16.1359 74.5048 15.6726 75.5375 15.2031C76.8131 14.6271 78.1192 14.0385 79.5103 13.8945" stroke="#FFC449" stroke-width="4" stroke-linecap="round" stroke-linejoin="round"/>
<path d="M49.7277 57.3907L19.0754 57.4721C16.5605 57.4784 14.0821 58.0857 11.8345 59.2439L3.35441 63.6078C1.88436 64.3653 0.15918 63.2634 0.15918 61.5667V34.8453C0.15918 22.4424 10.0061 12.2998 22.0337 12.2998H49.7277C61.7614 12.2998 71.6022 22.4487 71.6022 34.8453C71.6022 47.2481 61.7553 57.3907 49.7277 57.3907Z" fill="#DEF5FA"/>
<path d="M33.5698 36.0226C34.1408 35.6783 34.7604 35.6094 35.4408 35.8035C37.1599 36.2981 38.6482 36.2793 39.9178 35.7471C41.1813 35.215 42.056 34.0755 42.5238 32.335C42.8882 30.9951 42.7181 29.7429 42.0196 28.5909C41.321 27.4389 40.2701 26.6563 38.8669 26.2494C37.4636 25.8424 36.0361 25.9739 34.6754 26.6501C33.8918 27.0633 33.1628 27.1697 32.4825 26.9756C31.9904 26.8316 31.5895 26.5436 31.2858 26.1116C30.7512 25.3791 30.5872 24.6528 30.7816 23.9266C30.9517 23.3068 31.3465 22.8184 31.9783 22.449C33.1811 21.729 34.4932 21.272 35.9025 21.0841C37.3118 20.8963 38.7332 21.009 40.1668 21.4222C41.9345 21.9294 43.4349 22.8121 44.6681 24.0643C45.9012 25.3165 46.7456 26.7941 47.2133 28.5033C47.675 30.2125 47.6689 31.9405 47.2012 33.681C46.5026 36.2543 45.233 38.0887 43.3985 39.1781C41.5579 40.2675 39.4075 40.6619 36.9351 40.3552C36.7894 40.3739 36.7104 40.4178 36.6861 40.4991L36.2852 41.9892C36.0969 42.6842 35.7142 43.2039 35.1492 43.5482C34.5782 43.8926 33.9586 43.9614 33.2783 43.7673C32.5979 43.5732 32.1059 43.1788 31.79 42.5778C31.4741 41.983 31.4134 41.3318 31.6017 40.6369L32.4278 37.5816C32.6161 36.8866 32.9928 36.367 33.5638 36.0226H33.5698ZM29.5667 49.7903C29.2751 49.2581 29.2387 48.6007 29.4452 47.8244L29.6274 47.142C29.84 46.3656 30.1984 45.8272 30.7148 45.5266C31.2311 45.2261 31.8629 45.1823 32.6222 45.4014L33.1325 45.5454C33.8857 45.7646 34.4081 46.1402 34.6997 46.6661C34.9913 47.1983 35.0277 47.8557 34.8212 48.632L34.639 49.3145C34.4263 50.0908 34.0619 50.6293 33.5516 50.9298C33.0353 51.2303 32.3974 51.2679 31.6442 51.055L31.1339 50.911C30.3807 50.6919 29.8583 50.3225 29.5667 49.7903Z" fill="#47A8B9"/>
</svg>
