<svg width="24" height="17" viewBox="0 0 24 17" fill="none" xmlns="http://www.w3.org/2000/svg">
<g clip-path="url(#clip0_1785_1684)">
<path d="M15.0455 15.0051C15.0123 15.0431 14.9791 15.0817 14.9459 15.1197C14.9333 15.1324 14.92 15.1451 14.9073 15.1583C14.4936 15.5438 13.9845 15.624 13.6268 15.361C13.5942 15.3375 13.5617 15.3146 13.5297 15.291C13.4646 15.2796 13.3994 15.2681 13.3343 15.2566C13.3144 15.2482 13.2945 15.2398 13.2746 15.2313C13.2601 15.2313 13.2462 15.2325 13.2317 15.2337C13.2275 15.1921 13.2233 15.1505 13.2185 15.1089C13.2016 14.8543 13.014 14.7946 12.8119 14.7524C12.8101 14.5166 12.6219 14.4671 12.456 14.3959C12.333 14.1251 12.0972 14.0304 11.9476 14.1914H11.8456C11.8312 14.1625 11.8167 14.1341 11.8022 14.1052C11.6725 14.1715 11.5181 14.2144 11.4252 14.3151C11.3842 14.3591 11.4367 14.5497 11.503 14.6203C11.5875 14.7096 11.7292 14.7446 11.8462 14.8037C11.8631 14.8206 11.88 14.8374 11.8969 14.8543C11.9307 15.124 12.1273 15.2102 12.3547 15.2621C12.3716 15.279 12.3885 15.2959 12.4054 15.3127C12.4621 15.4086 12.5061 15.5154 12.5791 15.5968C12.6672 15.6946 12.7793 15.7699 12.8813 15.855C12.8584 15.8839 12.8348 15.9129 12.8119 15.9419C12.7594 15.9696 12.7076 15.9973 12.6551 16.0251C12.2347 16.3279 11.8191 16.159 11.4029 16.0118C11.2636 15.9624 11.1218 15.9195 10.9813 15.8737C10.9011 15.8079 10.8287 15.7271 10.7388 15.6795C10.3739 15.4865 10.3636 15.4883 10.4716 15.0896C10.5398 14.8374 10.4794 14.6462 10.2695 14.4985C9.98907 14.1643 9.69532 14.0437 9.20615 14.2494L9.19529 14.2385C9.21399 14.0207 9.25139 13.8036 9.24898 13.5859C9.24114 12.923 8.45038 12.4061 7.84962 12.6871C7.64936 12.7812 7.49616 12.9773 7.32184 13.1268C7.30435 13.0484 7.23136 13.0581 7.19879 12.9869C7.13908 12.8566 7.2953 12.5532 7.0679 12.5104C7.03654 12.2812 6.90806 12.1358 6.69454 12.0532C6.20476 11.8638 5.76143 11.9018 5.38867 12.3077C5.39229 12.0381 5.40556 11.7655 5.13775 11.5918C5.07563 11.5369 5.02194 11.4657 4.95077 11.4301C4.54182 11.2269 4.18715 11.33 3.8735 11.6376C3.15573 11.0284 2.46449 10.3836 1.60376 9.96984C1.2883 9.81784 0.967417 9.67429 0.662212 9.50299C0.461355 9.39019 0.594053 9.46921 0.406466 9.33349C0.195356 9.18149 -7.18181e-05 9.01502 0.00595991 8.42934C0.00294405 6.47808 -0.00188134 4.84106 0.000531354 2.8898C0.00113453 2.31257 0.66764 1.9205 1.24246 2.16539C2.2377 2.59002 3.2263 3.03034 4.21731 3.46402C4.48029 3.57923 4.74086 3.69926 5.00747 3.80481C5.07804 3.83256 5.17032 3.82954 5.24693 3.81266C6.02381 3.64075 6.79889 3.46282 7.57457 3.28669C7.57578 3.30539 7.57638 3.32348 7.57759 3.34218C7.12943 3.52856 6.85921 3.86091 6.67343 4.31148C6.35435 5.08535 5.98461 5.83811 5.642 6.60293C5.52861 6.85566 5.57747 7.03299 5.7928 7.17776C6.0407 7.34423 6.31997 7.34121 6.59984 7.29537C7.42559 7.16087 8.0173 6.65963 8.53844 6.04741C8.7598 5.78684 8.95222 5.47982 9.22425 5.28982C9.4999 5.09681 9.85275 5.00452 10.1815 4.90018C10.4698 4.80849 10.7521 4.76748 11.0525 4.95024C12.8867 6.0643 14.7378 7.15122 16.5703 8.26829C17.3007 8.71343 18.0432 9.16883 18.6609 9.75873C18.6699 9.76717 18.6928 9.76537 18.7091 9.76838C18.7568 9.91194 18.793 10.0609 18.8545 10.1984C19.0614 10.6581 18.9999 11.1122 18.7869 11.5363C18.5252 12.0592 17.8044 12.2553 17.2802 11.9935C17.1741 11.9404 17.0468 11.9308 16.9292 11.9012L16.9304 11.9024C16.9129 11.8843 16.8954 11.8668 16.8779 11.8487L16.8809 11.8523C16.8652 11.8355 16.8496 11.818 16.8339 11.8011C16.2995 11.3776 15.762 10.9584 15.2318 10.5296C14.8935 10.2557 14.3946 10.3619 14.2414 10.7045C14.3132 10.7733 14.3844 10.8565 14.47 10.9204C14.8953 11.2377 15.3229 11.552 15.7536 11.8626C16.1752 12.1672 16.6017 12.4658 17.0257 12.7668C17.0118 13.4067 16.5914 13.8615 15.8724 13.9852C15.6897 14.0165 15.4972 13.9912 15.3091 13.9918C15.2904 13.9743 15.2717 13.9568 15.253 13.9387C15.2023 13.847 15.1709 13.7342 15.0973 13.6679C14.7813 13.3838 14.4459 13.1208 14.1298 12.8361C13.5767 12.3367 13.1503 12.3451 12.7021 12.6443C12.5212 12.7649 12.5127 12.9163 12.6768 13.0527C12.941 13.2722 13.2046 13.493 13.47 13.7119C13.9941 14.1438 14.5195 14.5751 15.0449 15.0063L15.0455 15.0051Z" fill="#C47346"/>
<path d="M18.7092 9.76721C18.6929 9.7642 18.6699 9.76661 18.6609 9.75756C18.0258 9.15499 17.3007 8.71287 16.5703 8.26712C14.7379 7.14945 12.8867 6.06313 11.0525 4.94907C10.7515 4.76631 10.4692 4.80793 10.1815 4.89901C9.85217 5.00336 9.49991 5.09564 9.22426 5.28866C8.95223 5.47926 8.76042 5.78628 8.53846 6.04624C8.01792 6.65846 7.42621 7.1597 6.59986 7.29421C6.31939 7.34005 6.04072 7.34306 5.79282 7.17659C5.57748 7.03183 5.52863 6.85449 5.64202 6.60176C5.98462 5.83754 6.35437 5.08479 6.67345 4.31031C6.85922 3.85974 7.13005 3.52739 7.5776 3.34101C7.62706 3.30724 7.67713 3.27346 7.72659 3.24028C8.63617 2.75171 8.72484 2.70225 9.63503 2.21429C10.5555 1.58096 11.8475 1.64308 12.1539 1.72753C12.2118 1.74321 15.8827 2.08581 16.2518 2.11537C16.5034 2.13527 16.7796 2.13527 17.0118 2.05203C18.1566 1.64489 19.29 1.20578 20.4282 0.779944C21.0838 0.534453 21.7359 0.276295 22.3994 0.0543273C23.0261 -0.155577 23.5882 0.258803 23.5888 0.887912C23.5918 2.77162 23.5912 4.65533 23.5888 6.53964C23.5882 6.98056 23.3675 7.2731 22.9048 7.445C22.1846 7.71281 21.4596 7.96795 20.7406 8.23998C20.6043 8.29125 20.471 8.37992 20.3679 8.48366C19.8697 8.9843 19.3268 9.42341 18.7085 9.76661L18.7092 9.76721Z" fill="#FFB096"/>
<path d="M9.20613 14.2475C9.6953 14.0419 9.98904 14.1625 10.2695 14.4966C10.249 14.6879 10.2508 14.8851 10.2026 15.0691C10.1284 15.3532 9.99749 15.6234 9.93235 15.9087C9.87746 16.1493 9.73993 16.2404 9.52339 16.2253C9.27428 16.2078 9.02759 16.1626 8.77968 16.13C8.68318 15.9593 8.58606 15.7886 8.48956 15.6179C8.59451 15.2434 8.69946 14.8688 8.80441 14.4948C8.7833 14.4858 8.76219 14.4773 8.74108 14.4683C8.6114 14.7078 8.45397 14.937 8.35988 15.1897C8.27965 15.4056 8.16023 15.4816 7.94791 15.4659C7.67105 15.4454 7.39359 15.431 7.11674 15.4135C6.79826 15.2325 6.72528 14.9146 6.65833 14.5926C6.74277 14.4086 6.82842 14.2252 6.91105 14.0413C7.04858 13.736 7.18429 13.4302 7.32121 13.125C7.49553 12.9754 7.64873 12.7794 7.84899 12.6853C8.44975 12.4042 9.24051 12.9212 9.24835 13.584C9.25076 13.8012 9.21397 14.0189 9.19527 14.2367C9.18019 14.2554 9.16511 14.2741 9.15003 14.2928C9.144 14.2952 9.13676 14.2964 9.13194 14.3C9.12892 14.3024 9.12952 14.3091 9.12832 14.3139C9.13616 14.3066 9.1434 14.3 9.15124 14.2928C9.16933 14.2777 9.18803 14.262 9.20613 14.2469V14.2475ZM8.83276 14.3531C8.83035 14.3459 8.82975 14.3374 8.82552 14.3314C8.82432 14.3296 8.81346 14.3344 8.80743 14.3362C8.80984 14.3434 8.81044 14.3519 8.81467 14.3579C8.81587 14.3597 8.82673 14.3549 8.83276 14.3531Z" fill="#FFB096"/>
<path d="M5.38804 12.3065C5.7608 11.9006 6.20353 11.8626 6.69391 12.052C6.90743 12.1346 7.03651 12.28 7.06727 12.5092C7.05521 12.7191 7.08718 12.9441 7.02083 13.1347C6.89476 13.5002 6.72346 13.8525 6.54673 14.1975C6.49245 14.303 6.37061 14.3959 6.25781 14.4454C5.88566 14.6094 5.50445 14.5672 5.12687 14.4478C4.83312 14.1516 4.83433 13.7982 4.93023 13.4266C4.96099 13.3313 4.98572 13.2336 5.02433 13.1419C5.14255 12.8621 5.2662 12.5846 5.38744 12.3065H5.38804Z" fill="#FFB096"/>
<path d="M3.87291 11.6358C4.18656 11.3282 4.54123 11.2251 4.95018 11.4283C5.02196 11.4639 5.07564 11.5351 5.13716 11.59C5.3151 11.9645 5.20351 12.3059 5.02015 12.6407C4.98396 12.7064 4.95621 12.7776 4.92967 12.8476C4.77285 13.262 4.63291 13.3627 4.18596 13.376C4.07678 13.379 3.96761 13.3772 3.85844 13.3772C3.55685 13.338 3.52187 13.0744 3.52247 12.8729C3.52367 12.6051 3.60993 12.3349 3.68171 12.0713C3.72272 11.9199 3.80717 11.7806 3.87231 11.6358H3.87291Z" fill="#FFB096"/>
<path d="M15.2523 13.9369C15.271 13.9544 15.2897 13.9719 15.3084 13.99C15.3072 14.151 15.3241 14.3145 15.2982 14.4713C15.2764 14.604 15.2053 14.7283 15.1558 14.8561C15.1045 14.8308 15.046 14.8139 15.002 14.7789C14.4531 14.3338 13.9054 13.8868 13.3602 13.4381C13.137 13.2547 12.9199 13.0641 12.6882 12.8663C12.9186 12.6256 13.1816 12.5001 13.4386 12.6099C13.7462 12.7414 14.0218 12.958 14.2933 13.1612C14.6226 13.4073 14.9338 13.6781 15.2523 13.9387V13.9369Z" fill="#C47346"/>
<path d="M17.0251 12.7643C16.6011 12.4633 16.1752 12.1647 15.753 11.8601C15.3229 11.5495 14.8953 11.2352 14.4694 10.918C14.3838 10.854 14.3126 10.7708 14.2408 10.702C14.3941 10.3594 14.8929 10.2527 15.2313 10.5271C15.7608 10.956 16.2989 11.3752 16.8333 11.7986C16.849 11.8155 16.8646 11.833 16.8803 11.8499L16.8773 11.8463C16.8948 11.8644 16.9123 11.8818 16.9298 11.8999L16.9286 11.8987C16.9605 12.187 16.9925 12.4754 17.0251 12.7637V12.7643Z" fill="#C47346"/>
<path d="M13.2185 15.1088C13.2227 15.1505 13.2269 15.1921 13.2318 15.2337C13.1443 15.414 13.0568 15.5938 12.97 15.7741C12.7818 15.6203 12.5936 15.4665 12.4054 15.3121C12.3885 15.2952 12.3716 15.2783 12.3547 15.2614C12.2021 15.1257 12.0495 14.9894 11.8969 14.8537C11.88 14.8368 11.8632 14.8199 11.8463 14.803C11.7274 14.6673 11.6086 14.5316 11.4633 14.3663C11.611 14.2988 11.7287 14.2451 11.8457 14.192C11.8794 14.192 11.9132 14.192 11.9476 14.192C12.1171 14.2602 12.2866 14.3283 12.4561 14.3965C12.5749 14.5153 12.6937 14.6341 12.812 14.753C12.9477 14.8718 13.0834 14.9906 13.2185 15.1094V15.1088Z" fill="#C47346"/>
<path d="M8.77979 16.1301C9.02769 16.1633 9.27499 16.2085 9.5235 16.2254C9.74004 16.2405 9.87756 16.1494 9.93245 15.9087C9.99759 15.6234 10.1285 15.3532 10.2027 15.0691C10.2509 14.8851 10.2491 14.6879 10.2696 14.4967C10.4795 14.6451 10.5404 14.8357 10.4717 15.0878C10.3637 15.4865 10.374 15.4847 10.7389 15.6777C10.8288 15.7254 10.9011 15.8062 10.9814 15.8719C10.5531 16.1379 10.1737 16.5222 9.61458 16.4805C9.30274 16.457 9.00718 16.3671 8.77979 16.1301Z" fill="#FFB096"/>
<path d="M15.2524 13.9369C14.9333 13.6769 14.6227 13.4061 14.2933 13.1594C14.0213 12.9561 13.7457 12.7402 13.4386 12.6081C13.1823 12.4983 12.9187 12.6238 12.6883 12.8644C12.9199 13.0623 13.1377 13.2529 13.3602 13.4363C13.9055 13.8856 14.4532 14.332 15.0021 14.7771C15.0455 14.8127 15.104 14.829 15.1559 14.8543C15.1191 14.9038 15.0823 14.9538 15.0449 15.0033C14.5201 14.572 13.9948 14.1408 13.47 13.7089C13.2046 13.4905 12.941 13.2698 12.6768 13.0496C12.5128 12.9133 12.5212 12.7619 12.7022 12.6413C13.1503 12.3421 13.5768 12.3337 14.1299 12.8331C14.4453 13.1178 14.7813 13.3808 15.0974 13.6649C15.171 13.7306 15.2023 13.844 15.253 13.9357L15.2524 13.9369Z" fill="#C47346"/>
<path d="M5.12756 14.4472C5.50515 14.5672 5.88635 14.6094 6.25851 14.4448C6.37131 14.3953 6.49315 14.3024 6.54743 14.1969C6.72416 13.8518 6.89486 13.4996 7.02153 13.1341C7.08727 12.9429 6.76759 12.2999 6.78026 12.0906C7.00826 12.1328 7.37559 12.6564 7.32251 13.125C7.30502 13.0466 7.31346 13.2028 7.32251 13.125C7.18619 13.4302 7.04987 13.736 6.91235 14.0412C6.82911 14.2258 6.74407 14.4092 6.65962 14.5925C6.24042 14.7614 5.81578 14.8471 5.38451 14.6456C5.28921 14.601 5.21321 14.5141 5.12817 14.4466L5.12756 14.4472Z" fill="#FFB096"/>
<path d="M3.8584 13.3772C3.96757 13.3772 4.07675 13.379 4.18592 13.376C4.63227 13.3633 4.7722 13.2626 4.92963 12.8476C4.95617 12.777 4.98392 12.7064 5.02011 12.6407C5.20347 12.3059 5.31506 11.9645 5.13712 11.59C5.40554 11.7637 5.39166 12.0369 5.38804 12.3059C5.26681 12.584 5.14255 12.8615 5.02493 13.1413C4.98633 13.233 4.9616 13.3307 4.93084 13.426C4.66906 13.4604 4.40849 13.5111 4.14611 13.5207C4.05202 13.5243 3.95491 13.4278 3.859 13.3772H3.8584Z" fill="#FFB096"/>
<path d="M7.11682 15.414C7.39368 15.4309 7.67114 15.446 7.94799 15.4665C8.16031 15.4822 8.27974 15.4056 8.35996 15.1903C8.45406 14.9375 8.61148 14.7083 8.74116 14.4689C8.76228 14.4779 8.78339 14.4864 8.8045 14.4954C8.69955 14.87 8.59459 15.2446 8.48964 15.6185C7.99625 15.7928 7.53723 15.7331 7.11682 15.414Z" fill="#FFB096"/>
<path d="M12.4054 15.3121C12.5936 15.4659 12.7818 15.6198 12.97 15.7742C12.9404 15.8007 12.9109 15.8278 12.8813 15.8544C12.7794 15.7693 12.6672 15.6939 12.5791 15.5962C12.5061 15.5154 12.4621 15.408 12.4054 15.3121Z" fill="#C47346"/>
<path d="M7.72658 3.24146C7.67712 3.27523 7.62706 3.30901 7.5776 3.34218C7.57639 3.32349 7.57579 3.30539 7.57458 3.28669C7.62525 3.27161 7.67592 3.25653 7.72598 3.24146H7.72658Z" fill="#F7C8A7"/>
<path d="M13.5291 15.2904C13.5616 15.3139 13.5942 15.3368 13.6262 15.3604C13.5936 15.3368 13.561 15.3139 13.5291 15.2904Z" fill="#FFFCFB"/>
<path d="M14.9073 15.1577C14.92 15.1451 14.9333 15.1324 14.946 15.1191C14.9333 15.1318 14.92 15.1445 14.9073 15.1577Z" fill="#FFFDFC"/>
<path d="M11.8457 14.1915C11.728 14.2451 11.611 14.2988 11.4632 14.3658C11.6086 14.5317 11.7274 14.6674 11.8463 14.8025C11.7292 14.744 11.5875 14.709 11.5031 14.6191C11.4367 14.5485 11.3842 14.3585 11.4252 14.3139C11.5181 14.2138 11.6732 14.1704 11.8022 14.104C11.8167 14.133 11.8312 14.1613 11.8457 14.1903V14.1915Z" fill="#C47346"/>
<path d="M12.4561 14.3953C12.2866 14.3271 12.1171 14.259 11.9476 14.1908C12.0966 14.0298 12.3325 14.1245 12.4561 14.3953Z" fill="#C47346"/>
<path d="M11.897 14.8538C12.0496 14.9895 12.2022 15.1258 12.3548 15.2615C12.1274 15.2096 11.9308 15.124 11.897 14.8538Z" fill="#C47346"/>
<path d="M13.2184 15.1089C13.0827 14.9901 12.947 14.8713 12.8119 14.7524C13.0146 14.7947 13.2015 14.8544 13.2184 15.1089Z" fill="#C47346"/>
<path d="M12.8119 14.7517C12.6931 14.6329 12.5743 14.5141 12.4561 14.3953C12.6219 14.4664 12.8101 14.5159 12.8119 14.7517Z" fill="#C47346"/>
<path d="M8.83283 14.353C8.82619 14.3549 8.81594 14.3597 8.81473 14.3579C8.81051 14.3518 8.80991 14.344 8.8075 14.3362C8.81413 14.3343 8.82438 14.3295 8.82559 14.3313C8.82981 14.3368 8.83042 14.3452 8.83283 14.353Z" fill="#F0B790"/>
<path d="M9.15079 14.2939C9.14314 14.301 9.13607 14.3075 9.12842 14.3146C9.1296 14.3098 9.12901 14.3034 9.13195 14.301C9.13666 14.2969 9.14373 14.2963 9.14961 14.2939L9.1502 14.2945L9.15079 14.2939Z" fill="#F2A764"/>
<path d="M9.20613 14.2476C9.18803 14.2626 9.16933 14.2783 9.15124 14.2934L9.15063 14.2928C9.16571 14.2741 9.18079 14.2554 9.19587 14.2367L9.20673 14.2469L9.20613 14.2476Z" fill="#F2A764"/>
<path d="M14.6691 10.3722L16.4816 11.6763C16.6963 11.8313 16.8725 12.0369 16.978 12.2794C17.095 12.5484 17.1553 12.9001 16.9304 13.2318" stroke="#5F3A29" stroke-width="0.5" stroke-linecap="round" stroke-linejoin="round"/>
<path d="M16.5685 8.33704L18.381 9.64109C18.5957 9.79611 18.7719 10.0018 18.8774 10.2443C18.9944 10.5133 19.0548 10.8649 18.8298 11.1967" stroke="#5F3A29" stroke-width="0.5" stroke-linecap="round" stroke-linejoin="round"/>
<path d="M13.0153 11.9423L14.6692 13.2982C14.6692 13.2982 15.6336 13.9991 15.1559 14.8562" stroke="#5F3A29" stroke-width="0.5" stroke-linecap="round" stroke-linejoin="round"/>
<path d="M11.2817 13.2474L12.6883 14.4966C12.6883 14.4966 13.5292 15.1571 12.8814 15.8537" stroke="#5F3A29" stroke-width="0.5" stroke-linecap="round" stroke-linejoin="round"/>
<path d="M7.11682 15.414C7.11682 15.414 8.33342 16.3779 8.98786 14.3452" stroke="#EB9579" stroke-width="0.5" stroke-linecap="round"/>
<path d="M5.28918 14.525C5.28918 14.525 6.50578 15.4889 7.16023 13.4562" stroke="#EB9579" stroke-width="0.5" stroke-linecap="round"/>
<path d="M3.87476 13.2916C3.87476 13.2916 4.84888 14.0636 5.37304 12.4357" stroke="#EB9579" stroke-width="0.5" stroke-linecap="round"/>
<path d="M8.77979 16.13C8.77979 16.13 9.56693 17.0565 10.9814 15.8718" stroke="#EB9579" stroke-width="0.5" stroke-linecap="round"/>
<path d="M10.0735 14.3036C10.0735 14.3036 10.6954 14.7554 10.1863 15.7138" stroke="#EB9579" stroke-width="0.5" stroke-linecap="round"/>
</g>
<defs>
<clipPath id="clip0_1785_1684">
<rect width="23.5913" height="16.5655" fill="white"/>
</clipPath>
</defs>
</svg>
