<svg width="169" height="135" viewBox="0 0 169 135" fill="none" xmlns="http://www.w3.org/2000/svg">
<path d="M142.243 54.7146C143.695 50.486 144.436 46.0283 144.436 41.5801" stroke="#FFC449" stroke-width="4" stroke-linecap="round" stroke-linejoin="round"/>
<path d="M150.66 55.9555C153.386 50.9155 156.863 46.2574 160.953 42.1624" stroke="#FFC449" stroke-width="4" stroke-linecap="round" stroke-linejoin="round"/>
<path d="M155.204 63.4008C156.883 62.6849 158.563 61.9785 160.242 61.2626C162.316 60.3844 164.44 59.4871 166.702 59.2676" stroke="#FFC449" stroke-width="4" stroke-linecap="round" stroke-linejoin="round"/>
<path d="M70.3411 125.045L120.186 125.17C124.275 125.179 128.306 126.105 131.96 127.871L145.75 134.524C148.141 135.679 150.946 133.999 150.946 131.412V90.6722C150.946 71.7627 134.934 56.2991 115.375 56.2991H70.3411C50.7727 56.2991 34.7703 71.7722 34.7703 90.6722C34.7703 109.582 50.7826 125.045 70.3411 125.045Z" fill="#FF9C5D"/>
<path d="M80.6049 68.7464L30.7603 68.8704C26.6707 68.88 22.6405 69.8059 18.9856 71.5718L5.19586 78.225C2.80537 79.38 0 77.7 0 75.1132V34.3732C0 15.4636 16.0123 0 35.5709 0H80.6049C100.173 0 116.176 15.4732 116.176 34.3732C116.176 53.2827 100.163 68.7464 80.6049 68.7464Z" fill="#FFEADC"/>
<path d="M54.3296 36.1677C55.2581 35.6427 56.2657 35.5377 57.372 35.8336C60.1675 36.5877 62.5876 36.5591 64.6522 35.7477C66.7068 34.9364 68.1292 33.1991 68.8898 30.5455C69.4825 28.5027 69.2059 26.5937 68.07 24.8373C66.934 23.0809 65.2251 21.8877 62.9433 21.2673C60.6614 20.6468 58.3401 20.8473 56.1274 21.8782C54.8531 22.5082 53.6678 22.6705 52.5614 22.3746C51.7613 22.155 51.1094 21.7159 50.6155 21.0573C49.7462 19.9405 49.4795 18.8332 49.7956 17.7259C50.0722 16.7809 50.7142 16.0364 51.7415 15.4732C53.6974 14.3755 55.8311 13.6787 58.1228 13.3923C60.4145 13.1059 62.7259 13.2777 65.0572 13.9077C67.9317 14.6809 70.3715 16.0268 72.3768 17.9359C74.382 19.845 75.7551 22.0977 76.5157 24.7037C77.2664 27.3096 77.2565 29.9441 76.4959 32.5977C75.36 36.5209 73.2955 39.3177 70.3123 40.9787C67.3192 42.6396 63.8224 43.2409 59.802 42.7732C59.565 42.8018 59.4365 42.8686 59.397 42.9927L58.7451 45.2646C58.4389 46.3241 57.8166 47.1164 56.8979 47.6414C55.9694 48.1664 54.9618 48.2714 53.8555 47.9755C52.7491 47.6796 51.949 47.0782 51.4353 46.1618C50.9217 45.255 50.8229 44.2623 51.1291 43.2027L52.4725 38.5446C52.7787 37.485 53.3912 36.6927 54.3197 36.1677H54.3296ZM47.82 57.1582C47.3458 56.3468 47.2866 55.3446 47.6224 54.1609L47.9187 53.1205C48.2645 51.9368 48.8473 51.1159 49.6869 50.6577C50.5265 50.1996 51.5539 50.1327 52.7886 50.4668L53.6184 50.6864C54.8433 51.0205 55.6928 51.5932 56.1669 52.395C56.6411 53.2064 56.7003 54.2087 56.3645 55.3923L56.0681 56.4327C55.7224 57.6164 55.1297 58.4373 54.3 58.8955C53.4603 59.3536 52.4231 59.4109 51.1983 59.0864L50.3685 58.8668C49.1436 58.5327 48.2941 57.9696 47.82 57.1582Z" fill="#F55F24"/>
<path d="M71.1313 95.5978L81.2267 105.353L110.792 76.7837" stroke="white" stroke-width="8" stroke-linecap="round" stroke-linejoin="round"/>
</svg>
