<svg width="107" height="62" viewBox="0 0 107 62" fill="none" xmlns="http://www.w3.org/2000/svg">
<g clip-path="url(#clip0_1785_885)">
<path d="M97.6439 24.1292L28.3517 38.3756C26.006 38.8579 23.6555 37.4261 23.104 35.0919C22.5343 32.6693 24.0794 30.283 26.4938 29.7866L95.7859 15.5402C98.1316 15.058 100.492 16.4877 101.034 18.8239C101.601 21.2367 100.058 23.6328 97.6439 24.1292Z" fill="#FFC449"/>
<path d="M29.608 38.1173L28.8817 38.2666L27.1121 29.6594L28.5745 29.3588L30.3441 37.9659L29.6178 38.1152L29.608 38.1173Z" fill="#FFAF22"/>
<path d="M35.8462 25.918L33.6379 26.372C32.8085 26.5425 32.2746 27.3538 32.4453 28.184L34.3624 37.5085C34.5331 38.3387 35.3438 38.8735 36.1731 38.703L38.3814 38.249C39.2108 38.0785 39.7447 37.2672 39.574 36.437L37.6569 27.1125C37.4862 26.2823 36.6755 25.7474 35.8462 25.918Z" fill="#FFC449"/>
<path d="M41.5682 24.7415L39.3599 25.1955C38.5305 25.366 37.9966 26.1773 38.1673 27.0076L40.0844 36.332C40.2551 37.1623 41.0658 37.6971 41.8951 37.5266L44.1034 37.0726C44.9328 36.902 45.4667 36.0908 45.296 35.2605L43.3789 25.9361C43.2082 25.1058 42.3975 24.571 41.5682 24.7415Z" fill="#FFC449"/>
<path d="M39.7034 36.0212C39.5365 36.0555 39.3708 35.9462 39.3365 35.7792L37.7002 27.8205C37.6659 27.6535 37.775 27.4877 37.9418 27.4534C38.1087 27.4191 38.2744 27.5284 38.3087 27.6954L39.945 35.6541C39.9793 35.8211 39.8702 35.9869 39.7034 36.0212Z" fill="#FFAF22"/>
<path d="M34.0599 37.1815C33.893 37.2158 33.7273 37.1065 33.693 36.9395L32.0567 28.9808C32.0224 28.8138 32.1315 28.648 32.2983 28.6137C32.4652 28.5793 32.6309 28.6887 32.6652 28.8557L34.3015 36.8144C34.3358 36.9814 34.2267 37.1472 34.0599 37.1815Z" fill="#FFAF22"/>
<path d="M45.4155 34.8468C45.2487 34.8811 45.083 34.7718 45.0486 34.6048L43.4124 26.6461C43.378 26.479 43.4871 26.3132 43.654 26.2789C43.8208 26.2446 43.9865 26.3539 44.0209 26.521L45.6572 34.4797C45.6915 34.6467 45.5824 34.8125 45.4155 34.8468Z" fill="#FFAF22"/>
<path d="M13.7192 24.0257C15.5153 23.6564 17.3489 24.0168 18.8992 25.0396C20.4496 26.0624 21.5037 27.6071 21.8734 29.4052L24.7096 43.2002C25.0793 44.9983 24.7201 46.8336 23.699 48.3851C22.6779 49.9365 21.1352 50.9911 19.3391 51.3603C17.543 51.7296 15.7095 51.3693 14.1591 50.3465C12.6087 49.3237 11.5546 47.7789 11.1849 45.9809L8.34869 32.1858C7.979 30.3878 8.33821 28.5525 9.35931 27.001C10.3804 25.4495 11.9231 24.395 13.7192 24.0257ZM12.7132 19.1326C6.31396 20.4483 2.15162 26.7727 3.46874 33.1789L6.30497 46.9739C7.62411 53.39 13.9439 57.5593 20.353 56.2416C26.762 54.9239 30.9243 48.5995 29.6052 42.1835L26.769 28.3884C25.4498 21.9723 19.13 17.8031 12.721 19.1207L12.7132 19.1326Z" fill="#FFC449"/>
<path d="M95.0764 24.6776L76.3793 28.5217L77.4965 33.9552L96.1936 30.1111L95.0764 24.6776Z" fill="#FFC449"/>
<path d="M74.925 34.4838L83.5816 32.7041L84.5957 37.6365C84.6987 38.1376 84.3791 38.6232 83.8786 38.7261L76.7629 40.1891C76.2623 40.292 75.7771 39.9719 75.6741 39.4707L74.7145 34.8036C74.6842 34.6562 74.7777 34.5141 74.925 34.4838Z" fill="#FFC449"/>
<path d="M90.0986 31.3642L98.7356 29.5884C98.8926 29.5562 99.0464 29.6577 99.0788 29.8149L100.034 34.4623C100.137 34.9635 99.8177 35.449 99.3172 35.5519L92.2015 37.0149C91.7009 37.1178 91.2157 36.7977 91.1127 36.2966L90.0986 31.3642Z" fill="#FFC449"/>
<path d="M83.3945 33.3365L75.1109 35.0396C74.944 35.0739 74.7725 34.9863 74.7186 34.8233C74.6646 34.6603 74.7775 34.463 74.9541 34.4266L83.2378 32.7235C83.4046 32.6892 83.5761 32.7769 83.6301 32.9399C83.6841 33.1029 83.5712 33.3002 83.3945 33.3365Z" fill="#FFAF22"/>
<path d="M98.8233 30.1644L90.5495 31.8655C90.3826 31.8998 90.2111 31.8121 90.1572 31.6491C90.1032 31.4861 90.2161 31.2888 90.3927 31.2525L98.6666 29.5514C98.8334 29.5171 99.0049 29.6048 99.0589 29.7678C99.1128 29.9308 99 30.1281 98.8233 30.1644Z" fill="#FFAF22"/>
<path d="M94.8717 25.3239L76.8224 29.0348C76.6556 29.0691 76.4841 28.9814 76.4301 28.8184C76.3762 28.6554 76.489 28.4581 76.6657 28.4218L94.715 24.7109C94.8819 24.6766 95.0533 24.7642 95.1073 24.9272C95.1613 25.0902 95.0484 25.2875 94.8717 25.3239Z" fill="#FFAF22"/>
</g>
<defs>
<clipPath id="clip0_1785_885">
<rect width="100" height="42" fill="white" transform="translate(0 20.1386) rotate(-11.618)"/>
</clipPath>
</defs>
</svg>
