<svg height="1em" viewBox="0 0 37 37" fill="currentColor" xmlns="http://www.w3.org/2000/svg">
  <path d="M14.0951 17.6191C14.0951 18.5921 13.3062 19.381 12.3332 19.381C11.3602 19.381 10.5713 18.5921 10.5713 17.6191C10.5713 16.6461 11.3602 15.8572 12.3332 15.8572C13.3062 15.8572 14.0951 16.6461 14.0951 17.6191Z"/>
  <path d="M21.143 17.6191C21.143 18.5921 20.354 19.381 19.381 19.381C18.4081 19.381 17.6191 18.5921 17.6191 17.6191C17.6191 16.6461 18.4081 15.8572 19.381 15.8572C20.354 15.8572 21.143 16.6461 21.143 17.6191Z"/>
  <path d="M28.1908 17.6191C28.1908 18.5921 27.4019 19.381 26.4289 19.381C25.4559 19.381 24.667 18.5921 24.667 17.6191C24.667 16.6461 25.4559 15.8572 26.4289 15.8572C27.4019 15.8572 28.1908 16.6461 28.1908 17.6191Z"/>
  <path d="M0.043968 17.2115C0.668338 8.03613 8.13615 0.61059 17.3146 0.0370599L17.8149 0.0123742C28.2949 -0.36659 37 8.00706 37 18.5035C37 23.9849 34.6008 29.0736 30.5206 32.5675L31.5198 33.406C32.9184 34.5811 32.1733 36.8192 30.425 36.9897L30.2104 37L18.0956 36.9996C7.56548 36.775 -0.677273 27.8044 0.043968 17.2115ZM28.0204 30.066C31.4533 27.2323 33.4762 23.037 33.4762 18.5035C33.4762 9.86999 26.2044 3.01208 17.5344 3.55403C10.1215 4.01724 4.06395 10.0405 3.55969 17.4508C2.97529 26.0339 9.64705 33.2948 18.1332 33.4762H26.4779L26.3969 33.2749C26.1124 32.4365 26.3252 31.4658 27.0277 30.8352L27.2315 30.672C27.4954 30.4836 27.7592 30.2807 28.0204 30.066Z"/>
</svg>
