<svg width="27" height="28" viewBox="0 0 27 28" fill="none" xmlns="http://www.w3.org/2000/svg">
<path d="M13.1322 12.0687C13.3303 11.8525 13.6712 11.8525 13.8693 12.0687L25.566 24.8288C25.86 25.1495 25.6325 25.6666 25.1975 25.6666H1.80404C1.36899 25.6666 1.14149 25.1495 1.43547 24.8288L13.1322 12.0687Z" fill="#C1E9DF"/>
<path d="M13.8681 15.9313C13.6699 16.1475 13.3291 16.1475 13.1309 15.9313L1.43419 3.17124C1.14022 2.85054 1.36772 2.33337 1.80277 2.33337L25.1962 2.33338C25.6313 2.33338 25.8588 2.85054 25.5648 3.17124L13.8681 15.9313Z" fill="#C1E9DF"/>
<rect x="0.666748" width="25.6667" height="4.66667" rx="2.33333" fill="currentColor"/>
<rect x="0.666748" y="23.3334" width="25.6667" height="4.66667" rx="2.33333" fill="currentColor"/>
</svg>
