<svg width="35" height="35" viewBox="0 0 35 35" fill="none" xmlns="http://www.w3.org/2000/svg">
<path fill-rule="evenodd" clip-rule="evenodd" d="M33.4445 31.4184L26.5432 34.3171L26.4266 34.362L26.3189 34.3261L17.7125 31.7325L17.5958 31.6966L17.4881 31.7325L8.87273 34.3261L8.75606 34.362L8.64837 34.3171L1.74709 31.4184C1.10991 31.1941 0.759907 30.512 0.948369 29.8748L1.28939 28.7082L1.54068 27.8556L4.60093 17.4902C4.80734 16.7992 5.55222 16.4133 6.23427 16.6556L9.95863 17.9748L10.0663 18.0107L10.183 17.9658L17.4881 15.3812L17.5958 15.3453L17.7125 15.3902L25.0086 17.9658L25.1253 18.0107L25.233 17.9748L28.9573 16.6556C29.6394 16.4133 30.3843 16.7992 30.5907 17.4902L33.642 27.8556L33.8932 28.7082L34.2343 29.8748C34.4227 30.512 34.0727 31.1941 33.4445 31.4184Z" fill="#FF965D"/>
<path fill-rule="evenodd" clip-rule="evenodd" d="M10.0664 18.0108L9.95869 17.9749L8.96254 30.4304L8.88177 31.3557L8.64844 34.3172L8.75613 34.3621L8.8728 34.3262L9.10613 31.3736L9.1869 30.4134L10.1831 17.9659L10.0664 18.0108Z" fill="#E36838"/>
<path fill-rule="evenodd" clip-rule="evenodd" d="M26.0047 30.413L26.0765 31.3733L26.3188 34.3267L26.4274 34.3617L26.5432 34.3178L26.3009 31.3553L26.2291 30.431L25.2338 17.9746L25.1261 18.0104L25.0085 17.9656L26.0047 30.413Z" fill="#E36838"/>
<path fill-rule="evenodd" clip-rule="evenodd" d="M17.4884 15.381V31.7323L17.5961 31.6964L17.7128 31.7323V15.3909L17.5961 15.3451L17.4884 15.381Z" fill="#E36838"/>
<path fill-rule="evenodd" clip-rule="evenodd" d="M33.8932 28.7081L26.3008 31.3556C26.2291 31.3735 26.1483 31.3915 26.0765 31.3735C26.0585 31.3735 26.0406 31.3646 26.0226 31.3646L17.7124 28.7799L17.5957 28.744L17.488 28.7799L9.16879 31.3646C9.15085 31.3646 9.12392 31.3735 9.10597 31.3735C9.07905 31.3825 9.0611 31.3825 9.03418 31.3825C8.98033 31.3825 8.93546 31.3735 8.88161 31.3556L1.28931 28.7081L1.54059 27.8556C1.54956 27.8466 1.55854 27.8556 1.56751 27.8556L8.96238 30.4312L9.04315 30.4581L9.18674 30.4133L17.4611 27.8466H17.488C17.5598 27.8197 17.6406 27.8197 17.7124 27.8466H17.7303L26.0047 30.4133L26.1483 30.4581L26.2291 30.4312L33.6149 27.8556C33.6239 27.8556 33.6329 27.8466 33.6419 27.8556L33.8932 28.7081Z" fill="#FFFAF8"/>
<path fill-rule="evenodd" clip-rule="evenodd" d="M17.5054 15.2564C15.2717 15.2564 13.4615 13.4462 13.4615 11.2234C13.4615 8.98976 15.2717 7.17951 17.5054 7.17951C19.7282 7.17951 21.5384 8.98976 21.5384 11.2234C21.5384 13.4462 19.7282 15.2564 17.5054 15.2564ZM21.3919 1.60897C20.1657 1.14338 18.8471 0.897461 17.5054 0.897461C16.1528 0.897461 14.8451 1.14338 13.6066 1.60897C8.89443 3.37047 6.4297 7.97801 7.38164 12.7955C7.77138 14.7325 8.80345 16.541 10.3054 18.0925L15.4413 23.3645C16.5765 24.5195 18.4234 24.5195 19.5573 23.3645L24.6945 18.0925C26.1965 16.541 27.2408 14.7325 27.6183 12.7955C28.5702 7.97801 26.1055 3.37047 21.3919 1.60897Z" fill="#E36838"/>
<path fill-rule="evenodd" clip-rule="evenodd" d="M11.5328 20.6268C11.1747 20.6268 10.8831 20.9176 10.8831 21.2766C10.8831 21.6346 11.1747 21.9254 11.5328 21.9254C11.8909 21.9254 12.1825 21.6346 12.1825 21.2766C12.1825 20.9176 11.8909 20.6268 11.5328 20.6268ZM11.5328 22.1498C11.0509 22.1498 10.6587 21.7585 10.6587 21.2766C10.6587 20.7946 11.0509 20.4025 11.5328 20.4025C12.0147 20.4025 12.4069 20.7946 12.4069 21.2766C12.4069 21.7585 12.0147 22.1498 11.5328 22.1498Z" fill="#E36838"/>
<path fill-rule="evenodd" clip-rule="evenodd" d="M28.1652 27.9403C28.1364 27.9403 28.1077 27.9296 28.0853 27.908C28.0422 27.8641 28.0422 27.7923 28.0853 27.7483L29.5652 26.2693C29.6082 26.2253 29.68 26.2253 29.724 26.2693C29.7671 26.3133 29.7671 26.3851 29.724 26.4282L28.245 27.908C28.2226 27.9296 28.1939 27.9403 28.1652 27.9403Z" fill="#E36838"/>
<path fill-rule="evenodd" clip-rule="evenodd" d="M29.6444 27.9403C29.6157 27.9403 29.5869 27.9296 29.5645 27.908L28.0855 26.4282C28.0425 26.3851 28.0425 26.3133 28.0855 26.2693C28.1295 26.2253 28.2013 26.2253 28.2444 26.2693L29.7242 27.7483C29.7673 27.7923 29.7673 27.8641 29.7242 27.908C29.7018 27.9296 29.6731 27.9403 29.6444 27.9403Z" fill="#E36838"/>
</svg>
