<svg width="21" height="21" viewBox="0 0 21 21" fill="none" xmlns="http://www.w3.org/2000/svg">
  <path fill-rule="evenodd" clip-rule="evenodd" d="M20.0673 18.851L15.9265 20.5902L15.8565 20.6172L15.7919 20.5956L10.6281 19.0395L10.5581 19.0179L10.4935 19.0395L5.32422 20.5956L5.25422 20.6172L5.18961 20.5902L1.04884 18.851C0.66653 18.7164 0.45653 18.3072 0.569607 17.9248L0.774223 17.2248L0.924992 16.7133L2.76115 10.4941C2.88499 10.0795 3.33192 9.84792 3.74115 9.99331L5.97576 10.7848L6.04038 10.8064L6.11038 10.7795L10.4935 9.22869L10.5581 9.20715L10.6281 9.23408L15.0058 10.7795L15.0758 10.8064L15.1404 10.7848L17.375 9.99331C17.7842 9.84792 18.2311 10.0795 18.355 10.4941L20.1858 16.7133L20.3365 17.2248L20.5411 17.9248C20.6542 18.3072 20.4442 18.7164 20.0673 18.851Z" fill="#FF965D"/>
  <path fill-rule="evenodd" clip-rule="evenodd" d="M6.04022 10.8065L5.97561 10.785L5.37791 18.2583L5.32945 18.8134L5.18945 20.5903L5.25407 20.6173L5.32407 20.5957L5.46407 18.8242L5.51253 18.248L6.11022 10.7796L6.04022 10.8065Z" fill="#E36838"/>
  <path fill-rule="evenodd" clip-rule="evenodd" d="M15.6036 18.2478L15.6466 18.8239L15.792 20.596L15.8572 20.617L15.9266 20.5906L15.7812 18.8131L15.7382 18.2585L15.141 10.7847L15.0764 10.8062L15.0059 10.7793L15.6036 18.2478Z" fill="#E36838"/>
  <path fill-rule="evenodd" clip-rule="evenodd" d="M10.4929 9.22857V19.0393L10.5576 19.0178L10.6276 19.0393V9.23449L10.5576 9.20703L10.4929 9.22857Z" fill="#E36838"/>
  <path fill-rule="evenodd" clip-rule="evenodd" d="M20.3357 17.2248L15.7804 18.8133C15.7373 18.8241 15.6888 18.8348 15.6457 18.8241C15.635 18.8241 15.6242 18.8187 15.6134 18.8187L10.6273 17.2679L10.5573 17.2464L10.4927 17.2679L5.50113 18.8187C5.49036 18.8187 5.47421 18.8241 5.46344 18.8241C5.44728 18.8295 5.43651 18.8295 5.42036 18.8295C5.38805 18.8295 5.36113 18.8241 5.32882 18.8133L0.773438 17.2248L0.924207 16.7133C0.929591 16.7079 0.934976 16.7133 0.940361 16.7133L5.37728 18.2587L5.42575 18.2748L5.5119 18.2479L10.4765 16.7079H10.4927C10.5357 16.6918 10.5842 16.6918 10.6273 16.7079H10.6381L15.6027 18.2479L15.6888 18.2748L15.7373 18.2587L20.1688 16.7133C20.1742 16.7133 20.1796 16.7079 20.185 16.7133L20.3357 17.2248Z" fill="#FFFAF8"/>
  <path fill-rule="evenodd" clip-rule="evenodd" d="M10.5042 9.15384C9.16398 9.15384 8.07783 8.06769 8.07783 6.73402C8.07783 5.39383 9.16398 4.30768 10.5042 4.30768C11.8378 4.30768 12.924 5.39383 12.924 6.73402C12.924 8.06769 11.8378 9.15384 10.5042 9.15384ZM12.8361 0.965357C12.1003 0.686004 11.3092 0.538452 10.5042 0.538452C9.69263 0.538452 8.90799 0.686004 8.1649 0.965357C5.33759 2.02226 3.85875 4.78678 4.42991 7.6773C4.66376 8.83948 5.283 9.92456 6.18415 10.8555L9.26568 14.0187C9.94685 14.7117 11.055 14.7117 11.7353 14.0187L14.8177 10.8555C15.7188 9.92456 16.3454 8.83948 16.5719 7.6773C17.1431 4.78678 15.6642 2.02226 12.8361 0.965357Z" fill="#E36838"/>
  <path fill-rule="evenodd" clip-rule="evenodd" d="M6.92095 12.376C6.7061 12.376 6.5311 12.5505 6.5311 12.7659C6.5311 12.9807 6.7061 13.1552 6.92095 13.1552C7.13579 13.1552 7.31079 12.9807 7.31079 12.7659C7.31079 12.5505 7.13579 12.376 6.92095 12.376ZM6.92095 13.2898C6.63179 13.2898 6.39648 13.055 6.39648 12.7659C6.39648 12.4767 6.63179 12.2414 6.92095 12.2414C7.2101 12.2414 7.44541 12.4767 7.44541 12.7659C7.44541 13.055 7.2101 13.2898 6.92095 13.2898Z" fill="#E36838"/>
  <path fill-rule="evenodd" clip-rule="evenodd" d="M16.8993 16.7642C16.8821 16.7642 16.8649 16.7577 16.8514 16.7448C16.8256 16.7184 16.8256 16.6753 16.8514 16.649L17.7393 15.7616C17.7652 15.7352 17.8083 15.7352 17.8346 15.7616C17.8605 15.788 17.8605 15.831 17.8346 15.8569L16.9473 16.7448C16.9338 16.7577 16.9166 16.7642 16.8993 16.7642Z" fill="#E36838"/>
  <path fill-rule="evenodd" clip-rule="evenodd" d="M17.7867 16.7642C17.7695 16.7642 17.7523 16.7577 17.7388 16.7448L16.8514 15.8569C16.8256 15.831 16.8256 15.788 16.8514 15.7616C16.8778 15.7352 16.9209 15.7352 16.9467 15.7616L17.8346 16.649C17.8605 16.6753 17.8605 16.7184 17.8346 16.7448C17.8212 16.7577 17.804 16.7642 17.7867 16.7642Z" fill="#E36838"/>
</svg>
