<svg width="24" height="23" viewBox="0 0 24 23" fill="none" xmlns="http://www.w3.org/2000/svg">
  <mask id="mask0_2298_17292" style="mask-type:alpha" maskUnits="userSpaceOnUse" x="0" y="0" width="24" height="23">
    <rect width="24" height="23" fill="#D9D9D9"/>
  </mask>
  <g mask="url(#mask0_2298_17292)">
    <path d="M3.43945 8.69824H20.5614V16.5613C20.5614 17.6658 19.666 18.5613 18.5614 18.5613H5.43945C4.33488 18.5613 3.43945 17.6658 3.43945 16.5613V8.69824Z" fill="#FFE4D5"/>
    <path d="M3.43945 6.97266C3.43945 5.86809 4.33488 4.97266 5.43945 4.97266H18.5614C19.666 4.97266 20.5614 5.86809 20.5614 6.97266V8.69868H3.43945V6.97266Z" fill="#F55F24"/>
    <path d="M17.707 15.5547C17.707 15.2785 17.9309 15.0547 18.207 15.0547H18.9631C19.2393 15.0547 19.4631 15.2785 19.4631 15.5547V16.3081C19.4631 16.5843 19.2393 16.8081 18.9631 16.8081H18.207C17.9309 16.8081 17.707 16.5843 17.707 16.3081V15.5547Z" fill="white"/>
    <path d="M15.0732 15.5547C15.0732 15.2785 15.2971 15.0547 15.5732 15.0547H16.3293C16.6055 15.0547 16.8293 15.2785 16.8293 15.5547V16.3081C16.8293 16.5843 16.6055 16.8081 16.3293 16.8081H15.5732C15.2971 16.8081 15.0732 16.5843 15.0732 16.3081V15.5547Z" fill="white"/>
    <path d="M12.4395 15.5547C12.4395 15.2785 12.6633 15.0547 12.9395 15.0547H13.6956C13.9717 15.0547 14.1956 15.2785 14.1956 15.5547V16.3081C14.1956 16.5843 13.9717 16.8081 13.6956 16.8081H12.9395C12.6633 16.8081 12.4395 16.5843 12.4395 16.3081V15.5547Z" fill="white"/>
    <path d="M9.80469 15.5547C9.80469 15.2785 10.0285 15.0547 10.3047 15.0547H11.0608C11.3369 15.0547 11.5608 15.2785 11.5608 15.5547V16.3081C11.5608 16.5843 11.3369 16.8081 11.0608 16.8081H10.3047C10.0285 16.8081 9.80469 16.5843 9.80469 16.3081V15.5547Z" fill="white"/>
    <path d="M7.1709 15.5547C7.1709 15.2785 7.39476 15.0547 7.6709 15.0547H8.427C8.70314 15.0547 8.927 15.2785 8.927 15.5547V16.3081C8.927 16.5843 8.70314 16.8081 8.427 16.8081H7.6709C7.39476 16.8081 7.1709 16.5843 7.1709 16.3081V15.5547Z" fill="white"/>
    <path d="M4.53613 15.5547C4.53613 15.2785 4.75999 15.0547 5.03613 15.0547H5.79223C6.06837 15.0547 6.29223 15.2785 6.29223 15.5547V16.3081C6.29223 16.5843 6.06837 16.8081 5.79223 16.8081H5.03613C4.75999 16.8081 4.53613 16.5843 4.53613 16.3081V15.5547Z" fill="white"/>
    <path d="M17.707 12.9248C17.707 12.6487 17.9309 12.4248 18.207 12.4248H18.9631C19.2393 12.4248 19.4631 12.6487 19.4631 12.9248V13.6782C19.4631 13.9544 19.2393 14.1782 18.9631 14.1782H18.207C17.9309 14.1782 17.707 13.9544 17.707 13.6782V12.9248Z" fill="white"/>
    <path d="M15.0732 12.9248C15.0732 12.6487 15.2971 12.4248 15.5732 12.4248H16.3293C16.6055 12.4248 16.8293 12.6487 16.8293 12.9248V13.6782C16.8293 13.9544 16.6055 14.1782 16.3293 14.1782H15.5732C15.2971 14.1782 15.0732 13.9544 15.0732 13.6782V12.9248Z" fill="white"/>
    <path d="M12.4395 12.9248C12.4395 12.6487 12.6633 12.4248 12.9395 12.4248H13.6956C13.9717 12.4248 14.1956 12.6487 14.1956 12.9248V13.6782C14.1956 13.9544 13.9717 14.1782 13.6956 14.1782H12.9395C12.6633 14.1782 12.4395 13.9544 12.4395 13.6782V12.9248Z" fill="white"/>
    <path d="M9.80469 12.9248C9.80469 12.6487 10.0285 12.4248 10.3047 12.4248H11.0608C11.3369 12.4248 11.5608 12.6487 11.5608 12.9248V13.6782C11.5608 13.9544 11.3369 14.1782 11.0608 14.1782H10.3047C10.0285 14.1782 9.80469 13.9544 9.80469 13.6782V12.9248Z" fill="white"/>
    <path d="M7.1709 12.9248C7.1709 12.6487 7.39476 12.4248 7.6709 12.4248H8.427C8.70314 12.4248 8.927 12.6487 8.927 12.9248V13.6782C8.927 13.9544 8.70314 14.1782 8.427 14.1782H7.6709C7.39476 14.1782 7.1709 13.9544 7.1709 13.6782V12.9248Z" fill="#FFE4D5"/>
    <path d="M4.53613 12.9248C4.53613 12.6487 4.75999 12.4248 5.03613 12.4248H5.79223C6.06837 12.4248 6.29223 12.6487 6.29223 12.9248V13.6782C6.29223 13.9544 6.06837 14.1782 5.79223 14.1782H5.03613C4.75999 14.1782 4.53613 13.9544 4.53613 13.6782V12.9248Z" fill="white"/>
    <path d="M17.707 10.2949C17.707 10.0188 17.9309 9.79492 18.207 9.79492H18.9631C19.2393 9.79492 19.4631 10.0188 19.4631 10.2949V11.0483C19.4631 11.3245 19.2393 11.5483 18.9631 11.5483H18.207C17.9309 11.5483 17.707 11.3245 17.707 11.0483V10.2949Z" fill="white"/>
    <path d="M15.0732 10.2949C15.0732 10.0188 15.2971 9.79492 15.5732 9.79492H16.3293C16.6055 9.79492 16.8293 10.0188 16.8293 10.2949V11.0483C16.8293 11.3245 16.6055 11.5483 16.3293 11.5483H15.5732C15.2971 11.5483 15.0732 11.3245 15.0732 11.0483V10.2949Z" fill="white"/>
    <path d="M12.4395 10.2949C12.4395 10.0188 12.6633 9.79492 12.9395 9.79492H13.6956C13.9717 9.79492 14.1956 10.0188 14.1956 10.2949V11.0483C14.1956 11.3245 13.9717 11.5483 13.6956 11.5483H12.9395C12.6633 11.5483 12.4395 11.3245 12.4395 11.0483V10.2949Z" fill="white"/>
    <path d="M9.80469 10.2949C9.80469 10.0188 10.0285 9.79492 10.3047 9.79492H11.0608C11.3369 9.79492 11.5608 10.0188 11.5608 10.2949V11.0483C11.5608 11.3245 11.3369 11.5483 11.0608 11.5483H10.3047C10.0285 11.5483 9.80469 11.3245 9.80469 11.0483V10.2949Z" fill="white"/>
    <path d="M7.1709 10.2949C7.1709 10.0188 7.39476 9.79492 7.6709 9.79492H8.427C8.70314 9.79492 8.927 10.0188 8.927 10.2949V11.0483C8.927 11.3245 8.70314 11.5483 8.427 11.5483H7.6709C7.39476 11.5483 7.1709 11.3245 7.1709 11.0483V10.2949Z" fill="white"/>
    <path d="M4.53613 10.2949C4.53613 10.0188 4.75999 9.79492 5.03613 9.79492H5.79223C6.06837 9.79492 6.29223 10.0188 6.29223 10.2949V11.0483C6.29223 11.3245 6.06837 11.5483 5.79223 11.5483H5.03613C4.75999 11.5483 4.53613 11.3245 4.53613 11.0483V10.2949Z" fill="white"/>
    <path fill-rule="evenodd" clip-rule="evenodd" d="M8.19758 14.145C8.07886 14.1071 7.94869 14.13 7.85012 14.2062C7.60203 14.3978 7.24087 14.2224 7.23941 13.9088C7.23882 13.7842 7.1769 13.6679 7.07385 13.5978C6.81448 13.4213 6.87068 13.024 7.16852 12.9258C7.2868 12.8868 7.37847 12.7921 7.4134 12.6725C7.50142 12.3713 7.89674 12.3017 8.08263 12.5547C8.1564 12.6551 8.27499 12.7128 8.39949 12.7091C8.71299 12.6996 8.90191 13.0538 8.71862 13.3082C8.6458 13.4092 8.62747 13.5397 8.6696 13.657C8.77562 13.9521 8.49636 14.2404 8.19758 14.145Z" fill="#C4ECE2" stroke="#1E7F51" stroke-width="0.5"/>
    <path d="M6.75038 4.19922V5.73345" stroke="#FF9C5D" stroke-linecap="round"/>
    <path d="M17.0678 4.19922V5.73345" stroke="#FF9C5D" stroke-linecap="round"/>
    <path fill-rule="evenodd" clip-rule="evenodd" d="M13.3176 16.7007C13.2379 16.6455 13.1357 16.633 13.045 16.6673C12.8165 16.7536 12.5876 16.5408 12.658 16.3071C12.686 16.2142 12.6664 16.1134 12.6057 16.0378C12.4528 15.8475 12.5852 15.5644 12.8294 15.559C12.9263 15.5569 13.0162 15.5072 13.0694 15.4261C13.2036 15.2219 13.5138 15.2599 13.5946 15.4905C13.6266 15.582 13.7017 15.652 13.7953 15.6775C14.0309 15.7417 14.0908 16.0483 13.8963 16.1961C13.8191 16.2548 13.7757 16.3478 13.7803 16.4446C13.792 16.6885 13.5183 16.8396 13.3176 16.7007Z" fill="#C4ECE2" stroke="#1E7F51" stroke-width="0.5"/>
    <path d="M16.1237 10.7433C16.0231 10.7842 15.94 10.859 15.8888 10.9546C15.8188 10.8716 15.7218 10.8156 15.6148 10.7966C15.6721 10.7046 15.6954 10.5953 15.6806 10.4879C15.786 10.5139 15.8974 10.5022 15.9951 10.4548C16.0029 10.563 16.0484 10.6652 16.1237 10.7433Z" stroke="#1E7F51" stroke-width="0.5"/>
    <path d="M14.5898 17.8155C14.5898 17.8155 15.8478 17.8155 16.1709 16.6581C16.4941 15.5006 16.9184 14.2454 17.8363 14.2454C18.7543 14.2454 18.8805 14.7977 18.7736 15.1114C18.6666 15.4251 17.9818 15.7837 17.2004 15.2981C16.419 14.8125 16.173 13.3534 17.0047 12.5173C17.8363 11.6813 18.3414 11.9615 19.0476 11.6813C19.7538 11.4011 19.8087 10.4062 19.8087 10.4062" stroke="#F25F24" stroke-width="0.5" stroke-linecap="round" stroke-linejoin="round"/>
    <ellipse cx="4.75751" cy="12.5057" rx="0.515318" ry="0.514534" fill="#FF9C5D"/>
  </g>
</svg>
