<svg width="17" height="17" viewBox="0 0 17 17" fill="none" xmlns="http://www.w3.org/2000/svg">
<path d="M8.13261 7.40208C8.33078 7.1859 8.6716 7.1859 8.86976 7.40208L15.4331 14.5621C15.7271 14.8828 15.4996 15.4 15.0646 15.4H1.93781C1.50275 15.4 1.27525 14.8828 1.56923 14.5621L8.13261 7.40208Z" fill="#C1E9DF"/>
<path d="M8.86934 9.39796C8.67117 9.61415 8.33036 9.61415 8.13219 9.39796L1.56881 2.23791C1.27483 1.91721 1.50233 1.40005 1.93738 1.40005L15.0641 1.40005C15.4992 1.40005 15.7267 1.91721 15.4327 2.23791L8.86934 9.39796Z" fill="#C1E9DF"/>
<rect x="0.800781" width="15.4" height="2.8" rx="1.4" fill="#F55F24"/>
<rect x="0.800781" y="14" width="15.4" height="2.8" rx="1.4" fill="#F55F24"/>
</svg>
