<svg fill="currentColor" width="10" height="8" viewBox="0 0 10 8" xmlns="http://www.w3.org/2000/svg">
  <path d="M7.268 7.973C6.68733 7.973 6.22367 7.752 5.877 7.31C5.53033 6.85933 5.357 6.31767 5.357 5.685C5.357 4.62767 5.59533 3.683 6.072 2.851C6.55733 2.01033 7.255 1.27367 8.165 0.640998L8.685 1.408C8.19967 1.78067 7.80533 2.175 7.502 2.591C7.20733 3.007 7.06 3.371 7.06 3.683C7.06 3.97767 7.15967 4.203 7.359 4.359C7.55833 4.515 7.788 4.658 8.048 4.788C8.31667 4.918 8.55067 5.087 8.75 5.295C8.94933 5.503 9.049 5.80633 9.049 6.205C9.049 6.70767 8.88 7.128 8.542 7.466C8.204 7.804 7.77933 7.973 7.268 7.973ZM2.224 7.973C1.652 7.973 1.19267 7.752 0.846 7.31C0.499333 6.85933 0.326 6.31767 0.326 5.685C0.326 4.62767 0.564333 3.683 1.041 2.851C1.51767 2.01033 2.211 1.27367 3.121 0.640998L3.641 1.408C3.15567 1.78067 2.76133 2.175 2.458 2.591C2.15467 3.007 2.003 3.371 2.003 3.683C2.003 3.97767 2.10267 4.203 2.302 4.359C2.51 4.515 2.744 4.658 3.004 4.788C3.264 4.918 3.49367 5.087 3.693 5.295C3.901 5.503 4.005 5.80633 4.005 6.205C4.005 6.70767 3.836 7.128 3.498 7.466C3.16 7.804 2.73533 7.973 2.224 7.973Z" fill="currentColor"/>
</svg>
