<?xml version="1.0" encoding="UTF-8"?>
<svg id="Calque_1" xmlns="http://www.w3.org/2000/svg" xmlns:xlink="http://www.w3.org/1999/xlink" version="1.1" viewBox="0 0 381.3 381.3">
  <!-- Generator: Adobe Illustrator 29.8.5, SVG Export Plug-In . SVG Version: 2.1.1 Build 2)  -->
  <defs>
    <style>
      .st0 {
        fill: #267d8c;
      }

      .st1 {
        fill: #8acdd9;
      }

      .st2, .st3 {
        fill: #caf5ff;
      }

      .st4 {
        stroke: #fff;
        stroke-miterlimit: 10;
        stroke-width: .8px;
      }

      .st4, .st5 {
        fill: #fff;
      }

      .st6, .st7 {
        fill: #ffc449;
      }

      .st8 {
        fill: #47a8b8;
      }

      .st9 {
        fill: #c3f2fe;
      }

      .st10 {
        font-family: Poppins-BoldItalic, Poppins;
        font-size: 17.9px;
        font-style: italic;
        font-weight: 700;
      }

      .st10, .st11 {
        fill: #47a8b9;
      }

      .st12 {
        fill: #8bcdd9;
      }

      .st13 {
        fill: #ecf8fb;
      }

      .st3 {
        display: none;
      }

      .st14 {
        fill: #70c3d2;
      }

      .st15 {
        fill: #0f757f;
      }

      .st16 {
        fill: #9feafe;
      }

      .st7 {
        stroke: #ffc449;
        stroke-linecap: round;
        stroke-linejoin: round;
        stroke-width: .5px;
      }
    </style>
  </defs>
  <image width="1645" height="930" transform="translate(549.9 -341.4) scale(1.7)" xlink:href="../../../../../../COMM - Interne/3. Kit photos et vidéos/2. Entourage Pro/1. Photos/2. Par thème/entourageppro.fr/image.png"/>
  <g>
    <g>
      <path class="st11" d="M324.2,932h-139.2c-3.7,0-7.3,1.6-9.8,4.3l-63.3,68.7c-4.7,5.1-4.7,12.8-.1,17.9l132.9,148.6c5.3,5.9,14.6,5.9,19.9,0l132.9-148.6c4.6-5.1,4.5-12.9-.1-17.9l-63.3-68.7c-2.5-2.7-6.1-4.3-9.8-4.3Z"/>
      <path class="st0" d="M324.2,932c3.7,0,7.3,1.6,9.8,4.3l63.3,68.7c4.7,5.1,4.7,12.8.1,17.9l-132.9,148.6c-2.7,3-6.3,4.4-9.9,4.4s-7.3-1.5-9.9-4.4l-132.9-148.6c-4.6-5.1-4.5-12.9.1-17.9l63.3-68.7c2.5-2.7,6.1-4.3,9.8-4.3h139.2M324.2,923h-139.2c-6.2,0-12.2,2.6-16.4,7.2l-63.3,68.7c-7.8,8.5-7.9,21.4-.2,30l132.9,148.6c4.2,4.7,10.3,7.4,16.7,7.4s12.4-2.7,16.7-7.4l132.9-148.6c7.7-8.6,7.6-21.5-.2-30l-63.3-68.7c-4.2-4.6-10.2-7.2-16.4-7.2h0Z"/>
    </g>
    <path class="st15" d="M201.3,1103.8l48.1,71.1c7.7,2.9,13.6-.4,18.4-6.9l108.7-121.5-33.7-46.9-141.4,104.2Z"/>
    <g>
      <g>
        <path class="st8" d="M304.3,1103.7c-1,0-1.9-.2-3.1-.6-.1,0-.3-.1-.4-.2l-43.7-24.9c-.3-.2-.7-.3-1.3-.3h-.5s-44.9,25.3-44.9,25.3c0,0,0,0-.2,0-.7.3-1.6.5-2.6.5s-2.7,0-4.2-1.1c-.2-.1-.5-.4-.8-.9-.3-.2-.6-.4-.8-.8-1-1.4-1.6-3.2-1.5-4.8,0-.1,0-.3,0-.4l10.2-49.7c.2-.7.1-1.5-1-2.7-5.5-5.7-12-11.3-18.2-16.6-5.7-4.8-11.5-9.9-16.7-15.1,0,0,0,0,0,0-.3-.3-.6-.6-.9-.9-1.3-1.2-2.8-2.7-3.1-5.4,0-.3,0-.6,0-1,0-.9.2-1.3.4-1.8v-.2c1.2-3.3,3.6-4.3,5.9-4.8,0,0,.2,0,.3,0,6.8-.8,13.7-1.5,20.3-2.2,8.2-.8,16.6-1.7,24.9-2.7.8-.1,1.5-.2,2.2-.2,3-.3,3.4-.3,4.8-3.1,3.7-7.3,7-15.1,10.3-22.7,3-7.1,6.2-14.5,9.7-21.5,1.3-2.7,3.6-4.3,6.6-4.3s5.4,2.1,6.6,4.2c4.1,7.3,7.5,15.5,10.7,23.5,3,7.2,6,14.7,9.6,21.4q1.1,2,3.8,2.4h.4c8.3,1.3,16.8,2.1,25.1,2.8,7.6.7,15.4,1.4,23,2.5,0,0,.2,0,.3,0,2.8.7,4.1,1.7,5.3,4.2.4.5.7,1.1.7,1.7v2.6c0,.5-.1.9-.4,1.3-1.1,1.7-2.4,3.1-3.7,4.3l-.2.2c-6.1,5.9-12.6,11.6-18.9,17.2-5.3,4.7-10.9,9.6-16.1,14.5-1.1,1.2-.9,2.2-.9,2.5l10.3,49.7c0,.2,0,.3,0,.5,0,2.2-.7,3.9-2.4,5.5-1.4,1.4-3,2.1-4.7,2.1h0Z"/>
        <path class="st2" d="M255.8,943.1c2.3,0,3.3,1,4.4,2.9,7.7,13.8,12.8,30.8,20.3,44.8,1.7,3.2,2.5,3.2,6,3.7,15.9,2.3,32.2,3.1,48.1,5.3,2.2.6,2.9,1.2,3.8,3.2,0,.1.2.2.3.3v2.6c-.9,1.6-2.3,2.8-3.6,4.1-11.3,10.9-23.6,20.9-35,31.7-1.2,1.3-1.9,2.9-1.5,4.8l10.2,49.7c0,1.6-.5,2.6-1.6,3.7-1,1-1.9,1.4-3,1.4s-1.4-.2-2.3-.5l-43.7-24.9c-.8-.4-1.6-.6-2.5-.6-.2,0-.4,0-.6,0s-.5,0-.8,0l-45.4,25.6c-.4.2-.9.3-1.5.3-1,0-2.2-.2-2.7-.6-.3-.2-.2-.6-.2-.7-.2-.1-.7-.2-.9-.4-.7-.9-1.1-2.1-1.1-3.3l10.2-49.7c.4-2-.4-3.6-1.7-4.9-10.5-11-24.1-20.8-35-31.7-1.4-1.6-3.2-2.5-3.4-4.9,0-.2,0-.4,0-.6,0-.6.1-.8.3-1.3.7-2.1,2-2.7,4.1-3.2,15.1-1.8,30.2-3,45.3-4.9,5-.7,6.5,0,8.9-4.7,7.2-14.2,12.8-29.8,20-44.2.9-1.9,2.3-2.9,4.4-2.9M255.8,938.1c-3.9,0-7.2,2.1-8.9,5.7-3.5,7-6.6,14.4-9.7,21.5-3.2,7.5-6.5,15.3-10.2,22.5-.5,1-.8,1.4-.9,1.5-.4,0-1.2.2-1.9.2-.7,0-1.4.1-2.3.3-8.2,1.1-16.7,1.9-24.8,2.7-6.7.7-13.6,1.4-20.4,2.2-.2,0-.3,0-.5,0-2.7.6-6.1,1.9-7.7,6.4v.2c-.3.6-.5,1.4-.6,2.5,0,.5,0,1,0,1.4.4,3.6,2.5,5.6,3.8,6.9.3.3.6.6.8.8,0,0,.1.1.2.2,5.3,5.3,11.2,10.3,16.9,15.2,6.2,5.3,12.6,10.8,18,16.4.2.2.3.4.4.5l-10.2,49.7c0,.3,0,.5,0,.8,0,2.2.6,4.6,2,6.4.3.4.7.8,1,1,.4.5.9.9,1.2,1.1,2,1.4,4.6,1.6,5.6,1.6s2.6-.3,3.7-.8c.1,0,.2-.1.3-.2l44.3-25s0,0,0,0l43.6,24.8c.2.1.5.3.8.4,1.5.5,2.7.8,4,.8,2.4,0,4.5-.9,6.4-2.8,2.2-2.1,3.2-4.4,3.1-7.3,0-.3,0-.6-.1-1l-10.2-49.7s0,0,0,0c0,0,0-.1.2-.2,5.2-4.9,10.6-9.7,15.9-14.4,6.3-5.6,12.8-11.3,19-17.3l.2-.2c1.4-1.3,2.9-2.8,4.1-4.8.5-.8.7-1.7.7-2.6v-2.6c0-1.2-.4-2.3-1.2-3.2-1.5-2.9-3.4-4.3-6.7-5.1-.2,0-.4,0-.5-.1-7.7-1.1-15.6-1.8-23.1-2.5-8.2-.8-16.7-1.6-24.9-2.8h-.4c-.5-.1-1.1-.2-1.5-.3-.1-.2-.3-.4-.5-.9-3.5-6.5-6.5-13.9-9.5-21.1-3.3-8-6.7-16.3-10.8-23.8-1.3-2.3-3.6-5.5-8.7-5.5h0Z"/>
      </g>
      <path class="st0" d="M338.4,1003c0,.1.2.2.3.3v2.6c-.9,1.6-2.3,2.8-3.6,4.1-11.3,10.9-23.6,20.9-35,31.7-1.2,1.3-1.9,2.9-1.5,4.8l10.2,49.7c0,1.6-.5,2.6-1.6,3.7l-51.5-72.5v-.6l82.6-23.6Z"/>
      <path class="st8" d="M255.1,1026.3l.3.3-50.8,73.2c-.2-.1-.7-.2-.9-.4-.7-.9-1.1-2.1-1.1-3.3l10.2-49.7c.4-2-.4-3.6-1.7-4.9-10.5-11-24.1-20.8-35-31.7-1.4-1.6-3.2-2.5-3.4-4.9,1,.2,1-.8,0-.6,0-.6.1-.8.3-1.3l81.9,23.3Z"/>
      <path class="st8" d="M338.4,1003l-82.6,23.6h-.3l-.3-.3.6-1.1v-82.1c2.3,0,3.3,1,4.4,2.9,7.7,13.8,12.8,30.8,20.3,44.8,1.7,3.2,2.5,3.2,6,3.7,15.9,2.3,32.2,3.1,48.1,5.3,2.2.6,2.9,1.2,3.8,3.2Z"/>
      <path class="st12" d="M255.8,943.1v82.1s-.6,1.1-.6,1.1l-81.9-23.3c.7-2.1,2-2.7,4.1-3.2,15.1-1.8,30.2-3,45.3-4.9s6.5,0,8.9-4.7c7.2-14.2,12.8-29.8,20-44.2.9-1.9,2.3-2.9,4.4-2.9Z"/>
      <path class="st8" d="M307.3,1099.8c-1.6,1.6-3.1,1.7-5.3.9l-43.7-24.9c-.8-.4-1.6-.6-2.5-.6v-47.9l51.5,72.5Z"/>
      <path class="st1" d="M255.8,1027.3v47.9c-.5,0-.9,0-1.4,0l-45.4,25.6c-1,.5-3.4.3-4.2-.4s-.2-.6-.2-.7l50.8-73.2h.3v.6Z"/>
      <path class="st8" d="M172.9,1004.3c1-.2,1,.8,0,.6,0-.2,0-.4,0-.6Z"/>
    </g>
  </g>
  <g>
    <g>
      <path class="st11" d="M727.4,1026.9h-19.5c0,0-.1,0-.2,0l-9.6,10.5c0,0,0,.2,0,.3l19.4,21.7c0,.1.3.1.4,0l19.4-21.7c0,0,0-.2,0-.3l-9.6-10.5c0,0-.1,0-.2,0Z"/>
      <path class="st0" d="M726.7,1026.9c.5,0,1,.2,1.3.6l8.3,9c.6.7.6,1.7,0,2.3l-17.4,19.4c-.3.4-.8.6-1.3.6s-1-.2-1.3-.6l-17.4-19.4c-.6-.7-.6-1.7,0-2.3l8.3-9c.3-.4.8-.6,1.3-.6h18.2M726.7,1025.7h-18.2c-.8,0-1.6.3-2.1.9l-8.3,9c-1,1.1-1,2.8,0,3.9l17.4,19.4c.6.6,1.3,1,2.2,1s1.6-.4,2.2-1l17.4-19.4c1-1.1,1-2.8,0-3.9l-8.3-9c-.6-.6-1.3-.9-2.1-.9h0Z"/>
    </g>
    <path class="st15" d="M710.6,1049.3l6.3,9.3c1,.4,1.8,0,2.4-.9l14.2-15.9-4.4-6.1-18.5,13.6Z"/>
    <g>
      <g>
        <path class="st8" d="M728.5,1036.1c-.1-.3-.2-.3-.5-.4-2.1-.3-4.2-.4-6.3-.7-.5,0-.6,0-.8-.5-1-1.8-1.6-4.1-2.7-5.9-.1-.2-.3-.4-.6-.4s-.5.1-.6.4c-.9,1.9-1.7,3.9-2.6,5.8-.3.6-.5.5-1.2.6-2,.3-4,.4-5.9.6-.3,0-.4.1-.5.4,0,0,0,0,0,.2,0,0,0,0,0,0,0,.3.3.4.4.6,1.4,1.4,3.2,2.7,4.6,4.1.2.2.3.4.2.6l-1.3,6.5c0,.1,0,.3.1.4,0,0,0,0,.1,0,0,0,0,0,0,0,.1,0,.4.1.6,0l5.9-3.3c0,0,.1,0,.2,0,.1,0,.2,0,.3,0l5.7,3.3c.3.1.5,0,.7-.1.1-.1.2-.3.2-.5l-1.3-6.5c0-.2,0-.5.2-.6,1.5-1.4,3.1-2.7,4.6-4.1.2-.2.3-.3.5-.5v-.3s0,0,0,0Z"/>
        <path class="st2" d="M717.7,1028.3c.3,0,.4.1.6.4,1,1.8,1.7,4,2.7,5.9.2.4.3.4.8.5,2.1.3,4.2.4,6.3.7.3,0,.4.2.5.4,0,0,0,0,0,0v.3c-.1.2-.3.4-.5.5-1.5,1.4-3.1,2.7-4.6,4.1-.2.2-.3.4-.2.6l1.3,6.5c0,.2,0,.3-.2.5-.1.1-.3.2-.4.2s-.2,0-.3,0l-5.7-3.3c-.1,0-.2,0-.3,0,0,0,0,0,0,0s0,0-.1,0l-5.9,3.3c0,0-.1,0-.2,0-.1,0-.3,0-.4,0,0,0,0,0,0,0,0,0,0,0-.1,0,0-.1-.1-.3-.1-.4l1.3-6.5c0-.3,0-.5-.2-.6-1.4-1.4-3.2-2.7-4.6-4.1-.2-.2-.4-.3-.4-.6,0,0,0,0,0,0,0,0,0-.1,0-.2,0-.3.3-.4.5-.4,2-.2,4-.4,5.9-.6.6,0,.8,0,1.2-.6.9-1.9,1.7-3.9,2.6-5.8.1-.2.3-.4.6-.4M717.7,1027.7c-.5,0-.9.3-1.2.8-.5.9-.9,1.9-1.3,2.8-.4,1-.9,2-1.3,2.9,0,.1-.1.2-.1.2,0,0-.2,0-.3,0,0,0-.2,0-.3,0-1.1.1-2.2.3-3.2.4-.9,0-1.8.2-2.7.3,0,0,0,0,0,0-.4,0-.8.3-1,.8h0c0,.1,0,.2,0,.3,0,0,0,.1,0,.2,0,.5.3.7.5.9,0,0,0,0,.1.1,0,0,0,0,0,0,.7.7,1.5,1.3,2.2,2,.8.7,1.7,1.4,2.4,2.1,0,0,0,0,0,0l-1.3,6.5s0,0,0,.1c0,.3,0,.6.3.8,0,0,0,.1.1.1,0,0,.1.1.2.1.3.2.6.2.7.2s.3,0,.5,0c0,0,0,0,0,0l5.8-3.3s0,0,0,0l5.7,3.2s0,0,0,0c.2,0,.4.1.5.1.3,0,.6-.1.8-.4.3-.3.4-.6.4-1,0,0,0,0,0-.1l-1.3-6.5s0,0,0,0c0,0,0,0,0,0,.7-.6,1.4-1.3,2.1-1.9.8-.7,1.7-1.5,2.5-2.3h0c.2-.2.4-.4.5-.7,0-.1,0-.2,0-.3v-.3c0-.2,0-.3-.2-.4-.2-.4-.4-.6-.9-.7,0,0,0,0,0,0-1-.1-2-.2-3-.3-1.1-.1-2.2-.2-3.3-.4h0c0,0-.1,0-.2,0,0,0,0,0,0-.1-.5-.9-.9-1.8-1.2-2.8-.4-1.1-.9-2.1-1.4-3.1-.2-.3-.5-.7-1.1-.7h0Z"/>
      </g>
      <path class="st0" d="M728.5,1036.1s0,0,0,0v.3c-.1.2-.3.4-.5.5-1.5,1.4-3.1,2.7-4.6,4.1-.2.2-.3.4-.2.6l1.3,6.5c0,.2,0,.3-.2.5l-6.7-9.5h0c0,0,10.8-3.2,10.8-3.2Z"/>
      <path class="st8" d="M717.7,1039.2h0s-6.6,9.6-6.6,9.6c0,0,0,0-.1,0,0-.1-.1-.3-.1-.4l1.3-6.5c0-.3,0-.5-.2-.6-1.4-1.4-3.2-2.7-4.6-4.1-.2-.2-.4-.3-.4-.6.1,0,.1-.1,0,0,0,0,0-.1,0-.2l10.7,3Z"/>
      <path class="st8" d="M728.5,1036.1l-10.8,3.1h0s0-.2,0-.2v-10.7c.3,0,.4.1.6.4,1,1.8,1.7,4,2.7,5.9s.3.4.8.5c2.1.3,4.2.4,6.3.7.3,0,.4.2.5.4Z"/>
      <path class="st12" d="M717.7,1028.3v10.7s0,.1,0,.1l-10.7-3c0-.3.3-.4.5-.4,2-.2,4-.4,5.9-.6s.8,0,1.2-.6c.9-1.9,1.7-3.9,2.6-5.8.1-.2.3-.4.6-.4Z"/>
      <path class="st8" d="M724.5,1048.8c-.2.2-.4.2-.7.1l-5.7-3.3c-.1,0-.2,0-.3,0v-6.3l6.7,9.5Z"/>
      <path class="st1" d="M717.7,1039.3v6.3c0,0-.1,0-.2,0l-5.9,3.3c-.1,0-.4,0-.6,0s0,0,0,0l6.6-9.6h0Z"/>
      <path class="st8" d="M706.9,1036.3c.1,0,.1.1,0,0,0,0,0,0,0,0Z"/>
    </g>
  </g>
  <circle class="st13" cx="-202.8" cy="943.8" r="142.9"/>
  <g>
    <g>
      <path class="st8" d="M-202.8,1063.5c-4.7,0-8.7-2.4-10.6-6.4l-109.5-125.8v-6.2l.5-1c1.4-3,3.6-5.3,5.3-7.2,8.6-9.6,18.3-18.9,27.6-27.9,8.5-8.2,17.2-16.6,25.1-25.2l.4-.5.5-.3c2.2-1.5,4.4-1.8,6.1-2,2.5-.2,5.4-.3,8.8-.3s6.3,0,9.4.2c3,0,5.8.2,8.5.2h.5c3.1,0,6.1,0,9.2,0s15.2,0,18.3,0,15.5,0,18.6,0,6.2,0,9.3,0h.5c2.6,0,5.4,0,8.4-.2,3,0,6.2-.2,9.2-.2s6.2.1,8.6.3c1.7.1,3.8.5,6.1,2l.4.3.4.4c4.5,4.5,9,9.1,13.5,13.6,14.1,14.2,28.7,28.8,42.7,43.6l.5.5.3.6c.9,1.8,1.4,3.6,1.5,5.4.2,4.6-2,7.1-3.5,8.8-.4.5-.8,1-1.2,1.4l-.2.3-.2.2c-15.7,17.8-31.6,36-46.9,53.5-18.7,21.4-38,43.6-57.2,65.1-3,5.5-7.5,6.6-10.9,6.6Z"/>
      <path class="st2" d="M-248.6,865.7c6,0,12.3.3,17.9.3s.3,0,.5,0c3,0,6.1,0,9.1,0,6.1,0,12.2,0,18.3,0s12.4,0,18.6,0,6.2,0,9.3,0c.2,0,.3,0,.5,0,5.5,0,11.7-.3,17.6-.3s5.6,0,8.2.3c1.4.1,2.6.4,3.8,1.2,18.8,19,37.8,37.8,56.2,57.1.5,1,.9,2.1,1,3.3.2,3.6-2,4.6-3.8,7.2-35,39.6-69.4,79.7-104.5,119.1-1.4,2.9-3.5,4.5-6.7,4.5s-5.3-1.4-6.3-4l-108.8-125v-3.1c1.1-2.3,2.8-4.2,4.5-6.1,16.3-18.2,36-34.9,52.6-53,1.2-.8,2.4-1,3.8-1.2,2.6-.2,5.4-.3,8.4-.3M-248.6,855.7c-3.6,0-6.6.1-9.2.3-2.1.2-5.2.7-8.4,2.8l-1.1.7-.8.9c-7.7,8.4-16.4,16.8-24.9,24.9-9.4,9.1-19.1,18.4-27.9,28.2-1.8,2-4.3,4.8-6,8.4l-1,2.1v9.2l2.5,2.8,107.9,123.9c2.8,5.2,8.4,8.5,14.7,8.5s11.7-3.1,15-8.7c19.1-21.4,38.3-43.5,56.9-64.7,15.3-17.6,31.2-35.8,46.9-53.5l.4-.5.4-.5c.2-.2.5-.6.8-1,1.8-2,5.1-5.8,4.8-12.3-.1-2.5-.8-4.9-2.1-7.4l-.7-1.3-1-1c-14-14.8-28.7-29.5-42.8-43.7-4.5-4.5-9-9.1-13.5-13.6l-.7-.8-.9-.6c-3.2-2.1-6.3-2.6-8.4-2.8-2.6-.2-5.6-.3-9.1-.3s-6.3,0-9.4.2c-2.9,0-5.7.2-8.2.2h-.5c-3.1,0-6.2,0-9.3,0s-6.2,0-9.3,0c-3.1,0-6.2,0-9.3,0s-6.1,0-9.1,0c-3.1,0-6.1,0-9.2,0s-6.1,0-9.2,0h-.5c-2.6,0-5.4,0-8.4-.2-3.1,0-6.3-.2-9.5-.2h0Z"/>
    </g>
    <path class="st16" d="M-230.2,866l-34.6,61.1c20.7.6,41.3.4,62,.5v130.8c-2.8,0-5.3-1.4-6.3-4l-56-126.3-52.8-.4v-1.3c1.1-2.3,2.8-4.2,4.5-6.1,16.3-18.2,36-34.9,52.6-53,1.2-.8,2.4-1,3.8-1.2,8.2-.7,18.4,0,26.8,0Z"/>
    <polygon class="st8" points="-209.1 1054.4 -317.9 929.4 -317.9 927.6 -265 928.1 -209.1 1054.4"/>
    <path class="st14" d="M-87.7,927.6h-53.1l-1.3,3.9-54,122.4c-1.4,2.9-3.5,4.5-6.7,4.5v-130.8c20.7,0,41.4,0,62,0l-32.9-58.1-1.3-3.4c8.3,0,18.3-.7,26.3,0,1.4.1,2.6.4,3.8,1.2,18.8,19,37.8,37.8,56.2,57.1.5,1,.9,2.1,1,3.3Z"/>
    <path class="st0" d="M-87.7,927.6c.2,3.6-2,4.6-3.8,7.2-35,39.6-69.4,79.7-104.5,119.1l54-122.4,1.3-3.9h53.1Z"/>
    <path class="st9" d="M-202.8,866v61.6c-20.7,0-41.4.1-62-.5l34.6-61.1c9.1,0,18.3,0,27.4,0Z"/>
    <path class="st8" d="M-174.9,866l1.3,3.4,32.9,58.1c-20.7,0-41.4,0-62,0v-61.6c9.3,0,18.6,0,27.9,0Z"/>
  </g>
  <g>
    <circle class="st13" cx="602.7" cy="992.7" r="142.9"/>
    <g>
      <g>
        <path class="st8" d="M663.6,1095.5c-1.2,0-2.4-.2-3.8-.8-.1,0-.3-.1-.4-.2l-57.4-32.7c-.6-.3-1.2-.4-2.1-.4,0,0-.6,0-.7,0s-.1,0-.2,0l-59.1,33.3s-.1,0-.2,0c-.8.4-1.9.6-3.1.6s-3.7-.3-5-1.3c-.3-.2-.7-.6-.9-1.1-.3-.2-.7-.5-1-.9-1.3-1.7-2-3.9-1.9-5.9,0-.1,0-.3,0-.4l13.4-65.2c.2-1.1.2-2.4-1.6-4.3-7.2-7.5-15.7-14.8-24-21.8-7.4-6.3-15.1-12.9-21.9-19.7,0,0,0,0,0,0-.4-.4-.8-.8-1.3-1.3-1.6-1.5-3.5-3.3-3.8-6.5,0-.4,0-.8,0-1.2,0-1,.3-1.6.5-2.1v-.3c1.6-4.2,4.6-5.2,7.2-5.8,0,0,.2,0,.3,0,8.9-1.1,17.9-2,26.7-2.8,10.7-1.1,21.8-2.2,32.7-3.6,1.1-.1,2-.2,2.8-.3,4.1-.4,4.9-.5,6.9-4.5,4.9-9.6,9.3-19.8,13.5-29.8,4-9.3,8.1-19,12.7-28.1,1.5-3.3,4.4-5.2,8-5.2s6.4,2.4,7.9,5.1c5.3,9.5,9.7,20.3,14,30.7,3.9,9.5,7.9,19.4,12.6,28.1q1.6,3,5.5,3.5h.5c10.9,1.7,22.1,2.7,32.9,3.7,9.9.9,20.2,1.9,30.2,3.3,0,0,.2,0,.3,0,3.4.9,5,2.1,6.5,5.1.5.5.8,1.2.8,1.9v3.4c0,.5-.1.9-.4,1.3-1.3,2.2-3.1,3.9-4.8,5.5l-.3.3c-8,7.8-16.5,15.3-24.7,22.5-7,6.2-14.3,12.6-21.1,19.1-1.8,1.9-1.4,3.4-1.3,3.9l13.5,65.2c0,.2,0,.3,0,.5,0,2.7-.8,4.7-2.9,6.7-1.7,1.7-3.6,2.5-5.6,2.5h0Z"/>
        <path class="st2" d="M599.9,885.7c3,0,4.4,1.4,5.7,3.8,10.1,18.1,16.7,40.4,26.6,58.8,2.3,4.2,3.3,4.2,7.8,4.9,20.9,3.1,42.2,4.1,63.1,6.9,2.9.7,3.8,1.5,5,4.1,0,.2.3.3.4.4v3.4c-1.2,2-3,3.7-4.7,5.3-14.8,14.3-30.9,27.4-45.9,41.6-1.6,1.7-2.5,3.9-2,6.3l13.4,65.2c0,2.1-.6,3.4-2.1,4.8-1.3,1.3-2.5,1.8-3.9,1.8s-1.9-.2-3-.6l-57.4-32.7c-1.1-.6-2.1-.8-3.3-.8-.3,0-.5,0-.8,0s-.7,0-1,.1l-59.5,33.6c-.5.2-1.2.3-2,.3-1.3,0-2.8-.3-3.5-.8-.4-.3-.2-.8-.3-.9-.2-.2-.9-.2-1.1-.5-.9-1.2-1.4-2.8-1.4-4.3l13.4-65.2c.6-2.6-.5-4.7-2.2-6.5-13.8-14.4-31.6-27.3-45.9-41.6-1.9-2.1-4.1-3.3-4.4-6.4,0-.3,0-.6,0-.8,0-.8.2-1,.4-1.7,1-2.8,2.6-3.6,5.3-4.2,19.7-2.4,39.7-3.9,59.4-6.5,6.5-.9,8.5,0,11.7-6.2,9.5-18.6,16.8-39.1,26.2-57.9,1.1-2.5,3-3.8,5.7-3.8M599.9,880.7c-4.6,0-8.2,2.4-10.2,6.6-4.6,9.2-8.7,18.8-12.7,28.2-4.2,9.9-8.6,20.1-13.4,29.6-1.1,2.1-1.6,2.6-1.8,2.6-.4.2-1.8.4-3.2.5-.8,0-1.8.2-2.9.3-10.8,1.4-21.9,2.5-32.6,3.6-8.8.9-17.8,1.8-26.7,2.9-.2,0-.3,0-.5,0-3.4.8-7.1,2.3-9,7.4v.2c-.4.8-.6,1.6-.7,2.8,0,.6,0,1.2,0,1.6.4,4.2,2.9,6.5,4.6,8.1.4.4.8.8,1.1,1.1,0,0,.1.1.2.2,6.9,6.9,14.6,13.5,22.1,19.9,8.2,7,16.6,14.2,23.8,21.7,1.1,1.2,1,1.6.9,1.9,0,0,0,0,0,0l-13.4,65.2c0,.3,0,.5,0,.8-.1,2.6.7,5.3,2.4,7.5.4.5.8.9,1.2,1.2.5.6,1,1.1,1.3,1.3,2.2,1.6,5.3,1.8,6.5,1.8s3-.3,4.2-.8c.1,0,.2-.1.3-.2l58.5-33h.2c.6,0,.8,0,1,.2l57.3,32.6c.2.1.5.3.8.4,1.8.6,3.2.9,4.7.9,2.7,0,5.1-1,7.4-3.2,2.5-2.5,3.7-5.1,3.6-8.5,0-.3,0-.6-.1-1l-13.4-65.2s0,0,0-.1c0-.2-.2-.7.7-1.6,6.8-6.4,14-12.8,21-18.9,8.3-7.3,16.8-14.8,24.8-22.6l.3-.3c1.7-1.7,3.7-3.6,5.2-6,.5-.8.7-1.7.7-2.6v-3.4c0-1.2-.5-2.4-1.3-3.3-1.7-3.4-3.9-5.1-7.9-6.1-.2,0-.4,0-.5-.1-10.1-1.4-20.3-2.4-30.3-3.3-10.8-1-22-2.1-32.8-3.7h-.5c-1-.2-2.2-.4-2.6-.5-.1-.1-.4-.5-1.1-1.8-4.6-8.6-8.6-18.4-12.5-27.9-4.3-10.5-8.7-21.4-14.1-31-1.7-3-4.3-6.4-10.1-6.4h0Z"/>
      </g>
      <path class="st0" d="M708.2,964.3c0,.2.3.3.4.4v3.4c-1.2,2-3,3.7-4.7,5.3-14.8,14.3-30.9,27.4-45.9,41.6-1.6,1.7-2.5,3.9-2,6.3l13.4,65.2c0,2.1-.6,3.4-2.1,4.8l-67.5-95.1v-.8l108.3-31Z"/>
      <path class="st8" d="M599.1,994.8l.4.4-66.7,96c-.2-.2-.9-.2-1.1-.5-.9-1.2-1.4-2.8-1.4-4.3l13.4-65.2c.6-2.6-.5-4.7-2.2-6.5-13.8-14.4-31.6-27.3-45.9-41.6-1.9-2.1-4.1-3.3-4.4-6.4,1.3.3,1.3-1.1,0-.8,0-.8.2-1,.4-1.7l107.5,30.6Z"/>
      <path class="st8" d="M708.2,964.3l-108.3,31h-.4l-.4-.4.8-1.5v-107.7c3,0,4.4,1.4,5.7,3.8,10.1,18.1,16.7,40.4,26.6,58.8,2.3,4.2,3.3,4.2,7.8,4.9,20.9,3.1,42.2,4.1,63.1,6.9,2.9.7,3.8,1.5,5,4.1Z"/>
      <path class="st12" d="M599.9,885.7v107.7s-.8,1.5-.8,1.5l-107.5-30.6c1-2.8,2.6-3.6,5.3-4.2,19.7-2.4,39.7-3.9,59.4-6.5s8.5,0,11.7-6.2c9.5-18.6,16.8-39.1,26.2-57.9,1.1-2.5,3-3.8,5.7-3.8Z"/>
      <path class="st8" d="M667.5,1091.3c-2.1,2.1-4.1,2.2-6.9,1.2l-57.4-32.7c-1.1-.6-2.1-.8-3.3-.8v-62.9l67.5,95.1Z"/>
      <path class="st1" d="M599.9,996.1v62.9c-.6,0-1.2,0-1.8,0l-59.5,33.6c-1.4.6-4.4.3-5.6-.5s-.2-.8-.3-.9l66.7-96h.4v.8Z"/>
      <path class="st8" d="M491.2,966c1.3-.2,1.3,1.1,0,.8,0-.3,0-.6,0-.8Z"/>
    </g>
  </g>
  <g>
    <circle class="st13" cx="698.5" cy="1149.2" r="13.6"/>
    <g>
      <g>
        <path class="st8" d="M708.5,1146.5c-.1-.2-.2-.3-.5-.4-2-.3-4-.4-6-.7-.4,0-.5,0-.7-.5-.9-1.7-1.6-3.9-2.5-5.6-.1-.2-.3-.4-.5-.4s-.4.1-.5.4c-.9,1.8-1.6,3.7-2.5,5.5-.3.6-.5.5-1.1.6-1.9.2-3.8.4-5.6.6-.3,0-.4.1-.5.4,0,0,0,0,0,.2,0,0,0,0,0,0,0,.3.2.4.4.6,1.4,1.4,3,2.6,4.4,3.9.2.2.3.4.2.6l-1.3,6.2c0,.1,0,.3.1.4,0,0,0,0,.1,0,0,0,0,0,0,0,.1,0,.4.1.5,0l5.6-3.2c0,0,.1,0,.2,0,.1,0,.2,0,.3,0l5.4,3.1c.3,0,.5,0,.7-.1.1-.1.2-.3.2-.5l-1.3-6.2c0-.2,0-.4.2-.6,1.4-1.3,2.9-2.6,4.4-3.9.2-.2.3-.3.4-.5v-.3s0,0,0,0Z"/>
        <path class="st2" d="M698.2,1139.1c.3,0,.4.1.5.4,1,1.7,1.6,3.8,2.5,5.6.2.4.3.4.7.5,2,.3,4,.4,6,.7.3,0,.4.1.5.4,0,0,0,0,0,0v.3c-.1.2-.3.3-.4.5-1.4,1.4-2.9,2.6-4.4,3.9-.2.2-.2.4-.2.6l1.3,6.2c0,.2,0,.3-.2.5-.1.1-.2.2-.4.2s-.2,0-.3,0l-5.4-3.1c-.1,0-.2,0-.3,0,0,0,0,0,0,0s0,0,0,0l-5.6,3.2s-.1,0-.2,0c-.1,0-.3,0-.3,0,0,0,0,0,0,0,0,0,0,0-.1,0,0-.1-.1-.3-.1-.4l1.3-6.2c0-.2,0-.4-.2-.6-1.3-1.4-3-2.6-4.4-3.9-.2-.2-.4-.3-.4-.6,0,0,0,0,0,0,0,0,0,0,0-.2,0-.3.2-.3.5-.4,1.9-.2,3.8-.4,5.6-.6.6,0,.8,0,1.1-.6.9-1.8,1.6-3.7,2.5-5.5.1-.2.3-.4.5-.4M698.2,1138.1c-.6,0-1.1.3-1.4.9-.4.9-.8,1.8-1.2,2.7-.4.9-.8,1.9-1.3,2.8,0,0,0,0,0,0,0,0,0,0,0,0,0,0-.2,0-.3,0-1,.1-2.1.2-3.1.3-.8,0-1.7.2-2.5.3,0,0,0,0,0,0-.2,0-.9.2-1.2,1h0c0,0,0,.2,0,.4,0,0,0,.2,0,.2,0,.6.4.9.6,1.1,0,0,0,0,0,0,0,0,0,0,0,0,.7.7,1.4,1.3,2.1,1.9.8.7,1.5,1.3,2.2,2l-1.2,6s0,0,0,.1c0,.3,0,.7.3,1,0,0,.1.1.2.2,0,0,.1.1.2.2.3.2.7.3.9.3s.4,0,.6-.1c0,0,0,0,0,0l5.4-3,5.3,3s0,0,.1,0c.2,0,.4.1.6.1.4,0,.7-.1,1-.4.3-.3.5-.7.5-1.1,0,0,0-.1,0-.2l-1.2-6c.6-.6,1.2-1.1,1.9-1.7.8-.7,1.6-1.4,2.4-2.2h0c.2-.2.4-.4.6-.7,0-.1.1-.3.1-.5v-.3c0-.2,0-.4-.2-.6-.2-.4-.5-.6-1-.8,0,0,0,0-.1,0-1-.1-1.9-.2-2.9-.3-1,0-2.1-.2-3.1-.3h0s0,0,0,0c-.4-.8-.8-1.7-1.1-2.6-.4-1-.8-2.1-1.4-3-.1-.2-.5-.8-1.4-.8h0Z"/>
      </g>
      <path class="st0" d="M708.5,1146.5s0,0,0,0v.3c-.1.2-.3.3-.4.5-1.4,1.4-2.9,2.6-4.4,3.9-.2.2-.2.4-.2.6l1.3,6.2c0,.2,0,.3-.2.5l-6.4-9h0c0,0,10.3-3,10.3-3Z"/>
      <path class="st8" d="M698.1,1149.4h0s-6.3,9.1-6.3,9.1c0,0,0,0-.1,0,0-.1-.1-.3-.1-.4l1.3-6.2c0-.2,0-.4-.2-.6-1.3-1.4-3-2.6-4.4-3.9-.2-.2-.4-.3-.4-.6.1,0,.1-.1,0,0,0,0,0,0,0-.2l10.2,2.9Z"/>
      <path class="st8" d="M708.5,1146.5l-10.3,2.9h0s0-.2,0-.2v-10.2c.3,0,.4.1.5.4,1,1.7,1.6,3.8,2.5,5.6s.3.4.7.5c2,.3,4,.4,6,.7.3,0,.4.1.5.4Z"/>
      <path class="st12" d="M698.2,1139.1v10.2s0,.1,0,.1l-10.2-2.9c0-.3.2-.3.5-.4,1.9-.2,3.8-.4,5.6-.6s.8,0,1.1-.6c.9-1.8,1.6-3.7,2.5-5.5.1-.2.3-.4.5-.4Z"/>
      <path class="st8" d="M704.6,1158.5c-.2.2-.4.2-.7.1l-5.4-3.1c-.1,0-.2,0-.3,0v-6l6.4,9Z"/>
      <path class="st1" d="M698.2,1149.5v6c0,0-.1,0-.2,0l-5.6,3.2c-.1,0-.4,0-.5,0s0,0,0,0l6.3-9.1h0Z"/>
      <path class="st8" d="M687.9,1146.7c.1,0,.1.1,0,0,0,0,0,0,0,0Z"/>
    </g>
  </g>
  <rect class="st2" x="2283.5" y="762" width="184.6" height="41.6" rx="20.8" ry="20.8"/>
  <g>
    <g>
      <circle class="st3" cx="2441.4" cy="782.8" r="20.8"/>
      <g>
        <g>
          <path class="st8" d="M2454.3,780c0-.1,0-.3-.1-.4-2.1-2.2-4.2-4.3-6.3-6.4-.1,0-.3-.1-.4-.1-.9,0-2,0-3,0-1,0-2.1,0-3.1,0s-2.1,0-3.1,0c-.9,0-2.1,0-3,0-.2,0-.3,0-.4.1-1.9,2-4.1,3.9-5.9,5.9-.2.2-.4.4-.5.7v.4l12.2,14c.1.3.4.5.7.5s.6-.2.8-.5c3.9-4.4,7.8-8.9,11.7-13.4.2-.3.4-.4.4-.8Z"/>
          <path class="st4" d="M2436.3,773.1c.7,0,1.4,0,2,0s0,0,0,0c.3,0,.7,0,1,0,.7,0,1.4,0,2.1,0s1.4,0,2.1,0,.7,0,1,0c0,0,0,0,0,0,.6,0,1.3,0,2,0s.6,0,.9,0c.2,0,.3,0,.4.1,2.1,2.1,4.2,4.2,6.3,6.4,0,.1.1.2.1.4,0,.4-.2.5-.4.8-3.9,4.4-7.8,8.9-11.7,13.4-.2.3-.4.5-.8.5s-.6-.2-.7-.5l-12.2-14v-.4c.1-.3.3-.5.5-.7,1.8-2,4-3.9,5.9-5.9.1,0,.3-.1.4-.1.3,0,.6,0,.9,0M2436.3,771.9c-.4,0-.7,0-1,0-.2,0-.6,0-.9.3h-.1c0,0,0,.2,0,.2-.9.9-1.8,1.9-2.8,2.8-1.1,1-2.1,2.1-3.1,3.2-.2.2-.5.5-.7.9v.2c-.1,0-.1.3-.1.3v.8l.3.3,12.1,13.9c.3.6.9,1,1.7,1s1.3-.3,1.7-1c2.1-2.4,4.3-4.9,6.4-7.3,1.7-2,3.5-4,5.3-6h0c0,0,0-.1,0-.1,0,0,0,0,0-.1.2-.2.6-.6.5-1.4,0-.3,0-.6-.2-.8h0c0-.1-.1-.3-.1-.3-1.6-1.7-3.2-3.3-4.8-4.9-.5-.5-1-1-1.5-1.5h0c0,0,0-.1,0-.1-.4-.2-.7-.3-.9-.3-.3,0-.6,0-1,0s-.7,0-1.1,0c-.3,0-.6,0-.9,0h0c-.3,0-.7,0-1,0s-.7,0-1,0c-.3,0-.7,0-1,0s-.7,0-1,0c-.3,0-.7,0-1,0s-.7,0-1,0h0c-.3,0-.6,0-.9,0-.3,0-.7,0-1.1,0h0Z"/>
        </g>
        <path class="st16" d="M2438.3,773.1l-3.9,6.9c2.3,0,4.6,0,7,0v14.7c-.3,0-.6-.2-.7-.5l-6.3-14.2h-5.9v-.2c.1-.3.3-.5.5-.7,1.8-2,4-3.9,5.9-5.9.1,0,.3-.1.4-.1.9,0,2.1,0,3,0Z"/>
        <polygon class="st8" points="2440.7 794.2 2428.5 780.2 2428.5 780 2434.4 780.1 2440.7 794.2"/>
        <path class="st14" d="M2454.3,780h-6v.4c-.1,0-6.2,13.7-6.2,13.7-.2.3-.4.5-.8.5v-14.7c2.3,0,4.6,0,7,0l-3.7-6.5v-.4c.8,0,1.9,0,2.8,0s.3,0,.4.1c2.1,2.1,4.2,4.2,6.3,6.4,0,.1.1.2.1.4Z"/>
        <path class="st0" d="M2454.3,780c0,.4-.2.5-.4.8-3.9,4.4-7.8,8.9-11.7,13.4l6.1-13.7v-.4h6.1Z"/>
        <path class="st9" d="M2441.4,773.1v6.9c-2.3,0-4.6,0-7,0l3.9-6.9c1,0,2.1,0,3.1,0Z"/>
        <path class="st8" d="M2444.5,773.1v.4c.1,0,3.8,6.5,3.8,6.5-2.3,0-4.6,0-7,0v-6.9c1,0,2.1,0,3.1,0Z"/>
      </g>
    </g>
    <path class="st7" d="M2443.7,774.8c2.6,0,4.7,2.1,4.7,4.7,0-2.6,2.1-4.7,4.7-4.7-2.6,0-4.7-2.1-4.7-4.7,0,2.6-2.1,4.7-4.7,4.7Z"/>
  </g>
  <g>
    <g>
      <circle class="st2" cx="1824.1" cy="782.8" r="26.7"/>
      <g>
        <g>
          <path class="st8" d="M1840.7,779.2c0-.2,0-.3-.1-.5-2.7-2.8-5.4-5.5-8.1-8.2-.2-.1-.3-.2-.5-.2-1.2-.1-2.6,0-3.8,0-1.3,0-2.7,0-4,0s-2.6,0-4,0c-1.2,0-2.7-.1-3.9,0-.2,0-.4,0-.5.2-2.4,2.6-5.2,5-7.6,7.6-.2.3-.5.6-.6.9v.5l15.7,18c.1.4.5.6.9.6s.8-.2,1-.6c5.1-5.7,10-11.5,15.1-17.2.3-.4.6-.5.6-1Z"/>
          <path class="st4" d="M1817.5,770.3c.9,0,1.8,0,2.6,0s0,0,0,0c.4,0,.9,0,1.3,0,.9,0,1.8,0,2.6,0s1.8,0,2.7,0,.9,0,1.3,0c0,0,0,0,0,0,.8,0,1.7,0,2.5,0s.8,0,1.2,0c.2,0,.4,0,.5.2,2.7,2.7,5.5,5.5,8.1,8.2,0,.2.1.3.1.5,0,.5-.3.7-.6,1-5.1,5.7-10,11.5-15.1,17.2-.2.4-.5.6-1,.6s-.8-.2-.9-.6l-15.7-18v-.5c.2-.3.4-.6.6-.9,2.3-2.6,5.2-5,7.6-7.6.2-.1.3-.2.5-.2.4,0,.8,0,1.2,0M1817.5,768.8c-.5,0-.9,0-1.3,0-.3,0-.7,0-1.2.4h-.2c0,0-.1.2-.1.2-1.1,1.2-2.4,2.4-3.6,3.6-1.4,1.3-2.8,2.7-4,4.1-.3.3-.6.7-.9,1.2v.3c-.1,0-.1.3-.1.3v1l.4.4,15.6,17.9c.4.8,1.2,1.2,2.1,1.2s1.7-.4,2.2-1.3c2.8-3.1,5.5-6.3,8.2-9.3,2.2-2.5,4.5-5.2,6.8-7.7h0c0,0,0-.1,0-.1,0,0,0,0,.1-.1.3-.3.7-.8.7-1.8,0-.4-.1-.7-.3-1.1v-.2c0,0-.2-.2-.2-.2-2-2.1-4.1-4.3-6.2-6.3-.7-.7-1.3-1.3-1.9-2h-.1c0-.1-.1-.2-.1-.2-.5-.3-.9-.4-1.2-.4-.4,0-.8,0-1.3,0s-.9,0-1.4,0c-.4,0-.8,0-1.2,0h0c-.4,0-.9,0-1.3,0s-.9,0-1.3,0c-.4,0-.9,0-1.3,0s-.9,0-1.3,0c-.4,0-.9,0-1.3,0s-.9,0-1.3,0h0c-.4,0-.8,0-1.2,0-.4,0-.9,0-1.4,0h0Z"/>
        </g>
        <path class="st16" d="M1820.1,770.3l-5,8.8c3,0,6,0,9,0v18.9c-.4,0-.8-.2-.9-.6l-8.1-18.2h-7.6v-.3c.2-.3.4-.6.6-.9,2.3-2.6,5.2-5,7.6-7.6.2-.1.3-.2.5-.2,1.2-.1,2.6,0,3.9,0Z"/>
        <polygon class="st8" points="1823.2 797.5 1807.5 779.5 1807.5 779.2 1815.1 779.3 1823.2 797.5"/>
        <path class="st14" d="M1840.7,779.2h-7.7l-.2.6-7.8,17.7c-.2.4-.5.6-1,.6v-18.9c3,0,6,0,9,0l-4.7-8.4-.2-.5c1.2,0,2.6-.1,3.8,0s.4,0,.5.2c2.7,2.7,5.5,5.5,8.1,8.2,0,.2.1.3.1.5Z"/>
        <path class="st0" d="M1840.7,779.2c0,.5-.3.7-.6,1-5.1,5.7-10,11.5-15.1,17.2l7.8-17.7.2-.6h7.7Z"/>
        <path class="st9" d="M1824.1,770.3v8.9c-3,0-6,0-9,0l5-8.8c1.3,0,2.6,0,4,0Z"/>
        <path class="st8" d="M1828.1,770.3l.2.5,4.7,8.4c-3,0-6,0-9,0v-8.9c1.3,0,2.7,0,4,0Z"/>
      </g>
    </g>
    <path class="st7" d="M1827,772.5c3.3,0,6,2.7,6,6,0-3.3,2.7-6,6-6-3.3,0-6-2.7-6-6,0,3.3-2.7,6-6,6Z"/>
  </g>
  <g>
    <g>
      <circle class="st2" cx="190.7" cy="190.7" r="190.7"/>
      <g>
        <g>
          <path class="st8" d="M309.1,165.4c0-1.2-.4-2.3-1-3.4-18.9-19.9-38.4-39.3-57.8-58.8-1.2-.8-2.5-1.1-3.9-1.2-8.3-.7-18.6,0-27.1,0-9.6,0-19.1,0-28.7,0s-18.8,0-28.2,0c-8.7,0-19.1-.8-27.5,0-1.4.1-2.7.4-3.9,1.2-17.1,18.6-37.4,35.8-54.1,54.5-1.7,1.9-3.5,3.9-4.6,6.3v3.2l111.9,128.6c1,2.8,3.6,4.2,6.5,4.2s5.5-1.7,6.9-4.6c36.1-40.5,71.5-81.9,107.5-122.5,1.8-2.7,4.1-3.7,3.9-7.4Z"/>
          <path class="st5" d="M143.5,101.7c6.2,0,12.7.3,18.4.3s.4,0,.5,0c3.1,0,6.3,0,9.4,0,6.3,0,12.5,0,18.8,0s12.7,0,19.1,0,6.4,0,9.6,0c.2,0,.4,0,.5,0,5.7,0,12.1-.3,18.1-.3s5.8,0,8.4.3c1.4.1,2.7.4,3.9,1.2,19.3,19.5,38.9,38.9,57.8,58.8.6,1.1.9,2.2,1,3.4.2,3.7-2.1,4.7-3.9,7.4-36,40.7-71.4,82-107.5,122.5-1.4,2.9-3.6,4.6-6.9,4.6s-5.5-1.4-6.5-4.2l-111.9-128.6v-3.2c1.1-2.3,2.9-4.3,4.6-6.3,16.8-18.7,37.1-35.9,54.1-54.5,1.2-.8,2.5-1.1,3.9-1.2,2.7-.2,5.6-.3,8.6-.3M143.5,91.4c-3.7,0-6.8.1-9.5.4-2.1.2-5.3.7-8.6,2.8l-1.1.7-.9,1c-8,8.7-16.9,17.3-25.6,25.6-9.7,9.3-19.7,18.9-28.7,29-1.9,2.1-4.4,4.9-6.2,8.6l-1,2.1v9.5l2.5,2.9,111,127.5c2.9,5.4,8.6,8.8,15.2,8.8s12-3.2,15.4-9c19.7-22.1,39.4-44.7,58.5-66.6,15.8-18.1,32.1-36.8,48.3-55.1l.4-.5.4-.5c.2-.2.5-.6.8-1,1.8-2.1,5.2-5.9,4.9-12.7-.1-2.6-.8-5.1-2.1-7.6l-.7-1.3-1-1.1c-14.5-15.2-29.5-30.3-44-44.9-4.6-4.7-9.3-9.3-13.9-14l-.8-.8-.9-.6c-3.3-2.1-6.5-2.6-8.6-2.8-2.7-.2-5.7-.4-9.3-.4s-6.5,0-9.6.2c-3,0-5.8.2-8.5.2h-.5c-3.2,0-6.4,0-9.6,0s-6.4,0-9.6,0c-3.2,0-6.4,0-9.5,0s-6.3,0-9.4,0c-3.1,0-6.3,0-9.4,0s-6.3,0-9.4,0h-.5c-2.7,0-5.6,0-8.6-.2-3.2,0-6.5-.2-9.8-.2h0Z"/>
        </g>
        <path class="st16" d="M162.5,102l-35.6,62.9c21.2.6,42.5.4,63.8.5v134.6c-2.9,0-5.5-1.4-6.5-4.2l-57.6-130-54.3-.5v-1.4c1.1-2.3,2.9-4.3,4.6-6.3,16.8-18.7,37.1-35.9,54.1-54.5,1.2-.8,2.5-1.1,3.9-1.2,8.4-.7,18.9,0,27.5,0Z"/>
        <polygon class="st8" points="184.2 295.8 72.3 167.2 72.3 165.4 126.6 165.8 184.2 295.8"/>
        <path class="st14" d="M309.1,165.4h-54.6l-1.3,4-55.6,125.9c-1.4,2.9-3.6,4.6-6.9,4.6v-134.6c21.3,0,42.6,0,63.8,0l-33.8-59.8-1.3-3.5c8.5,0,18.8-.7,27.1,0,1.4.1,2.7.4,3.9,1.2,19.3,19.5,38.9,38.9,57.8,58.8.6,1.1.9,2.2,1,3.4Z"/>
        <path class="st0" d="M309.1,165.4c.2,3.7-2.1,4.7-3.9,7.4-36,40.7-71.4,82-107.5,122.5l55.6-125.9,1.3-4h54.6Z"/>
        <path class="st9" d="M190.7,102v63.4c-21.3,0-42.6.1-63.8-.5l35.6-62.9c9.4,0,18.8,0,28.2,0Z"/>
        <path class="st8" d="M219.3,102l1.3,3.5,33.8,59.8c-21.3,0-42.6,0-63.8,0v-63.4c9.6,0,19.1,0,28.7,0Z"/>
      </g>
    </g>
    <g>
      <path class="st6" d="M211.4,117.5c23.8,0,43,19.3,43.1,43.1,0-23.8,19.3-43,43.1-43.1-23.8,0-43-19.3-43.1-43.1,0,23.8-19.3,43-43.1,43.1Z"/>
      <path class="st6" d="M254.5,164h0c-1.8,0-3.3-1.5-3.3-3.3,0-21.9-17.9-39.7-39.8-39.8-1.8,0-3.3-1.5-3.3-3.3s1.5-3.3,3.3-3.3c21.9,0,39.7-17.9,39.8-39.8,0-1.8,1.5-3.3,3.3-3.3s3.3,1.5,3.3,3.3c0,21.9,17.9,39.7,39.8,39.8,1.8,0,3.3,1.5,3.3,3.3s-1.5,3.3-3.3,3.3c-21.9,0-39.7,17.9-39.8,39.8,0,1.8-1.5,3.3-3.3,3.3ZM228.6,117.5c11.8,4.7,21.2,14.2,25.9,25.9,4.7-11.8,14.2-21.2,25.9-25.9-11.8-4.7-21.2-14.2-25.9-25.9-4.7,11.8-14.2,21.2-25.9,25.9Z"/>
    </g>
  </g>
  <text class="st10" transform="translate(2303 789.5)"><tspan x="0" y="0">Super coach</tspan></text>
</svg>