<?xml version="1.0" encoding="UTF-8"?>
<svg id="Calque_1" xmlns="http://www.w3.org/2000/svg" version="1.1" viewBox="0 0 381.3 381.3">
  <!-- Generator: Adobe Illustrator 29.8.5, SVG Export Plug-In . SVG Version: 2.1.1 Build 2)  -->
  <defs>
    <style>
      .st0 {
        fill: #267d8c;
      }

      .st1 {
        fill: #ffc449;
      }

      .st2 {
        fill: #47a8b8;
      }

      .st3 {
        fill: #c3f2fe;
      }

      .st4 {
        fill: #fff;
      }

      .st5 {
        fill: #70c3d2;
      }

      .st6 {
        fill: #9feafe;
      }
    </style>
  </defs>
  <g>
    <g>
      <path class="st2" d="M309.1,165.4c0-1.2-.4-2.3-1-3.4-18.9-19.9-38.4-39.3-57.8-58.8-1.2-.8-2.5-1.1-3.9-1.2-8.3-.7-18.6,0-27.1,0-9.6,0-19.1,0-28.7,0s-18.8,0-28.2,0c-8.7,0-19.1-.8-27.5,0-1.4.1-2.7.4-3.9,1.2-17.1,18.6-37.4,35.8-54.1,54.5-1.7,1.9-3.5,3.9-4.6,6.3v3.2l111.9,128.6c1,2.8,3.6,4.2,6.5,4.2s5.5-1.7,6.9-4.6c36.1-40.5,71.5-81.9,107.5-122.5,1.8-2.7,4.1-3.7,3.9-7.4Z"/>
      <path class="st4" d="M143.5,101.7c6.2,0,12.7.3,18.4.3s.4,0,.5,0c3.1,0,6.3,0,9.4,0,6.3,0,12.5,0,18.8,0s12.7,0,19.1,0,6.4,0,9.6,0c.2,0,.4,0,.5,0,5.7,0,12.1-.3,18.1-.3s5.8,0,8.4.3c1.4.1,2.7.4,3.9,1.2,19.3,19.5,38.9,38.9,57.8,58.8.6,1.1.9,2.2,1,3.4.2,3.7-2.1,4.7-3.9,7.4-36,40.7-71.4,82-107.5,122.5-1.4,2.9-3.6,4.6-6.9,4.6s-5.5-1.4-6.5-4.2l-111.9-128.6v-3.2c1.1-2.3,2.9-4.3,4.6-6.3,16.8-18.7,37.1-35.9,54.1-54.5,1.2-.8,2.5-1.1,3.9-1.2,2.7-.2,5.6-.3,8.6-.3M143.5,91.4c-3.7,0-6.8.1-9.5.4-2.1.2-5.3.7-8.6,2.8l-1.1.7-.9,1c-8,8.7-16.9,17.3-25.6,25.6-9.7,9.3-19.7,18.9-28.7,29-1.9,2.1-4.4,4.9-6.2,8.6l-1,2.1v9.5l2.5,2.9,111,127.5c2.9,5.4,8.6,8.8,15.2,8.8s12-3.2,15.4-9c19.7-22.1,39.4-44.7,58.5-66.6,15.8-18.1,32.1-36.8,48.3-55.1l.4-.5.4-.5c.2-.2.5-.6.8-1,1.8-2.1,5.2-5.9,4.9-12.7-.1-2.6-.8-5.1-2.1-7.6l-.7-1.3-1-1.1c-14.5-15.2-29.5-30.3-44-44.9-4.6-4.7-9.3-9.3-13.9-14l-.8-.8-.9-.6c-3.3-2.1-6.5-2.6-8.6-2.8-2.7-.2-5.7-.4-9.3-.4s-6.5,0-9.6.2c-3,0-5.8.2-8.5.2h-.5c-3.2,0-6.4,0-9.6,0s-6.4,0-9.6,0c-3.2,0-6.4,0-9.5,0s-6.3,0-9.4,0c-3.1,0-6.3,0-9.4,0s-6.3,0-9.4,0h-.5c-2.7,0-5.6,0-8.6-.2-3.2,0-6.5-.2-9.8-.2h0Z"/>
    </g>
    <path class="st6" d="M162.5,102l-35.6,62.9c21.2.6,42.5.4,63.8.5v134.6c-2.9,0-5.5-1.4-6.5-4.2l-57.6-130-54.3-.5v-1.4c1.1-2.3,2.9-4.3,4.6-6.3,16.8-18.7,37.1-35.9,54.1-54.5,1.2-.8,2.5-1.1,3.9-1.2,8.4-.7,18.9,0,27.5,0Z"/>
    <polygon class="st2" points="184.2 295.8 72.3 167.2 72.3 165.4 126.6 165.8 184.2 295.8"/>
    <path class="st5" d="M309.1,165.4h-54.6l-1.3,4-55.6,125.9c-1.4,2.9-3.6,4.6-6.9,4.6v-134.6c21.3,0,42.6,0,63.8,0l-33.8-59.8-1.3-3.5c8.5,0,18.8-.7,27.1,0,1.4.1,2.7.4,3.9,1.2,19.3,19.5,38.9,38.9,57.8,58.8.6,1.1.9,2.2,1,3.4Z"/>
    <path class="st0" d="M309.1,165.4c.2,3.7-2.1,4.7-3.9,7.4-36,40.7-71.4,82-107.5,122.5l55.6-125.9,1.3-4h54.6Z"/>
    <path class="st3" d="M190.7,102v63.4c-21.3,0-42.6.1-63.8-.5l35.6-62.9c9.4,0,18.8,0,28.2,0Z"/>
    <path class="st2" d="M219.3,102l1.3,3.5,33.8,59.8c-21.3,0-42.6,0-63.8,0v-63.4c9.6,0,19.1,0,28.7,0Z"/>
  </g>
  <g>
    <path class="st1" d="M211.4,117.5c23.8,0,43,19.3,43.1,43.1,0-23.8,19.3-43,43.1-43.1-23.8,0-43-19.3-43.1-43.1,0,23.8-19.3,43-43.1,43.1Z"/>
    <path class="st1" d="M254.5,164h0c-1.8,0-3.3-1.5-3.3-3.3,0-21.9-17.9-39.7-39.8-39.8-1.8,0-3.3-1.5-3.3-3.3s1.5-3.3,3.3-3.3c21.9,0,39.7-17.9,39.8-39.8,0-1.8,1.5-3.3,3.3-3.3s3.3,1.5,3.3,3.3c0,21.9,17.9,39.7,39.8,39.8,1.8,0,3.3,1.5,3.3,3.3s-1.5,3.3-3.3,3.3c-21.9,0-39.7,17.9-39.8,39.8,0,1.8-1.5,3.3-3.3,3.3ZM228.6,117.5c11.8,4.7,21.2,14.2,25.9,25.9,4.7-11.8,14.2-21.2,25.9-25.9-11.8-4.7-21.2-14.2-25.9-25.9-4.7,11.8-14.2,21.2-25.9,25.9Z"/>
  </g>
</svg>