<svg width="33" height="28" viewBox="0 0 33 28" fill="currentColor" xmlns="http://www.w3.org/2000/svg">
  <path d="M31.2886 19.1158L20.5073 2.09433C19.6 0.787041 18.0922 0 16.5044 0C14.9165 0 13.4088 0.773702 12.4614 2.13435L1.73355 19.0891C0.372548 21.0367 0.119029 23.3711 1.06639 25.172C2.00041 26.9728 3.96185 28 6.41698 28H26.5918C29.0603 28 31.0083 26.9728 31.9424 25.172C32.8764 23.3711 32.6229 21.05 31.2886 19.1158ZM15.1701 8.00381C15.1701 7.27013 15.7705 6.66984 16.5044 6.66984C17.2382 6.66984 17.8387 7.27013 17.8387 8.00381V16.0076C17.8387 16.7413 17.2382 17.3416 16.5044 17.3416C15.7705 17.3416 15.1701 16.7413 15.1701 16.0076V8.00381ZM16.5044 24.0114C15.3969 24.0114 14.5029 23.1177 14.5029 22.0105C14.5029 20.9033 15.3969 20.0095 16.5044 20.0095C17.6119 20.0095 18.5058 20.9033 18.5058 22.0105C18.5058 23.1177 17.6119 24.0114 16.5044 24.0114Z" />
</svg>
